<?xml version="1.0" encoding="UTF-8"?>
<svg xmlns="http://www.w3.org/2000/svg" xmlns:svg="http://www.w3.org/2000/svg" xmlns:sodipodi="http://sodipodi.sourceforge.net/DTD/sodipodi-0.dtd" xmlns:rdf="http://www.w3.org/1999/02/22-rdf-syntax-ns#" xmlns:inkscape="http://www.inkscape.org/namespaces/inkscape" xmlns:dc="http://purl.org/dc/elements/1.1/" xmlns:cc="http://creativecommons.org/ns#" version="1.1" viewBox="0 0 439.4 640.1">
  <!-- Generator: Adobe Illustrator 29.5.1, SVG Export Plug-In . SVG Version: 2.1.0 Build 141)  -->
  <defs>
    <style>
      .st0 {
        fill: #c6ecff;
      }

      .st1, .st2 {
        stroke-width: 1.2px;
      }

      .st1, .st2, .st3, .st4, .st5, .st6, .st7, .st8, .st9, .st10, .st11 {
        fill: none;
      }

      .st1, .st2, .st6, .st11 {
        stroke: #646464;
      }

      .st1, .st11 {
        stroke-linecap: square;
        stroke-linejoin: bevel;
      }

      .st2, .st6 {
        stroke-miterlimit: 25.9;
      }

      .st3, .st4 {
        stroke: #802626;
      }

      .st3, .st4, .st5, .st7, .st9, .st10 {
        stroke-miterlimit: 10;
      }

      .st3, .st7, .st9 {
        stroke-width: 5px;
      }

      .st4, .st5, .st10 {
        stroke-width: 15px;
      }

      .st5, .st7 {
        stroke: #552966;
      }

      .st6, .st11 {
        stroke-width: 1.9px;
      }

      .st12 {
        fill: #fff;
      }

      .st8 {
        stroke: #84bcd5;
        stroke-miterlimit: 11.3;
        stroke-width: 1.1px;
      }

      .st13 {
        fill: #fefee9;
      }

      .st9, .st10 {
        stroke: #2b643c;
      }
    </style>
  </defs>
  <g id="Layer_1">
    <g id="svg1951" inkscape:version="1.1.1 (3bf5ae0d25, 2021-09-20)" sodipodi:docname="Ernakulam.svg">
      <sodipodi:namedview id="base" bordercolor="#666666" borderopacity="1.0" fit-margin-bottom="0" fit-margin-left="0" fit-margin-right="0" fit-margin-top="0" inkscape:current-layer="svg1951" inkscape:cx="546.61492" inkscape:cy="1097.5537" inkscape:document-rotation="0" inkscape:document-units="px" inkscape:pagecheckerboard="0" inkscape:pageopacity="0.0" inkscape:pageshadow="2" inkscape:window-height="1001" inkscape:window-maximized="1" inkscape:window-width="1920" inkscape:window-x="-9" inkscape:window-y="-9" inkscape:zoom="21.855422" pagecolor="#ffffff" showgrid="false"/>
      <g>
        <path id="path4248" class="st12" d="M264.6,403.5c-.4.3-.9.7-1.4,1,0,.4,1,.8.5,1-.3.3-.5.2-.7,0-.3.7-.7-.4-1.2-.3-.6-.3-1,0-1.5.3-.3.3-1,0-.8.6-.1.5-.1.9,0,1.4-.2.4-.8,1.2-1.3.8-.5-.6-1.1,0-1.4.5-.4.5-.1,1.4-.4,1.8-.4,0-1.3.8-1.4,0-.1-.4-.6-.4-.4-.9.1-.4-.4-.6-.3-1.1,0-.8-.8-.7-1.4-.8h-.9c-.4-1.1-.7-2.1-1.1-3.3-.6-.3-1.6-.4-2.3-.3-.6-.3-.8.5-1.4.6-.7-.2-1.9-1.6-2.4.5-.6.1-.7-.4-1-.1-.6.5-1.2,1-1.6,1.6-.9.4-1.8.8-2.8,1.1-.6.3-1.4,0-1.9-.4-.2-.1-.3-.3-.6-.3l-1.1-.6-.7-.6c0,.5-.1,1.1-.2,1.6,0,1.4-1.8,2-1.6,3.3.6,1.2.9,2.4,1.2,3.7.6,1.4,1.3,3,1.1,4.6-.3,1.3-1.4,2.6-.9,3.9,1.1.7,2.5,1.2,2.9,2.5.4,1.8-.6,3.6-.4,5.5.3,1.8.9,3.5.9,5.3,0,1.4.8,2.5,1.4,3.6.1,1.1.9,1.1,1.8,1.4.6.2,1,.3,1,.3l3.6,1.3v1.7c.1,0,.3,1,.3,1v2.1c0,.2,0,.4.2.6.4,0,.8,0,1.3.1.6.3,1.1.6,1.8.4.4.6.3,1.3.1,1.9,0,.6,0,1.3-.2,1.9.3.6-.2,1.1-.5,1.6-.4.6-.4,1.3-.5,1.9-.3.6.1.8.6.9.3.1,1.1.4.9.8,0,.3-.8.8-.3.9,0,.4.3.8.2,1.1-.3.5,0,1.2,0,1.8l.8.3h0v-.9c.6,0,1.3.2,1.4-.6.5.3.6-.9,1.1-.3.9.1.9-1.4,1.9-.8.8.3.3,1.7,1.4,1.2.9-.1,1.4-1.3,2.4-1.3s1.4,1.2,1.8.4c-.3-.7-.8-1.2-.4-2,0-.6-.6-1.4.3-1.6.6-.3,1.1-.3.9-1.1,0-1.1,1,.8.9-.2,0-.9,1.6-.4,2.1-.4-.4-.4.2-1.8.7-1.1.2.5.6.8.8.1.3-.6.1-1.3,1-1.4.9-.4,2.1-.4,3.1-.3.7-.3,1.3-.1,1.8.3.8,0,2.1,0,1.8,1.2,0,.7.7,1.1.9,1.7.9.4,1.2-.8,2.1-.8.6-.1,1.1-.4.9-1.1.4-.6,1.6-.3,2.1-.3.3.7.9,1.4.4,2.1-.3.9,1.2,0,1.1,1,0,.9.8,1.4,1.5.9.8-.5,1.8-.9,2.6-.5.4-.6,0-1.3.9-.8.1-.7.9-.3,1.3-.4.6-.2,1.3,0,1.6.7.4.8.8-.5,1.3-.3.7,0,1.3.6,2,.4.4-.3.4-1.2.7-1.2.8.5,1.4,1.1,2.3,1.3.8,0,1.6.2,2.2.7.7.6,1.5,1.1,2.3,1.6.5.2,1.3,0,1.6.4,0,.5.2,1.1.8.8.4-.2.8-.5,1.2-.5,0-.3,0-.6.1-.9.3-.5.8-.9.2-1.1-.7-.6.5-1,1-1.1.6-.5.9-1.2,1.4-1.8.9-.4,1.9-.6,2.9-.8.4-.6.4-1.4,0-1.9.4-.6-.5-1.3-.7-1.8-.3-.6-1-1.3-1.5-1.2-.6.4-.9.9-1.2,1.6-.4.8-1.4,0-1.8-.6-.4-.4-.6-1-1.3-.6-1.1-.8-2.1-1.8-3.1-2.7-.3-.5-.3-1.3-.7-1.6h-1.4c0-1.4-.3-2.7-.2-4-.3-.8-.7-1.8.4-1.9,1-.2,0-1.4.3-2.1-.3-.8-.4-1.6-.4-2.4.3-.2.9-.3.6-.8.1-1,1.5-1.3,2-.3.8.7,1.8,1.1,2.7,1.7.5-.4.8-.9.1-1.3-.6-.8-1.6-1.4-1.3-2.5.4-.3,1.3-.6.4-1.2-.7-.6-1.2-1.4-1.7-2.1-.3-.3-.6-.5-.9-.7,0-1.5-.9-2.8-1.4-4.1-.4-1.6-2.3-1.5-3.1-2.6-.3-1.1-1.1.4-1.6-.6-1-1.1-1.8-2.4-2.8-3.5-.7-.9-1.3-1.9-2.3-2.8-1.2-1.2-2.6-2.1-4-3-1.2-.3-2.3-.8-3.4-1.3-.8.8-1.4,1.9-2.6.9-1-.7-2.3-.8-3.1-1.8-.6-.4-1.6-.3-1.6-1.3-.7-.3-1.6-.3-2.1-.9-.7.2-1.2-1.3-1.9-.3-.9.4-1.9-.1-2.8-.3-.7-.4-2.5-.5-1.4-1.6-.4-.1-.8-.3-1.1-.2Z"/>
        <path id="path4108" class="st12" d="M328,450.4c-.7,0-.8,1.1-1.4,1.4-.8.5-2.1-.4-2.6.6-.8.7-1.3,1.8-2.3,2-.8.3-1.7,1.1-2.3,0-.8-.3-1.8-.2-1.9.9.1.9.7,1.6,1.1,2.4.6.6,1,1.3,1.3,2.1-.8,0-1.6-.3-2.3,0-.8.2-1.5.4-2.1.7-.5.5-1.4.4-2.1.1-.3-.2,0-.6-.1-.9.3-.9-.8-.1-1.3-.4-.6-.8-1.7-.3-2.6-.7-.9-.1-1.8-.6-2.8-.7h-2.6c0,.3-.1.6-.1.9-.4,0-.8.4-1.2.5-.6.4-.9-.3-.8-.8-.3-.5-1.1-.2-1.6-.4-.8-.5-1.6-1-2.3-1.6-.6-.5-1.4-.7-2.2-.7-.8-.3-1.6-.8-2.3-1.3-.4,0-.3.9-.7,1.2-.7.2-1.3-.4-2-.4-.6-.3-.9,1.1-1.3.3-.3-.7-.9-.9-1.6-.7-.5,0-1.2-.3-1.3.4-.9-.6-.4.3-.9.8-.9-.4-1.9,0-2.6.5-.8.6-1.5,0-1.5-.9.1-1-1.3-.1-1.1-1,.6-.8-.1-1.4-.4-2.1-.5,0-1.6-.3-2.1.3.2.6-.3.9-.9,1.1-.8,0-1.2,1.2-2.1.8-.3-.6-.9-1-.9-1.7.4-1.2-.9-1.3-1.8-1.2-.6-.4-1.2-.6-1.8-.3-1-.2-2.1-.3-3.1.3-.9,0-.7.8-1,1.4-.2.7-.6.3-.8-.1-.6-.7-1.1.6-.7,1.1-.6.1-2.1-.4-2.1.4.1,1-1-.9-.9.2.2.8-.3.8-.9,1.1-1,.2-.3,1-.3,1.6-.4.8.1,1.3.4,2-.3.8-1.1-.4-1.8-.4-.9,0-1.4,1.1-2.4,1.3-1.1.5-.7-.9-1.4-1.2-1-.7-1.1.9-1.9.8-.5-.7-.6.6-1.1.3-.1.8-.9.6-1.4.6v.9h0c-.5.5-.4,1.3-.1,1.8-.4.4,0,1.2-.6,1.4.1.7.8,1.2,1.5,1.2s0,.6-.3.4c-.8-.2-.8.5-.8,1-.4.6-1.5.6-2.2,1-.3,0-.6-.1-.8.2-.4.6-1.3,1.1-1.4,1.9-.1.9,1.3.4,1.8.8.6.1,1.1.6,1.8.5.4,0,.9-.3,1.3-.4.7.1,1.5,0,2.2.3.4.6,1.2.3,1.8.1.6,0,1.1-.3.9-.9v-.8c.5-.3.9-1.2,0-1.1-.4-.1-.7-.6,0-.6.4-.1.7.4,1.1,0,.4-.2.9-.8,1.4-.5.6.1.8,1.1,1.4.6.6-.1,1.3,0,1.9,0,.3,0,.4.3.5.4.9.2,1.9.6,2.8.6.4-.2.8-.4,1.3-.3.6-.2.8.4.6.9.6.5,0,.8-.4,1.2.5.8.9,1.7,1.6,2.3.8.6,0,1.5.4,2.3.3.8,1.1.3,1.6.7.4-.3,1-.5,1.3-.9.3-.6.6.5.9.3,0-.6.4-.5.9-.5.1.6.2,1.7-.8,1.7s-.8.8-1.1,1.4c-.4.5-1.3.1-1.8.5-.4.6-1.1,1.1-1.2,1.9,0,.6.8,1.3.3,1.8-.4.8-1.4.3-1.9.9.1.5.4,1.1.4,1.6-.3.3-.4.4,0,.5,0,.4-.3,1.3.3,1.5,0-.3,0-1.1.6-.6.1.7.6,1,1.3.9.9-.2,1.3.8,1.7,1.4.3.8,1.3,1.1,1.4,2-.2.8-1.2-.4-1.4.5-.4.8.5,2.1-.7,2.3-.5.1-1.1,0-1.7,0,0,.9.1,1.9,0,2.8,0,.4,0,.8-.5.9-.6.4.2.8.3,1.1.1.3.3.5.3.8v.9c.4.6,1.1.4,1.7.5.9,0,1.8.2,2.7.4-.1.5-.3.9-.8,1.4.4,0,1.1.4,1.1-.3.9,0,.8-.7,1-1.1.6.2,2.2-.5,3.3,0,.6.4,1.2.5,1.9.3.6.5.9,0,1.2-.4.4.9,1.5.9,1.9,0,.9-.5.4,1.3.6,1.8.4,0,1.2-.4,1.8-.3,0-.1-.3-.6-.1-.8,0,0-.3-.9-.4-1.1,0-.5.2-.8.3-1.4.4-.4.9-.8,1.3-1.2,1.2.3,1.3.6,2.4.9.3.7.3,1.2.9,1.6.6.3,1.4.3,2.1,0,.6-.3,1.3-.4,1.3-1.1-.1-.7-.1-1.6.6-1.9.6.4.9-.1.9-.7.3,0,.6.3.9-.1l.8-.7c.6.2,1.3.8,1.9.8.3-.3.5-.5.8-.8.6.5.3,1.6.8,1.9.1-.4,0-1.1.7-1,.9-.2,1.8.3,2.7.6.8.3,1.5.4,2.3.4.8-.4,1.3-1.1,1.9-1.8-.8-.3-1.8-.4-2.5-1.1-.4-.3-.9,0-1.4-.3-.6,0-.6-.8-.7-1.3-.2-.4-.2-1,.1-1.4.1-.5-.1-1,0-1.4.1-.8.3-1.5.3-2.3.3,0,.8.4,1.1.6.6.8,1.3,1.4,2.1,1.8.4.9,1.5,1.1,2.2,1.8.6,1,1.9,0,2.6.8.5,1.2,1.7.3,2.6.8,1-.2,1.9.1,2.7.7.8.4,1.7.3,2.6.4.6.6,2,0,2.3.8-.4.6,0,1.2.6.6.6-.3,1.1,0,1.3.6.7.5,1.4,1.1,2.1,1.5.6.5,1.6.4,2.1,1.1.8.1,1.7,0,2.4.4.7.8,1.8.3,2.6.8.7.3,1.4.9,2.3.6.9.2,1.7.8,2.6.6.4.2.3.5.6.9h.8c.3-.3.9-.5.9-1-.1-.7.5-.8.9-1.1,0-.6.9-.4.9-1.1,0-.6.3-1,.9-1,.4-.7.9-1.4,1.4-2.1h.6c.3-.6.5-1.2.8-1.8.3-.4.7-.6,1.1-.9,0-.4.1-.7.5-.8.6-.4,0-1.3,0-1.8.3-.8.3-1.6.4-2.6.3-.8-.3-.8-.9-.9-.8,0-.4-.6-.2-1.1-.2-.9.8-.3,1.3-.5.8-.6,1.3-1.6,1.8-2.3,0-.7-.9-1.3-.9-2.2.6-.6.5-1.4.5-2.1.4-.4.3-1.2.4-1.8h0c-1-.2-1.6-1.1-2.6-1.1-.5-.6-1.4-1.1-2.1-1,0,.2,0,.9-.3.7-.3-.3-.5-.4-.7,0,0-.8-.2-1.5-1.1-1.8-.8-.2-1.8-.4-2-1.3-.6-.9.4-1.4.9-2.1.8-.5-.9-1.1.2-1.4.9-.7-.4-1.6.2-2.3.1-.3.4-.4.6-.7-.3-1.3,1.1-2.4.6-3.6-.6-1.2-2.1-2.3-2-3.5.2-.5-.3-.9-.7-.6-.3-.6-.4-1.1-.3-1.8-.6-.3-1.3-.9-1.7-1.2-.9.4.4-.8-.4-.9-.6-.6-2.1.5-2.4-.7-1.1.1.1-1.1-.5-1.4,0-1.6-1.6.6-1.8.4.2-.5-.3-.5-.3-1-1.2,0-2,.4-2.9,1.2-.1-.7-.3-1.4-.1-2.2.8-.9-.1-1.8-1.1-1.8h-.1Z"/>
        <path id="path3968" class="st12" d="M225.4,398c-.8,0-.8,1.1-.6,1.8.1.8-.3,1.4-.1,2.1.4.5,0,.9-.9.9-.8.3-.6,1.4-.5,2.1-.1.7-.6,1.3-.1,1.9.1.6.6,1.4-.1,1.6-.6,1.3.6,2.1-.4,2.6l-3.8.9,1.4,5.4,4.6,36.2,18.4,45,3.8-1.2c.8,0,1.6-.4,2.4-.1.8.3-.2-.8.3-1.1.5-.2.8-.9,1.4-.6.9,0,1.8.3,2.7,0,.4-.3.3.3.3.6,0,.3,0,.6.3.8.4.6.4,1.4.8,1.9.6.4,1.2.3,1.8.2.6.2.9-.8,1.4-.9.3,0,.6,0,.9.1,0-.4.1-.7.5-.8,0-.6.1-1.2.9-1.1.8,0,1.5,0,2.3,0,.6,0,.7-.6,1.2-.9.4-.1,1.1.1,1.4-.3.3-.4.4-1.1.8-1.4.5-.3,1.2-.1,1.8-.2.6,0,1.1.1,1.7,0,1.2-.2.3-1.6.7-2.3.2-.9,1.3.2,1.4-.5,0-.9-1-1.3-1.4-2-.4-.7-.7-1.6-1.7-1.4-.7,0-1.2-.3-1.3-.9-.5-.6-.5.3-.6.6-.6-.3-.4-1.1-.3-1.5-.4-.1-.3-.3,0-.5,0-.5-.3-1.1-.4-1.6.5-.6,1.6-.1,1.9-.9.6-.5-.1-1.3-.3-1.8.2-.8.8-1.3,1.2-1.9.5-.3,1.4,0,1.8-.5.3-.6.3-1.4,1.1-1.4.9,0,.9-1,.8-1.7-.4,0-.9,0-.9.5-.4.2-.6-.9-.9-.3-.3.4-.9.6-1.3.9-.6-.3-1.4.1-1.6-.7-.3-.8.4-1.7-.4-2.3-.8-.6-1.1-1.5-1.6-2.3.4-.3,1-.7.4-1.2.2-.4,0-1.1-.6-.9-.5,0-.9.1-1.3.3-.9,0-1.9-.4-2.8-.6-.2-.1-.3-.4-.5-.4-.6-.1-1.3-.1-1.9,0-.6.4-.8-.4-1.4-.6-.4-.2-.9.4-1.4.5-.4.5-.6,0-1.1,0-.6,0-.3.5,0,.6.9,0,.4.9,0,1.1v.8c.2.6-.4.8-.9.9-.6,0-1.3.5-1.8-.1-.7-.3-1.4-.1-2.2-.3-.4.1-.8.4-1.3.4-.6.1-1.1-.4-1.8-.5-.6-.3-1.9.2-1.8-.8.1-.8.9-1.3,1.4-1.9.1-.3.5-.2.8-.2.7-.4,1.8-.4,2.2-1,0-.6,0-1.2.8-1,.4.2.9-.4.3-.4s-1.4-.5-1.5-1.2c.6-.2.1-1,.6-1.4-.3-.6-.4-1.3.1-1.8l-.8-.3c0-.6-.3-1.3,0-1.8.1-.4-.2-.8-.2-1.1-.6-.1.2-.6.3-.9.2-.4-.6-.6-.9-.8-.6-.1-.9-.3-.6-.9.1-.6.1-1.3.5-1.9.3-.4.7-1,.5-1.6.1-.6.3-1.2.2-1.9.1-.6.3-1.4-.1-1.9-.7.1-1.2-.3-1.8-.4-.4,0-.8,0-1.3-.1-.1-.2-.2-.4-.3-.6v-2.1c.1,0,0-1,0-1v-1.7c-.1,0-3.8-1.3-3.8-1.3,0,0-.4-.2-1-.3-.9-.3-1.6-.4-1.8-1.4-.7-1.1-1.4-2.3-1.4-3.6s-.6-3.6-.9-5.3c-.2-1.8.9-3.6.4-5.5-.4-1.3-1.9-1.8-2.9-2.5-.5-1.3.7-2.6.9-3.9.1-1.6-.5-3.2-1.1-4.6-.4-1.3-.7-2.5-1.2-3.7-.2-1.3,1.6-1.9,1.6-3.3,0-.5.1-1.1.2-1.6h0c-.4-.5-.8-1-1.1-1.7-.2-.7.5-1.4,0-2s-.8-1.2-1.1-1.8c-.3-.4-.8-1.2-1.4-.7-.8.4-1.7.3-2.5.3-.8,0-1.4-.4-2.1-.6-.6-.3-1.1-1.1-1.8-1.4h0Z"/>
        <path id="path3719" class="st12" d="M275.2,227.1c-.7.2-1.4.3-2.1.6-.2,1-.8,1.6-1.7,2.1-1.6.7-3,1.8-4.6,2.5-1.1,1.3-2.4-1.1-3.7-1.3-1.6,0-3.1-.6-4.8.2-1.1,0-2.4.6-3.4,1.1-1.1-.1-1.9.1-2.9-.4-.5-1.1-1.6-1.2-2.8-1-.9.3-3-.2-2.8,1,.5,1.3-.8,1.2-1.5,1.6-.7,0-1.3-1.3-2-1.7-.8,0-1.6.4-2.4,0-.5-.3-1.1-.3-1.6-.3-.8-.2-.2.9-.5,1.4-.1.6-.9,1.4-.1,1.9.5.6,1.1,1.2.7,1.9,0,.7-.6,1.4-.1,2.1.6.8.2,1.4,0,2.3,0,.7-.3,1.4-.1,2-.8,0-1.7.4-2.3,1-.1.2-.3.4-.4.6-1.1.2-1.9.9-3,.6-.8.2-1.7.4-2.3.9-.6.8-1.5,1.6-1.8,2.5,0,.7.3,1.2-.2,1.7,0,1.2-1.6,1.1-2.4.8-.4.9-1.3.3-2,.3-.1.3-.3,1-.8,1.2-.4.3-.7.6-.4,1-.1.5-.3,1.9.6,1.2.8-.5,1.8-.6,2.8-.4.6.1,1.3.3,1.8.5,0,.8-1,1.8,0,2.3.6.7,1.5.6,2.4.6.9.1,1.8.2,2.8.3,0,.8-.4,1.5-.6,2.3-.1.9-1.2.1-1.8.4-.4-.4-.8,0-1.3,0-.8-1-1.4.9-1.3,1.5.1.9-.7,1.8-.1,2.7.2.9,1.2,1.3,1.3,2.1,0,.6-.1,1.2-.2,1.8-.4-.1-1.4,0-1.2-.7-.3-.7-1.3-.3-1.8-.2-.6,0-.8-1.1-1.4-1.1-.4.4-1.1,1.1-1.7.7-.6-.3-1.2,0-1.8,0-.4.3-.3,1.2-.6,1.8-.4.5-.9.9-.9,1.5-.2.8-1,.4-1.6.3-.6,0-1.7.6-1.7-.4s-1-1.1-1.1-1.8c-.4-.3-.3-.8-.6-1.2-.7-.4-.8.4-.9.9-.5.3-.3,1.3-.9,1-.6-.2-1.2.3-1.7-.2-.1,0-.2-.2-.1-.4.3-.4.4-1.2-.3-1.1-.5,0-1.1,1.1-1.4.3.2-.8-.6-.9-1.2-.6-.8.1-.8.8-.7,1.4,0,.6-.7,1.1-1.1,1.6-.6.4-1.1-.4-1.6-.8-.8-.4-1.1.6-.8,1.2-.1.4.3,1.1,0,1.2-.6,0-1.3-.3-1.8-.4-.5.4,0,1.3-.3,1.8-.4.6-.6-.3-.9-.4-.8-.1-.3,1-.4,1.5-.1.6.1,1.3-.2,1.9-.3.6-1.1.4-1.5.8-.4-.5-1.3-.3-1.5,0-.4.5-1,.3-1.4,0-.8-.4-1.7-.5-2.3-1.1s-1.2,0-1.3.6c-.2.5.1,1.2-.4,1.6-.1,0-.3,0-.3,0-.6.5-1.1,1.1-.3,1.6.7.3.9.7.6,1.3.6.3,1.7.1,1.6.8.4.4.2,1.1-.4.7-.6.8-.5,1.9-.8,2.8,0,.8-.8,1.9-.4,2.6-.2.6-.3,1.1.4.9.4,0,0,1.5.7,1.3.6-.2,1.1.4,1.6-.1.6.6.6,1.4.8,2.1.9.3,1.9.4,2.8.4,1.4-.1,2.4.9,3.4,1.6,1.1.9.9-1.5,1.8-.9.8.3,1.7.2,2.3.9.4-1.2.5.5,1.1.7.6,0,1.3-1,1.4-1.7,1-.6.9-1.8,1.9-2.4.3-.9.6-2,1.9-1.8.6-.4.1-1.8.6-2.5.2-.9-.9-1.6-1.2-2.3.6.1,1.1,0,1.6.3.6.3,1.2.4,1.7,0,.5-.3,1.3-.6,1.5.1.2.9.9.4,1.4.4.5,0,.7.3.7.8.4.4.6,1.1.2,1.6-.3.6.1,1.4.8,1.3.8-.2,1.3-1,2.2-.8.7.2,1.4,0,2-.2.8-.3,1.5.3,2.3.4.8,0,1.5.4,2.3.7.5.1,1.1-.2,1.5-.3.6-.3,1.2.3,1.8.4.6.3,1.4.3,1.6-.5.3-.5,0-1.3.6-1.6.6-.3,1.3-.8,2-.7.8-.2,1.3.4,1.4,1.1,0,.5,0,1.4.6,1.6.6.1,1.2-.1,1.8-.3.7.1,1.4-.1,2.1-.3.7-.3,1.4,0,2.1.1.6,0,1.2-.3,1.8-.3.6,0,1.5-.3,1.7.6-.1.3-.6.5-.6.9.4.4,1.7,1.1.8,1.8-1.3.4-1.4,1.7-1.6,2.8-.3,1.4-1.8.3-2.3,1.3.3,1.1,1,1.9,1.2,3.1.3,1-.3,1.9-1.4,1.8-.9-.1-.9.6-1.4,1.2,0,1.1-1.1.4-1.6,1,.2.9-1.6,2.9.1,2.8,0,.3,0,.5.1.7.5,1-.4,2.1-1.4,2.2.4,1-.6,1.3-1.3.6-.8,1.2.8,2.1.8,3.2.7-.9,1.5-.2,2,.4-.2.9.9,1,.6,1.9,1.1,0,.7.8.4,1.5-.9,1.3.5,1.9,1.1,2.8,1.1,0,1.6,1.1,2.2,1.8.8.9,1,1.8,1.8,2.8,1.2.2,2.1,1.1,3.3,1.4h.2c1,.6,2.4.7,2.9,1.8.4,1.1,1.2,2,2.5,2,1.3-.2.8,1.1,1.3,1.7.9-.5,1.9-.6,3-.4,1,.2,1.3,1.3,1.9,1.9.6.8.6,1.9,1.2,2.8.9.7,1.1,2.1,2.1,2.5.8-.6.5.1.6.5,1-.5,2.2-1.2,3.3-.3.2-1.8,1.4,0,2.1.8,1.3.1,1.4,1.7,2.9,1.2,1.3.4,1-1.2,1.9-1.3,1.5-.5,2.8.6,4.3.8.8.6,1.9.5,2.5.8-.1,1.4-1.7,1.4-1.8,2.6.5.6,1.9.6,2.8.4.4-1.4,1.8.6,2.8-.1,1.4.4,1.1-1.4,2.3-1.3,1.1.4,2.1,2,3.6,1h0c-.5-.6.4-1,.3-1.6,0-1.1,1-2.2,0-3-.8-.8-1.7-1.6-2.3-2.5.6-.4,1.3-1.3.6-2.1-1.1.6-.8-1.2-1.6-1.6.4-.9.8-1.8,1.2-2.8.2-1.1.3-2.4.3-3.5.1-1.1.1-2.3.1-3.4.4-1.1.8-2.3,1.1-3.4.4-.8.4-1.7-.4-2.2-.5-.8.3-1.6.6-2.3-.8-.9-.7-1.8-.1-2.8.4-1-.3-2.3-1.4-1.6-1.1,0-1.3-1.3-1.1-2.2-.6-.4-.9-1.2-.4-1.9-.4-1.1.8-.6,1.4-.7.9-.2,1.9,0,2.9,0,1,.3,2,.6,2.9,0,.9,0,1.4-.7,1.3-1.6-.1-.8-.1-1.6-.6-2.1.4-1.2-.6-1.3-1.5-1.8-.9-.4,0-.8.4-1.1,0-1.1.6-2.1,1.3-2.9.3-.8.9-.6,1.4-.7,0-.9-.8-1.9-.1-2.8.8-.8.4-2.1,1.4-2.7.1-.8.1-1.6.5-2.3-.2-1.3-.4-3.1-1.3-4.1-1.2-.4-2.8.6-3.7-.4-.4-1.3-1.9,0-2.3-.9-.7-.9,1.4-1.6.4-2.6-.6-1.3-2.3-1.9-2.6-3.4-.9-1-2.4-1-3.5-1.6-.9,0-1.6-.5-2.2-1.3-1-.4-2.1.3-3.1-.5-.9-.6-2,.8-2.6,0-.8-.4-1.7-.8-2.4-1.4-.7-.3-1.3-.7-2.1-.8-1.3.1-2.5-.5-3.6-1.3-.8-.6-2.4-1.1-2.2-2.2.8-.3,1.4-1,.9-1.8.7-.9.3-2.3,1.3-2.9.8-.9,1.7-1.7,1.7-2.9-.1-1,.3-1.9.8-2.7.3-1.1,1.5-1.3,2.1-2.1.5-.9,1.7-.4,2.5-.4,1.5.2,2.9.8,4.5.7,1.1-.3,2.2-.2,3.1-.6.6-.6,1-1.3,1.2-2.1l-.4-.4c-.6.6-1.1,1.4-1.8,2-.9.6-2,0-2.6-.8-.2-1-1.1-.9-1.9-.8-.6-.4-.8-1.7-.5-2.3.6-.4,2-.9,1.4-1.9.1-.9-.9-.5-1.1-.9-.6-.7-.6-1.7.1-2.3.2-.9.2-2.1-.5-2.7-.9-.3-1.8.7-2.4-.4-.6-.6-.4-2.1-1.6-1.7-.1.4.7.8-.1,1.1-1.1.3-.8-1.2-1.4-1.7-.4-.8-1-1.7-.3-2.5.8-.5,1.3-1.2,2.1-1.8.6,0,1.3.1,1.8-.6.2-.8-.8-1.9.3-2.4.9-.6.1-.8-.3-1.3-1.1-.6-2-1.6-2.9-2.4h-.4Z"/>
        <path id="path3579" class="st12" d="M156.6,155c-.3,0-.5.1-.5.4,0,.6.6.8.6,1.4.3.7-.6.7-1.1.6-.5-.3-1-.3-1.1.4-.4.4-1.1,0-1.3-.4-.3-.6-.8-.9-1.4-1.3-.6-.4-1.2,0-1.7-.4-.6-.3-1.4-.1-1.4.6l-.7,2.2c-.6.4-1.5.7-1.9,1.3s-.1.9-.5,1.1c-.4.1-.8.3-1.1.4-.9,1.1-2.1,1.4-3.2,2.6-.3-.1-.8-.5-1.1-.4l-.4.8c-.7.2-1.3.4-1.9.9-.3.3-.7.6-1.1.4-.8-.1.4.6,0,1-.1.4,0,.9.6,1,.3.2.9.4.7.8,0,.6-.6.8-1.1.6-.4-.1-.9-.3-1.2,0s-.6,1-1.1,1.2c-.4.1-.9.6-1.2,0-.4-.3-.9-.7-.5-1.3,0-.4-.2-.8-.4-1.1-.3-.4-.5-.9-1.1-1.1-.3,0-.7,0-1,0,0,0-.3.2-.3.3,0,.5-.1.8-.5,1.1l-1.3,1.7,9.2,26.5,8.7,7,16.6,40.5,3.1-3.2c.3-.4.6-.9,1-1.2.7-.1.9-.9,1.5-1.1.5-.6.9-1.4,1.6-1.9.3-.9,1.2-.5,1.8-.8.6,0,1-.4,1.3-1.1.5-.6.1-1.1-.6-1-.4,0-.8.3-1.2,0-.6-.3-1.2-.4-1.6-.9-.1-.8.8-1.7,1-2.5.8.3,1-.6,1.3-1.1.4-.5.3-1.4,1.1-1.6.6-.4,1.2-.6,1.9-.4.6-.3-.2-1.8.8-1.6.4.3.8.8,1.4.8.8.3,1.1-.6,1.4-1.1.4-.4,1.1-.3,1.6-.5.6,0,1.2.2,1.8-.1.6-.2,1.2-.5,1.3-1.1.3-.5.9-.8,1.3-1.2.6.1.9.9,1.6,1,.4.1.6.5.9.8.8-.5,1.8-.8,2.4-1.7.5-.9,1.4.4,2.2,0,.9-.3,1.8.5,2.6-.3.9-.6,1.3-1.7,2.5-1.9-.1-.7-.3-1.4.6-1.6,1.1-.8,2.4-.6,3.6-1.3,1.3-.4.5-1.7.7-2.6-.4-.3-.5.1-.8.3-.6-.4-1.7-.5-1.9-1.4-.6-.8-.4-1.8.2-2.6.6-.7.3-1.6.3-2.4s0-1.9.8-2.3c-.3-.6,0-1.2.6-1,1,.9,1.4-.8,2.1-1.4.4-1,.9-.2,1.5.2.6-.8.2-1.7,0-2.6-.2-.9.5-1.8.8-2.7l-.9-.8-.7-1.1-.9-1-1.1-.4-1-.7-1.2-.2-.6-.9.6-.6-.5-.6v-.9c-.1,0-2.3-.5-2.3-.5h-.3l-1.4,1.6h-.6c0-.1-.6.6-.6.6l-.6-.3h-.4c0,0-.4.5-.4.5l-1-.9-1.3-.6-.8-.3-1.1-.9-1.1-.6-1.1-.8-.4-.5-.9-.5-.7-.7-.5-.3-.3-.3-1.2-1.4v-.7c0,0-.1-.7-.1-.7v-1l-.8-.3h-.7c0,0-.7-.5-.7-.5l-.3-.3-1.4-.3-1.1-.8-1.2-.8-.3-.3v-1.1c-.1,0-1-.7-1-.7v-.8c0,0,.3-.5.3-.5v-1.7l.3-.6.5-1.3.3-.9-.3-1.6v-.4l.3-.4.7-.4.2-.3-1.2-.6-.3-.4-.9-.3h-1.3c0,.1-.9,0-.9,0l-.3-.3h-.9c0,.1-1.4,0-1.4,0l-1,.2v-.4c-.1,0-.6-.3-.6-.3v-.9c-.1,0-1.2-.6-1.2-.6l-.7-.8-.7-.2-.4-1-.4-.3-1.3-.8-.7-.3h-.9l.4-.7-1.3-1-.4-.4v-.3l.5-.4v-1.1c.1,0,.6-.8.6-.8l-.2-1.1-.5-.5-1.4-.6h0c-.5-.6-1.3-.7-2-.7h-.8v.3Z"/>
        <path id="path3302" class="st12" d="M121.4,90.5c-.6,0-.9.9-1.6.9-1.4,0-3-1.1-4.1.2-.6.4-1.2.2-1.1-.1-.1-.3-.9-.1-.9-.6-.5,0-.8,0-1.3.6-.1.6-1.1.4-.6-.2.5-.9-.9-.3-.6.3.4.6-.3.6-.6.9-.4-.1-.7.3-1,0-.8-.3-.7.8-1.1,1.1-.8-.1-.9.7-1.4.9-.6-.2-1,.8-1.4.1-.5-.3-1.4.7-1.8,0-.3-.6-1.1-1-1.6-.4-.6.2-1.3.1-1.9.3s-.8.9-1.2,1.3c.1,1.1.3,2.1.4,3.1,0,.6-.3,1.1-.9,1.1-.7-.4-.9.6-1.5.7-.5.3-1.1.2-1.6.4-.4.4-.9.7-1.4.8-.6.3-1.3,0-1.9-.2-.6-.3-.9.5-1.2.9-.3.5-.8.9-1.2,1.3-.2.1-.4.3-.6.4l-.8.8c-.3.2-.6,0-.8-.1-.5,0-.9.3-1.4.3s-.8.1-1.1,0c-.3,0-.8.1-.5.4.2.5.4.9.8,1.3.3.3.7.6.9,1,.1.5.3,1.1.3,1.6s.1.8.1,1.3c0,.3.6.6.3.8-.3.3-.4.5-.5.8-.3.4.4.8.3,1.3.2.3.3.6-.1.7-.1.3-.2.5.1.6-.1.6.3,1.2-.2,1.6-.3.4-1,.1-1.3-.2-.3-.1-.5-.3-.8-.3,0,.4-.2.4-.3.8,0,.2-.2.4-.3.6.3.4.5.8.9,1.3.1.3,0,.6,0,.9,0,.5.2,1,.5,1.4.3.4.4.8.6,1.3,0,.1.2.5.2.6l-.4.3-2.9,2.2,1.5,3.4,41.6,39.8,3.1-1.9.8-.6h.4l.3.3.2.4c.3,0,.7,0,1,0,.5.1.8.7,1.1,1.1.3.3.4.7.4,1.1-.4.5.1.9.5,1.3.2.6.8.2,1.2,0,.6-.3.8-.8,1.1-1.2s.8-.2,1.2,0c.5.2,1.1,0,1.1-.6.3-.5-.4-.7-.7-.8-.5-.1-.7-.6-.6-1,.3-.4-.8-1.1,0-1,.4.2.8-.2,1.1-.4.6-.4,1.2-.7,1.9-.9l.4-.8c.3,0,.7.3,1.1.4,1.1-1.2,2.3-1.4,3.2-2.6.4-.1.8-.3,1.1-.4.4-.1.3-.7.5-1.1.4-.6,1.3-.9,1.9-1.3l.7-2.2c.1-.7.9-.8,1.4-.6.5.5,1.2,0,1.7.4.5.3,1.1.6,1.4,1.3.2.4.9.9,1.3.4.1-.6.6-.7,1.1-.4.4.1,1.3,0,1.1-.6,0-.6-.8-.8-.6-1.4,0-.7.9-.4,1.4-.4.8,0,1.5.1,2,.7.1-.3.2-.6.4-.9.3-.5.8-.8,1.3-.9.6-.1,1.1-.6,1-1.3.1-.8-.6-1.2-1-1.7-.1-.4.1-.9.2-1.3.4-.5.9-.9,1.3-1.4.4-.3.5-.8.8-1.2h.8c.3,0,.6,0,.8.3.4.4,1.1.4,1.6.4.4-.1.8-.5,1.3-.6.5,0,.8.8,1.3.9.6.3,1.3-.4,1.7.3h1.1c.4.3.9.4,1.4.2.4.3.7.4,1.1.3.5.3,1.1,0,1.6,0,.4-.3,1,0,1.4-.3.6-.1.3,1,.8.6.3-.4.2-.8.1-1.3,0-.4.3-.9.4-1.3-.8-.5-1.6-.9-2.3-1.6.6-.3,1.4-.3,1.8-.7.4-.8.4-1.6.4-2.4-.1-.4-.2-.9-.6-1.3-.4-.3-.4-.7-.1-1.1.3-.5.8-.6,1.3-.7.6-.1.7-.6.6-1.2-.8.5-1.6-.2-2.3-.3-1.1.3-2.4,0-3.5-.3-1.6-.2-3-.9-4.3-1.9-1.4-.5-1.1-2.6-2.6-2.7-1.4,0-1.5-1.7-1.5-2.7,1-1.2-.3-2.3-1.4-2.6.1-1.3-1.4-1.4-1.8-2.3.4-.8-.9-1.4-.4-1.9.3-1,1.4-2.6,0-3.3-.9,0-1.8-.4-2.8-.3-1-.1-2.2-.4-3.1.3-1.3.3-2.1,1.3-3.4,1.5-.6,0-1.1-.3-.9-.9.9-1-.4-1.8-.9-2.6-.9,0-1-.7-.8-1.4.6-1.2-1.2-1.1-1.9-1.1-.5,1.1-1.9,2.2-3.1,1.3-.6-.8-1.6-1.5-1.6-2.6-.8-.7-.2-1.7-.8-2.4-.8,0-.2-1.3-1-1.3-.8,0-1.7-1.5-2.6-.6-.6-.3-1.3,0-2,0-.6.8-.9,0-1.4-.4-.8,0-1.4-.4-2-1.1-1.1,0-1.6-1.1-2.2-1.6.1-1.3-1-1.7-1.8-2.3-1.4,0,.5-1.2,0-2l-.3-.2c-.4-.4-1.3-.6-1.4-1.3.3-.9-1.1-.9-.7-1.6-.3-1.2-1-2.2-1.8-3,.1-1.2-1.4-.4-1.7-1.4-.4-1.2-.9-3.3-2.2-3.8-.3-.3-.4-.4-.6-.4h0ZM131.8,156.8c.2.2.3.4.6.6.7.3,0,.9-.2,1.3-.4.5.3,1.1,0,1.6-.1.6.2,1.2.7,1.4.4,0,.9.3.9.7.2.4-.2.9-.2,1.3s-.5.7-1,.7c-.4.1-.8.3-1.1.4-.5,0-.7-.4-.8-.9-.5,0-.8.5-.5.9,0,.6-.6.4-.9.6,0-.6.2-.6.4-.9,0-.5-.5-.8-.6-1.3,0-.6.4-1.1.9-1.4.4-.4,1-.3,1.4-.6.3-.5.3-1.2,0-1.7-.2-.3-.5-.4-.6-.7-.2-.3-.2-.6-.4-.9-.3-.4.2-.8.6-.9.3-.1.6-.2.8-.5v.2Z"/>
        <path id="path3427" class="st12" d="M302.6,488.6c-.1.8-.3,1.5-.3,2.3,0,.5.2,1,0,1.4-.3.4-.3.9-.1,1.4.1.4,0,1.2.7,1.3.4.2,1,0,1.4.3.7.6,1.6.8,2.5,1.1-.6.6-1.1,1.3-1.9,1.8-.8,0-1.6,0-2.3-.4-.9-.3-1.8-.7-2.7-.6-.7-.2-.6.5-.7,1-.6-.3-.3-1.4-.8-1.9-.3.3-.5.5-.8.8-.6,0-1.3-.6-1.9-.8l-.8.7c-.3.4-.6.1-.9.1,0,.6-.3,1.1-.9.7-.8.3-.8,1.2-.6,1.9,0,.8-.8.9-1.3,1.1-.6.3-1.4.2-2.1,0-.6-.4-.6-.9-.9-1.6-1.2-.4-1.2-.7-2.4-.9-.4.4-.9.8-1.3,1.2-.1.6-.4.9-.3,1.4.3.3.4,1.1.4,1.1-.1.1.1.7.1.8-.6-.3-1.4.3-1.8.3-.2-.5.4-2.3-.6-1.8-.4.9-1.5.9-1.9,0-.4.4-.6,1-1.2.4-.7.2-1.4,0-1.9-.3-1.1-.5-2.6.2-3.3,0-.3.4,0,1-1,1.1,0,.7-.8.3-1.1.3.5-.5.6-.9.8-1.4-.9-.2-1.8-.3-2.7-.4-.6,0-1.3.1-1.7-.5v-.9c0-.3-.1-.6-.3-.8-.1-.4-.9-.8-.3-1.1.4-.1.6-.5.5-.9.1-.9,0-1.9,0-2.8-.6.1-1.3,0-1.8.2-.4.3-.6.9-.8,1.4-.3.4-1,.1-1.4.3-.5.2-.6.8-1.2.9-.8,0-1.5-.1-2.3,0-.7-.1-.8.5-.9,1.1-.4,0-.5.4-.5.8-.3,0-.6,0-.9-.1-.5,0-.7,1-1.4.9-.6,0-1.3.2-1.8-.2-.4-.5-.4-1.4-.8-1.9-.3-.2-.3-.5-.3-.8s.2-.9-.3-.6c-.9.3-1.8,0-2.7,0-.6-.3-.9.4-1.4.6-.4.3.5,1.4-.3,1.1-.8-.4-1.6.1-2.4.1l-3.8,1.2.2.5,5,10.7,5.3,17.6,15,14.8v.2c.1,0,3.9-1.6,3.9-1.6-.1-.8,0-1.6.7-1.1.4.1.8-.5,1.1,0,.4,0,.5-.7.9-.8.4-.3.8-.9,1.3-.8.6.3,1.2.4,1.8.6.8.3,1.7.3,2.5.3.1-.3.3-.6.6-.4.4.2,1.3-.4.8-.7.2-.3.3-.8.8-.6h1.9c.3-.6-.2-1.2-.8-1.1-.4-.4.6-.5.8-.4.4-.6,0-1.2-.5-1.6-.3-.6-1-.9-1.3-1.4.3-.6.5-1.3.2-1.9.5-.2.7,0,.9.4.5.1,1.1,0,1.5.4.3.6.9.3,1.1-.2.4,0,.8-.2,1.1-.4.7.2.9.8,1.1,1.4.1.8,1.2.2,1.6.8.4.3,1.1.6,1.1,1.1s.6,1.1.8,1.8c.5.4,1.2,0,1.6.6.6.5,1.4.3,1.9.9.7.5.8-.8,1.6-.5.9-.3,1.4.4,1.8,1,.4.6,1.1,1.1,1.4,1.8.6.6-.6.9-.7,1.3.7.6,1.4,1.1,2,1.7.1.2.3.4.4.6.6-.3,1.3-.8,1.8-1.1.4-.3,1,0,1.5,0,.5-.2,1.3,0,1.6-.4.2-.5.1-1.3.8-1.4.7-.1,1.3.1,1.9.4.5.5.9,1.4,1.6,1.4s1.6,0,2.3-.3c.4-.1-.3-.7-.4-1-.5-.8-1-1.6-1.3-2.5-.1-.5-.3-1.1.2-1.4.4-.4,1.2-.3,1.1-1,0-.4.1-.8.2-1.2.7-.3.6-1.3,1.2-1.6.7-.3,1.4-.4,2.2-.3,1.6.5,3.3.8,4.9,1.5.8.5,1.9.1,2.3,1.1.9.6,1.6.8,2.2,1.5.4.3.7.8,1.3.9.6.2,1.3.3,1.6.9.3.6,1.1.6,1.6,1.1.6.4,1.3.6,1.8,1.1.8.6,1.8,1,2.8,1.5h0c.4.1.8.3,1.1.3.4.2,1.3,0,1.2-.5-.4-.3-.6-1.1.1-.9.5-.2,1-.6,1.4-.8.1-.9,0-1.8.4-2.6.4-.2,1.1-.3,1.3-.8.6-.3.1-1.1.6-1.5.2-.3.4-.4.6-.7.4-.8,1.7-1.5.9-2.4-.5-.5.5-.8-.1-1.2-.8-.5,0-1-.1-1.6-.1-.6-.3-1.2-1-1.1-.8,0-1.7-.9-1.4-1.8,0-.9-1.2-1.5-2-1.4-.3-.4-.8-1.4-.5-1.9.8-.4.6-1.3-.3-1.3-.6-.6-1.5-.3-1.7.5.6.3.1.4-.3.6-.4-.4-.5-.9-.8-1.4.8-1,0-2.1.3-3.1-.7-.4-.6-1.3-1.1-1.6-1.4-.3-1.1-1.9-1.9-2.8-.7-.6-1.7-1.1-1.6-2.1-1.2,0-1.1-.8-1.4-1.8.6-.4,2.2-1,1.6-2.2.3-1.3,1.7-1.3,2.8-1.4.3.8,1.5.4,1.9,0-.6-1.4,1.1-2.3,1.4-3.5-.3-.4-.1-.8-.6-.9-1,.1-1.8-.5-2.6-.6-.8.3-1.6-.3-2.3-.6-.8-.4-1.9,0-2.6-.8-.8-.4-1.6-.3-2.4-.4-.6-.7-1.5-.7-2.1-1.1-.8-.4-1.4-.9-2.1-1.5-.2-.6-.8-.9-1.3-.6-.6.6-1.1,0-.6-.6-.3-.9-1.6-.2-2.3-.8-.9,0-1.8,0-2.6-.4-.8-.6-1.7-.9-2.7-.7-.9-.5-2.1.4-2.6-.8-.8-.8-2.1.2-2.6-.8-.6-.7-1.8-.8-2.2-1.8-.9-.4-1.6-1-2.1-1.8-.3-.3-.8-.6-1.1-.6h0Z"/>
        <path id="path3425" d="M260.3,345.6c-.3,0-.5.8-.9.9-.9.3,0,.8.3,1.1.3,1-1.1-.2-1.6.3-.5.5-1.2.3-1.5-.3-.7-.3-1.5,0-2.2.2-.7.4-1.4.2-2.1-.1-.7-.3-1.4.1-2,.1-.6-.4-1.2-1-2-.7-1.4.2-2.7-.5-4.1-.6-.6.3-1.3.5-1.9.2-.5,1.1-.8.1-2.1.1-.3.4,0,.7-.4.9-.3.6-.7,1-1.1,1.4-.6.3-.9.7-1.5.9-.6.3-.4,1.3-1.1,1.5-.7.2-.3,1-.7,1.3-.5,0-1.3,0-1.2.8,0,.8-.9,1.2-1.6,1.3-.9.3-1.9.4-2.8.7-.1,0-.2.1-.3.2-.4.7-.1,1.7-.6,2.3-.6.6-1.6.6-2.5.8-.9,0-.4,1.1-.4,1.8-.1.4.5,1.9-.4,1.2-.8-.8-1.2.9-2.1.7-.7,0-1.7.6-2.2.3-.1-.6-.6-1.6-1.3-1.6-.5-.1-.6-1,0-1.2-.3-.8-1.5-.3-2.1-.5-.6-.6-1.3-.1-2-.3-.6,0-.9-.6-1.5.3-.6-.2-1.1.3-1.8.2-.6-.3-1.3,0-1.8.4-.6.4-1.4.3-1.7,1.1-.1.2-.3.4-.4.6h-4.5l8.2,25.8,6.5,24.2,3.8-.9c1-.5-.2-1.3.4-2.6.6-.2.3-1.1.1-1.6-.4-.6,0-1.2.1-1.9,0-.8-.3-1.8.5-2.1.8-.1,1.3-.4.9-.9-.1-.8.3-1.4.1-2.1-.2-.6-.1-1.7.6-1.8.6.3,1.2,1.1,1.8,1.4.7.3,1.4.7,2.1.6.8,0,1.8,0,2.5-.3.6-.4,1.1.3,1.4.7.3.6.6,1.3,1.1,1.8.5.6-.1,1.4,0,2,.3.6.7,1.2,1.1,1.7l.7.6,1.1.6c.2,0,.4.1.6.3.5.5,1.2.6,1.9.4,1-.2,1.9-.6,2.8-1.1.4-.7,1-1.1,1.6-1.6.3-.4.4.3,1,.1.5-2,1.7-.7,2.4-.5.6-.1.8-.9,1.4-.6.7,0,1.6,0,2.3.3.4,1.1.7,2.1,1.1,3.3h.9c.5,0,1.4,0,1.4.8,0,.5.4.8.3,1.1-.3.5.3.6.4.9.1.7.9,0,1.4,0,.4-.5.1-1.4.4-1.8s.9-1,1.4-.5c.5.5,1.1-.3,1.3-.8-.2-.5-.2-.9,0-1.4-.2-.6.4-.3.8-.6.5-.3,1-.6,1.5-.3.5-.1.9,1,1.2.3.3.3.4.3.7,0,.5-.2-.4-.6-.5-1,.4-.3.9-.7,1.4-1,.4-.1.8,0,1.1.2.3-.6,0-1.4.5-1.9s.3-1.2-.2-1.5c-.4-.3-.4-.9-.4-1.3-.2-.6,0-1.1,0-1.6-.2-.8.4-1.6,1.1-1.6s1-.4,1.4-.1c.4.3,1,0,1.4.3.6.2.9-.5,1.5-.3.6-.1.9.2,1.1.7.3.4.7.8,1.2.8.4,0,.9-.5.7-.9-.2-.3-.4-.4-.7-.6-.2-.1-.3-.3-.5-.4v-.4c.3-.4.7-.6,1.1-.5.4-.5.8-1,1.1-1.6.2-.4.4-.8.4-1.2.6-.3.9-.6.9-1.3.1-.6-.3-1.2-.5-1.8-.3-.9-.4-1.8-.6-2.6.4.1.8.3,1,0,.4.2.7.8,1.1.6.2-.1.4-.2.6-.3.8-.2,1.6-.9,2.4-.4.6.2,1.4.8,1.8.7-.3-.6,0-.9.7-1,.4-1-.4-1.9-.6-2.6.9-.6,1.9-1.1,2.9-1.6.5-.7,1-1.3,1.9-.8.6.6,1.7.4,2.3,1.1.7.7,1.6.9,2.5,1.3.8-.1.8-1.2,1.4-1.6-.9-.2-1.7-.4-2.3-1.1-.6-.3-1.3-.3-1.8-.8-.8-.2-1.7-.3-2.3-.9-.6-.6-.9-1.6-1.9-1.4-.8.1-1.1-.7-1.6-1.1-.8,0-.9-1-1.6-1-.3-.4-.4-.9-.8-1.2.6-.2,1.3-.5,1.9,0,.8.3,1.5.8,2.4.9.8,0,1.1,1,1.8.9.6.3,1.1.9,1.8.6.5-.3,1.4.1.6.5-.9,0-1.1,1.2-.1,1.2s1.6.5,2.3,0c0-.4-1.1-1.4,0-1.5,1,0,2,.4,3,.3.8-.1.3-.5-.1-.8-.1-.8-1-1.1-1.5-1.6-.3-.6-.9-1.1-.7-1.8.1-.3.4-.3.6-.4.3-.9.9,0,1.5.1.4.6,1.1.7,1.6,1.1.6.3.8-.9,1.2-1.4.3-.9.9-1.4,1.6-2s.7-1,.7-1.6c.3-.6.9-1.1,1.1-1.7.4-.6.8-.9,1.1-1.5.8-.1.8-.9.9-1.5h0c.7-.2,1.3.3,1.9.6.8.5,1.9-.3,2.6.6.4.4,1.6.8,1.8,0,.4-.8,1.5-.9,2.3-1.1.9.6,1.6,0,2.2-.8.7-.5,1.5-.4,2.3-.5.8-.4,1.4.7,2.1,0,.5-.6,1.3-.6,2-.6.8.1,1.6.7,2.5.5.8-.1,1.1-.9,1.9-1l.4-.4c-.4-.6-1-1-1.7-1.1-.6,0-1.1-.5-.9-1.2,0-1-1.4-1.4-2-.8-.7.6-1.4-.3-2.1-.4-.7-.3-1.7,0-2.1-.9-.6-.8.4-.8.9-1.3.6-.1,1.2-.4,1.8-.2.8,0,1.6,0,2.2-.5.6-.3.7-1.1.1-1.5-.6-.5-.9-1.3-1.4-1.9-.2-.2-.5-.3-.8-.3-.2,1.1-.7,1.4-1.9,1.8-.3.2-.4.4-.8.3-.8.2-.9,1.1-1.5,1.5-.7.2-1.4.4-1.9.8-.3.6-.9,1.1-1.6.8s-1.4-1-2.3-1.2c-.7-.4-1.4.3-2.1-.1-.3-.7-1.3-.8-1.9-.3-.6.7-1.4.5-2.1.3-.8,0-.4-.8-.9-.9-.6.1-1.5.3-1.9-.3h0c-.2-.2-.8-.2-1.3-.4s-1.1-.5-1.4-.5c0-.4-.4-.6-.3-1.1-.1-.4-1-.9-1.3-.4-.4,0-.8-.6-1.3-.6-.6-.3-1.3-.7-1.8-.7-.3-.6-.8-.5-.9.1-.3.6-.9.5-1.1,0-.9-.4-1.8-.7-2.8-.8-.4.3-.5,1.1-1,1.1-.4-.6-1,0-1.6,0-.5,0-1.3-.2-1.1.6-.6.3-1.6.5-2.2.2-.4-.3-.8-.5-1.1-.9-.8.6-1.9.4-2.9.8-.9.2-1.8,0-2.6.5-.8.6-1.9.2-2.7-.1-1.1-.2-2-.6-2.8-1.4-.6-.3-1.3-.2-1.9-.3-.3,1.1-1.5.9-2.4,1-1.4,0-1.1-1.8-2-2.3-.6-.4-1.4-1.1-1.3-1.9-.3,0-.9-.3-1.1-.4-.1-.2-.3-.2-.4-.2h0l.3-.4Z"/>
        <path id="path3423" class="st12" d="M218,190.3c-.7.3-1.6.2-2.1.8-.5.8-1,1.4-2,1.5-1,.2-1.9.6-2.6,1.3-.5.4-1.1.9-.5,1.4.2.9-.9,1.1-1.5,1.4-.9.1-1.2,1.3-2.2,1.4-.6.3-1.1.5-1.7.8-.3.9-.9,1.7-.8,2.7.2.9.7,1.8,0,2.6-.6-.4-1.2-1.1-1.5-.2-.7.6-1.1,2.3-2.1,1.4-.7-.2-.9.4-.6,1-.9.4-.8,1.4-.8,2.3s.3,1.7-.3,2.4c-.5.8-.8,1.8-.2,2.6.2.9,1.3.9,1.9,1.4.3-.2.4-.6.8-.3-.2.9.5,2.1-.7,2.6-1.1.6-2.5.4-3.6,1.3-.9.2-.8.9-.6,1.6-1.1.3-1.6,1.3-2.5,1.9-.8.8-1.7,0-2.6.3-.8.4-1.7-.8-2.2,0-.6.9-1.6,1.2-2.4,1.7-.3-.3-.6-.6-.9-.8-.7,0-1-.9-1.6-1-.4.4-1,.7-1.3,1.2-.1.6-.8.9-1.3,1.1-.6.3-1.2.2-1.8.1-.5.3-1.2.1-1.6.5-.4.5-.7,1.4-1.4,1.1-.6,0-.9-.5-1.4-.8-1-.2-.2,1.3-.8,1.6-.7,0-1.3.1-1.9.4-.8.3-.7,1.1-1.1,1.6-.3.5-.6,1.4-1.3,1.1-.3.8-1.1,1.8-1,2.5.4.5,1,.6,1.6.9.4.3.8,0,1.2,0,.7,0,1.1.4.6,1-.2.6-.6,1-1.3,1.1-.7.3-1.6-.1-1.8.8-.7.5-1.1,1.3-1.6,1.9-.6.2-.8.9-1.5,1.1-.4.3-.7.8-1,1.2l-3.1,3.2.3.6,9.7,40.1,6.1,13.2,3.5-.7c.4,0,.7-.9,1.1-.2.3,0,.7-.1.8.1-.3.6.6.9.4.3-.3-.8,1-.4,1.3-.8.3.4,1.1.2,1.3.9.8.6,1.3-.5,2.1-.7.6-.4,1.5-.2,1.9-.8.3-.8.7-.3,1.3-.3.2-.6.7.2.9-.4,0-1,.7-1.4,1.4-1.9.8,0,.2-.7.8-.9-.2-.7-.2-1.4-.8-2.1-.5.5-1.1,0-1.6.1-.8.3-.3-1.2-.7-1.3-.8.2-.6-.4-.4-.9-.4-.7.3-1.8.4-2.6.3-.9.3-2,.8-2.8.6.4.8-.4.4-.7.1-.7-1.1-.5-1.6-.8.3-.7.1-1.1-.6-1.3-.8-.5-.3-1.1.3-1.6h.3c.5-.4.2-1.1.4-1.6,0-.6.8-1.1,1.3-.6s1.5.8,2.3,1.1c.4.3,1.1.5,1.4,0,.3-.4,1.1-.6,1.5,0,.4-.4,1.2-.1,1.5-.8.3-.6,0-1.3.2-1.9,0-.5-.4-1.6.4-1.5.4.1.6,1,.9.4.3-.6-.3-1.4.3-1.8.6.1,1.2.4,1.8.4.4-.1,0-.8,0-1.2-.3-.6,0-1.6.8-1.2.4.4.9,1.3,1.6.8.3-.5.9-.9,1.1-1.6,0-.6,0-1.3.7-1.4.6-.3,1.4-.2,1.2.6.3.8.9-.3,1.4-.3.8-.1.6.7.3,1.1,0,.1,0,.3.1.4.5.4,1.1,0,1.7.2.8.3.5-.8.9-1,.1-.4.2-1.3.9-.9.2.4.1.9.6,1.2,0,.8,1,1.1,1.1,1.8,0,.9,1.1.5,1.7.4.6,0,1.4.5,1.6-.3,0-.6.6-1,.9-1.5.3-.6.3-1.5.6-1.8.6,0,1.3-.3,1.8,0,.6.4,1.3-.3,1.7-.7.6,0,.8,1,1.4,1.1.6-.1,1.5-.5,1.8.2-.2.8.8.6,1.2.7,0-.6.1-1.2.2-1.8-.1-.9-1.1-1.3-1.3-2.1-.6-.9.3-1.8.1-2.7-.1-.7.4-2.6,1.3-1.5.4,0,.8-.4,1.3,0,.6-.2,1.8.5,1.8-.4.2-.8.6-1.4.6-2.3-.9,0-1.8-.2-2.8-.3-.9,0-1.8,0-2.4-.6-1-.5,0-1.6,0-2.3-.6-.2-1.2-.4-1.8-.5-1-.3-2.1-.1-2.8.4-.9.7-.8-.7-.6-1.2-.3-.5,0-.8.4-1,.6-.2.7-.9.8-1.2.7,0,1.7.7,2-.3.8.4,2.5.4,2.4-.8.5-.5.2-1.1.2-1.7.3-.9,1.2-1.8,1.8-2.5.6-.5,1.5-.8,2.3-.9,1.1.3,1.9-.4,3-.6.1-.2.3-.4.4-.6.6-.6,1.4-.9,2.3-1-.1-.7,0-1.3.1-2,.3-.8.6-1.5,0-2.3-.4-.6,0-1.4.1-2.1.4-.8-.2-1.4-.7-1.9-.8-.5,0-1.3.1-1.9.3-.4-.3-1.6.5-1.4.6,0,1.1,0,1.6.3.8.4,1.6,0,2.4,0l.6-.6c.1-1.3.4-3.1.5-4.5.9-.5,2.4-2,3.4-2.5,1-.2,2.4-.8,4.1-1.4,1.1,0,1.9-.9,2.6-1.9.1-.9-.8-1.1.8-2.1,1.2-.6,0-1.4.3-2.3-.3-.9.8-1.3,1.2-2.4.4-1.1,0-2.2,0-3.3.2-1.1-2.7,0-3.6.5-1.1.1-2.4,1.4-3.3,1.3-.4-.3,2.1-1.9,1.8-2.5-.9-1.3-1.3-1.8-3.4-2.4-1.3-.2-2.9-.5-3.6-1.6-1.3-.9-4-1-5.1-2.2,0-.8.3-1.6.2-2.4-.6,0-1.7.5-2.4.6-.7-.4-1.3-.9-2-1.3-.8-.4-1.3-1.3-2.2-1.5-.9-.4-2.1-.3-2.8-1-.6.1-1.1,1.1-1.7,1.6-.3-.3-.6-.6-.8-1-.5-.5-1.2-1.2-1.9-.8-.4.4-1.3-.6-.9-.9.6-.5-.6-.9-.9-1.3-.3.2-.6.3-.9.5-.4.4-1,0-1.5.1-.7.6-1.3,1.2-2.1,1.7-.3-.4,0-1.7-.1-2.4,0-1,.8-2,.3-2.9-.1-.9-.8-1.7-1.3-2.5h0l.4-.3Z"/>
        <path id="path3419" class="st13" d="M114.5,91.5s.3,0,.5-.3l-.5.3Z"/>
        <path id="path3316" class="st12" d="M284.2,530.8c-.1,0-.3,0-.6,0,.3.6,0,1.3-.2,1.9.3.4.9.8,1.3,1.4.5.4.9,1,.5,1.6-.3-.1-1.3,0-.8.4.6,0,1.1.6.8,1.1h-1.9c-.6-.2-.6.3-.8.6.6.4-.3.9-.8.7-.4-.2-.5.1-.6.4-.8,0-1.7,0-2.5-.3-.6-.2-1.3-.3-1.8-.6-.6-.1-.9.5-1.3.8-.5,0-.5.7-.9.8-.3-.5-.7.1-1.1,0-.7-.6-.8.3-.7,1.1l-3.8,1.6,35.5,47.7,16.4,12.6,3.4-.8c.4-.2,1.2-.1,1.3-.8.6,0,.9,0,.5-.6-.5-.7,0-.8.6-.8.6-.3,1.1-.9,1.8-1.3,1.1-.8,1.9.5,2.9.3,1-.8.9,1,1.8.9.4-1.1-1.6-1.9-.8-3.2.8-.6.5-2.5-.6-2.1-.4.2-1.4,1.4-1.5.8-.2-.9,1.4-1.4.8-2.4-.4-.5-1.6-1.4-.4-1.9.8-.8.9,1.1,1.6.7.6-.4,1.2-1.1,1.6-1.6.2-1.1,1.1-1.8,1.9-2.5v-.6c0-.7.2-1.4.6-1.9.4-1,1.5-.9,2.4-1.1,1.1.1.9-1.5.4-2.1-.8-.6-1.4-1.4-1.6-2.4-.3-.8-.2-1.8-.8-2.4-.1-.6.9-1.1,1.3-1.6h1.1c.6.5,1.2.9,1.6,1.5.3.8,1,.4,1.3-.1.5-.6,1.6-.4,2.1-1.1.4-1.2.8-2.3,1.4-3.4.6-.7,1.3-1.8.3-2.4-.6-.9-.7-2.1-1.2-3.1-.7-.7-1.3-1.5-1.9-2.3-.8-.5-1.1-1.4-1-2.3.4-1.2-1.3-1.1-1.5-2.1-.5-.9-1.4-1.5-2.2-2.2-.4-1-1-1.8-1.4-2.8.6-.9.5-2.1,0-2.9-.8-.6-.5-2.1-1.7-2.2-.9-.5-1.6-1.4-1.3-2.4-.2-.7-1.2-1.6-.7-2.3.4-.1.8.8,1.4.8.8.3,1.5-.6,1.8-1.3.7-.8-.6-1.6,0-2.2-.9-.4-1.9-.8-2.8-1.4-.5-.6-1.2-.8-1.8-1.1-.4-.6-1.3-.5-1.6-1.1s-1.1-.7-1.6-.9c-.6,0-.9-.6-1.3-.9-.6-.6-1.3-.9-2.2-1.5-.4-.9-1.5-.6-2.3-1.1-1.6-.8-3.3-1.1-4.9-1.5-.8-.1-1.5,0-2.2.3-.6.3-.6,1.3-1.2,1.6,0,.4-.1.8-.2,1.2.1.8-.7.6-1.1,1-.5.4-.4.9-.2,1.4.3.9.7,1.8,1.3,2.5,0,.3.8.9.4,1-.7.3-1.5.3-2.3.3s-1.1-.9-1.6-1.4c-.6-.3-1.3-.6-1.9-.4-.6.1-.6.9-.8,1.4-.3.4-1.1.3-1.6.4-.5.1-1.1-.3-1.5,0-.6.4-1.2.8-1.8,1.1-.1-.2-.3-.4-.4-.6-.6-.6-1.4-1.1-2-1.7,0-.4,1.3-.7.7-1.3-.3-.7-1-1.2-1.4-1.8-.5-.6-.9-1.3-1.8-1-.8-.3-.9,1-1.6.5-.5-.5-1.4-.4-1.9-.9-.4-.6-1.1-.3-1.6-.6-.1-.6-.8-1.1-.8-1.8s-.7-.9-1.1-1.1c-.5-.6-1.5,0-1.6-.8-.2-.6-.4-1.2-1.1-1.4-.4.3-.7.5-1.1.4-.1.5-.8.7-1.1.2-.4-.4-1-.3-1.5-.4-.1-.2-.3-.3-.4-.4h0l-.3.2Z"/>
        <path id="path3314" class="st12" d="M333.7,340c-.3.2-.6.5-.9.8-.8.8-1.8,1.4-2.7,2.1-.7.4-1.4.7-1.9,1.3-.4.4-.9.8-1.4,1-.4.2-.9.3-1.4.3-.4,0-.6.1-.9.3-.5.1-1,.3-1.4.6-.6.3-.9.9-1.5,1.2-.4.3-1.1.3-1.6.3-.3.2,0,.6.2.8-.3.2-.6.4-.9.6-.5.2-1.1.3-1.6.4.4.4.7.9,1.1,1.3.3,0,.6.1.8.3.5.6.8,1.4,1.4,1.9.6.4.5,1.3-.1,1.5-.6.4-1.4.5-2.2.5-.6-.3-1.2,0-1.8.2-.4.4-1.4.5-.9,1.3.4.8,1.4.6,2.1.9.7.3,1.4,1.1,2.1.4.6-.7,2.1-.3,2,.8-.2.7.3,1.1.9,1.2.7.1,1.3.6,1.7,1.1-.1.1-.3.3-.4.4-.8.1-1.2.9-1.9,1-.9.2-1.7-.3-2.5-.5-.8,0-1.5,0-2,.6-.8.6-1.4-.4-2.1,0-.8.1-1.6,0-2.3.5-.6.7-1.3,1.3-2.2.8-.8.3-1.8.4-2.3,1.1-.2.9-1.3.5-1.8,0-.7-.8-1.8,0-2.6-.6-.6-.4-1.1-.8-1.9-.7h0c-.3.7-.2,1.4-.9,1.6-.4.6-.8,1-1.1,1.5-.3.6-.8,1.1-1.1,1.7,0,.6-.3,1.2-.7,1.6-.6.6-1.3,1.1-1.6,2-.4.4-.6,1.7-1.2,1.4-.5-.5-1.2-.6-1.6-1.1-.6-.1-1.2-1-1.5-.1-.2.2-.5.2-.6.4-.1.7.5,1.2.7,1.8.6.5,1.4.8,1.5,1.6.4.3.9.6.1.8-1,0-2-.3-3-.3-1.1.1,0,1.1,0,1.5-.7.4-1.5,0-2.3,0-1,0-.8-1.2.1-1.2.8-.3-.1-.8-.6-.5-.8.3-1.3-.3-1.8-.6-.8.1-1.1-1-1.8-.9-.9,0-1.6-.6-2.4-.9-.6-.4-1.3-.1-1.9,0,.4.3.5.8.8,1.2.8,0,.9,1.1,1.6,1,.5.4.8,1.2,1.6,1.1,1-.2,1.4.8,1.9,1.4.6.8,1.4.8,2.3.9.4.5,1.1.5,1.8.8.6.7,1.4.9,2.3,1.1-.6.4-.7,1.5-1.4,1.6-.9-.4-1.8-.6-2.5-1.3-.6-.7-1.6-.6-2.3-1.1-.9-.6-1.4,0-1.9.8-.9.6-1.9,1.1-2.9,1.6.2.8.9,1.7.6,2.6-.6,0-.9.4-.7,1-.3,0-1.3-.5-1.8-.7-.8-.4-1.6.3-2.4.4-.2.1-.4.2-.6.3-.4.2-.8-.4-1.1-.6-.3.3-.6,0-1,0,.2.9.3,1.8.6,2.6.2.6.6,1.2.5,1.8,0,.6-.3,1-.9,1.3.1.4-.1.8-.4,1.2-.3.6-.6,1.1-1.1,1.6-.4-.1-.8.1-1.1.5v.4c.2.1.3.3.5.4.2.2.5.3.7.6.1.4-.3.8-.7.9-.5,0-.9-.4-1.2-.8-.2-.5-.6-.8-1.1-.7-.6-.2-.9.5-1.5.3-.4-.3-1.1,0-1.4-.3-.5-.3-.9.2-1.4.1-.8,0-1.3.9-1.1,1.6,0,.6,0,1.1,0,1.6,0,.4,0,1,.4,1.3.5.3.6,1.1.2,1.5-.5.5-.3,1.3-.5,1.9h0c-1,1.1.8,1.3,1.4,1.6.9.3,1.9.7,2.8.3.7-.9,1.1.4,1.9.3.5.6,1.4.5,2.1.9,0,1,.9.9,1.6,1.3.9.9,2.1,1.1,3.1,1.8,1.1,1,1.8-.1,2.6-.9,1.1.4,2.2.9,3.4,1.3,1.4.9,2.8,1.8,4,3,.9.8,1.6,1.9,2.3,2.8,1.1,1.1,1.8,2.4,2.8,3.5.5,1,1.3-.6,1.6.6.9,1.1,2.8,1.1,3.1,2.6.6,1.3,1.4,2.6,1.4,4.1.3.3.6.4.9.7.6.7,1.1,1.4,1.7,2.1.8.6,0,.8-.4,1.2-.4,1.1.7,1.8,1.3,2.5.7.4.3.9-.1,1.3-.9-.6-1.9-1-2.7-1.7-.5-1-1.9-.7-2,.3.3.6-.3.6-.6.8,0,.8.2,1.6.4,2.4-.3.8.7,1.9-.3,2.1-1.1.1-.8,1.2-.4,1.9,0,1.3.1,2.6.2,3.9h1.4c.4.4.4,1.3.7,1.8,1.1.9,2,1.9,3.1,2.7.6-.4.9.2,1.3.6.4.5,1.4,1.4,1.8.6.3-.6.6-1.2,1.2-1.6.5-.1,1.3.6,1.5,1.2.2.6,1.1,1.2.7,1.8.4.6.4,1.3,0,1.9-.9.3-1.9.4-2.9.8-.5.5-.9,1.2-1.4,1.8-.5,0-1.7.5-1,1.1.6.3,0,.6-.2,1.1h2.6c.9.1,1.8.6,2.8.7.9.3,1.9-.1,2.6.7.4.2,1.5-.6,1.3.4,0,.3-.1.8.1.9.6.3,1.6.4,2.1-.1.6-.3,1.4-.5,2.1-.7.8-.4,1.6,0,2.3,0-.3-.8-.8-1.4-1.3-2.1-.3-.8-.9-1.6-1.1-2.4.2-1,1.1-1.1,1.9-.9.6,1.1,1.5.3,2.3,0,1.1-.2,1.6-1.3,2.3-2,.6-1,1.9,0,2.6-.6.6-.3.7-1.5,1.4-1.4.9,0,1.8.9,1.1,1.8-.2.7,0,1.4.1,2.2.9-.8,1.7-1.2,2.9-1.2.1.5.5.6.3,1,.2.2,1.8-2,1.8-.4.6.4-.6,1.5.5,1.4.3,1.2,1.9.1,2.4.7.8.1-.4,1.3.4.9.4.3,1,.9,1.7,1.2-.2.7,0,1.2.3,1.8.4-.3.9,0,.7.6-.1,1.3,1.4,2.4,2,3.5.5,1.3-.8,2.3-.6,3.6-.2.3-.4.4-.6.7-.6.7.7,1.6-.2,2.3-1.1.4.6.9-.2,1.4-.5.6-1.5,1.2-.9,2.1.3.8,1.3,1.1,2,1.3.9.2,1.1.9,1.1,1.8.3-.3.4-.3.7,0,.3.3.1-.5.3-.7.7-.1,1.6.4,2.1,1,1,0,1.6.9,2.6,1.1h0c.5-.4-.2-1.2.8-1.1.3-.8-1.4-2.7-.4-3.6,1.3-.4,2.4-1.6,2.1-2.9-.7-.6,0-.8-.2-1.4.4-.7,1.2,0,1.1.8.4-.3,1.7-.1,1.3-.8-.3-1.1,1.3-1.8,1.3-2.8.6-.8-.4-1.4-.1-2.3-.5-.9,1.1-.8.8-1.5.2-.7.5-1.6-.4-2.2-.4-1.1,1.1-2,1.5-3.1,0-.3,0-.6-.1-1,.9-.6,1.3-1.9,2.4-2.3.8.5,1.6,1.2,2.6.5,1.2-.4,0-1.7,1.1-1.9-.7-.5-1.1-1.2-.9-2.1-.1-1.2,1-1.8,1.6-2.5.2-1.2-1.6-.5-1.3-1.6.3-1.1-.6-.4-1.3,0-.8.9-1-.4-1.8-.5-.4-.8-1.6-1.1-1.4-2,0-.8.2-1.8-.6-2.2-1.2.1-1.6-1.2-.9-1.9,1.4,0-.3-1.6.3-2.3,0-.9.7-.8,1.3-.9-.4-.4-.9-.6-1.4-.9-.6,1.3-1.4,2.5-1.9,3.9-.4-.2-1.3-.5-1.8-.8-.1-.6,0-1.3.1-1.9.6-.3.2-.6-.3-.4-.5-.6-1.1-.4-1.8-.1-.8.1-1.4.7-1.9,1.3-.5-.2-.8-.1-.5.5-.3.2-.6.4-.8.6-.4.2-.8.7-1.2.6-.5.3-1.1.4-1.6-.1-.6-.4-1.1-.9-1.8-.9-.6-.3-1.1.7-1.5,0-.6-.4-1.3-.9-1.4-1.7-.3-.8-1.7-.4-1.6-1.4.3-.8-1.4-1.1-1.5-.4-.8,0-1.1,1.1-1.9.4-.7-.4-1.8.2-2.2-.8h.1c0,0,.1-.1.1-.1.3-.4,0-1,.7-1.3.8-.4,0-1.3.4-1.9,1-.6-.3-2.6,1.3-2.5,0-.6.4-.8.9-1.1.5-1.1.6-2.3,1.4-3.3,0-.9-.3-2-.1-3-.4-1.3,1.3-.7,1.9-1.4.8-.4,0-1.5.1-2.2.3-.4.7-.8.7-1.4-.3-.8.8-1.3.8-1.6-.5-.3-1-.7-.9-1.4,0-.4-.3-1.3.4-1.1,1.1.2,1.4-1,2.4-1.1,0-1.1-.4-2.4-1.7-2.6,0-1-.8-.4-1.4-.8.4-1,.9-1.9.5-3,.9-.3,1.9-1.1.8-1.8-.8.3-1.6-.1-2-.9-.8-.6-.4-1.2-.1-1.9.9-.5,0-1.6.1-2.4.3-.3.5-.5.8-.8.8-.5,1.1-1.3,1.3-2.1,0-.9.8-1.5,1.4-2.3.6-.1.1-1.4.6-.9.7-.4,1.8.4,2.1-.8.6-.6,1.1-1.3.9-2.2-.6-.6-1.9-1.1-1.2-2.1-1.1.1-.4-1.2-.4-1.8-.3-.3-.8-.4-.9-.9.3-.6.7-1.1,1-1.8.2-1.1-1.1-1.4-1.3-2.4-.7-.7-1.6-1.2-2.1-2.1-.1-.8-.9-.9-1.3-1.4-.4-.8-1.1-1-1.8-1.4-.8-.7-.6-1.8-1-2.6,0-.8.9-2.4,1.8-1.4.6-.3,1.2-.6,1.9-.8.5-.4,1-1.4,1.8-1.2.8.7,1.8.9,2.8,1.1.2-.9,1.2-1.1.9-2.2-.6-.6-.3-1.2-.2-1.9,0-1.2.1-2.3.4-3.4-.1-1.3,1.3-2.1,1-3.3.2-.1.5-1,1.1-1.1.3-.8-.5-2.3-1.4-2.6-.8.3-1.9-.2-2.4.6-.4-.6-.1-1.9-.3-2.8-.5-.8.9-1.1.4-1.6-1.1-1.3-2.1-2.8-2.9-4.3-.5-.9-1.8-1.7-1.1-2.9.2-1.3,1.2-2.3.8-3.6-1.2-.2-2.4,0-3.8-.4-.3-.3-.6-.3-.9-.1-.4.3-.9,0-1.4,0-.4-.2-.8-.3-1.3-.3h-.1Z"/>
        <path id="path3312" class="st12" d="M211.6,284.4c.4.8,1.4,1.4,1.2,2.3-.5.8,0,2.1-.6,2.5-1.2-.2-1.5.9-1.9,1.8-1,.5-.8,1.8-1.9,2.4,0,.7-.8,1.7-1.4,1.7-.6-.1-.6-1.9-1.1-.7-.6-.8-1.4-.6-2.3-.9-.8-.6-.7,1.8-1.8.9-1-.8-2-1.8-3.4-1.6-1,0-1.9-.1-2.8-.4-.6.3,0,1-.8.9-.7.6-1.4.9-1.4,1.9-.1.6-.7-.3-.9.4-.6,0-1-.5-1.3.3-.4.6-1.3.4-1.9.8-.8.2-1.3,1.3-2.1.7-.3-.7-1.1-.5-1.3-.9-.3.5-1.6,0-1.3.8.2.7-.8.3-.4-.3-.1-.3-.6,0-.8-.1-.4-.7-.6.2-1.1.2l-3.5.7,14.5,30.9,10.5,33.2h4.5c.1-.2.3-.4.4-.6.3-.7,1.1-.7,1.7-1.1.6-.3,1.2-.6,1.8-.4.6.1,1.1-.4,1.8-.2.6-.9.9-.3,1.5-.3.8.1,1.4-.4,2,.3.6.2,1.8-.3,2.1.5-.5.2-.4,1.1,0,1.2.8,0,1.2,1,1.3,1.6.5.3,1.5-.3,2.2-.3.9.2,1.3-1.4,2.1-.7.9.8.3-.8.4-1.2,0-.6-.6-1.6.4-1.8.8-.3,1.8-.2,2.5-.8.5-.7.2-1.6.6-2.3.1,0,.2-.1.3-.2.9-.3,1.9-.5,2.8-.7.7-.1,1.6-.5,1.6-1.3-.1-.8.7-.8,1.2-.8.4-.3,0-1.1.7-1.3.8-.3.4-1.2,1.1-1.5.6-.2.9-.6,1.5-.9.4-.4.9-.8,1.1-1.4.4-.3.2-.5.4-.9,1.3,0,1.7,1,2.1-.1.7.3,1.3.1,1.9-.2,1.4,0,2.7.8,4.1.6.9-.3,1.4.2,2,.7.7,0,1.3-.4,2-.1.7.4,1.4.6,2.1.1.7-.2,1.5-.5,2.2-.2.3.6.9.9,1.5.3.4-.4,1.8.8,1.6-.3-.3-.3-1.3-.9-.3-1.1.6-.1.8-1.3,1.3-.7.3.2.8.4,1.1.4,0,.9.7,1.5,1.3,1.9.9.5.6,2.3,2,2.3.9,0,2.1,0,2.4-1,.6,0,1.3,0,1.9.3.8.8,1.7,1.2,2.8,1.4.9.3,1.9.6,2.7.1.8-.4,1.8-.3,2.6-.5.9-.4,2.1-.2,2.9-.8.3.4.7.6,1.1.9.6.3,1.6.1,2.2-.2-.3-.8.6-.5,1.1-.6.6,0,1.2-.5,1.6,0,.6,0,.7-.8,1-1.1.9,0,1.9.4,2.8.8.1.6.8.6,1.1,0,.1-.6.7-.6.9-.1.6,0,1.3.4,1.8.7.5,0,.8.7,1.3.6.3-.5,1.2,0,1.3.4-.1.5.3.6.3,1.1.3,0,1,.3,1.4.5.4.2,1.1.2,1.3.4h0c-.3-.4-.4-1.1-.9-1.6-.4-.1-1-.2-1.3-.7s-.7-.7-1.3-.8c-.6-.3-.2-1,0-1.4.2-.5.7-1.1.4-1.6-.7-.4-1,.8-1.6.8-.5,0-1.4-.3-1.3.6-.3.3-.6-.6-.9-.8,0-.7-.6-1.3-1.3-1.3-.5,0-.3-.9-.2-1.3.7-1,.8-2.2.9-3.3-1.4,1.1-2.5-.6-3.6-1-1.2,0-.9,1.7-2.3,1.3-1.1.6-2.4-1.3-2.8.1-.8.2-2.3.1-2.8-.4,0-1.3,1.6-1.2,1.8-2.6-.6-.3-1.8-.2-2.5-.8-1.4-.2-2.8-1.3-4.3-.8-.9,0-.7,1.6-1.9,1.3-1.4.6-1.6-1.1-2.9-1.2-.7-.7-1.9-2.6-2.1-.8-1.1-.9-2.3-.3-3.3.3-.1-.4.2-1.1-.6-.5-1-.4-1.2-1.8-2.1-2.5-.6-.8-.6-2-1.2-2.8-.6-.6-.9-1.8-1.9-1.9-1-.2-2.1,0-3,.4-.5-.6,0-1.9-1.3-1.7-1.3,0-2-.9-2.5-2-.6-1.1-2-1.2-2.9-1.6h-.2c-1.3-.4-2.1-1.4-3.3-1.5-.8-.9-1-1.9-1.8-2.8-.6-.8-1.1-1.9-2.2-1.8-.6-.9-2.1-1.5-1.1-2.8.3-.8.8-1.5-.4-1.5.3-.8-.9-1-.6-1.9-.5-.5-1.3-1.3-2-.4,0-1.1-1.5-2-.8-3.2.8.7,1.7.4,1.3-.6,1,0,1.9-1.2,1.4-2.2,0-.3,0-.5-.1-.7-1.7.1,0-1.9-.1-2.8.5-.7,1.6,0,1.6-1,.5-.5.6-1.3,1.4-1.2,1.1,0,1.7-.8,1.4-1.8-.2-1.1-.9-2-1.2-3.1.6-1,2.1.1,2.3-1.3.2-1.1.4-2.4,1.6-2.8.9-.8-.3-1.4-.8-1.8,0-.4.4-.6.6-.9-.2-.8-1.1-.6-1.7-.6-.6,0-1.2.2-1.8.3-.7-.1-1.4-.4-2.1-.1-.7.1-1.4.4-2.1.3-.6.1-1.2.4-1.8.3-.6-.2-.6-1.1-.6-1.6-.1-.7-.7-1.3-1.4-1.1-.8,0-1.4.4-2,.7-.5.4-.3,1.1-.6,1.6-.1.8-1,.8-1.6.5-.6-.2-1.1-.7-1.8-.4-.5.1-1,.4-1.5.3-.8-.3-1.4-.8-2.3-.7-.8-.1-1.5-.8-2.3-.4-.6.3-1.3.4-2,.2-.9-.3-1.4.5-2.2.8-.7.2-1.1-.7-.8-1.3.4-.5.2-1.1-.2-1.6,0-.4-.2-.8-.7-.8s-1.3.5-1.4-.4c-.2-.8-1-.4-1.5-.1-.6.3-1.2.2-1.7,0-.5-.3-1.1-.2-1.6-.3h.2Z"/>
        <path id="path3310" class="st12" d="M201.4,132.8c-.7.4-1.3.7-2,1.1-.6,0-1.3.1-1.9.1-.4,0-.8.1-1.1.3-.8.6-1.6,1.2-2.4,1.8-.3.3-.8,0-1,.3-.3.6-.9.8-1.4,1.2-.4-.1-.9-.3-1.4-.2-.5.2-1,.3-1.5.3-.3,0-.4.3-.6.5s-.3.6-.6.6c-.5.2-1,0-1.4-.2-.3-.2-.7,0-1,0-.3,0-.4-.5-.7-.4-.6.2-1.1,0-1.7-.1-.3-.3-.8-.4-1.3-.6-.4,0-.9,0-1.4,0,0,.6,0,1-.6,1.2-.5.1-1.1.2-1.3.7-.3.4-.3.8.1,1.1.3.3.4.8.6,1.3,0,.8,0,1.7-.4,2.4-.5.4-1.3.4-1.8.7.6.6,1.4,1.1,2.3,1.6-.1.4-.4.9-.4,1.3,0,.4.2.9-.1,1.3-.6.4-.3-.7-.8-.6-.4.3-.9,0-1.4.3-.5.2-1.1.4-1.6,0-.4.1-.8,0-1.1-.3-.6.3-1,0-1.4-.3h-1.1c-.4-.5-1.1.3-1.7-.1-.6,0-.8-.8-1.3-.9-.4,0-.8.4-1.3.6-.6,0-1.1,0-1.6-.4-.3-.2-.5-.3-.8-.3h-.8c-.3.4-.4.9-.8,1.2-.4.4-1,.8-1.3,1.4-.1.4-.3.9-.2,1.3.4.5,1.1.9,1,1.7,0,.6-.4,1.2-1,1.3-.6,0-1.1.4-1.3.9-.1.3-.2.6-.3.8h0l1.4.6.5.5.2,1.1-.5.8v1.1c-.1,0-.6.4-.6.4v.3l.4.4,1.3,1-.4.7h.9l.7.2,1.3.8.4.3.4,1,.7.2.7.8,1.1.6v.5c.1,0,.1.4.1.4l.5.3v.4c.1,0,1.1-.2,1.1-.2l1.4.2h.9c0-.1.3.2.3.2h.9c0,.1,1.3,0,1.3,0l.9.3.3.4,1.2.6-.2.3-.7.4-.4.4v.4l.3,1.6-.3.9-.5,1.3-.3.6v1.7l-.3.5v.8c0,0,.8.7.8.7v1.1c.1,0,.4.3.4.3l1.2.8,1.1.8,1.4.3.3.3.7.4h.7c0,0,.7.4.7.4v1l.3.7v.7c0,0,1.1,1.4,1.1,1.4l.3.3.5.3.7.7.9.5.4.5,1.1.8,1.1.6,1.1.9.8.3,1.3.6,1,.9.4-.4h.4c0,0,.6.2.6.2l.6-.8h.6c0,.1,1.4-1.4,1.4-1.4h.3l2.1.5v.9c.1,0,.6.6.6.6l-.6.6.6.9,1.2.2,1,.7,1.1.4.9,1,.7,1.1.9.8c.6-.3,1.1-.5,1.7-.8,1-.1,1.3-1.3,2.2-1.4.6-.3,1.6-.5,1.5-1.4-.7-.6,0-1.1.5-1.4.7-.8,1.6-1.1,2.6-1.3,1,0,1.5-.8,2-1.5.5-.6,1.4-.6,2.1-.8.6-.2.6-.9.1-1.3-.6-.4-.4-1.3-.7-1.9-.3-.9-1-1.5-1.2-2.4,1.3-.9,2.6-1.8,4-2.7.4-.4,1.1-.2,1.5-.6.4-.6,1.1.3,1.1.8.4.3,1.1.1,1.6.5.3.6.4,1.2.4,1.8.3.8,1.1-.2,1.4-.4.6.4.6-.4.7-.9.7-.4,1.4-.9,2.1-1.3.7,0,.7.8,1,1.3.8-.5,1.8-.5,2.5-1.1.6-.6,1.9-.5,1.9-1.4-.3-.8,1-.6.8-1.3,0-.7,0-1.3.3-1.9.4,0,.7-.1,1.1-.3,1.3-.4,2.7-.1,4-.3.6.4.6.3.8-.4.8,0,1.6-1.3.8-1.8-.8-.4-.8-1.4-1.2-2.1-.5-.4-1-.6-1.7-.6-.3-.4-.4-.9-.6-1.4-.2-.6-.4-1.1-.4-1.7,0-.6.3-1.6-.7-1.6,0-.2.6-.7.8-.7.4.8.8-.2,1-.6.8-.2,1.1-.8.8-1.6-.1-.5-.5-1.1-.9-1.4-.3,0-.8.3-.6-.1-.3-.8.9-1.3.4-1.9-.2-.9-.6.2-1.1.3-.7.4-1.3.8-2.1.4-.4.3-.9.7-1.4,1-.6.1-1.4-.3-2-.3-.7.1-1,1.5-1.9,1.1-.9.3-1.4-.3-2.1-.9-.6-.3-1.3-.4-1.9-.8-.2-.6-.3-1.2-.5-1.8-.3-.8-.3-1.7-.9-2.3-.7-.2-1.3-.7-1.9-1-.4-.7-.7-1.4-1.2-2.1-.5-.6-1.1.4-1.8.1-.8-.3-1.4.4-2.2.6-.7-.1-1.4,0-1.8-.7-.8-.6-1.4-1.4-1.4-2.4-.6-.4-.9-.8-.6-1.6.3-.6-.1-1.3-.3-1.9,0-.8-.3-1.4-.6-2.1-.8,0-.8-1.3-1.7-1.3h-2.3c-.6.4-1.3.7-2.1.5-1.2,0-2.1.9-2.9,1.6-.7.9-1.7.9-2.4,1.3l-.7-.6v-1c.1,0,0-1.5,0-1.5v-.8c-.1,0,0-6.6,0-6.6v-5.4c-.1,0-.3.2-.3.2Z"/>
        <path id="rect2405" class="st12" d="M61.3,27.3h0c0,0-.1,0-.3.1.6.6,0,1.3-.6,1.6-.6,0-1.9,1-2.1,0-.6.6-.8-.4-1.4-.4s-1.4.5-2.1.8c-.8.3-1.6.2-2.3.7-.8.4-1.7.6-2.4,1.1-.4.5-1,.4-1.6.8-.4.8-1.6.8-1.8-.3h-1.2c0,.1-3.4.8-3.4.8l40.3,92.7,2.9-2.2.4-.3c0-.1-.2-.5-.2-.6-.1-.4-.3-.9-.6-1.3-.3-.4-.4-.9-.5-1.4,0-.3,0-.6,0-.9-.3-.4-.6-.8-.9-1.3.1-.2.3-.4.3-.6.1-.3.3-.4.3-.8.3.1.5.3.8.3.3.3,1.1.6,1.3.2.5-.4,0-1.1.2-1.6-.3-.1-.3-.4-.1-.6.4,0,.3-.4.1-.7,0-.5-.6-.9-.3-1.3.1-.3.3-.6.5-.8.3-.3-.3-.5-.3-.8,0-.4-.1-.8-.1-1.3s-.2-1.1-.3-1.6c-.1-.4-.5-.7-.9-1-.3-.4-.6-.8-.8-1.3-.3-.3.3-.5.5-.4.4.1.8,0,1.1,0s.9-.3,1.4-.3c.3.1.5.3.8.1l.8-.8c.2-.1.4-.3.6-.4.4-.4.9-.8,1.2-1.3.3-.4.6-1.2,1.2-.9.6.3,1.3.4,1.9.2.6-.1,1-.4,1.4-.8.5-.3,1.1-.1,1.6-.4.6-.1.8-1.1,1.5-.7.6,0,.9-.5.9-1.1-.1-1.1-.3-2.1-.4-3.1.5-.3.6-1.1,1.2-1.3s1.3,0,1.9-.3c.5-.6,1.3-.1,1.6.4.4.6,1.2-.4,1.8,0,.4.7.9-.3,1.4-.1.6-.2.7-1,1.4-.9.4-.3.3-1.4,1.1-1.1.3.3.6-.1,1,0,.3-.3.9-.4.6-.9-.3-.6,1.1-1.2.6-.3-.4.6.6.8.6.2.5-.5.8-.5,1.3-.6,0,.4.8.3.9.6l.5-.3c.3-.1.5-.3.6-.5,0-.3.3-.6.4-.7-.2-.3-1.6-.7-1.5-2.1.3-1.1-1.2-2.3.2-2.9.6-.8,1.1-2.2.4-3.1-.8-1.1-2.1,0-2.9-1.1-.4-1.3-1.9-.6-2.3-1.5-.6-1.1-2-2.1-1.3-3.4.3-1.3.8-3.1-.1-4.3,0-.6.9-.2,1.3-.3,1-.4,1.5.8,2.3.8,1.2-.1,2.4-.6,2.9-1.7,1.6-.2.2-1.4.3-2.3-.3-.8-.3-3.1-1.4-2.2-.7,1-1.3,0-1.7-.4-.4,1.1-1.8.3-2.1,1.3-1.7.1-.7,1.4-.9,2.4-1.4.4-1.9,1.9-3.5,1.6-1.2.3-.8-.6-.5-1.2-.4-1.3,0-3.2-1.6-3.3-1.3,0-3.3-.3-2.9-1.9.4-1.4-.8-1.8-1.9-1.8-1.4.9-1.2-1.1-1.8-1.9-.5-1.1-.6-2.7.3-3.7,1.4.5,1.3-1.3,2.3-1.3,1.1-.4,2.5,1.3,3.1.1.9,0,1.4-.7,1.1-1.6-.5,0-1.1.2-1.6,0-.9,0-.9-.9-1.4-1.4-.4-.8-1.4.8-1.6-.3,0-.9-1.3-.8-1.7-1.6-.8.1-1.3.8-1.5,1.5-.3.9-1,1.4-1.4,2.2-.6.3-.3,1.3-1,1.1-.3,0-.9-.1-.9.4.1.8-.4,1.6-1.3,1.3-.8,0-1.1-.8-1.4-1.3-.7-.3-.3-2-1.3-1.4-.6.6-.5-.3-.3-.6.6-.3.7-1.2.3-1.7-.9-.3-1.4-1-1.2-1.9-.3-.6.9-1.9,0-2.1-.9.1-2-.8-2.6.3-.6.6-1.2,1.1-2,.8-.3.1-.5.1-.8-.1-.5-.4-1.9-1.3-1.3-1.9.4-.3,1-.6.9-1.2.3-.8,1.1-1.8.9-2.7-1.1.3-1.4-.8-1.3-1.7-.5.4-1.3.3-1.9.6-.9-.4-2.3-.3-3.1-.8-.4-1.1-1.1-2.2-2.4-2.2-.4-.4-1.4-.3-1.2.3.4.8.8,1.9.3,2.8-.1.9-1,.3-1.4.9-.3.9-1.1,1.1-1.7.3-.3.8-1.1,0-1.7.2-.7-.7-.5-1.8-.4-2.6-.3-.9,1-1.3,1.3-.4.6-.4-.1-1.1-.2-1.7.6-.8.1-1.8-.6-2.3-.7.1-1.1-.6-1.8-.3-.7.6-1.9,0-2.3,1-.3.7-2.1-.2-1.3-.7.9-.3.9-1.3-.1-1.3-.8,0-1.2-1.3-1.9-.8-.4.9-.8-.4-.4-.8.9.3.9-.9,1.4-1.4.6-.6,1.8-1.2,1.2-2.2-.6-.7-.2-1.7-.3-2.4-.6.6-1.1-.6-1.6-.6h-.1Z"/>
        <path id="rect2065" class="st0" d="M0,1v639.1h438.5v-44.6c-1.5.8-3,1.5-4.5,2.5-1.1.2-.6,1.5-1.3,1.9-1,.3-1.8,1-2.6,1.5-2.1,1.1-4.3,1.9-5.8,3.8-1.1.8-2.3,1.1-3.4,1.5-1.5.6-3,1.1-4.5,1.6-1.1.5-2.6.6-3.3,1.8-.3.3-.6.6-.9.8-1.4.6-.4,2-.9,2.9-.5,1.4-2.1,1.1-3,2-.9.8-1.7,1.7-2.9,1.8-1.3.2-2.2,1.2-3.5,1.3,0,.6-.4.9-1,.9-.6-1.1-2.3-.6-3.1-.3-1.3.3-2.7-.3-3.9.3-1.4,0-2.7.8-4.1.9-1.2.6-2.4.8-3.6,1.4-1.2.4-1.9,1.6-2.8,2.4-.7.7.2,1.4-.3,1.9-.4,1.3,1.1.3.8,1.4-.7.3-1.8.9-1.6,1.9-.8,0-1.7-.3-2.5,0-.5-1.1-1.8-.3-2.7-.6-1-.4-2.1-.6-3.1-.8-2.2-.6-4.5-.4-6.6-1.3-2.3-.6-4.5-1.3-6.6-2-1.8-.7-3.5-1.4-5.4-1.3-1.1,0-2.4.7-3.3-.3l-.2-.2-.3-.2c-.6-.9-.4-2.5-1.8-2.9-1.4-.8-2.6-1.8-4.1-2.3-1.4-.2-2.9-.6-3.6-1.9-.8-1.1-1.7-2.2-2.9-2.8-.9-.6-2.1-.8-2.9-1.5-.5-1.3-1.6-2-2.5-2.9-.8-1.1-1.8-1.8-2.9-2.3-.9-.9-2-1.5-2.9-2.3-1.3-.8-2.4-1.8-3.6-2.6-.4-.2-.8-.5-1.1-.9-2.1-1.8-4.5-3.5-6.6-5.3-1.9-.5-2.4-2.4-4-3.1.4-.3-.4-1.2-.8-.4-.4-.9-2.8-1.6-1.9-2.8-.8-2.8-3.2-4.7-4.9-7-3.4-4.1-6.9-8-10-12.3-2.2-2.8-4.5-5.4-6.7-8.2-1.4-1.5-2.3-2.9-3.4-4.8l-.6-.6c-1-1.4-2.2-2.7-3.3-4-.6-.8-1.1-1.5-1.7-2.2-.7-.8-1.4-1.6-2-2.4-.8-.8-1.3-1.8-1.9-2.6-.1-.6-.6-.9-1-1.4-.4-1.1-1.3-1.8-1.7-2.8-.3-.4-.6-.7-.8-1.1-.8-1-1.8-1.8-2.3-2.9-1.3-2.3-2.8-4.4-4.7-6.1-1.1-1.1-2.4-2.4-4.1-2.4.9-.6-.6-.9-1.1-.8-.6.6-1-.3-1.4-.7-.8-.8-1.5-1.4-1.9-2.5-.3-1.2-.8-2.3-.9-3.5-.4-.6-.4-1.4-.6-2.1-.6-1.7-1-3.4-1.4-5.3-.4-1.1.1-2.3-.4-3.3-.5-.8-1.1-1.6-1.4-2.5-.8-2-1.6-4-2.5-6-.5-1.4-1.3-2.8-2-4.2-.2-.6-.3-1-.7-1.4-.2-.3-.6-1-.6-1,.7-.3.7.1,1.1.6.1.4.6.4.5,0,.5-.8.5.7,1.1.6.6-.3,0-1.2.3-1.8.1-.7-.3-1.3-.4-2-.2-.6-.3-1.4.3-1.8-.3,0-.6-.3-.8.1-.6.6,0,1.3,0,1.9,0,.7-.8.7-.7,1.3-.3-.1-.6-1-.6-1.5s-.4-1.3-.9-1.6c-.6-.7-.8-1.6-1.1-2.3-.6-.9-1.1-1.8-1.2-2.9-.3-1.4.1-2.8-.2-4.2-.3-.6-1-.6-1.4-1-.3.1-1.1,0-.9.5,0,1.1.8,1.9,1.3,2.7.4.8.6,1.6.8,2.4.3.7.2,1.4.5,2,.2.6.8.9,1.1,1.5.3.8.8,1.4,1.1,2.2.3.5.3,1.2.6,1.7.6.4,0,1.3-.6,1h0c-.4-1.1-.9-2.3-1.4-3.5-.5-.8-.9-1.6-1.1-2.6-.9-2.2-1.9-4.3-2.9-6.5-.6-1.5-1.5-2.8-2.1-4.3-.6-1.7-1.6-3.3-2.4-4.9-.4-1.6-1.1-3.1-1.8-4.6-.6-2.2-2.4-4-2.5-6.3-1.1-1.9-1.1-4.1-2.3-6-1-4-1.8-8.1-2.6-12.1.1-2.3-.9-4.4-1-6.6-.4-2.3-.5-4.6-.7-6.9-.5-2.3-.4-4.6-.6-6.8-.4-4-.7-8.1-1.6-12-.1-.8-.3-1.7-.4-2.5-.3-2.4-.8-4.8-1.3-7.2-.4-1.8-.6-3.6-1.1-5.3-.4-1.8-1.2-3.4-1.8-5.1-.2-.8-.8-2.1.3-2.5.9-.6,1.7.1,2.2.9.3,1,.3,2.1.6,3.1.3.9,1.4,1.1,2.2,1.5.8.4,2.1.7,1.9,1.9-.1.6.3,2-.1,2.3-.7-.5-.6-1.3-.9-2-.4.4,0,1.4.1,2,.2,1.4.4,2.9.8,4.4.6-.9,0-1.6,0-2.7-.6-.4.3-1.6.6-.7.6.6,1.6.9,2.3,1.3.6.6,1.6,0,1.8,1,.4.8.9,1.6.8,2.4-.2.8.2,1.6.7,2.2.6.8,1.4,1.4,2.4,1.5.7-.8.7.5.4.9-.6.4-.9,1.2-1.1,1.9,0,.9.6,1.8.9,2.6.5.8-.1,1.7.2,2.6.5.6-.4,1.7.3,1.9.1.9-.9,1.6-.7,2.5.3.9,0,2-.6,2.6.4.4.3,1.1.9,1.4,0,.9.8.9,1.5,1,.3.8,1.1.2,1.6.6,0,.5-.3,1.3-.3,1.9,0,1-1.5,1.1-1.3,2.3-.6.7.3,1.5-.3,2.2-.5.8-1.1,1.5-1.4,2.4,0,.7-.6,1.3-.4,1.8,0,.6.6,1.1.3,1.8-.8.6-.9,1.4-1,2.3,0,.8-.2,1.6-.3,2.4-.4.8-.3,1.9.5,2.5.8.7,1.6,0,2.5.8.2.1.3.2.6.2.1-.2,0-.6,0-.8,0-.8,0-1.6,0-2.4.3-.3.7-.5,1.1-.7.4-.3,1-.3,1.4-.6.3-.2.1-.6.3-.8.4-.3.8-.3,1.2-.6.3-.1.1-.5.2-.8,0-.3.3-.4.4-.6.3-.5.3-1.1.5-1.7.3-.6,0-1.3.4-1.9.4-.5.6-1.2.2-1.8-.1-.5-.6-.8-.6-1.3,0-.6-1.1-.5-.8-1.3.3-.8-.6-.6-.9-1.1-.3-.4-1.1-.1-.8-.7,0-.6,0-1.1.2-1.6.3-.3,0-.4-.1-.8.3-.8.8-1.4,1.3-2.2,0-.3,0-.7,0-1.1,0-.6-.8-1-1.4-.8-.4.4-.6-.1-1.1-.2-.4-.2-1.8.3-1.4-.6.3-.8.8-1.6.8-2.4,0-.7,0-1.3.1-1.9-.2-.7,0-1.5-.4-2.1-.2-.6-1.1-.9-1.1-1.6-.7-.1-.6-.7-.5-1.3-.4,0-.2-.4-.4-.8-.7-.6-.1-1.4.4-1.8-.2.3,0,.9.4.7-.4-.6.3-1.1.5-1.6.4-.4,1.2-1.3.8-1.8-.6.4-1-.4-.6-.9,0-.2,0-.4,0-.6-.1-.4.3-.4.4-.5.3-.6-.8-1-1.1-.4-.5.3-1.1-.6-.9-1.1.3-.6,1.1-.6,1-1.4.2-.8-.4-1.2-.8-1.7,0-.7-.5-1.1-.8-1.8-.1-.6-.4-1.1-.7-1.6-.3-.4-.4-.9-.6-1.4-.4-.3-.5-.8-.6-1.2-.2-.6-1.3.3-.9-.4.6-.4.3-1.3-.4-1.3-.6-.2-.4.4-.4.7-.2.4.1.9-.3,1.3,0,.6.2,1.1.4,1.7.3.5,0,1.1.4,1.6.6.4-.2.8-.6.7-.7.3-1.2-.3-1.8-.6-.6,0-.1-.4,0-.6-.7-.4-.6.3-.5.8-.4,0-.9,0-1.3-.4-.3-.5,0-1.1-.4-1.5v-1.6c-.2-.6.3-.9.8-.8-.3-.3-.4-.8-.7-1.1-.3-.2,0,.7-.3.3-.6-.5-.9-1.2-1.3-1.9-.4-1.1-1.1-2.1-1.6-3.2-.6-1.1-1.1-2.1-1.4-3.2,0,0-.1.2-.1.3,0,.4,0,.8,0,1.2-.2-.3-.4-.6-.6-.9-.2-.3,0-.6-.1-.9,0-.4-.1-.9-.4-1.3-.3-.6-.6-1.1-1-1.6-.4-.6-.9-1.1-1.4-1.6-.2.2-.2.6-.4.8-.3.3,0,.6,0,1s0,.8.2,1.1c.1.3.2.7,0,1,0,.6.1,1.1.4,1.6.2.3,0,.4,0,.7.1.3.4.6.6.9-.1.2-.6.1-.8.1-.5-.1-1-.1-1.6,0-.2-.3-.3-.6-.5-.9-.2-.5-.1-1.1-.3-1.6,0-.6-.3-1-.4-1.4.1-.6-.3-1-.4-1.6.2-.6-.3-1.1-.4-1.7-.1-.6-.3-1.3-.5-1.9,0-.5-.4-.9-.7-1.3-.2-.4-.1-1-.3-1.5-.1-.9-.5-1.8-.7-2.7,0-.4,0-.8-.1-1.1-.3-1.3-.6-2.4-.9-3.7-.2-.5-.3-1-.4-1.5-.1-.6-.4-1.1-.5-1.6-.3-.8-.6-1.6-.8-2.4-.2-.4-.5-.8-.7-1.3-.3-.1-.4-.4-.4-.7,0-1-.3-1.9-.8-2.9-.3-1.6-1.2-3.1-1.4-4.8-.1-1.2-.8-2.3-1.1-3.4-.4-1.5-.9-2.9-1.4-4.5,0-1.1-.5-2.2-.9-3.3-.9-2-1.6-4.1-2.3-6.1-.5-1.3-1.1-2.5-1.6-3.8-.2-.8-.4-1.6-.8-2.3-.5-.9-.7-2-1.1-3-.8-1.6-1.5-3.1-2.3-4.6-.6-1-.7-2.2-1.6-3-1.3-1.6-2.1-3.6-2.9-5.4-.6-1.1-.9-2.1-1.4-3.3-1.4-2.8-2.7-5.6-3.9-8.5-.7-1.8-1.4-3.5-2.3-5.3-.8-1.7-1.6-3.4-2.2-5.1-.2-.7-.6-1.3-.9-1.9-.1-.7-.4-1.3-.8-1.8-.2-.8-.6-1.6-.9-2.4-.3-.6-.4-1.4-1.2-1.6.2-.2.4-.1.6-.1.3,0,.6-.3.8.1.9,0,1.9-.4,2.5-1.2.3-.4.7-.4.9-.7.2-.3.7-.4.8-.8.2-.4.5-.8.8-1.3-.2.2-.4.4-.6.6-.3.4-.8.6-1.3.7-.7.2-1.4.6-1.9,1-.4.4-1,.3-1.5.4-.4,0-.8.3-.9.6-.3.3-.3-.7-.4-.9.2-.8-.4-1.4-.4-2.3,0-.8-.4-1.6-.5-2.4,0-.8-.6-1.5-.7-2.3,0-.9,0-1.7-.3-2.5-.4-.8-.1-1.6-.4-2.4,0-.8-.7-1.3-.7-2.1,0-.8-.4-1.5-.4-2.3,0-.9-.3-1.6-.7-2.4,0-1-.4-1.9-.6-2.9,0-.2,0-.4,0-.6-.4-1-.6-2.1-.9-3.1,0-.6-.1-1.3-.4-1.9-.5-1.3-.8-2.7-1-4.1-.2-1.6-.8-3.1-1.1-4.7-.3-1.3-.8-2.6-1.2-3.8-.2-.8-.9-1.3-.9-2.1-.1-.4-.4-.8-.6-1.3-.4-.6-.5-1.4-.9-2.1-.6,0-.9-.5-1.4-.8-.5-.2-.1-.6.3-.6.1-.1.5-.1.5-.1.1,0,.5-.1.6-.4.2-.5.3-1.1.8-1.3,0-.6.8-.6,1.3-.7-.4,0-.7-.1-1.1-.1-1.3-.3-1.3,1.4-2.1,1.9-.5.7-.5,0-.6-.6-.6-1.1-.8-2.4-1.3-3.6-.6-.9-.6-2.1-1.1-3.1-.3-.9-.9-1.7-.8-2.6-.2-1.1-1.1-2-1.1-3.1-.6-1.4-.9-2.9-1.6-4.2-.3-.9-1.1-1.5-.9-2.4-1.1.1-1.1-1.1-1.4-1.7.3-.6.3-1.6,0-2.4,0-.1-.2-.3-.3-.4-.6-.6-.6-1.5-1-2.3-.3-.8-.8-1.4-1.1-2.3-.6-.9-1-2-1.6-3-.7-1.1-1.1-2.2-1.8-3.3-.4-.5-.8-1.6-1.5-1.4-.7-.6-1.3-1.3-2.1-1.8-.8-.3-1.6-.6-2.3-.3-.3.4-1.2.8-1.3,0,0-1-1.1-.9-1.7-1.4,0-.8,0-1.6-.4-2.4-.8-1.8-1.5-3.8-2.1-5.7-.2-1.1-1-2.1-1-3.2-.4-1-1.1-2.9-1.1-3.2-.1-.3-.8-2.1-.8-2.3-.4-.8-.6-1.7-.9-2.2-.4-.9-.6-1.9-1.1-2.8-.3-.9-1.3-1.7-1.2-2.8-.4-.9-1-1.8-1.5-2.8-.1-.3-.3-.5-.5-.8-.1-.1-.3-.2-.4-.3s0-.2,0-.3c.1,0,0-.3-.1-.3-.4-.3-.5-.7-.8-1-.7-.3-.8-1.1-1.2-1.7-.5-.4-1.1-1.5-1.8-.9-.3-.5-.6-1.4-1.3-1.8-.6,0-.6-.4-.6-.9-.3-.6-1.4-.8-1.3-1.6.5-.1.3-.3-.1-.4-.6.3-1.1.3-1.8,0-.9,0-.3-1.1-.8-1.4-.7,0-.6-.6-.8-1.1-.4-.8-.9-1.6-1.6-2.3-.6-.4-1.3-.8-1.7-1.4-.1-.2-.3-.4-.4-.6-.6-.8-1.2-1.6-1.9-2.3-.8-.3-.8-.9-1.4-1.4-.6-.5-1.3-1.3-2.1-1-.7.1.2.7-.4.8-.8.4-1.1-.8-1.8-1-.4.3-.4,0-.5-.4-.3-1.1-1.1-2-1.8-3-.6-.8-1.1-1.7-1.9-2.3-.9,0-.6-.6-.6-1.3-.9-1.4-2-2.5-3-3.8-.9-1.4-1.6-3-2.8-4.3-1-1.3-1.9-2.5-2.9-3.8-.8-.8-1.8-1.4-2.6-2.1-.6.1-.9.8-1.3,1.3-.3.8-1.3,0-1.5.8-.2.4-.4.6-.6,0-.6-1.2-.9-2.4-1.6-3.6-.1-.2-.2-.4-.3-.6-.1-.2-.4-.6-.4-.8,0-.1-.4-.7-.4-.8-.3-.8-.4-1.1-.7-1.8-.4-.9-.8-1.8-1.3-2.6-.3-.8-.4-1.5-.8-2.2-.4-1.1-.6-2.2-1.2-3.2-.7-1.4-1.1-2.9-1.8-4.4-.5-1.6-1.3-3.1-1.9-4.6-.9-2.8-4.5-12.9-5.4-14-.9-2.8-3.7-8.8-4.9-10.3-.9.3-1.2-.8-1.3-1.4-.3-.7-.4-1.6-1.3-1.6-.6-.5-.5-1.6-.9-2.2-.4-.8-.8-1.6-1.3-2.4-.4-.8-.6-1.6-.8-2.3.3-.6,1.4,0,1.7-.7.1-.3,0-.6,0-.9-.8.9-1.8.6-2-.6-.4-.7-1.1-1.6-.6-.3.4.5.6,2.4-.2,1.1-1.6-3.7-2.7-7.7-4.3-11.4-.8-1.8-1.9-3.5-2.4-5.4-.4-1.8-1.3-3.4-2.1-5.1-1.1-2.2-1.8-4.6-2.9-6.7,0-.8-.2-1.6-.9-.6-.3-1.6-.4-3.2-1.4-4.5-.3-.8-.4-1.4-.7-2.1-.5-1.1-.9-2.4-1.4-3.6-.4-.8-1.4-1.1-1.4-2,.2-.8-.5-1.3-.7-2-.3-.8-.9-1.5-.6-2.4.1.2.3.4.5.3.3,0,.4.1.7.1h1.1c.3,0,.5-.4.8-.4s.4,0,.6.1h.6c.2-.3.3-.6.6-.9-.4,0-.8-.1-1.1,0-.4,0-.7-.1-1.1-.1-.3,0-.6.3-.9.2-.4-.1-.8-.3-1-.5-.4-.6-.5-.6-1-.4,0,.1-.2.2-.2.4-1.2,0-1.4-1.1-1.3-2.1-.3-2.1-.9-4.2-1.3-6.3,0-1.7-.7-3.2-.9-4.8-.4-1.8-.7-3.7-1.2-5.5-.3.5-.3.2-.3-.1H0ZM218.3,382.9c.3.1.5.3.8.4.5.3.6.9.8,1.4.3.5.4,1.1.4,1.7,0,.5-.4.8-.9.9-.6.4-.8-.4-.8-.8,0-.6-.2-1.2-.3-1.8,0-.6-.3-1.2-.1-1.8h.1ZM220.3,388.1c.8.4,1.8.4,2.2,1.2.5,1,1.1,2,1.6,3,.2.5.6.9.6,1.5-.4.3-1.2-.4-1.8-.5-.7-.2-1.2-.7-1.6-1.3-.3-.8,0-1.8-.4-2.6-.1-.5-1.1-.7-.8-1.3h0ZM231.7,400.5c.2.3.3.6.4.9.1.4.4.8.8,1,.3.2.6.3.8.5.1.4,0,.9.2,1.4.1.6.4,1,.7,1.5-.1.1-.3.3-.4.4-.4,0-.7,0-1.1-.1-.3-.1-.6-.4-.8-.6-.2-.2-.5-.3-.6-.6,0-.3.5-.3.6-.6.1-.4,0-.8,0-1.1.1-.4-.1-.7-.4-.9-.3-.2-.2-.6-.3-.8-.1-.3-.1-.8.2-.9h-.1Z"/>
        <path id="path131140" class="st1" d="M218,190.3c-.7.3-1.6.2-2.1.8-.5.8-1,1.4-2,1.5-1,.2-1.9.6-2.6,1.3-.5.4-1.1.9-.5,1.4.2.9-.9,1.1-1.5,1.4-.9.1-1.2,1.3-2.2,1.4-.6.3-1.1.5-1.7.8-.3.9-.9,1.7-.8,2.7.2.9.7,1.8,0,2.6-.6-.4-1.2-1.1-1.5-.2-.7.6-1.1,2.3-2.1,1.4-.7-.2-.9.4-.6,1-.9.4-.8,1.4-.8,2.3s.3,1.7-.3,2.4c-.5.8-.8,1.8-.2,2.6.2.9,1.3.9,1.9,1.4.3-.2.4-.6.8-.3-.2.9.5,2.1-.7,2.6-1.1.6-2.5.4-3.6,1.3-.9.2-.8.9-.6,1.6-1.1.3-1.6,1.3-2.5,1.9-.8.8-1.7,0-2.6.3-.8.4-1.7-.8-2.2,0-.6.9-1.6,1.2-2.4,1.7-.3-.3-.6-.6-.9-.8-.7,0-1-.9-1.6-1-.4.4-1,.7-1.3,1.2-.1.6-.8.9-1.3,1.1-.6.3-1.2.2-1.8.1-.5.3-1.2.1-1.6.5-.4.5-.7,1.4-1.4,1.1-.6,0-.9-.5-1.4-.8-1-.2-.2,1.3-.8,1.6-.7,0-1.3.1-1.9.4-.8.3-.7,1.1-1.1,1.6-.3.5-.6,1.4-1.3,1.1-.3.8-1.1,1.8-1,2.5.4.5,1,.6,1.6.9.4.3.8,0,1.2,0,.7,0,1.1.4.6,1-.2.6-.6,1-1.3,1.1-.7.3-1.6-.1-1.8.8-.7.5-1.1,1.3-1.6,1.9-.6.2-.8.9-1.5,1.1-.4.3-.7.8-1,1.2" sodipodi:nodetypes="cccccccccccccccccccccccccccccccccccccccccccccc"/>
        <path id="path26898" class="st11" d="M241,172.5c.8.5,1.8.5,2.8.6.8.3,1.2-.4,1.6-.9.6-.7,1.2-1.4,1.9-1.9,0-.2-.1-.8.1-.7.8.4,1.6.3,2-.6.9-.9,1.8-1.9,2.6-2.8.6.3,1.2.6,1.6,1,.8.6,1.6,1.1,2.3,1.8.3.4.6.8.8,1.3.1.3.3.6.2,1,0,.6.2,1.3.3,1.9.1.8.3,1.7.6,2.5.1.4.4.7.3,1.1,0,.2-.1.6.2.6.8.3,1.6.6,2.4.8.3-.1.6-.3.9-.4.2.1.5.1.6.3,0,.3.2.4.5.4.4,0,.8,0,1.1.3.3.3.8.1,1.1.1h.7c1.1-.8,2.5-.3,3.1-.3,1.1-.1,2.1-.6,3.1-.4,1,0,2.1.6,3.1.1,1.3,0,2.6.1,3.8.1s2,.3,2.9-.2c1-1,1.3.4,2.3.2.6-.2,1.1.6,1.7.3.6-.3,1.3-.3,1.5.5.7.2,1.5-.4,2.2,0,.6.7,1.4-.4,1.9.4.3.6.9.9,1.6,1,.5,0,1,.3,1.1.8.4-.8,1.3-1.2,1.3-2.1.4-.8-1.1-.9-.8-1.8-.6-.3-1.3-.7-.9-1.5-.4-.3-1.4-.6-1.3-1.4-.3-1.1,0-2.2.9-2.9.1-.8.6-1.4.9-2.1.3-.7.3-1.6,1-2.1.4-.4.8-.7.4-1.2.5-.8,1.3-1.4,2-1.9.6-.4,1.2-.9,1.4-1.6,0-.8.4-1.5.6-2.3.8-1.1,0-2.4.7-3.3.1-1.2,1.3-1.9,2.3-1.4,1.1,0,2.2.1,3.2.4.8-1.1,1.7,0,2.3.8.4.6.9,1,1.2,0s.9-1.8,1.4-2.6c-.1-.6-.5-1.6.5-1.1,1.1.3,2.2-.1,3.2-.4.3.7.6.9,1.3.6,1.2.3,1.8,1.3,2.1,2.1.1.9-1.1,1.5-.9,2.3,1.1.6,1.5-1.4,2.3-1.8.9-.3,2.1-.1,2.4.8-.6.6-2,1.6-.9,2.4l2.4,2.9c-.6,1.2,1.4.7,2.1.8,1.2-.3,1.3,1.2,2.4,1.3,0-.7-.1-1.4-.4-2.1-.3-.7-.3-1.4-.3-2.2.6-.6.2-1.6,0-2.1.7-.3,1.3.3,1.9,0,.7.3,1.6.4,2-.4.1-.5.3-.9.9-.6.8,0,1.4-.6,2.3-.4.7,0,1.5,0,2.1-.4.7-.4,1.6-.6,2.4-.7,1.3-.3,2.7-.1,4.1,0,.7-.3,1.4-.5,1.8-1.3,0-.4,0-.8,0-1.1,1.6.4,3,1.2,4.6,1.6.6-.1.6-1.5,1.3-.8.9.8,1.8,1.8,2.7,2.7.6.8,1.4,1.3,2.1,1.9.9-.3,2.1-.3,2.8-.9.6-.3.5-1.8,1.4-1.4.4.6,1.3.1,2,.3,1.1-.3,1.8.8,2.7,1.1.5.6,1.6.4,1.9.8,0,.4,0,.8.1,1.3.3,0,.8.2.8-.2,0-.5,0-1,.3-1.4.2-.5.8-.8,1.1-1.1,0-.3-.2-.6.1-.9.3-.2.6-.3.7-.6.2-.5.5-1,.4-1.6,0-.4,0-.9.2-1.4.2-.3.6-.5.5-.9,0-.4.4-.7.5-1.1.3-.5.3-1.1.5-1.7.1-.3.1-.6,0-.9-.4,0-.6-.2-.4-.6.3-.3-.2-.8.1-1,.3-.4.2-1,.3-1.5-.2-.4-.3-.7-.2-1.1,0-.4.2-.9,0-1.3-.2-.3,0-.8.3-.6.4.2,1,.3,1.3.7.2.4.6-.1.7.4.1.3.3.6.6.7.1,0,0-.6,0-.8,0-.6-.1-1.3.2-1.9s.3-1.3.5-1.9c.1-.6.3-1.1.1-1.7-.1-.3,0-.5.2-.8.7.4,1.5.6,2.3.7.5,0,1,.2,1.4.2l1.1.5c.4-.3.9-.7,1.4-.8.6-.1,1.1-.3,1.7-.4l3,.9c.4-.3.7-.6,1.2-.6.3-.1.5-.1.8.1s.5.3.7,0c.3-.3.8-.2,1.1-.3,1.2-.3,2.4-.7,3.5-1,.4-.2.8-.3,1.1-.6.3-.1.6-.1.6.3.1.3.4.4.7.4s.6.2.9,0c.1,0,.3,0,.4-.1.5-.2.8-.3.7-1.1l.3-1.1c.6-1.8,1.1-3.6,2-5.3.7-1.8,1.8-3.3,3.1-4.8.5-2.3,2.6-2.8,4.3-4.1,1.1-1.6,1.6-3.4,3.1-4.8-.3-1.8-4.2-2.1-3.4-4.5-.1-1.4-1.6-2.5-2.1-3.8-2-1-4.4-.5-6.5-1.7-1.6-1-3.6-1-5.4-.6-.9-1-2.3-.3-3.4-1.1-1.4.4-3.3,1.3-4.8.6-1.5.9-3.3-1.4-4.5,0-1.9.8-4,.9-5.9-.2-1.7-.6-2.4-1.8-1.1-3.3.4-.9-.3-1.9-1.2-2.3-.1-.9.7-1.6.6-2.6.3-1,1.4-2.1,2.5-2.1.8-.9,1.4.3,2.2.5.8-.3,2.1,0,2.3-1.1.1-1.2,1.4-.6,2.3-.9s.4-1.6,1.4-1.6c.9-.1.9-1.1,1.2-1.8.1-.9,1-1.8,1.4-2.7,1.1-.6,1.1-2.4,2.6-2.3,1.1-.4.7-.9,1.3-1.8,0-1.1,0-1.8.2-2.8.1-1,1.5-1.6.5-2.6-.3-.9.3-1.8.3-2.6-.6-.8.3-1.6.3-2.4s.7-2.1.1-2.8c-.3-.3-.6-.6-.8-.8-.7,1-1.6,1.9-2.6,2.7-.8-.3-2.1-.3-2.5-.6,1-1.3,2.6-2.1,3.6-3.3.7-1.2-.8-1.1-1.5-1.1-.8-.3-2.2,0-1.7-1.2-.1-1-.3-2.1-.4-3-.8-.6-.5-1.8-.7-2.7,0-1,.9-1.8,1.2-2.8.6-1.3-.2-3,.8-4.1.5-.3,1-.6,1.4-1.1-.3-.8-.2-1.4-.9-1.8-.4-.9-.2-2.3.3-2.9,1.5-.4,3-1,4.6-1.4,1-.2,2.1-.3,3-.6.6,0,1.8.2,2.1.5-.3.4-.6.8,0,1.2-.2.8-.4,1.6.6,1.4.8.4,1.6-.4,2.4,0,1.1-.3,1.1-1.8,1.3-2.7.1-.3,1.6,0,1.3.7,0,1.1,1.4,0,2.1.4.3-.6.3-1.3,0-1.8-.8-.6,0-1.2.4-1.8.6.4,1.9,1.1,2.3.1.6-.8.6-1.8,1.3-2.4.6-1.1-1.6-.4-1.2-1.6,0-.9,1-1.2,1.8-1.1.8-.3,1.8-.5,2.1-1.3.4-.6-.2-.8-.8-.9-.8-.4-1-1.5-.3-2,.6-.5.8-1.2,1.2-1.8.4-.5,1.1-.9,1.7-.7.4-.9-1.3-1.4-.7-2.3-.2-1,1.5-.1.8-1.1-.1-.6.7-1.8-.5-1.4-.8,0-1.9-1.1-1-1.8.3-.4.8-.9,1.4-.4.6-.1,1.1-.6,1.9-.7.3-.8,1.3-.6,1.3-1.5.6-1,1.9.3,2.8-.1.9-.3,1.8.1,2.6-.3.9-.3,2.1.4,2.4-.9.6-.9,2.1.2,2.1-1.1.9.4,1.5-.3,2.2-.6.9-.3,1.6,1.1.3,1.1-1.1,0-.3,1.2.4.9.9-.3,1.4,1,.3,1.1-.3,1-2.1.6-1.8,2-.3.8-1.4,2.9.3,2.5.4.5,1.4,1.2,2.1.7l.8-2c-.8-.7-1.4-2.1-.1-2.6,1.1-.3,1.4.6,1,1.4.8,0,1.8,0,1.1,1.2-.5,1.3,1.1,1.1,1.9.9.2.8.8,1.3,1.3,1.8v1.6c.8.1,1.6-.3,2.3,0v-1.5c-.6-.3-1-.8-.3-1.1,0,0,.1-.1.3-.2"/>
        <path id="path152919" class="st1" d="M318.6,350.8c.3,0,.6.1.8.3.5.6.8,1.4,1.4,1.9.6.4.5,1.3-.1,1.5-.6.4-1.4.5-2.2.5-.6-.3-1.2,0-1.8.2-.4.4-1.4.5-.9,1.3.4.8,1.4.6,2.1.9.7.3,1.4,1.1,2.1.4.6-.7,2.1-.3,2,.8-.2.7.3,1.1.9,1.2.7.1,1.3.6,1.7,1.1-.1.1-.3.3-.4.4-.8.1-1.2.9-1.9,1-.9.2-1.7-.3-2.5-.5-.8,0-1.5,0-2,.6-.8.6-1.4-.4-2.1,0-.8.1-1.6,0-2.3.5-.6.7-1.3,1.3-2.2.8-.8.3-1.8.4-2.3,1.1-.2.9-1.3.5-1.8,0-.7-.8-1.8,0-2.6-.6-.6-.4-1.1-.8-1.9-.7h0c-.3.7-.2,1.4-.9,1.6-.4.6-.8,1-1.1,1.5-.3.6-.8,1.1-1.1,1.7,0,.6-.3,1.2-.7,1.6-.6.6-1.3,1.1-1.6,2-.4.4-.6,1.7-1.2,1.4-.5-.5-1.2-.6-1.6-1.1-.6-.1-1.2-1-1.5-.1-.2.2-.5.2-.6.4-.1.7.5,1.2.7,1.8.6.5,1.4.8,1.6,1.6.4.3.9.6.1.8-1,0-2-.3-3-.3-1.1.1,0,1.1,0,1.5-.7.4-1.5,0-2.3,0-1,0-.8-1.2.1-1.2.8-.3-.1-.8-.6-.5-.8.3-1.3-.3-1.8-.6-.8.1-1.1-1-1.8-.9-.9,0-1.6-.6-2.4-.9-.6-.4-1.3-.1-1.9,0,.4.3.5.8.8,1.2.8,0,.9,1.1,1.6,1,.5.4.8,1.2,1.6,1.1,1-.2,1.4.8,1.9,1.4.6.8,1.4.8,2.3.9.4.5,1.1.5,1.8.8.6.7,1.4.9,2.3,1.1-.6.4-.7,1.5-1.4,1.6-.9-.4-1.8-.6-2.5-1.3-.6-.7-1.6-.6-2.3-1.1-.9-.6-1.4,0-1.9.8-.9.6-1.9,1.1-2.9,1.6.2.8.9,1.7.6,2.6-.6,0-.9.4-.7,1-.3,0-1.3-.5-1.8-.7-.8-.4-1.6.3-2.4.4-.2.1-.4.2-.6.3-.4.2-.8-.4-1.1-.6-.3.3-.6,0-1,0,.2.9.3,1.8.6,2.6.2.6.6,1.2.5,1.8,0,.6-.3,1-.9,1.3.1.4-.1.8-.4,1.2-.3.6-.6,1.1-1.1,1.6-.4-.1-.8.1-1.1.5v.4c.2.1.3.3.5.4.2.2.5.3.7.6.1.4-.3.8-.7.9-.5,0-.9-.5-1.2-.8-.2-.5-.6-.8-1.1-.7-.6-.2-.9.5-1.5.3-.4-.3-1.1,0-1.4-.3-.5-.3-.9.2-1.4.1-.8,0-1.3.9-1.1,1.6,0,.6,0,1.1,0,1.6,0,.4,0,1,.4,1.3.5.3.6,1.1.2,1.5-.5.5-.3,1.3-.5,1.9-.4-.1-.8-.3-1.1-.2-.4.3-.9.7-1.4,1,0,.4,1,.8.5,1-.3.3-.5.2-.7,0-.3.7-.7-.4-1.2-.3-.6-.3-1,0-1.5.3-.3.3-1,0-.8.6-.1.5-.1.9,0,1.4-.2.4-.8,1.2-1.3.8-.5-.6-1.1,0-1.4.5-.4.5-.1,1.4-.4,1.8-.4,0-1.3.8-1.4,0-.1-.4-.6-.4-.4-.9.1-.4-.4-.6-.3-1.1,0-.8-.8-.7-1.4-.8h-.9c-.4-1.1-.7-2.1-1.1-3.3-.6-.3-1.6-.4-2.3-.3-.6-.3-.8.5-1.4.6-.7-.2-1.9-1.6-2.4.5-.6.1-.7-.4-1-.1-.6.5-1.2,1-1.6,1.6-.9.4-1.8.8-2.8,1.1-.6.3-1.4,0-1.9-.4-.2-.1-.3-.3-.6-.3l-1.1-.6-.7-.6c-.4-.5-.8-1-1.1-1.7-.2-.7.5-1.4,0-2s-.8-1.2-1.1-1.8c-.3-.4-.8-1.2-1.4-.7-.8.4-1.7.3-2.5.3-.8,0-1.4-.4-2.1-.6-.6-.3-1.1-1.1-1.8-1.4-.8,0-.8,1.1-.6,1.8.1.8-.3,1.4-.1,2.1.4.5,0,.9-.9.9-.8.3-.6,1.4-.5,2.1-.1.7-.6,1.3-.1,1.9.1.6.6,1.4-.1,1.6-.6,1.3.6,2.1-.4,2.6" sodipodi:nodetypes="ccccccccccccccccccccccccccccccccccccccccccccccccccccccccccccccccccccccccccccccccccccccccccccccccccccccccccccccccccccccccccccc"/>
        <path id="path154356" class="st1" d="M303.9,458.2c.3-.5.8-.9.2-1.1-.7-.6.5-1,1-1.1.6-.5.9-1.2,1.4-1.8.9-.4,1.9-.6,2.9-.8.4-.6.4-1.4,0-1.9.4-.6-.5-1.3-.7-1.8-.3-.6-1-1.3-1.5-1.2-.6.4-.9.9-1.2,1.6-.4.8-1.4,0-1.8-.6-.4-.4-.6-1-1.3-.6-1.1-.8-2.1-1.8-3.1-2.7-.3-.5-.3-1.3-.7-1.6h-1.4c0-1.4-.3-2.7-.2-4-.3-.8-.7-1.8.4-1.9,1-.2,0-1.4.3-2.1-.3-.8-.4-1.6-.4-2.4.3-.2.9-.3.6-.8.1-1,1.5-1.3,2-.3.8.7,1.8,1.1,2.7,1.7.5-.4.8-.9.1-1.3-.6-.8-1.6-1.4-1.3-2.5.4-.3,1.3-.6.4-1.2-.7-.6-1.2-1.4-1.7-2.1-.3-.3-.6-.5-.9-.7,0-1.5-.9-2.8-1.4-4.1-.4-1.6-2.3-1.5-3.1-2.6-.3-1.1-1.1.4-1.6-.6-1-1.1-1.8-2.4-2.8-3.5-.7-.9-1.3-1.9-2.3-2.8-1.2-1.2-2.6-2.1-4-3-1.2-.3-2.3-.8-3.4-1.3-.8.8-1.4,1.9-2.5.9-1-.7-2.3-.8-3.1-1.8-.6-.4-1.6-.3-1.6-1.3-.7-.3-1.6-.3-2.1-.9-.7.2-1.2-1.3-1.9-.3-.9.4-1.9-.1-2.8-.3-.7-.4-2.5-.5-1.4-1.6" sodipodi:nodetypes="cccccccccccccccccccccccccccccccccccccccc"/>
        <path id="path252" class="st1" d="M348.6,478.3c-1-.2-1.6-1.1-2.6-1.1-.5-.6-1.4-1.1-2.1-1,0,.2,0,.9-.3.7-.3-.3-.5-.4-.7,0,0-.8-.2-1.5-1.1-1.8-.8-.2-1.8-.4-2-1.3-.6-.9.4-1.4.9-2.1.8-.5-.9-1.1.2-1.4.9-.7-.4-1.6.2-2.3.1-.3.4-.4.6-.7-.3-1.3,1.1-2.4.6-3.6-.6-1.2-2.1-2.3-2-3.5.2-.5-.3-.9-.7-.6-.3-.6-.4-1.1-.3-1.8-.6-.3-1.3-.9-1.7-1.2-.9.4.4-.8-.4-.9-.6-.6-2.1.5-2.4-.7-1.1.1.1-1.1-.5-1.4,0-1.6-1.6.6-1.8.4.2-.5-.3-.5-.3-1-1.2,0-2,.4-2.9,1.2-.1-.7-.3-1.4-.1-2.2.8-.9-.1-1.8-1.1-1.8-.7,0-.8,1.1-1.4,1.4-.8.5-2.1-.4-2.6.6-.8.7-1.3,1.8-2.3,2-.8.3-1.7,1.1-2.3,0-.8-.3-1.8-.2-1.9.9.1.9.7,1.6,1.1,2.4.6.6,1,1.3,1.3,2.1-.8,0-1.6-.3-2.3,0-.8.2-1.5.4-2.1.7-.5.5-1.4.4-2.1.1-.3-.2,0-.6-.1-.9.3-.9-.8-.1-1.3-.4-.6-.8-1.7-.3-2.6-.7-.9-.1-1.8-.6-2.8-.7h-2.6c0,.3-.1.6-.1.9-.4,0-.8.4-1.2.5-.6.4-.9-.3-.8-.8-.3-.5-1.1-.2-1.6-.4-.8-.5-1.6-1-2.3-1.6-.6-.5-1.4-.7-2.2-.7-.8-.3-1.6-.8-2.3-1.3-.4,0-.3.9-.7,1.2-.7.2-1.3-.4-2-.4-.6-.3-.9,1.1-1.3.3-.3-.7-.9-.9-1.6-.7-.5,0-1.2-.3-1.3.4-.9-.6-.4.3-.9.8-.9-.4-1.9,0-2.6.5-.8.6-1.5,0-1.5-.9.1-1-1.3-.1-1.1-1,.6-.8-.1-1.4-.4-2.1-.5,0-1.6-.3-2.1.3.2.6-.3.9-.9,1.1-.8,0-1.2,1.2-2.1.8-.3-.6-.9-1-.9-1.7.4-1.2-.9-1.3-1.8-1.2-.6-.4-1.2-.6-1.8-.3-1-.2-2.1-.3-3.1.3-.9,0-.7.8-1,1.4-.2.7-.6.3-.8-.1-.6-.7-1.1.6-.7,1.1-.6.1-2.1-.4-2.1.4.1,1-1-.9-.9.2.2.8-.3.8-.9,1.1-1,.2-.3,1-.3,1.6-.4.8.1,1.3.4,2-.3.8-1.1-.4-1.8-.4-.9,0-1.4,1.1-2.4,1.3-1.1.5-.7-.9-1.4-1.2-1-.7-1.1.9-1.9.8-.5-.7-.6.6-1.1.3-.1.8-.9.6-1.4.6v.9" sodipodi:nodetypes="cccccccccccccccccccccccccccccccccccccccccccccccccccccccccccccccccccccccccccccc"/>
        <path id="path30308" class="st1" d="M180.1,137.6c0,.6,0,1-.6,1.2-.5.1-1.1.2-1.3.7-.3.4-.3.8.1,1.1.3.3.4.8.6,1.3,0,.8,0,1.7-.4,2.4-.5.4-1.3.4-1.8.7.6.6,1.4,1.1,2.3,1.6-.1.4-.4.9-.4,1.3,0,.4.2.9-.1,1.3-.6.4-.2-.7-.8-.6-.4.3-.9,0-1.4.3-.5.2-1.1.4-1.6,0-.4.1-.8,0-1.1-.3-.6.3-1,0-1.4-.3h-1.1c-.4-.5-1.1.3-1.7-.1-.6,0-.8-.8-1.3-.9-.4,0-.8.4-1.3.6-.6,0-1.1,0-1.6-.4-.3-.2-.5-.3-.8-.3h-.8c-.3.4-.4.9-.8,1.2-.4.4-1,.8-1.3,1.4-.1.4-.3.9-.2,1.3.4.5,1.1.9,1,1.7,0,.6-.4,1.2-1,1.3-.6,0-1.1.4-1.3.9-.2.3-.3.6-.4.9-.5-.6-1.3-.7-2-.7s-1.4-.3-1.4.4c0,.6.6.8.6,1.4.3.7-.6.7-1.1.6-.5-.3-1-.3-1.1.4-.4.4-1.1,0-1.3-.4-.3-.6-.8-.9-1.4-1.3-.6-.4-1.2,0-1.7-.4-.6-.3-1.4-.1-1.4.6l-.7,2.2c-.6.4-1.5.7-1.9,1.3s-.1.9-.6,1.1c-.4.1-.8.3-1.1.4-.9,1.1-2.1,1.4-3.2,2.6-.3-.1-.8-.5-1.1-.4l-.4.8c-.7.2-1.3.4-1.9.9-.3.3-.7.6-1.1.4-.8-.1.4.6,0,1-.1.4,0,.9.6,1,.3.2.9.4.7.8,0,.6-.6.8-1.1.6-.4-.1-.9-.3-1.2,0s-.6,1-1.1,1.2c-.4.1-.9.6-1.2,0-.4-.3-.9-.7-.5-1.3,0-.4-.2-.8-.4-1.1-.3-.4-.5-.9-1.1-1.1-.3,0-.7,0-1,0"/>
        <path id="path9348" class="st11" d="M128.8,166.6l.8-.6h.4l.3.3.2.4s-.3.2-.3.3c0,.5-.1.8-.5,1.1"/>
        <path id="path163082" class="st11" d="M324.3,601.7c.4-.2,1.2-.1,1.3-.8.6,0,.9,0,.5-.6-.5-.7,0-.8.6-.8.6-.3,1.1-.9,1.8-1.3,1.1-.8,1.9.5,2.9.3,1-.8.9,1,1.8.9.4-1.1-1.6-1.9-.8-3.2.8-.6.5-2.5-.6-2.1-.4.2-1.4,1.4-1.5.8-.2-.9,1.4-1.4.8-2.4-.4-.5-1.6-1.4-.4-1.9.8-.8.9,1.1,1.6.7.6-.4,1.2-1.1,1.6-1.7.2-1.1,1.1-1.8,1.9-2.5v-.6c0-.7.2-1.4.6-1.9.4-1,1.5-.9,2.4-1.1,1.1.1.9-1.5.4-2.1-.8-.6-1.4-1.4-1.6-2.4-.3-.8-.2-1.8-.8-2.4-.1-.6.9-1.1,1.3-1.6h1.1c.6.5,1.2.9,1.6,1.5.3.8,1,.4,1.3-.1.5-.6,1.6-.4,2.1-1.1.4-1.2.8-2.3,1.4-3.4.6-.7,1.3-1.8.3-2.4-.6-.9-.7-2.1-1.2-3.1-.7-.7-1.3-1.5-1.9-2.3-.8-.5-1.1-1.4-1-2.3.4-1.2-1.3-1.1-1.5-2.1-.5-.9-1.4-1.5-2.2-2.2-.4-1-1-1.8-1.4-2.8.6-.9.5-2.1,0-2.9-.8-.6-.5-2.1-1.7-2.2-.9-.5-1.6-1.4-1.3-2.4-.2-.7-1.2-1.6-.7-2.3.4-.1.8.8,1.4.8.8.3,1.5-.6,1.8-1.3.7-.8-.6-1.6,0-2.2.4.1.8.3,1.1.3.4.2,1.3,0,1.2-.5-.4-.3-.6-1.1.1-.9.5-.2,1-.6,1.4-.8.1-.9,0-1.8.4-2.6.4-.2,1.1-.3,1.3-.8.6-.3.1-1.1.6-1.5.2-.3.4-.4.6-.7.4-.8,1.7-1.5.9-2.4-.5-.5.5-.8-.1-1.2-.8-.5,0-1-.1-1.6-.1-.6-.3-1.2-1-1.1-.8,0-1.7-.9-1.4-1.8,0-.9-1.2-1.5-2-1.4-.3-.4-.8-1.4-.5-1.9.8-.4.6-1.3-.3-1.3-.6-.6-1.5-.3-1.7.5.6.3.1.4-.3.6-.4-.4-.5-.9-.8-1.4.8-1,0-2.1.3-3.1-.7-.4-.6-1.3-1.1-1.6-1.4-.3-1.1-1.9-1.9-2.8-.7-.6-1.7-1.1-1.6-2.1-1.2,0-1.1-.8-1.4-1.8.6-.4,2.2-1,1.6-2.2.3-1.3,1.7-1.3,2.8-1.4.3.8,1.5.4,1.9,0-.6-1.4,1.1-2.3,1.4-3.5h.8c.3-.3.9-.5.9-1-.1-.7.5-.8.9-1.1,0-.6.9-.4.9-1.1,0-.6.3-1,.9-1,.4-.7.9-1.4,1.4-2.1h.6c.3-.6.5-1.2.8-1.8.3-.4.7-.6,1.1-.9,0-.4.1-.7.5-.8.6-.4,0-1.3,0-1.8.3-.8.3-1.6.4-2.6.3-.8-.3-.8-.9-.9-.8,0-.4-.6-.2-1.1-.2-.9.8-.3,1.3-.5.8-.6,1.3-1.6,1.8-2.3,0-.7-.9-1.3-.9-2.2.6-.6.5-1.4.5-2.1.4-.4.3-1.2.4-1.8.5-.4-.2-1.2.8-1.1.3-.8-1.4-2.7-.4-3.6,1.3-.4,2.4-1.6,2.1-2.9-.7-.6,0-.8-.2-1.4.4-.7,1.2,0,1.1.8.4-.3,1.7-.1,1.3-.8-.3-1.1,1.3-1.8,1.3-2.8.6-.8-.4-1.4-.1-2.3-.5-.9,1.1-.8.8-1.5.2-.7.5-1.6-.4-2.2-.4-1.1,1.1-2,1.5-3.1,0-.3,0-.6-.1-1,.9-.6,1.3-1.9,2.4-2.3.8.5,1.6,1.2,2.6.5,1.2-.4,0-1.7,1.1-1.9-.7-.5-1.1-1.2-.9-2.1-.1-1.2,1-1.8,1.6-2.5.2-1.2-1.6-.5-1.3-1.6.3-1.1-.6-.4-1.3,0-.8.9-1-.4-1.8-.5-.4-.8-1.6-1.1-1.4-2,0-.8.2-1.8-.6-2.2-1.2.1-1.6-1.2-.9-1.9,1.4,0-.3-1.6.3-2.3,0-.9.7-.8,1.3-.9-.4-.4-.9-.6-1.4-.9-.6,1.3-1.4,2.5-1.9,3.9-.4-.2-1.3-.5-1.8-.8-.1-.6,0-1.3.1-1.9.6-.3.2-.6-.3-.4-.5-.6-1.1-.4-1.8-.1-.8.1-1.4.7-1.9,1.3-.5-.2-.8-.1-.5.5-.3.2-.6.4-.8.6-.4.2-.8.7-1.2.6-.5.3-1.1.4-1.6-.1-.6-.4-1.1-.9-1.8-.9-.6-.3-1.1.7-1.5,0-.6-.4-1.3-.9-1.4-1.7-.3-.8-1.7-.4-1.6-1.4.3-.8-1.4-1.1-1.5-.4-.8,0-1.1,1.1-1.9.4-.7-.4-1.8.2-2.2-.8h.1c0,0,.1-.1.1-.1.3-.4,0-1,.7-1.3.8-.4,0-1.3.4-1.9,1-.6-.3-2.6,1.3-2.5,0-.6.4-.8.9-1.1.5-1.1.6-2.3,1.4-3.3,0-.9-.3-2-.1-3-.4-1.3,1.3-.7,1.9-1.4.8-.4,0-1.5.1-2.2.3-.4.7-.8.7-1.4-.3-.8.8-1.3.8-1.6-.5-.3-1-.7-.9-1.4,0-.4-.3-1.3.4-1.1,1.1.2,1.4-1,2.4-1.1,0-1.1-.4-2.4-1.7-2.6,0-1-.8-.4-1.4-.8.4-1,.9-1.9.5-3,.9-.3,1.9-1.1.8-1.8-.8.3-1.6-.1-2-.9-.8-.6-.4-1.2-.1-1.9.9-.5,0-1.6.1-2.4.3-.3.5-.5.8-.8.8-.5,1.1-1.3,1.3-2.1,0-.9.8-1.5,1.4-2.3.6-.1.1-1.4.6-.9.7-.4,1.8.4,2.1-.8.6-.6,1.1-1.3.9-2.2-.6-.6-1.9-1.1-1.2-2.1-1.1.1-.4-1.2-.4-1.8-.3-.3-.8-.4-.9-.9.3-.6.7-1.1,1-1.8.2-1.1-1.1-1.4-1.3-2.4-.7-.7-1.6-1.2-2.1-2.1-.1-.8-.9-.9-1.3-1.4-.4-.8-1.1-1-1.8-1.4-.8-.7-.6-1.8-1-2.6,0-.8.9-2.4,1.8-1.4.6-.3,1.2-.6,1.9-.8.5-.4,1-1.4,1.8-1.2.8.7,1.8.9,2.8,1.1.2-.9,1.2-1.1.9-2.2-.6-.6-.3-1.2-.2-1.9,0-1.2.1-2.3.4-3.4-.1-1.3,1.3-2.1,1-3.3.2-.1.5-1,1.1-1.1.3-.8-.5-2.3-1.4-2.6-.8.3-1.9-.2-2.4.6-.4-.6-.1-1.9-.3-2.8-.5-.8.9-1.1.4-1.6-1.1-1.3-2.1-2.8-2.9-4.3-.5-.9-1.8-1.7-1.1-2.9.2-1.3,1.2-2.3.8-3.6-1.2-.2-2.4,0-3.8-.4-.3-.3-.6-.3-.9-.1-.4.3-.9,0-1.4,0-.4-.2-.8-.3-1.3-.3-.3.2-.6.5-.9.8-.8.8-1.8,1.4-2.7,2.1-.7.4-1.4.7-1.9,1.3-.4.4-.9.8-1.4,1-.4.2-.9.3-1.4.3-.4,0-.6.1-.9.3-.5.1-1,.3-1.4.6-.6.3-.9.9-1.5,1.2-.4.3-1.1.3-1.6.3-.3.2,0,.6.2.8-.3.2-.6.4-.9.6-.5.2-1.1.3-1.6.4.4.4.7.9,1.1,1.3-.2,1.1-.7,1.4-1.9,1.8-.3.2-.4.4-.8.3-.8.2-.9,1.1-1.5,1.5-.7.2-1.4.4-1.9.8-.3.6-.9,1.1-1.6.8s-1.4-1-2.3-1.2c-.7-.4-1.4.3-2.1-.1-.3-.7-1.3-.8-1.9-.3-.6.7-1.4.5-2.1.3-.8,0-.4-.8-.9-.9-.6.1-1.5.3-1.9-.3-.3-.4-.4-1.1-.9-1.6-.4-.1-1-.2-1.3-.7s-.7-.7-1.3-.8c-.6-.3-.2-1,0-1.4.2-.5.7-1.1.4-1.6-.7-.4-1,.8-1.6.8-.5,0-1.4-.3-1.3.6-.3.3-.6-.6-.9-.8,0-.7-.6-1.3-1.3-1.3-.5,0-.3-.9-.2-1.3.7-1,.8-2.2.9-3.3-.5-.6.4-1,.3-1.6,0-1.1,1-2.2,0-3-.8-.8-1.7-1.6-2.3-2.5.6-.4,1.3-1.3.6-2.1-1.1.6-.8-1.2-1.6-1.6.4-.9.8-1.8,1.2-2.8.2-1.1.3-2.4.3-3.5.1-1.1.1-2.3.1-3.4.4-1.1.8-2.3,1.1-3.4.4-.8.4-1.7-.4-2.2-.5-.8.3-1.6.6-2.3-.8-.9-.7-1.8-.1-2.8.4-1-.3-2.3-1.4-1.6-1.1,0-1.3-1.3-1.1-2.2-.6-.4-.9-1.2-.4-1.9-.4-1.1.8-.6,1.4-.7.9-.2,1.9,0,2.9,0,1,.3,2,.6,2.9,0,.9,0,1.4-.7,1.3-1.6-.1-.8-.1-1.6-.6-2.1.4-1.2-.6-1.3-1.5-1.8-.9-.4,0-.8.4-1.1,0-1.1.6-2.1,1.3-2.9.3-.8.9-.6,1.4-.7,0-.9-.8-1.9-.1-2.8.8-.8.4-2.1,1.4-2.7.1-.8.1-1.6.5-2.3-.2-1.3-.4-3.1-1.3-4.1-1.2-.4-2.8.6-3.7-.4-.4-1.3-1.9,0-2.3-.9-.7-.9,1.4-1.6.4-2.6-.6-1.3-2.3-1.9-2.6-3.4-.9-1-2.4-1-3.5-1.6-.9,0-1.6-.5-2.2-1.3-1-.4-2.1.3-3.1-.5-.9-.6-2,.8-2.6,0-.8-.4-1.7-.8-2.4-1.4-.7-.3-1.3-.7-2.1-.8-1.3.1-2.5-.5-3.6-1.3-.8-.6-2.4-1.1-2.2-2.2.8-.3,1.4-1,.9-1.8.7-.9.3-2.3,1.3-2.9.8-.9,1.7-1.7,1.8-2.9-.1-1,.3-1.9.8-2.7.3-1.1,1.5-1.3,2.1-2.1.5-.9,1.7-.4,2.5-.4,1.5.2,2.9.8,4.5.7,1.1-.3,2.2-.2,3.1-.6.6-.6,1-1.3,1.2-2.1l-.4-.4c-.6.6-1.1,1.4-1.8,2-.9.6-2,0-2.6-.8-.2-1-1.1-.9-1.9-.8-.6-.4-.8-1.7-.5-2.3.6-.4,2-.9,1.4-1.9.1-.9-.9-.5-1.1-.9-.6-.7-.6-1.7.1-2.3.2-.9.2-2.1-.5-2.7-.9-.3-1.8.7-2.4-.4-.6-.6-.4-2.1-1.6-1.7-.1.4.7.8-.1,1.1-1.1.3-.8-1.2-1.4-1.7-.4-.8-1-1.7-.3-2.5.8-.5,1.3-1.2,2.1-1.8.6,0,1.3.1,1.8-.6.2-.8-.8-1.9.3-2.4.9-.6.1-.8-.3-1.3-1.1-.6-2-1.6-2.9-2.4-.7.2-1.4.3-2.1.6-.2,1-.8,1.6-1.7,2.1-1.6.7-3,1.8-4.6,2.5-1.1,1.3-2.4-1.1-3.7-1.3-1.6,0-3.1-.6-4.8.2-1.1,0-2.4.6-3.4,1.1-1.1-.1-1.9.1-2.9-.4-.5-1.1-1.6-1.2-2.8-1-.9.3-3-.2-2.8,1,.5,1.3-.8,1.2-1.5,1.6-.7,0-1.3-1.3-2-1.7l.6-.6c.1-1.3.4-3.1.5-4.5.9-.5,2.4-2,3.4-2.5,1-.2,2.4-.8,4.1-1.4,1.1,0,1.9-.9,2.6-1.9.1-.9-.8-1.1.8-2.1,1.2-.6,0-1.4.3-2.3-.3-.9.8-1.3,1.2-2.4.4-1.1,0-2.2,0-3.3.2-1.1-2.7,0-3.6.5-1.1.1-2.5,1.4-3.3,1.3-.4-.3,2.1-1.9,1.8-2.5-.9-1.3-1.3-1.8-3.4-2.4-1.3-.2-2.9-.5-3.6-1.6-1.3-.9-4-1-5.1-2.2,0-.8.3-1.6.2-2.4-.6,0-1.7.5-2.4.6-.7-.4-1.3-.9-2-1.3-.8-.4-1.3-1.3-2.2-1.5-.9-.4-2.1-.3-2.8-1-.6.1-1.1,1.1-1.7,1.6-.3-.3-.6-.6-.8-1-.5-.5-1.2-1.2-1.9-.8-.4.4-1.3-.6-.9-.9.6-.5-.6-.9-.9-1.3-.3.2-.6.3-.9.5-.4.4-1,0-1.5.1-.7.6-1.3,1.2-2.1,1.7-.3-.4,0-1.7-.1-2.4,0-1,.8-2,.3-2.9-.1-.9-.8-1.7-1.3-2.5.6-.2.6-.9.1-1.3-.6-.4-.4-1.3-.7-1.9-.3-.9-1-1.5-1.2-2.4,1.3-.9,2.6-1.8,4-2.7.4-.4,1.1-.2,1.5-.6.4-.6,1.1.3,1.1.8.4.3,1.1.1,1.6.6.3.6.4,1.2.4,1.8.3.8,1.1-.2,1.4-.4.6.4.6-.4.7-.9.7-.4,1.4-.9,2.1-1.3.7,0,.7.8,1,1.3.8-.5,1.8-.5,2.5-1.1.6-.6,1.9-.5,1.9-1.4-.3-.8,1-.6.8-1.3,0-.7,0-1.3.3-1.9.4,0,.7-.1,1.1-.3,1.3-.4,2.7-.1,4-.3.6.4.6.3.8-.4.8,0,1.6-1.3.8-1.8-.8-.4-.8-1.4-1.2-2.1-.5-.4-1-.6-1.7-.6-.3-.4-.4-.9-.6-1.4-.2-.6-.4-1.1-.4-1.7,0-.6.3-1.6-.7-1.6,0-.2.6-.7.8-.7.4.8.8-.2,1-.6.8-.2,1.1-.8.8-1.6-.1-.5-.5-1.1-.9-1.4-.3,0-.8.3-.6-.1-.3-.8.9-1.3.4-1.9-.2-.9-.6.2-1.1.3-.7.4-1.3.8-2.1.4-.4.3-.9.7-1.4,1-.6.1-1.4-.3-2-.3-.7.1-1,1.5-1.9,1.1-.9.3-1.4-.3-2.1-.9-.6-.3-1.3-.4-1.9-.8-.2-.6-.3-1.2-.5-1.8-.3-.8-.3-1.7-.9-2.3-.7-.2-1.3-.7-1.9-1-.4-.7-.7-1.4-1.2-2.1-.5-.6-1.1.4-1.8.1-.8-.3-1.4.4-2.2.6-.7-.1-1.4,0-1.8-.7-.8-.6-1.4-1.4-1.4-2.4-.6-.4-.9-.8-.6-1.6.3-.6-.1-1.3-.3-1.9,0-.8-.3-1.4-.6-2.1-.8,0-.8-1.3-1.7-1.3h-2.3c-.6.4-1.3.7-2.1.5-1.2,0-2.1.9-2.9,1.6-.7.9-1.7.9-2.4,1.3l-.7-.6v-1c.1,0,0-1.5,0-1.5v-.8c-.1,0,0-6.6,0-6.6v-5.4c-.8.4-1.4.7-2.1,1.1-.6,0-1.3.1-1.9.1-.4,0-.8.1-1.1.3-.8.6-1.6,1.2-2.4,1.8-.3.3-.8,0-1,.3-.3.6-.9.8-1.4,1.2-.4-.1-.9-.3-1.4-.2-.5.2-1,.3-1.5.3-.3,0-.4.3-.6.5s-.3.6-.6.6c-.5.2-1,0-1.4-.2-.3-.2-.7,0-1,0-.3,0-.4-.5-.7-.4-.6.2-1.1,0-1.7-.1-.3-.3-.8-.4-1.3-.6-.4,0-.9,0-1.4,0-.8.5-1.6-.2-2.3-.3-1.1.3-2.4,0-3.5-.3-1.6-.2-3-.9-4.3-1.9-1.4-.5-1.1-2.6-2.6-2.7-1.4,0-1.5-1.7-1.5-2.7,1-1.2-.3-2.3-1.4-2.6.1-1.3-1.4-1.4-1.8-2.3.4-.8-.9-1.4-.4-1.9.3-1,1.4-2.6,0-3.3-.9,0-1.8-.4-2.8-.3-1-.1-2.2-.4-3.1.3-1.3.3-2.1,1.3-3.4,1.5-.6,0-1.1-.3-.8-.9.9-1-.4-1.8-.9-2.6-.9,0-1-.7-.8-1.4.6-1.2-1.2-1.1-1.9-1.1-.5,1.1-1.9,2.2-3.1,1.3-.6-.8-1.6-1.5-1.6-2.6-.8-.7-.2-1.7-.8-2.4-.8,0-.2-1.3-1-1.3-.8,0-1.7-1.5-2.6-.6-.6-.3-1.3,0-2,0-.6.8-.9,0-1.4-.4-.8,0-1.4-.4-2-1.1-1.1,0-1.6-1.1-2.2-1.6.1-1.3-1-1.7-1.8-2.3-1.4,0,.4-1.2,0-2l-.3-.2c-.4-.4-1.3-.6-1.4-1.3.3-.9-1.1-.9-.7-1.6-.3-1.2-1-2.2-1.8-3,.1-1.2-1.4-.4-1.7-1.4-.4-1.2-.9-3.3-2.2-3.8-.9-1.1-1.3.6-2.3.5-1.4,0-3-1.1-4.1.2-.6.4-1.2.2-1.1-.1,0,0,.9-.3,1.1-.8,0-.3.3-.6.4-.7-.2-.3-1.6-.7-1.5-2.1.3-1.1-1.2-2.3.2-2.9.6-.8,1.1-2.2.4-3.1-.8-1.1-2.1,0-2.9-1.1-.4-1.3-1.9-.6-2.3-1.5-.6-1.1-2-2.1-1.3-3.4.3-1.3.8-3.1-.1-4.3,0-.6.9-.2,1.3-.3,1-.4,1.5.8,2.3.8,1.2-.1,2.4-.6,2.9-1.7,1.6-.2.2-1.4.3-2.3-.3-.8-.3-3.1-1.4-2.2-.7,1-1.3,0-1.7-.4-.4,1.1-1.8.3-2.1,1.3-1.7.1-.7,1.4-.9,2.4-1.4.4-1.9,1.9-3.5,1.6-1.2.3-.8-.6-.5-1.2-.4-1.3,0-3.2-1.6-3.3-1.3,0-3.3-.3-2.9-1.9.4-1.4-.8-1.8-1.9-1.8-1.4.9-1.2-1.1-1.8-1.9-.5-1.1-.6-2.7.3-3.7,1.4.5,1.3-1.3,2.3-1.3,1.1-.4,2.5,1.3,3.1.1.9,0,1.4-.7,1.1-1.6-.5,0-1.1.2-1.6,0-.9,0-.9-.9-1.4-1.4-.4-.8-1.4.8-1.6-.3,0-.9-1.3-.8-1.7-1.6-.8.1-1.3.8-1.5,1.5-.3.9-1,1.4-1.4,2.2-.6.3-.3,1.3-1,1.1-.3,0-.9-.1-.9.4.1.8-.4,1.6-1.3,1.3-.8,0-1.1-.8-1.4-1.3-.7-.3-.3-2-1.3-1.4-.6.6-.5-.3-.3-.6.6-.3.7-1.2.3-1.7-.9-.3-1.4-1-1.2-1.9-.3-.6.9-1.9,0-2.1-.9.1-2-.8-2.6.3-.6.6-1.2,1.1-2,.8-.3.1-.5.1-.8-.1-.5-.4-1.9-1.3-1.3-1.9.4-.3,1-.6.9-1.2.3-.8,1.1-1.8.9-2.7-1.1.3-1.4-.8-1.3-1.7-.5.4-1.3.3-1.9.6-.9-.4-2.3-.3-3.1-.8-.4-1.1-1.1-2.2-2.4-2.2-.4-.4-1.4-.3-1.2.3.4.8.8,1.9.3,2.8-.1.9-1,.3-1.4.9-.3.9-1.1,1.1-1.7.3-.3.8-1.1,0-1.7.2-.7-.7-.5-1.8-.4-2.6-.3-.9,1-1.3,1.3-.4.6-.4-.1-1.1-.2-1.7.6-.8.1-1.8-.6-2.3-.7.1-1.1-.6-1.8-.3-.7.6-1.9,0-2.3,1-.3.7-2.1-.2-1.3-.7.9-.3.9-1.3-.1-1.3-.8,0-1.2-1.3-1.9-.8-.4.9-.8-.4-.4-.8.9.3.9-.9,1.4-1.4.6-.6,1.8-1.2,1.2-2.2-.6-.7-.2-1.7-.3-2.4-.8.7-1.3-1.2-1.9-.5.6.6,0,1.3-.6,1.6-.6,0-1.9,1-2.1,0-.6.6-.8-.4-1.4-.4s-1.4.5-2.1.8c-.8.3-1.6.2-2.3.7-.8.4-1.7.6-2.4,1.1-.4.5-1,.4-1.6.8-.4.8-1.6.8-1.8-.3h-1.2"/>
        <path id="path288" class="st1" d="M247.1,497.3c.8,0,1.6-.4,2.4-.1.8.3-.2-.8.3-1.1.5-.2.8-.9,1.4-.6.9,0,1.8.3,2.7,0,.4-.3.3.3.3.6,0,.3,0,.7.3.8.4.6.4,1.4.8,1.9.6.4,1.2.3,1.8.2.6.2.9-.8,1.4-.9.3,0,.6,0,.9.1,0-.4.1-.7.5-.8,0-.6.1-1.2.9-1.1.8,0,1.5,0,2.3,0,.6,0,.7-.6,1.2-.9.4-.1,1.1.1,1.4-.3.3-.4.4-1.1.8-1.4.5-.3,1.2-.1,1.8-.2,0,.9.1,1.9,0,2.8,0,.4,0,.8-.5.9-.6.4.2.8.3,1.1.1.3.3.5.3.8v.9c.4.6,1.1.4,1.7.5.9,0,1.8.2,2.7.4-.1.5-.3.9-.8,1.4.4,0,1.1.4,1.1-.3.9,0,.8-.7,1-1.1.6.2,2.2-.5,3.3,0,.6.4,1.2.5,1.9.3.6.5.9,0,1.2-.4.4.9,1.5.9,1.9,0,.9-.5.4,1.3.6,1.8.4,0,1.2-.4,1.8-.3,0-.1-.3-.6-.1-.8,0,0-.3-.9-.4-1.1,0-.5.2-.8.3-1.4.4-.4.9-.8,1.3-1.2,1.2.3,1.3.6,2.4.9.3.7.3,1.2.9,1.6.6.3,1.4.3,2.1,0,.6-.3,1.3-.4,1.3-1.1-.1-.7-.1-1.6.6-1.9.6.4.9-.1.9-.7.3,0,.6.3.9-.1l.8-.7c.6.2,1.3.8,1.9.8.3-.3.5-.5.8-.8.6.5.3,1.6.8,1.9.1-.4,0-1.1.7-1,.9-.2,1.8.3,2.7.6.8.3,1.5.4,2.3.4.8-.4,1.3-1.1,1.9-1.8-.8-.3-1.8-.4-2.5-1.1-.4-.3-.9,0-1.4-.3-.6,0-.6-.8-.7-1.3-.2-.4-.2-1,.1-1.4.1-.5-.1-1,0-1.4.1-.8.3-1.5.3-2.3.3,0,.8.4,1.1.6.6.8,1.3,1.4,2.1,1.8.4.9,1.5,1.1,2.2,1.8.6,1,1.9,0,2.6.8.5,1.2,1.7.3,2.6.8,1-.2,1.9.1,2.7.7.8.4,1.7.3,2.6.4.6.6,2,0,2.3.8-.4.6,0,1.2.6.6.6-.3,1.1,0,1.3.6.7.5,1.4,1.1,2.1,1.5.6.5,1.6.4,2.1,1.1.8.1,1.7,0,2.4.4.7.8,1.8.3,2.6.8.7.3,1.4.9,2.3.6.9.2,1.7.8,2.6.6.4.2.3.5.6.9" sodipodi:nodetypes="cccccccccccccccccccccccccccccccccccccccccccccccccccccccccccccccccccccccccccc"/>
        <path id="path97474" class="st1" d="M268.2,493.8c.6,0,1.1.1,1.7,0,1.2-.2.3-1.6.7-2.3.2-.9,1.3.2,1.4-.5,0-.9-1-1.3-1.4-2-.4-.7-.7-1.6-1.7-1.4-.7,0-1.2-.3-1.3-.9-.5-.6-.5.3-.6.6-.6-.3-.4-1.1-.3-1.5-.4-.1-.3-.3,0-.5,0-.5-.3-1.1-.4-1.6.5-.6,1.6-.1,1.9-.9.6-.5-.1-1.3-.3-1.8.2-.8.8-1.3,1.2-1.9.5-.3,1.4,0,1.8-.5.3-.6.3-1.4,1.1-1.4.9,0,.9-1,.8-1.7-.4,0-.9,0-.9.5-.4.2-.6-.9-.9-.3-.3.4-.9.6-1.3.9-.6-.3-1.4.1-1.6-.7-.3-.8.4-1.7-.4-2.3-.8-.6-1.1-1.5-1.6-2.3.4-.3,1-.7.4-1.2.2-.4,0-1.1-.6-.9-.5,0-.9.1-1.3.3-.9,0-1.9-.4-2.8-.6-.2-.1-.3-.4-.5-.4-.6-.1-1.3-.1-1.9,0-.6.4-.8-.4-1.4-.6-.4-.2-.9.4-1.4.5-.4.5-.6,0-1.1,0-.6,0-.3.5,0,.6.9,0,.4.9,0,1.1v.8c.2.6-.4.8-.9.9-.6,0-1.3.5-1.8-.1-.7-.3-1.4-.1-2.2-.3-.4.1-.8.4-1.3.4-.6.1-1.1-.4-1.8-.5-.6-.3-1.9.2-1.8-.8.1-.8.9-1.3,1.4-1.9.1-.3.5-.2.8-.2.7-.4,1.8-.4,2.2-1,0-.6,0-1.2.8-1,.4.2.9-.4.3-.4s-1.4-.5-1.5-1.2c.6-.2.1-1,.6-1.4-.3-.6-.4-1.3.1-1.8l-.8-.3c0-.6-.3-1.3,0-1.8.1-.4-.2-.8-.2-1.1-.6-.1.2-.6.3-.9.2-.4-.6-.6-.9-.8-.6-.1-.9-.3-.6-.9.1-.6.1-1.3.5-1.9.3-.4.7-1,.5-1.6.1-.6.3-1.2.2-1.9.1-.6.3-1.4-.1-1.9-.7.1-1.2-.3-1.8-.4-.4,0-.8,0-1.3-.1-.1-.2-.2-.4-.3-.6v-2.1c.1,0,0-1,0-1v-1.7c-.1,0-3.8-1.3-3.8-1.3,0,0-.4-.2-1-.3-.9-.3-1.6-.4-1.8-1.4-.7-1.1-1.4-2.3-1.4-3.6s-.6-3.6-.9-5.3c-.2-1.8.9-3.6.4-5.5-.4-1.3-1.9-1.8-2.9-2.5-.5-1.3.7-2.6.9-3.9.1-1.6-.5-3.2-1.1-4.6-.4-1.3-.7-2.5-1.2-3.7-.2-1.3,1.6-1.9,1.6-3.3,0-.5.1-1.1.2-1.6" sodipodi:nodetypes="ccccccccccccccccccccccccccccccccccccccccccccccccccccccccccccccccccccccccccccc"/>
        <path id="path31880" class="st1" d="M242.9,231.8c-.8,0-1.6.4-2.4,0-.5-.3-1.1-.3-1.6-.3-.8-.2-.2.9-.5,1.4-.1.6-.9,1.4-.1,1.9.5.6,1.1,1.2.7,1.9,0,.7-.6,1.4-.1,2.1.6.8.2,1.4,0,2.3,0,.7-.3,1.4-.1,2-.8,0-1.7.4-2.3,1-.1.2-.3.4-.4.6-1.1.2-1.9.9-3,.6-.8.2-1.7.4-2.3.9-.6.8-1.5,1.6-1.8,2.5,0,.7.3,1.2-.2,1.7,0,1.2-1.6,1.1-2.4.8-.4.9-1.3.3-2,.3-.1.3-.3,1-.8,1.2-.4.3-.7.6-.4,1-.1.5-.3,1.9.6,1.2.8-.5,1.8-.6,2.8-.4.6.1,1.3.3,1.8.5,0,.8-1,1.8,0,2.3.6.7,1.5.6,2.4.6.9.1,1.8.2,2.8.3,0,.8-.4,1.5-.6,2.3-.1.9-1.2.1-1.8.4-.4-.4-.8,0-1.3,0-.8-1-1.4.9-1.3,1.5.1.9-.7,1.8-.1,2.7.2.9,1.2,1.3,1.3,2.1,0,.6-.1,1.2-.2,1.8-.4-.1-1.4,0-1.2-.7-.3-.7-1.3-.3-1.8-.2-.6,0-.8-1.1-1.4-1.1-.4.4-1.1,1.1-1.7.7-.6-.3-1.2,0-1.8,0-.4.3-.3,1.2-.6,1.8-.4.5-.9.9-.9,1.5-.2.8-1,.4-1.6.3-.6,0-1.7.6-1.7-.4s-1-1.1-1.1-1.8c-.4-.3-.3-.8-.6-1.2-.7-.4-.8.4-.9.9-.5.3-.3,1.3-.9,1-.6-.2-1.2.3-1.7-.1-.1,0-.2-.2-.1-.4.3-.4.4-1.2-.3-1.1-.5,0-1.1,1.1-1.4.3.2-.8-.6-.9-1.2-.6-.8.1-.8.8-.7,1.4,0,.6-.7,1.1-1.1,1.6-.6.4-1.1-.4-1.6-.8-.8-.4-1.1.6-.8,1.2-.1.4.3,1.1,0,1.2-.6,0-1.3-.3-1.8-.4-.5.4,0,1.3-.3,1.8-.4.6-.6-.3-.9-.4-.8-.1-.3,1-.4,1.5-.1.6.1,1.3-.2,1.9-.3.6-1.1.4-1.5.8-.4-.5-1.3-.3-1.5,0-.4.5-1,.3-1.4,0-.8-.4-1.7-.5-2.3-1.1s-1.2,0-1.3.6c-.2.5.1,1.2-.4,1.6-.1,0-.3,0-.3,0-.6.5-1.1,1.1-.3,1.6.7.3.9.7.6,1.3.6.3,1.7.1,1.6.8.4.4.2,1.1-.4.7-.6.8-.5,1.9-.8,2.8,0,.8-.8,1.9-.4,2.6-.2.6-.3,1.1.4.9.4,0,0,1.5.7,1.3.6-.2,1.1.4,1.6-.1.6.6.6,1.4.8,2.1-.6.3,0,1-.8.9-.7.6-1.4.9-1.4,1.9-.1.6-.7-.3-.9.4-.6,0-1-.5-1.3.3-.4.6-1.3.4-1.9.8-.8.2-1.3,1.3-2.1.7-.3-.7-1.1-.5-1.3-.9-.3.5-1.6,0-1.3.8.2.7-.8.3-.4-.3-.1-.3-.6,0-.8-.1-.4-.7-.6.2-1.1.2" sodipodi:nodetypes="cccccccccccccccccccccccccccccccccccccccccccccccccccccccccccccccccccccccccccccccccccccccc"/>
        <path id="path308" class="st1" d="M292.3,342c-1.4,1.1-2.5-.6-3.6-1-1.2,0-.9,1.7-2.3,1.3-1.1.6-2.4-1.3-2.8.1-.8.2-2.3.1-2.8-.4,0-1.3,1.6-1.2,1.8-2.6-.6-.3-1.8-.2-2.5-.8-1.4-.2-2.8-1.3-4.3-.8-.9,0-.7,1.6-1.9,1.3-1.4.6-1.6-1.1-2.9-1.2-.7-.7-1.9-2.6-2.1-.8-1.1-.9-2.3-.3-3.3.3-.1-.4.2-1.1-.6-.5-1-.4-1.2-1.8-2.1-2.5-.6-.8-.6-2-1.2-2.8-.6-.6-.9-1.8-1.9-1.9-1-.2-2.1,0-3,.4-.5-.6,0-1.9-1.3-1.7-1.3,0-2-.9-2.5-2-.6-1.1-2-1.2-2.9-1.6h-.2c-1.3-.4-2.1-1.4-3.3-1.5-.8-.9-1-1.9-1.8-2.8-.6-.8-1.1-1.9-2.2-1.8-.6-.9-2.1-1.5-1.1-2.8.3-.8.8-1.5-.4-1.5.3-.8-.9-1-.6-1.9-.5-.5-1.3-1.3-2-.4,0-1.1-1.5-2-.8-3.2.8.7,1.7.4,1.3-.6,1,0,1.9-1.2,1.4-2.2,0-.3,0-.5-.1-.7-1.7.1,0-1.9-.1-2.8.5-.7,1.6,0,1.6-1,.5-.5.6-1.3,1.4-1.2,1.1,0,1.7-.8,1.4-1.8-.2-1.1-.9-2-1.2-3.1.6-1,2.1.1,2.3-1.3.2-1.1.4-2.4,1.6-2.8.9-.8-.3-1.4-.8-1.8,0-.4.4-.6.6-.9-.2-.8-1.1-.6-1.7-.6-.6,0-1.2.2-1.8.3-.7-.1-1.4-.4-2.1-.1-.7.1-1.4.4-2.1.3-.6.1-1.2.4-1.8.3-.6-.2-.6-1.1-.6-1.6-.1-.7-.7-1.3-1.4-1.1-.8,0-1.4.4-2,.7-.5.4-.3,1.1-.6,1.6-.1.8-1,.8-1.6.5-.6-.2-1.1-.7-1.8-.4-.5.1-1,.4-1.5.3-.8-.3-1.4-.8-2.3-.7-.8-.1-1.5-.8-2.3-.4-.6.3-1.3.4-2,.2-.9-.3-1.4.5-2.2.8-.7.2-1.1-.7-.8-1.3.4-.5.2-1.1-.2-1.6,0-.4-.2-.8-.7-.8s-1.3.5-1.4-.4c-.2-.8-1-.4-1.5-.1-.6.3-1.2.2-1.7,0-.5-.3-1.1-.2-1.6-.3.4.8,1.4,1.4,1.2,2.3-.5.8,0,2.1-.6,2.5-1.2-.2-1.5.9-1.9,1.8-1,.5-.8,1.8-1.9,2.4,0,.7-.8,1.7-1.4,1.7-.6-.1-.6-1.9-1.1-.7-.6-.8-1.4-.6-2.3-.9-.8-.6-.7,1.8-1.8.9-1-.8-2-1.8-3.4-1.6-1,0-1.9-.1-2.8-.4" sodipodi:nodetypes="cccccccccccccccccccccccccccccccccccccccccccccccccccccccccccccccccccccccccc"/>
        <path id="path312" class="st1" d="M272.6,540.7c-.1-.8,0-1.6.7-1.1.4.1.8-.5,1.1,0,.4,0,.5-.7.9-.8.4-.3.8-.9,1.3-.8.6.3,1.2.4,1.8.6.8.3,1.7.3,2.5.3.1-.3.3-.6.6-.4.4.2,1.3-.4.8-.7.2-.3.3-.8.8-.6h1.9c.3-.6-.2-1.2-.8-1.1-.4-.4.6-.5.8-.4.4-.6,0-1.2-.5-1.6-.3-.6-1-.9-1.3-1.4.3-.6.5-1.3.2-1.9.5-.2.7,0,.9.4.5.1,1.1,0,1.5.4.3.6.9.3,1.1-.2.4,0,.8-.2,1.1-.4.7.2.9.8,1.1,1.4.1.8,1.2.2,1.6.8.4.3,1.1.6,1.1,1.1s.6,1.1.8,1.8c.5.4,1.2,0,1.6.6.6.5,1.4.3,1.9.9.7.5.8-.8,1.6-.5.9-.3,1.3.4,1.8,1,.4.6,1.1,1.1,1.4,1.8.6.6-.6.9-.7,1.3.7.6,1.4,1.1,2,1.7.1.2.3.4.4.6.6-.3,1.3-.8,1.8-1.1.4-.3,1,0,1.5,0,.5-.2,1.3,0,1.6-.4.2-.5.1-1.3.8-1.4.7-.1,1.3.1,1.9.4.5.5.9,1.4,1.6,1.4s1.6,0,2.3-.3c.4-.1-.3-.7-.4-1-.5-.8-1-1.6-1.3-2.5-.1-.5-.3-1,.2-1.4.4-.4,1.2-.3,1.1-1,0-.4.1-.8.2-1.2.7-.3.6-1.3,1.2-1.6.7-.3,1.4-.4,2.2-.3,1.6.5,3.3.8,4.9,1.5.8.5,1.9.1,2.3,1.1.9.6,1.6.8,2.2,1.5.4.3.7.8,1.3.9.6.2,1.3.3,1.6.9.3.6,1.1.6,1.6,1.1.6.4,1.3.6,1.8,1.1.8.6,1.8,1,2.8,1.5" sodipodi:nodetypes="cccccccccccccccccccccccccccccccccccccccccccccccccccccc"/>
        <path id="path32627" class="st1" d="M299.7,353.3c-.2-.2-.8-.2-1.3-.4s-1.1-.5-1.4-.5c0-.4-.4-.6-.3-1.1-.1-.4-1-.9-1.3-.4-.4,0-.8-.6-1.3-.6-.6-.3-1.3-.7-1.8-.7-.3-.6-.8-.5-.9.1-.3.6-.9.5-1.1,0-.9-.4-1.8-.7-2.8-.8-.4.3-.5,1.1-1,1.1-.4-.6-1,0-1.6,0-.5,0-1.3-.2-1.1.6-.6.3-1.6.5-2.2.2-.4-.3-.8-.5-1.1-.9-.8.6-1.9.4-2.9.8-.9.2-1.8,0-2.6.5-.8.6-1.9.2-2.7-.1-1.1-.2-2-.6-2.8-1.4-.6-.3-1.3-.2-1.9-.3-.3,1.1-1.5.9-2.4,1-1.4,0-1.1-1.8-2-2.3-.6-.4-1.4-1.1-1.3-1.9-.3,0-.9-.3-1.1-.4-.6-.6-.8.5-1.3.7-.9.3,0,.8.3,1.1.3,1-1.1-.2-1.6.3-.5.5-1.2.3-1.5-.3-.7-.3-1.5,0-2.2.2-.7.4-1.4.2-2.1-.1-.7-.3-1.4.1-2,.1-.6-.4-1.2-1-2-.7-1.4.2-2.7-.5-4.1-.6-.6.3-1.3.5-1.9.2-.5,1.1-.8.1-2.1.1-.3.4,0,.7-.4.9-.3.6-.7,1-1.1,1.4-.6.3-.9.7-1.5.9-.6.3-.4,1.3-1.1,1.5-.7.2-.3,1-.7,1.3-.5,0-1.3,0-1.2.8,0,.8-.9,1.2-1.6,1.3-.9.3-1.9.4-2.8.7-.1,0-.2.1-.3.2-.4.7-.1,1.7-.6,2.3-.6.6-1.6.6-2.5.8-.9,0-.4,1.1-.4,1.8-.1.4.5,1.9-.4,1.2-.8-.8-1.2.9-2.1.7-.7,0-1.7.6-2.2.3-.1-.6-.6-1.6-1.3-1.6-.5-.1-.6-1-.1-1.2-.3-.8-1.5-.3-2.1-.5-.6-.6-1.3-.1-2-.3-.6,0-.9-.6-1.5.3-.6-.2-1.1.3-1.8.2-.6-.3-1.3,0-1.8.4-.6.4-1.4.3-1.7,1.1-.1.2-.3.4-.4.6" sodipodi:nodetypes="ccccccccccccccccccccccccccccccccccccccccccccccccccccccccccc"/>
        <path id="path320" class="st1" d="M205.5,198.9l-.9-.8-.8-1.1-.9-1-1.1-.4-1-.7-1.2-.2-.6-.9.6-.6-.5-.6v-.9c-.1,0-2.3-.5-2.3-.5h-.3l-1.4,1.6h-.6c0-.1-.6.6-.6.6l-.6-.3h-.4c0,.1-.4.5-.4.5l-1-.9-1.3-.6-.8-.3-1.1-.9-1.1-.6-1.1-.8-.4-.5-.9-.5-.7-.7-.5-.3-.3-.3-1.2-1.4v-.7c0,0-.1-.7-.1-.7v-1l-.8-.3h-.7c0,0-.7-.5-.7-.5l-.3-.3-1.4-.3-1.1-.8-1.2-.8-.3-.3v-1.1c-.1,0-1-.7-1-.7v-.8c0,0,.3-.5.3-.5v-1.7l.3-.6.5-1.3.3-.9-.3-1.6v-.4l.3-.4.7-.4.2-.3-1.2-.6-.3-.4-.9-.3h-1.3c0,.1-.9,0-.9,0l-.3-.3h-.9c0,.1-1.4,0-1.4,0l-1,.2v-.4c-.1,0-.6-.3-.6-.3v-.9c-.1,0-1.2-.6-1.2-.6l-.7-.8-.7-.2-.4-1-.4-.3-1.3-.8-.7-.3h-.9l.4-.7-1.3-1-.4-.4v-.3l.5-.4v-1.1c.1,0,.6-.8.6-.8l-.2-1.1-.5-.5-1.4-.6" sodipodi:nodetypes="cccccccccccccccccccccccccccccccccccccccccccccccccccccccccccccccccccccccccccccccccccccc"/>
        <path id="path43790" class="st6" d="M130.3,165c-.3-.4,0-.9.5-.9,0,.4.3.9.8.9.4-.3.8-.3,1.1-.5.4,0,1-.1,1-.7s.4-.9.2-1.3c0-.5-.4-.7-.9-.7-.6-.3-.9-.8-.7-1.4.3-.6-.4-1.1,0-1.6.2-.4.8-1,.2-1.3s-.4-.4-.6-.6c-.1.3-.5.4-.8.5-.3.1-.8.5-.6.9.2.3.2.6.4.9.1.3.4.4.6.7.3.5.3,1.1,0,1.7-.4.3-1.1.2-1.4.6-.4.3-.9.8-.9,1.4,0,.5.6.8.6,1.3-.3.3-.4.3-.4.9.4-.1,1,.1.9-.6h0Z" sodipodi:nodetypes="cccccccccccccccccccccc"/>
        <path id="path163699" class="st2" d="M85.4,123.1l.4-.3c0-.1-.2-.5-.2-.6-.1-.4-.3-.9-.6-1.3-.3-.4-.4-.9-.5-1.4,0-.3,0-.6,0-.9-.3-.4-.6-.8-.9-1.3.1-.2.3-.4.3-.6.1-.3.3-.4.3-.8.3.1.5.3.8.3.3.3,1.1.6,1.3.2.5-.4,0-1.1.2-1.6-.3-.1-.3-.4-.1-.6.4,0,.3-.4.1-.7,0-.5-.6-.9-.3-1.3.1-.3.3-.6.5-.8.3-.3-.3-.5-.3-.8,0-.4-.1-.8-.1-1.3s-.2-1.1-.3-1.6c-.1-.4-.5-.7-.9-1-.3-.4-.6-.8-.8-1.3-.3-.3.3-.5.5-.4.4.1.8,0,1.1,0s.9-.3,1.4-.3c.3.1.5.3.8.1l.8-.8c.2-.1.4-.3.6-.4.4-.4.9-.8,1.2-1.3.3-.4.6-1.2,1.2-.9.6.3,1.3.4,1.9.2.6-.1,1-.4,1.4-.8.5-.3,1.1-.1,1.6-.4.6-.1.8-1.1,1.5-.7.6,0,.9-.5.9-1.1-.1-1.1-.3-2.1-.4-3.1.5-.3.6-1.1,1.2-1.3s1.3,0,1.9-.3c.5-.6,1.3-.1,1.6.4.4.6,1.2-.4,1.8,0,.4.7.9-.3,1.4-.1.6-.2.7-1,1.4-.9.4-.3.3-1.4,1.1-1.1.3.3.6-.1,1,0,.3-.3.9-.4.6-.9-.3-.6,1.1-1.2.6-.3-.4.6.6.8.6.2.5-.5.8-.5,1.3-.6,0,.4.8.3.9.6" sodipodi:nodetypes="cccccccccccccccccccccccccccccccccccccccccccccccc"/>
        <path id="path3792" class="st8" d="M438.7,595.4c-1.6.9-3.1,1.6-4.6,2.6-1.1.2-.6,1.5-1.3,1.9-1,.3-1.8,1-2.6,1.5-2.1,1.1-4.3,1.9-5.8,3.8-1.1.8-2.3,1.1-3.4,1.5-1.5.6-3,1.1-4.5,1.6-1.1.5-2.6.6-3.3,1.8-.3.3-.6.6-.9.8-1.4.6-.4,2-.9,2.9-.5,1.4-2.1,1.1-3,2-.9.8-1.7,1.7-2.9,1.8-1.3.2-2.2,1.2-3.5,1.3,0,.6-.4.9-1,.9-.6-1.1-2.3-.6-3.1-.3-1.3.3-2.7-.3-3.9.3-1.4,0-2.7.8-4.1.9-1.2.6-2.4.8-3.6,1.4-1.2.4-1.9,1.6-2.8,2.4-.7.7.2,1.4-.3,1.9-.4,1.3,1.1.3.8,1.4-.7.3-1.8.9-1.6,1.9-.8,0-1.7-.3-2.5,0-.5-1.1-1.8-.3-2.7-.6-1-.4-2.1-.6-3.1-.8-2.2-.6-4.5-.4-6.6-1.3-2.3-.6-4.5-1.3-6.6-2-1.8-.7-3.5-1.4-5.4-1.3-1.1,0-2.4.7-3.3-.3l-.2-.2-.3-.2c-.6-.9-.4-2.5-1.8-2.9-1.4-.8-2.6-1.8-4.1-2.3-1.4-.2-2.9-.6-3.6-1.9-.8-1.1-1.7-2.2-2.9-2.8-.9-.6-2.1-.8-2.9-1.5-.5-1.3-1.6-2-2.5-2.9-.8-1.1-1.8-1.8-2.9-2.3-.9-.9-2-1.5-2.9-2.3-1.3-.8-2.4-1.8-3.6-2.6-.4-.2-.8-.5-1.1-.9-2.1-1.8-4.5-3.5-6.6-5.3-1.9-.5-2.4-2.4-4-3.1.4-.3-.4-1.2-.8-.4-.4-.9-2.8-1.6-1.9-2.8-.8-2.8-3.2-4.7-4.9-7-3.4-4.1-6.9-8-10-12.3-2.2-2.8-4.5-5.4-6.7-8.2-1.4-1.5-2.3-2.9-3.4-4.8l-.6-.6c-1-1.4-2.2-2.7-3.3-4-.6-.8-1.1-1.5-1.7-2.2-.7-.8-1.4-1.6-2-2.4-.8-.8-1.3-1.8-1.9-2.6-.1-.6-.6-.9-1-1.4-.4-1.1-1.3-1.8-1.7-2.8-.3-.4-.6-.7-.8-1.1-.8-1-1.8-1.8-2.3-2.9-1.3-2.3-2.8-4.4-4.7-6.1-1.1-1.1-2.4-2.4-4.1-2.4.9-.6-.6-.9-1.1-.8-.6.6-1-.3-1.4-.7-.8-.8-1.5-1.4-1.9-2.5-.3-1.2-.8-2.3-.9-3.5-.4-.6-.4-1.4-.6-2.1-.6-1.7-1-3.4-1.4-5.3-.4-1.1.1-2.3-.4-3.3-.5-.8-1.1-1.6-1.4-2.5-.8-2-1.6-4-2.5-6-.5-1.4-1.3-2.8-2-4.2-.2-.6-.3-1-.7-1.4-.2-.3-.6-1-.6-1,.7-.3.7.1,1.1.6.1.4.6.4.5,0,.5-.8.5.7,1.1.6.6-.3,0-1.2.3-1.8.1-.7-.3-1.3-.4-2-.2-.6-.3-1.4.3-1.8-.3,0-.6-.3-.8.1-.6.6,0,1.3,0,1.9,0,.7-.8.7-.7,1.3-.3-.1-.6-1-.6-1.5s-.4-1.3-.9-1.6c-.6-.7-.8-1.6-1.1-2.3-.6-.9-1.1-1.8-1.2-2.9-.3-1.4.1-2.8-.2-4.2-.3-.6-1-.6-1.4-1-.3.1-1.1,0-.9.5,0,1.1.8,1.9,1.3,2.7.4.8.6,1.6.8,2.4.3.7.2,1.4.5,2,.2.6.8.9,1.1,1.5.3.8.8,1.4,1.1,2.2.3.5.3,1.2.6,1.7.6.4,0,1.3-.6,1h0c-.4-1.1-.9-2.3-1.4-3.5-.5-.8-.9-1.6-1.1-2.6-.9-2.2-1.9-4.3-2.9-6.5-.6-1.5-1.5-2.8-2.1-4.3-.6-1.7-1.6-3.3-2.4-4.9-.4-1.6-1.1-3.1-1.8-4.6-.6-2.2-2.4-4-2.5-6.3-1.1-1.9-1.1-4.1-2.3-6-1-4-1.8-8.1-2.6-12.1.1-2.3-.9-4.4-1-6.6-.4-2.3-.5-4.6-.7-6.9-.5-2.3-.4-4.6-.6-6.8-.4-4-.7-8.1-1.6-12-.1-.8-.3-1.7-.4-2.5-.3-2.4-.8-4.8-1.3-7.2-.4-1.8-.6-3.6-1.1-5.3-.4-1.8-1.2-3.4-1.8-5.1-.2-.8-.8-2.1.3-2.5.9-.6,1.7.1,2.2.9.3,1,.3,2.1.6,3.1.3.9,1.4,1.1,2.2,1.5.8.4,2.1.7,1.9,1.9-.1.6.3,2-.1,2.3-.7-.5-.6-1.3-.9-2-.4.4,0,1.4.1,2,.2,1.4.4,2.9.8,4.4.6-.9,0-1.6,0-2.7-.6-.4.3-1.6.6-.7.6.6,1.6.9,2.3,1.3.6.6,1.6,0,1.8,1,.4.8.9,1.6.8,2.4-.2.8.2,1.6.7,2.2.6.8,1.4,1.4,2.4,1.5.7-.8.7.5.4.9-.6.4-.9,1.2-1.1,1.9,0,.9.6,1.8.9,2.6.5.8-.1,1.7.2,2.6.5.6-.4,1.7.3,1.9.1.9-.9,1.6-.7,2.5.3.9,0,2-.6,2.6.4.4.3,1.1.9,1.4,0,.9.8.9,1.5,1,.3.8,1.1.2,1.6.6,0,.5-.3,1.3-.3,1.9,0,1-1.5,1.1-1.3,2.3-.6.7.3,1.5-.3,2.2-.5.8-1.1,1.5-1.4,2.4,0,.7-.6,1.3-.4,1.8,0,.6.6,1.1.3,1.8-.8.6-.9,1.4-1,2.3,0,.8-.2,1.6-.3,2.4-.4.8-.3,1.9.5,2.5.8.7,1.6,0,2.5.8.2.1.3.2.6.2.1-.2,0-.6,0-.8,0-.8,0-1.6,0-2.4.3-.3.7-.5,1.1-.7.4-.3,1-.3,1.4-.6.3-.2.1-.6.3-.8.4-.3.8-.3,1.2-.6.3-.1.1-.5.2-.8,0-.3.3-.4.4-.6.3-.5.3-1.1.5-1.7.3-.6,0-1.3.4-1.9.4-.5.6-1.2.2-1.8-.1-.5-.6-.8-.6-1.3,0-.6-1.1-.5-.8-1.3.3-.8-.6-.6-.9-1.1-.3-.4-1.1-.1-.8-.7,0-.6,0-1.1.2-1.6.3-.3,0-.4-.1-.8.3-.8.8-1.4,1.3-2.2,0-.3,0-.7,0-1.1,0-.6-.8-1-1.4-.8-.4.4-.6-.2-1.1-.2-.4-.2-1.8.3-1.4-.6.3-.8.8-1.6.8-2.4,0-.7,0-1.3.1-1.9-.2-.7,0-1.5-.4-2.1-.2-.6-1.1-.9-1.1-1.6-.7-.1-.6-.7-.5-1.3-.4,0-.2-.4-.4-.8-.7-.6-.1-1.4.4-1.8-.2.3,0,.9.4.7-.4-.6.3-1.1.5-1.6.4-.4,1.2-1.3.8-1.8-.6.4-1-.4-.6-.9,0-.2,0-.4,0-.6-.1-.4.3-.4.4-.5.3-.6-.9-1-1.1-.4-.5.3-1.1-.6-.9-1.1.3-.6,1.1-.6,1-1.4.2-.8-.4-1.2-.8-1.7,0-.7-.5-1.1-.8-1.8-.1-.6-.4-1.1-.7-1.6-.3-.4-.4-.9-.6-1.4-.4-.3-.5-.8-.6-1.2-.2-.6-1.3.3-.9-.4.6-.4.3-1.3-.4-1.3-.6-.2-.4.4-.4.7-.2.4.1.9-.3,1.3,0,.6.2,1.1.4,1.7.3.5,0,1.1.4,1.6.6.4-.2.8-.6.7-.7.3-1.2-.3-1.8-.6-.6,0-.1-.4,0-.6-.7-.4-.6.3-.5.8-.4,0-.9,0-1.3-.4-.3-.5,0-1.1-.4-1.5v-1.6c-.2-.6.3-.9.8-.8-.3-.3-.4-.8-.7-1.1-.3-.2,0,.7-.3.3-.6-.5-.9-1.2-1.3-1.9-.4-1.1-1.1-2.1-1.6-3.2-.6-1.1-1.1-2.1-1.4-3.2,0,0-.1.2-.1.3,0,.4,0,.8,0,1.2-.2-.3-.4-.6-.6-.9-.2-.3,0-.6-.1-.9,0-.4-.1-.9-.4-1.3-.3-.6-.6-1.1-1-1.6-.4-.6-.9-1.1-1.4-1.6-.2.2-.2.6-.4.8-.3.3,0,.6,0,1s0,.8.2,1.1c.1.3.2.7,0,1,0,.6.1,1.1.4,1.6.2.3,0,.4,0,.7.1.3.4.6.6.9-.1.2-.6.1-.8.1-.5-.1-1-.1-1.6,0-.2-.3-.3-.6-.5-.9-.2-.5-.1-1.1-.3-1.6,0-.6-.3-1-.4-1.4.1-.6-.3-1-.4-1.6.2-.6-.3-1.1-.4-1.7-.1-.6-.3-1.3-.5-1.9,0-.5-.4-.9-.7-1.3-.2-.4-.1-1-.3-1.5-.1-.9-.5-1.8-.7-2.7,0-.4,0-.8-.1-1.1-.3-1.3-.6-2.4-.9-3.7-.2-.5-.3-1-.4-1.5-.1-.6-.4-1.1-.5-1.6-.3-.8-.6-1.6-.8-2.4-.2-.4-.5-.8-.7-1.3-.3-.1-.4-.4-.4-.7,0-1-.3-1.9-.8-2.9-.3-1.6-1.2-3.1-1.3-4.8-.1-1.2-.8-2.3-1.1-3.4-.4-1.5-.9-2.9-1.4-4.5,0-1.1-.5-2.2-.9-3.3-.9-2-1.6-4.1-2.3-6.1-.5-1.3-1.1-2.5-1.6-3.8-.2-.8-.4-1.6-.8-2.3-.5-.9-.7-2-1.1-3-.8-1.6-1.5-3.1-2.3-4.6-.6-1-.7-2.2-1.6-3-1.3-1.6-2.1-3.6-2.9-5.4-.6-1.1-.9-2.1-1.4-3.3-1.4-2.8-2.7-5.6-3.9-8.5-.7-1.8-1.4-3.5-2.3-5.3-.8-1.7-1.6-3.4-2.2-5.1-.2-.7-.6-1.3-.9-1.9-.1-.7-.4-1.3-.8-1.8-.2-.8-.6-1.6-.9-2.4-.3-.6-.4-1.4-1.2-1.6.2-.2.4-.1.6-.1.3,0,.6-.3.8.1.9,0,1.9-.4,2.5-1.2.3-.4.7-.4.9-.7.2-.3.7-.4.8-.8.2-.4.5-.8.8-1.3-.2.2-.4.4-.6.6-.3.4-.8.6-1.3.7-.7.2-1.4.6-1.9,1-.4.4-1,.3-1.5.4-.4,0-.8.3-.9.6-.3.3-.3-.7-.4-.9.2-.8-.4-1.4-.4-2.3,0-.8-.4-1.6-.5-2.4,0-.8-.6-1.5-.7-2.3,0-.9,0-1.7-.3-2.5-.4-.8-.1-1.6-.4-2.4,0-.8-.7-1.3-.7-2.1,0-.8-.4-1.5-.4-2.3,0-.9-.3-1.6-.7-2.4,0-1-.4-1.9-.6-2.9,0-.2,0-.4,0-.6-.4-1-.6-2.1-.9-3.1,0-.6-.1-1.3-.4-1.9-.5-1.3-.8-2.7-1-4.1-.2-1.6-.8-3.1-1.1-4.7-.3-1.3-.8-2.6-1.2-3.8-.2-.8-.9-1.3-.9-2.1-.1-.4-.4-.8-.6-1.3-.4-.6-.5-1.4-.9-2.1-.6,0-.9-.5-1.4-.8-.5-.2-.1-.6.3-.6.1-.1.5-.1.5-.1.1,0,.5-.1.6-.4.2-.5.3-1.1.8-1.3,0-.6.8-.6,1.3-.7-.4,0-.7-.1-1.1-.1-1.3-.3-1.3,1.4-2.1,1.9-.5.7-.5,0-.6-.6-.6-1.1-.8-2.4-1.3-3.6-.6-.9-.6-2.1-1.1-3.1-.3-.9-.9-1.7-.8-2.6-.2-1.1-1.1-2-1.1-3.1-.6-1.4-.9-2.9-1.6-4.2-.3-.9-1.1-1.5-.9-2.4-1.1.1-1.1-1.1-1.4-1.7.3-.6.3-1.6,0-2.4,0-.1-.2-.3-.3-.4-.6-.6-.6-1.5-1-2.3-.3-.8-.8-1.4-1.1-2.3-.6-.9-1-2-1.6-3-.7-1.1-1.1-2.2-1.8-3.3-.4-.5-.8-1.6-1.5-1.4-.7-.6-1.3-1.3-2.1-1.8-.8-.3-1.6-.6-2.3-.3-.3.4-1.2.8-1.3,0,0-1-1.1-.9-1.7-1.4,0-.8,0-1.6-.4-2.4-.8-1.8-1.5-3.8-2.1-5.7-.2-1.1-1-2.1-1-3.2-.4-1-1.1-2.9-1.1-3.2-.1-.3-.8-2.1-.8-2.4-.4-.8-.6-1.7-1-2.2-.4-.9-.6-1.9-1.1-2.8-.3-.9-1.3-1.7-1.2-2.8-.4-.9-1-1.8-1.5-2.8-.1-.3-.3-.5-.5-.8-.1-.1-.3-.2-.4-.3s0-.2,0-.3c.1,0,0-.3-.1-.3-.4-.3-.5-.7-.8-1-.7-.3-.8-1.1-1.2-1.7-.5-.4-1.1-1.5-1.8-.9-.3-.5-.6-1.4-1.3-1.8-.6,0-.6-.4-.6-.9-.3-.6-1.4-.8-1.3-1.6.5-.1.3-.3-.1-.4-.6.3-1.1.3-1.8,0-.9,0-.3-1.1-.8-1.4-.7,0-.6-.6-.8-1.1-.4-.8-.9-1.6-1.6-2.3-.6-.4-1.3-.8-1.7-1.4-.1-.2-.3-.4-.4-.6-.6-.8-1.2-1.6-1.9-2.3-.8-.3-.8-.9-1.4-1.4-.6-.5-1.3-1.3-2.1-1-.7.1.2.7-.4.8-.8.4-1.1-.8-1.8-1-.4.3-.4,0-.5-.4-.3-1.1-1.1-2-1.8-2.9-.6-.8-1.1-1.7-1.9-2.3-.9,0-.6-.6-.6-1.3-.9-1.4-2-2.5-3-3.8-.9-1.4-1.6-3-2.8-4.3-1-1.3-1.9-2.5-2.9-3.8-.8-.8-1.8-1.4-2.6-2.1-.6.1-.9.8-1.3,1.3-.3.8-1.3,0-1.5.8-.2.4-.4.6-.6,0-.6-1.2-.9-2.4-1.6-3.6-.1-.2-.2-.4-.3-.6-.1-.2-.4-.6-.4-.8,0-.1-.4-.7-.4-.8-.3-.8-.4-1.1-.7-1.8-.4-.9-.8-1.8-1.3-2.6-.3-.8-.4-1.5-.8-2.2-.4-1.1-.6-2.2-1.2-3.2-.7-1.4-1.1-2.9-1.8-4.4-.5-1.6-1.3-3.1-1.9-4.6-.9-2.8-4.5-12.9-5.4-14-.9-2.8-3.7-8.8-4.9-10.3-.9.3-1.2-.8-1.3-1.4-.3-.7-.4-1.6-1.3-1.6-.6-.5-.5-1.6-.9-2.2-.4-.8-.8-1.6-1.3-2.4-.4-.8-.6-1.6-.8-2.3.3-.6,1.4,0,1.7-.7.1-.3,0-.6,0-.9-.8.9-1.8.6-2-.6-.4-.7-1.1-1.6-.6-.3.4.5.6,2.4-.2,1.1-1.6-3.7-2.7-7.7-4.3-11.4-.8-1.8-1.9-3.5-2.4-5.4-.4-1.8-1.3-3.4-2.1-5.1-1.1-2.2-1.8-4.6-2.9-6.7,0-.8-.2-1.6-.9-.6-.3-1.6-.4-3.2-1.4-4.5-.3-.8-.4-1.4-.7-2.1-.5-1.1-.9-2.4-1.4-3.6-.4-.8-1.4-1.1-1.4-2,.2-.8-.5-1.3-.7-2-.3-.8-.9-1.5-.6-2.4.1.2.3.4.5.3.3,0,.4.1.7.1h1.1c.3,0,.5-.4.8-.4s.4,0,.6.1h.6c.2-.3.3-.6.6-.9-.4,0-.8-.1-1.1,0-.4,0-.7-.1-1.1-.1-.3,0-.6.3-.9.2-.4-.1-.8-.3-1-.5-.4-.6-.5-.6-1-.4,0,.1-.2.2-.2.4-1.2,0-1.4-1.1-1.3-2.1-.3-2.1-.9-4.2-1.3-6.3,0-1.7-.7-3.2-.9-4.8-.4-1.8-.7-3.7-1.2-5.5,0-.3,0-.7,0-1.1" sodipodi:nodetypes="cccccccccccccccccccccccccccccccccccccccccccccccccccccccccccccccccccccccccccccccccccccccccccccccccccccccccccccccccccccccccccccccccccccccccccccccccccccccccccccccccccccccccccccccccccccccccccccccccccccccccccccccccccccccccccccccccccccccccccccccccccccccccccccccccccccccccccccccccccccccccccccccccccccccccccccccccccccccccccccccccccccccccccccccccccccccccccccccccccccccccccccccccccccccccccccccccccccccccccccccccccccccccccccc"/>
        <path id="path1824" class="st8" d="M234.6,405.8c-.3-.5-.6-1-.7-1.5,0-.4,0-.9-.2-1.4-.2-.3-.6-.3-.8-.5-.4-.3-.6-.6-.8-1-.1-.3-.3-.6-.4-.9-.3.3-.3.6-.2.9.1.3,0,.6.3.8.3.3.4.6.4.9,0,.4,0,.8,0,1.1,0,.4-.4.4-.6.6.2.2.4.4.6.6.3.2.5.4.8.6.3,0,.7.1,1.1.1.2,0,.3-.3.4-.4h.1Z" sodipodi:nodetypes="cccccccccccccccc"/>
        <path id="path1826" class="st8" d="M220.3,388.1c-.3.6.7.8.8,1.3.4.8,0,1.8.4,2.6.3.6.9,1.1,1.6,1.3.6.2,1.3.8,1.8.5,0-.6-.4-1-.6-1.5-.6-1-1.1-2-1.6-3-.4-.8-1.4-.8-2.2-1.2h0Z" sodipodi:nodetypes="cccccccc"/>
        <path id="path1828" class="st8" d="M218.3,382.9c-.1.6.2,1.2.1,1.8.1.6.3,1.2.3,1.8s.1,1.2.8.8c.4,0,.9-.4.9-.9,0-.6-.2-1.2-.4-1.7-.1-.5-.3-1.1-.8-1.4-.3-.2-.6-.3-.8-.4h-.1Z" sodipodi:nodetypes="ccccccccc"/>
      </g>
    </g>
  </g>
  <g id="Layer_5">
    <g>
      <polygon class="st9" points="216.5 210.9 250.7 191.3 284.8 211.1 284.7 250.5 250.5 270.1 216.4 250.3 216.5 210.9"/>
      <line class="st10" x1="250.8" y1="191.3" x2="251.1" y2="98.1"/>
    </g>
  </g>
  <g id="Layer_4">
    <g>
      <polygon class="st7" points="285 517.3 250.8 536.9 216.7 517.1 216.9 477.7 251.1 458.1 285.2 477.9 285 517.3"/>
      <line class="st5" x1="250.8" y1="536.9" x2="250.4" y2="630.1"/>
    </g>
  </g>
  <g id="Layer_3">
    <g>
      <polygon class="st3" points="119.7 412.8 100.1 378.6 119.9 344.6 159.4 344.7 178.9 378.9 159.1 413 119.7 412.8"/>
      <line class="st4" x1="100.1" y1="378.6" x2="6.9" y2="378.2"/>
    </g>
  </g>
</svg>