<?xml version="1.0" encoding="UTF-8"?>
<svg xmlns="http://www.w3.org/2000/svg" xmlns:svg="http://www.w3.org/2000/svg" xmlns:sodipodi="http://sodipodi.sourceforge.net/DTD/sodipodi-0.dtd" xmlns:rdf="http://www.w3.org/1999/02/22-rdf-syntax-ns#" xmlns:inkscape="http://www.inkscape.org/namespaces/inkscape" xmlns:dc="http://purl.org/dc/elements/1.1/" xmlns:cc="http://creativecommons.org/ns#" version="1.1" viewBox="0 0 699.2 1018.9">
  <!-- Generator: Adobe Illustrator 29.5.1, SVG Export Plug-In . SVG Version: 2.1.0 Build 141)  -->
  <defs>
    <style>
      .st0 {
        fill: #c6ecff;
      }

      .st1, .st2 {
        stroke-width: 1.2px;
      }

      .st1, .st2, .st3, .st4, .st5, .st6 {
        fill: none;
      }

      .st1, .st2, .st3, .st5, .st6 {
        stroke: #646464;
      }

      .st1, .st5, .st6 {
        stroke-linecap: square;
        stroke-linejoin: bevel;
      }

      .st2, .st3 {
        stroke-miterlimit: 25.9;
      }

      .st3, .st5 {
        stroke-width: 1.9px;
      }

      .st7 {
        fill: #fff;
      }

      .st4 {
        stroke: #84bcd5;
        stroke-miterlimit: 11.3;
        stroke-width: 1.1px;
      }

      .st8 {
        fill: #f5f5f5;
      }

      .st9 {
        fill: #fefee9;
      }

      .st10 {
        fill: #c12838;
      }

      .st6 {
        stroke-width: 1.9px;
      }
    </style>
  </defs>
  <g id="svg1951" inkscape:version="1.1.1 (3bf5ae0d25, 2021-09-20)" sodipodi:docname="Ernakulam.svg">
    <sodipodi:namedview id="base" bordercolor="#666666" borderopacity="1.0" fit-margin-bottom="0" fit-margin-left="0" fit-margin-right="0" fit-margin-top="0" inkscape:current-layer="svg1951" inkscape:cx="546.61492" inkscape:cy="1097.5537" inkscape:document-rotation="0" inkscape:document-units="px" inkscape:pagecheckerboard="0" inkscape:pageopacity="0.0" inkscape:pageshadow="2" inkscape:window-height="1001" inkscape:window-maximized="1" inkscape:window-width="1920" inkscape:window-x="-9" inkscape:window-y="-9" inkscape:zoom="21.855422" pagecolor="#ffffff" showgrid="false"/>
    <rect id="rect9217" class="st8" x="0" y="0" width="699.2" height="1018.9"/>
    <path id="path4248" class="st7" d="M421.8,641.7c-.7.5-1.5,1.1-2.2,1.6,0,.6,1.6,1.2.8,1.6-.5.4-.8.3-1.1-.1-.5,1.1-1.1-.7-1.9-.5-.9-.5-1.6,0-2.4.4-.5.4-1.6-.1-1.3.9-.2.8-.2,1.5.1,2.3-.3.7-1.3,1.9-2,1.2-.8-.9-1.7,0-2.3.8-.6.8-.2,2.2-.7,2.9-.7.1-2.1,1.2-2.2,0-.2-.6-1-.7-.6-1.5.2-.7-.6-1-.5-1.8.1-1.2-1.3-1.1-2.2-1.2-.5,0-1,0-1.5,0-.6-1.7-1.1-3.4-1.7-5.2-1-.5-2.5-.6-3.6-.5-.9-.5-1.3.8-2.2,1-1.1-.3-3-2.5-3.8.8-.9.2-1.1-.7-1.6-.2-.9.8-1.9,1.6-2.5,2.6-1.4.6-2.9,1.3-4.4,1.7-1,.4-2.2.1-3-.6-.3-.2-.5-.4-.9-.4l-1.8-.9-1.1-1c0,.8-.2,1.7-.3,2.5,0,2.2-2.8,3.2-2.5,5.3.9,1.9,1.4,3.9,1.9,5.9,1,2.3,2,4.8,1.8,7.4-.4,2.1-2.3,4.1-1.5,6.2,1.7,1.1,4,1.9,4.7,4,.7,2.9-.9,5.7-.7,8.7.5,2.9,1.4,5.6,1.5,8.5,0,2.2,1.2,4,2.3,5.7.2,1.7,1.4,1.8,2.8,2.3,1,.3,1.6.5,1.6.5l5.8,2,.2,2.7.2,1.6-.2,3.3c.2.3.3.6.5.9.7,0,1.3.1,2,.2.9.4,1.7,1,2.8.7.7.9.4,2.1.2,3.1,0,1-.1,2-.3,3,.4.9-.3,1.8-.8,2.5-.6.9-.6,2-.8,3-.4.9.2,1.3,1,1.4.5.2,1.8.6,1.5,1.2-.1.5-1.3,1.3-.4,1.4,0,.6.5,1.3.3,1.8-.4.8,0,1.9,0,2.9l1.2.4s0,0,0,0h0s0-1.5,0-1.5c.9,0,2.1.3,2.3-.9.8.5,1-1.5,1.7-.4,1.4.2,1.5-2.3,3.1-1.3,1.2.4.5,2.7,2.3,1.9,1.5-.2,2.3-2,3.8-2,1,0,2.3,1.9,2.8.6-.4-1.1-1.3-1.9-.6-3.2,0-.9-1-2.2.5-2.5.9-.4,1.7-.5,1.4-1.7-.1-1.7,1.6,1.3,1.5-.3,0-1.4,2.5-.6,3.4-.7-.6-.7.3-2.8,1.1-1.7.3.8,1,1.3,1.3.2.4-1,.2-2.1,1.6-2.2,1.5-.7,3.3-.6,4.9-.4,1.1-.5,2-.2,2.9.5,1.3,0,3.4,0,2.8,1.9,0,1.1,1.1,1.7,1.5,2.7,1.4.6,1.9-1.2,3.3-1.3,1-.2,1.7-.7,1.4-1.7.7-1,2.5-.4,3.3-.5.4,1.1,1.5,2.3.6,3.4-.4,1.4,1.9,0,1.8,1.6,0,1.4,1.2,2.3,2.4,1.4,1.2-.8,2.8-1.5,4.2-.8.7-.9-.1-2.1,1.4-1.2.2-1.1,1.4-.5,2.1-.6,1-.3,2.1,0,2.5,1.1.7,1.3,1.2-.8,2.1-.4,1.1,0,2.1.9,3.2.6.6-.4.6-1.9,1.1-1.9,1.2.8,2.3,1.7,3.6,2.1,1.3,0,2.5.3,3.5,1.1,1.1,1,2.4,1.8,3.7,2.6.8.3,2.1,0,2.6.7,0,.8.3,1.8,1.3,1.2.7-.3,1.3-.8,1.9-.8,0-.5.1-.9.2-1.4.4-.8,1.2-1.4.3-1.8-1.1-1,.8-1.6,1.6-1.7.9-.8,1.5-1.9,2.3-2.8,1.4-.7,3.1-.9,4.6-1.3.6-1,.6-2.2-.1-3,.6-1-.8-2-1.1-2.9-.4-.9-1.6-2.1-2.4-1.9-.9.6-1.5,1.5-1.9,2.5-.6,1.3-2.3,0-2.9-.9-.7-.7-1-1.6-2-1-1.8-1.3-3.3-2.8-5-4.3-.4-.8-.4-2.1-1.1-2.6l-2.3-.2c-.1-2.1-.4-4.1-.3-6.2-.5-1.2-1.1-2.9.7-3.1,1.6-.3,0-2.2.4-3.4-.4-1.2-.6-2.6-.7-3.8.5-.3,1.5-.4.9-1.3.2-1.6,2.4-2.1,3.2-.5,1.3,1.1,2.8,1.8,4.3,2.7.8-.7,1.3-1.4.2-2.1-.9-1.2-2.6-2.3-2-4,.6-.5,2-1,.7-1.9-1.1-.9-1.9-2.2-2.7-3.3-.5-.4-1-.8-1.4-1.1,0-2.4-1.4-4.4-2.3-6.5-.7-2.5-3.7-2.4-5-4.2-.5-1.8-1.7.7-2.5-.9-1.6-1.7-2.8-3.9-4.4-5.6-1.1-1.4-2.1-3.1-3.6-4.4-1.9-1.9-4.2-3.3-6.4-4.8-1.9-.5-3.6-1.3-5.4-2-1.2,1.2-2.3,3.1-4.1,1.4-1.6-1.1-3.6-1.3-5-2.9-1-.6-2.6-.5-2.5-2.1-1.1-.5-2.5-.4-3.3-1.4-1.1.3-1.9-2-3-.5-1.4.6-3-.2-4.4-.5-1.1-.6-4-.8-2.3-2.6-.6-.2-1.3-.4-1.8-.3Z"/>
    <path id="path4108" class="st7" d="M523,716.4c-1.1,0-1.3,1.8-2.2,2.3-1.2.8-3.3-.6-4.2,1-1.2,1.1-2,2.9-3.7,3.2-1.3.4-2.7,1.8-3.7,0-1.3-.4-2.8-.3-3.1,1.4.2,1.4,1.1,2.6,1.7,3.9.9,1,1.6,2.1,2.1,3.4-1.2,0-2.5-.4-3.7.1-1.2.3-2.4.6-3.4,1.1-.8.8-2.3.7-3.3.2-.4-.3,0-1-.2-1.5.4-1.4-1.3-.2-2-.6-1-1.3-2.7-.5-4.1-1.1-1.5-.2-2.9-.9-4.5-1.1h-4.2c0,.5-.2.9-.2,1.4-.6,0-1.2.6-1.9.8-1,.6-1.4-.4-1.3-1.2-.5-.8-1.8-.3-2.6-.7-1.3-.8-2.6-1.6-3.7-2.6-1-.8-2.3-1.1-3.5-1.1-1.3-.4-2.5-1.3-3.6-2.1-.6,0-.5,1.5-1.1,1.9-1.1.3-2.1-.6-3.2-.6-.9-.5-1.5,1.7-2.1.4-.4-1.1-1.5-1.5-2.5-1.1-.8,0-1.9-.5-2.1.6-1.5-.9-.7.4-1.4,1.2-1.4-.7-3,0-4.2.8-1.2.9-2.4,0-2.4-1.4.2-1.6-2.1-.2-1.8-1.6.9-1.2-.2-2.3-.6-3.4-.8,0-2.6-.5-3.3.5.3,1-.4,1.5-1.4,1.7-1.3,0-1.9,1.9-3.3,1.3-.4-1-1.4-1.6-1.5-2.7.6-1.9-1.5-2-2.8-1.9-.9-.7-1.9-1-2.9-.5-1.6-.3-3.4-.4-4.9.4-1.4,0-1.1,1.2-1.6,2.2-.3,1.1-1,.5-1.3-.2-.9-1.1-1.8,1-1.1,1.7-.9.2-3.3-.6-3.4.7.2,1.6-1.6-1.4-1.5.3.3,1.2-.5,1.2-1.4,1.7-1.6.3-.5,1.6-.5,2.5-.7,1.2.2,2.1.6,3.2-.5,1.3-1.8-.6-2.8-.6-1.5,0-2.3,1.8-3.8,2-1.7.8-1.1-1.5-2.3-1.9-1.6-1.1-1.8,1.5-3.1,1.3-.8-1.1-.9.9-1.7.4-.2,1.2-1.4.9-2.3.9v1.5s0,0,0,0c-.8.8-.7,2-.2,2.9-.7.6,0,1.9-.9,2.2.2,1.1,1.3,1.9,2.4,1.9,1,0,.1,1-.5.7-1.2-.3-1.2.8-1.3,1.6-.6,1-2.4,1-3.5,1.6-.4,0-1-.2-1.3.3-.7,1-2,1.7-2.3,3-.2,1.5,2,.7,2.9,1.2,1,.2,1.7,1,2.8.8.7,0,1.4-.5,2-.7,1.1.2,2.4,0,3.5.4.7,1,1.9.4,2.9.2.9,0,1.7-.4,1.4-1.4v-1.3c.8-.4,1.5-1.9,0-1.8-.6-.2-1.1-1-.1-1,.6-.2,1.1.7,1.7-.1.7-.3,1.5-1.2,2.2-.8.9.2,1.2,1.7,2.2.9,1-.2,2.1-.1,3.1,0,.4.1.6.5.8.7,1.5.3,3,.9,4.5,1,.7-.3,1.3-.7,2.1-.5.9-.3,1.2.7.9,1.4.9.8,0,1.3-.7,1.9.8,1.3,1.5,2.7,2.6,3.7,1.2.9.1,2.4.6,3.6.4,1.3,1.7.5,2.6,1.1.7-.5,1.6-.8,2.1-1.5.5-1,.9.8,1.5.4-.1-1,.7-.8,1.4-.8.2,1,.3,2.7-1.2,2.7-1.3,0-1.3,1.3-1.8,2.2-.6.8-2.1.2-2.9.8-.7.9-1.7,1.8-1.9,3,.1,1,1.3,2.1.4,2.9-.6,1.2-2.3.5-3.1,1.4.2.8.6,1.7.6,2.5-.5.4-.6.6,0,.8,0,.7-.5,2,.5,2.4,0-.5,0-1.8.9-.9.2,1.1,1,1.6,2.1,1.5,1.5-.3,2,1.2,2.7,2.3.5,1.2,2.1,1.8,2.2,3.2-.3,1.2-1.9-.6-2.3.8-.7,1.2.8,3.4-1.1,3.7-.8.2-1.8,0-2.7,0,0,1.5.2,3,0,4.5,0,.7,0,1.2-.8,1.5-1,.6.3,1.2.5,1.8.2.4.5.8.4,1.3v1.4c.6,1,1.7.7,2.7.8,1.5,0,2.9.3,4.3.6-.2.8-.4,1.5-1.2,2.3.7,0,1.7.7,1.8-.4,1.5-.1,1.3-1.1,1.6-1.7,1,.3,3.5-.8,5.2,0,.9.6,1.9.8,3.1.4.9.8,1.4-.1,1.9-.7.6,1.4,2.4,1.4,3,0,1.5-.8.6,2,.9,2.8.7,0,1.9-.7,2.9-.4,0-.2-.4-1-.2-1.2,0,0-.4-1.4-.7-1.8-.1-.8.3-1.3.5-2.2.7-.6,1.4-1.3,2.1-1.9,1.9.4,2,.9,3.9,1.5.5,1.1.4,1.9,1.4,2.6,1,.4,2.2.4,3.3,0,.9-.4,2-.6,2.1-1.8-.2-1.1-.2-2.6,1-3,.9.7,1.5-.2,1.4-1.1.5,0,1,.4,1.4-.2l1.2-1.1c1,.3,2.1,1.3,3,1.2.4-.4.8-.8,1.2-1.2.9.8.5,2.5,1.3,3,.2-.7,0-1.8,1.1-1.6,1.5-.3,2.9.4,4.3.9,1.2.5,2.4.6,3.7.6,1.2-.6,2-1.8,3-2.8-1.3-.5-2.9-.7-4-1.7-.7-.5-1.5-.1-2.3-.4-1-.1-.9-1.3-1.1-2-.3-.7-.3-1.6.2-2.3.2-.8-.2-1.6,0-2.3.2-1.2.4-2.4.5-3.6.5,0,1.2.6,1.7.9.9,1.3,2,2.3,3.4,2.9.7,1.4,2.4,1.7,3.5,2.8.9,1.6,3,0,4.2,1.3.8,1.9,2.7.5,4.2,1.3,1.6-.3,3,.2,4.3,1.1,1.3.7,2.7.5,4.1.6,1,1,3.2,0,3.6,1.3-.7,1,.1,1.9,1,1,.9-.5,1.8,0,2.1,1,1.1.8,2.2,1.7,3.4,2.4,1,.8,2.5.7,3.4,1.8,1.3.2,2.7,0,3.9.7,1.1,1.3,2.8.5,4.1,1.2,1.1.5,2.3,1.4,3.6.9,1.4.3,2.7,1.2,4.2,1,.6.3.4.8.9,1.5h0c.4,0,.8,0,1.2,0,.5-.5,1.4-.8,1.4-1.6-.2-1.1.8-1.3,1.5-1.8.1-1,1.4-.7,1.5-1.7.1-.9.4-1.6,1.4-1.6.7-1.1,1.5-2.2,2.2-3.4h1c.5-.9.8-1.9,1.3-2.9.4-.6,1.1-.9,1.7-1.4,0-.6.2-1.1.8-1.3.9-.6,0-2,.1-2.9.4-1.3.5-2.6.6-4.2.5-1.2-.5-1.3-1.4-1.4-1.2,0-.7-1-.3-1.7-.3-1.5,1.2-.4,2-.8,1.2-1,2-2.5,2.9-3.7-.1-1.1-1.5-2.1-1.4-3.5.9-1,.8-2.2.8-3.4.7-.7.4-1.9.6-2.8,0,0,0,0,0,0h0c-1.6-.3-2.6-1.7-4.2-1.7-.8-.9-2.2-1.8-3.3-1.6-.1.3,0,1.5-.4,1.1-.4-.5-.8-.6-1.1,0,0-1.3-.3-2.4-1.8-2.8-1.2-.3-2.8-.7-3.2-2-1-1.4.6-2.3,1.4-3.3,1.2-.8-1.4-1.7.3-2.3,1.5-1.1-.6-2.5.3-3.7.2-.4.6-.7,1-1.1-.5-2.1,1.7-3.8.9-5.8-.9-1.9-3.4-3.6-3.2-5.6.3-.8-.4-1.4-1.1-.9-.5-1-.7-1.8-.4-2.9-1-.4-2-1.5-2.7-1.9-1.4.7.6-1.2-.7-1.4-.9-1-3.4.8-3.9-1.1-1.7.2.2-1.7-.8-2.2,0-2.5-2.5,1-2.8.7.3-.8-.4-.8-.5-1.6-1.9,0-3.2.6-4.6,1.9-.2-1.1-.5-2.3-.2-3.5,1.2-1.4-.2-2.9-1.7-2.8Z"/>
    <path id="path3968" class="st7" d="M359.3,632.9c-1.2.1-1.3,1.8-1,2.8.2,1.3-.4,2.2-.2,3.4.7.8-.1,1.4-1.4,1.5-1.2.5-.9,2.3-.8,3.4-.2,1.1-.9,2-.2,3,.2.9.9,2.3-.2,2.6-.9,2.1,1,3.3-.6,4.1l-6,1.4,2.3,8.6,7.4,57.7,29.3,71.7,6.1-1.9c1.3,0,2.6-.7,3.9-.2,1.2.4-.3-1.2.4-1.7.8-.3,1.2-1.4,2.2-1,1.4,0,2.9.5,4.3,0,.7-.4.4.5.5.9,0,.5,0,1,.5,1.3.7.9.6,2.3,1.2,3,.9.6,1.9.4,2.9.3,1,.3,1.4-1.2,2.2-1.4.5,0,1,.1,1.5.2,0-.6.2-1.1.8-1.2.1-.9.2-1.9,1.4-1.7,1.2-.1,2.4,0,3.6.1.9-.1,1.1-1,1.9-1.4.7-.2,1.8.2,2.3-.4.4-.7.6-1.7,1.3-2.2.8-.4,1.9-.2,2.8-.3.9,0,1.8.2,2.7,0,1.9-.3.4-2.5,1.1-3.7.3-1.4,2,.3,2.3-.8,0-1.4-1.6-2-2.2-3.2-.7-1.1-1.1-2.5-2.7-2.3-1.1,0-1.9-.4-2.1-1.5-.8-.9-.8.5-.9.9-1-.4-.6-1.7-.5-2.4-.6-.2-.5-.4,0-.8,0-.8-.4-1.7-.6-2.5.8-1,2.5-.2,3.1-1.4,1-.8-.2-2-.4-2.9.3-1.2,1.2-2.1,1.9-3,.8-.5,2.3,0,2.9-.8.4-.9.4-2.3,1.8-2.2,1.5,0,1.4-1.6,1.2-2.7-.7,0-1.5-.1-1.4.8-.6.3-1-1.4-1.5-.4-.5.7-1.4,1-2.1,1.5-.9-.5-2.2.2-2.6-1.1-.5-1.2.6-2.7-.6-3.6-1.2-1-1.8-2.4-2.6-3.7.6-.5,1.6-1.1.7-1.9.3-.7,0-1.7-.9-1.4-.8-.1-1.4.2-2.1.5-1.5,0-3-.7-4.5-1-.3-.2-.5-.6-.8-.7-1-.2-2.1-.2-3.1,0-1,.7-1.3-.7-2.2-.9-.7-.3-1.5.6-2.2.8-.6.8-1,0-1.7.1-.9,0-.4.8.1,1,1.4,0,.7,1.4,0,1.8v1.3c.3,1-.6,1.3-1.4,1.4-1,.1-2.1.8-2.9-.2-1.1-.5-2.3-.2-3.5-.4-.7.2-1.3.7-2,.7-1,.2-1.8-.6-2.8-.8-.9-.5-3.1.3-2.9-1.2.2-1.3,1.5-2,2.3-3,.2-.5.8-.3,1.3-.3,1.1-.6,2.9-.6,3.5-1.6.1-.9,0-1.9,1.3-1.6.6.3,1.5-.7.5-.7-1.1,0-2.2-.8-2.4-1.9.9-.3.2-1.6.9-2.2-.5-.9-.6-2.1.2-2.9l-1.2-.4c0-.9-.4-2,0-2.9.2-.6-.3-1.2-.3-1.8-.9-.2.3-1,.4-1.4.3-.6-1-1-1.5-1.2-.9-.2-1.5-.5-1-1.4.2-1,.2-2.1.8-3,.5-.7,1.1-1.6.8-2.5.2-1,.4-1.9.3-3,.2-1,.5-2.2-.2-3.1-1.1.2-1.9-.4-2.8-.7-.7,0-1.3-.1-2-.2-.2-.3-.3-.6-.5-.9l.2-3.3-.2-1.6-.2-2.7-5.8-2s-.7-.3-1.6-.5c-1.4-.5-2.6-.7-2.8-2.3-1.1-1.7-2.3-3.6-2.3-5.7,0-2.9-1-5.7-1.5-8.5-.3-2.9,1.4-5.8.7-8.7-.7-2.1-3-2.9-4.7-4-.8-2.1,1.1-4.1,1.5-6.2.2-2.6-.8-5.1-1.8-7.4-.6-2-1.1-4-1.9-5.9-.3-2.1,2.5-3.1,2.5-5.3.1-.8.2-1.7.3-2.5h0s0,0,0,0c-.6-.8-1.2-1.6-1.7-2.7-.3-1.1.8-2.3,0-3.2-.8-.9-1.3-1.9-1.8-2.9-.5-.7-1.3-1.9-2.2-1.1-1.2.7-2.7.4-4,.5-1.2,0-2.3-.6-3.4-1-.9-.5-1.8-1.7-2.8-2.2Z"/>
    <path id="path3719" class="st7" d="M438.8,360.5c-1.1.3-2.3.5-3.4.9-.3,1.6-1.2,2.6-2.7,3.3-2.6,1.1-4.8,2.8-7.3,4-1.8,2.1-3.8-1.8-5.9-2.1-2.6,0-5-1-7.7.3-1.8.1-3.8.9-5.5,1.7-1.7-.2-3.1.2-4.6-.6-.8-1.8-2.6-1.9-4.4-1.6-1.4.5-4.8-.3-4.5,1.6.8,2-1.2,1.9-2.4,2.6-1.1,0-2.1-2-3.2-2.7-1.3,0-2.5.7-3.8,0-.8-.4-1.7-.5-2.6-.4-1.3-.3-.3,1.5-.8,2.2-.2,1-1.4,2.3-.2,3.1.8.9,1.8,1.9,1.1,3.1-.1,1.1-.9,2.2-.2,3.3.9,1.2.3,2.3,0,3.6,0,1.1-.4,2.2-.2,3.2-1.3.1-2.7.6-3.6,1.6-.2.3-.4.7-.6,1-1.7.3-3,1.4-4.8.9-1.3.3-2.7.7-3.7,1.5-1,1.3-2.4,2.5-2.9,4,0,1.1.5,1.9-.3,2.7.1,1.9-2.6,1.8-3.9,1.2-.6,1.5-2.1.4-3.2.4-.2.5-.4,1.6-1.3,1.9-.7.4-1.1.9-.6,1.6-.2.8-.4,3,1,1.9,1.2-.8,2.9-1,4.5-.6,1,.2,2,.5,2.9.8,0,1.2-1.6,2.9,0,3.7,1,1.1,2.4.9,3.8,1,1.5.2,2.9.3,4.4.4,0,1.2-.7,2.4-1,3.6-.2,1.4-1.9.2-2.9.6-.7-.6-1.3,0-2,0-1.3-1.6-2.2,1.4-2,2.4.2,1.4-1.1,2.8-.2,4.3.3,1.4,1.9,2,2.1,3.4,0,.9-.2,1.9-.3,2.8-.7-.2-2.3.1-1.9-1.1-.5-1.1-2-.5-2.9-.3-1-.1-1.3-1.7-2.3-1.8-.7.6-1.7,1.7-2.7,1.1-.9-.4-1.9.1-2.8,0-.6.4-.5,1.9-1,2.8-.6.8-1.4,1.4-1.5,2.4-.3,1.3-1.6.6-2.5.5-.9.1-2.7.9-2.7-.6,0-1.3-1.6-1.7-1.7-2.9-.7-.5-.5-1.3-.9-1.9-1.1-.6-1.2.7-1.4,1.4-.8.4-.4,2-1.5,1.6-.9-.3-1.9.5-2.7-.3-.2-.1-.3-.3-.2-.6.4-.6.7-1.9-.5-1.7-.8-.1-1.8,1.7-2.2.4.3-1.3-1-1.4-1.9-.9-1.2.2-1.2,1.3-1.1,2.2-.1,1-1.1,1.7-1.7,2.5-1,.7-1.8-.7-2.5-1.3-1.2-.6-1.7.9-1.3,1.9-.2.6.5,1.7,0,1.9-1,0-2-.5-2.9-.7-.8.7,0,2-.5,2.8-.6,1-.9-.4-1.5-.6-1.3-.2-.5,1.6-.6,2.4-.2,1,.2,2.1-.3,3-.5,1-1.7.6-2.4,1.2-.7-.8-2-.5-2.4.1-.6.8-1.6.5-2.3,0-1.2-.6-2.7-.8-3.7-1.8-.8-.8-1.9,0-2,1-.3.8.2,1.9-.6,2.5-.2.1-.4.1-.5,0-.9.8-1.7,1.7-.4,2.5,1.1.4,1.4,1.1.9,2.1.9.5,2.7.2,2.5,1.3.7.6.3,1.7-.6,1.1-.9,1.2-.8,3-1.3,4.4,0,1.3-1.2,3-.6,4.1-.3.9-.5,1.8.7,1.5.6.1-.1,2.4,1.1,2,.9-.3,1.8.6,2.6-.2,1,1,1,2.3,1.3,3.4,1.5.5,3,.6,4.5.6,2.2-.2,3.8,1.5,5.5,2.6,1.7,1.5,1.5-2.4,2.8-1.4,1.3.5,2.7.3,3.6,1.5.7-1.9.8.8,1.7,1.1.9,0,2-1.6,2.2-2.7,1.6-.9,1.4-2.9,3-3.8.5-1.4,1-3.2,3-2.9,1-.6.2-2.8,1-4,.3-1.4-1.4-2.5-1.9-3.7.9.2,1.7,0,2.6.5.9.4,1.9.6,2.7.1.8-.4,2-1,2.4.2.3,1.5,1.4.6,2.3.7.8,0,1.1.5,1.1,1.2.6.7,1,1.7.3,2.6-.5.9.2,2.2,1.3,2,1.2-.3,2.1-1.6,3.5-1.2,1.1.3,2.2.1,3.2-.3,1.2-.5,2.4.4,3.6.6,1.3,0,2.4.7,3.6,1.1.8.2,1.7-.3,2.4-.5,1-.5,1.9.4,2.8.6.9.5,2.3.5,2.5-.8.4-.8,0-2,.9-2.6,1-.5,2-1.2,3.2-1.1,1.2-.3,2.1.6,2.3,1.7,0,.8,0,2.2.9,2.5,1,.2,1.9-.2,2.9-.4,1.1.2,2.3-.2,3.4-.4,1.1-.5,2.3,0,3.4.2,1-.1,1.9-.5,2.9-.5,1-.1,2.4-.4,2.7.9-.2.5-.9.8-.9,1.4.7.7,2.7,1.7,1.2,2.9-2,.6-2.3,2.7-2.6,4.4-.4,2.2-2.8.4-3.7,2,.5,1.7,1.6,3.1,1.9,4.9.4,1.6-.5,3.1-2.3,2.9-1.5-.2-1.5,1-2.3,1.9,0,1.7-1.8.6-2.6,1.6.3,1.4-2.5,4.6.2,4.4,0,.4,0,.8.2,1.1.8,1.6-.7,3.3-2.3,3.5.6,1.6-.9,2.1-2.1,1-1.2,1.9,1.2,3.3,1.2,5.1,1.1-1.5,2.4-.3,3.2.6-.3,1.4,1.4,1.6,1,3,1.8,0,1.1,1.2.6,2.4-1.5,2.1.8,3.1,1.8,4.5,1.7,0,2.5,1.7,3.5,2.9,1.3,1.4,1.6,2.9,2.9,4.4,1.9.3,3.3,1.7,5.3,2.2l.3.2c1.6.7,3.8.9,4.7,2.6.7,1.8,1.9,3.2,4,3.2,2-.3,1.3,1.8,2.1,2.7,1.4-.8,3.1-1,4.8-.7,1.6.3,2.1,2.1,3,3.1,1,1.2,1,3,1.9,4.4,1.4,1.1,1.7,3.3,3.3,4,1.3-.9.8.2,1,.8,1.6-.8,3.5-1.9,5.2-.4.3-2.9,2.3,0,3.3,1.2,2.1.2,2.3,2.7,4.6,1.9,2.1.6,1.6-1.9,3.1-2,2.4-.8,4.5,1,6.8,1.3,1.2,1,3.1.8,4,1.3-.2,2.2-2.7,2.2-2.8,4.1.8.9,3.1,1,4.4.7.7-2.3,2.8.9,4.5-.2,2.2.6,1.7-2.2,3.6-2.1,1.7.6,3.4,3.2,5.8,1.6,0,0,0,0,0,0-.8-.9.6-1.6.5-2.6,0-1.7,1.6-3.5,0-4.8-1.3-1.3-2.7-2.5-3.7-4,1-.7,2.1-2.1,1-3.3-1.8,1-1.3-1.9-2.6-2.5.6-1.5,1.3-2.9,1.9-4.4.3-1.8.4-3.8.5-5.6.2-1.8.2-3.6.2-5.4.7-1.8,1.3-3.6,1.8-5.5.6-1.3.7-2.7-.7-3.5-.8-1.2.5-2.5.9-3.6-1.2-1.5-1.1-2.9-.2-4.5.6-1.6-.5-3.6-2.3-2.6-1.8,0-2-2.1-1.7-3.5-1-.7-1.5-1.9-.7-3.1-.6-1.7,1.2-.9,2.3-1.1,1.5-.3,3.1.1,4.6,0,1.6.4,3.2.9,4.7,0,1.5-.1,2.2-1.1,2.1-2.6-.2-1.2-.2-2.5-.9-3.4.7-1.9-1-2.1-2.4-2.8-1.5-.6,0-1.3.6-1.8,0-1.7.9-3.3,2-4.6.4-1.3,1.4-1,2.3-1.1,0-1.4-1.3-3-.2-4.5,1.2-1.3.7-3.3,2.3-4.3.2-1.3.2-2.5.8-3.7-.3-2.1-.7-5-2.1-6.5-1.9-.6-4.5.9-5.9-.7-.6-2-3,.1-3.6-1.5-1.1-1.5,2.3-2.6.7-4.2-1-2.1-3.7-3-4.2-5.4-1.4-1.6-3.8-1.6-5.6-2.5-1.5,0-2.6-.8-3.5-2-1.6-.7-3.4.5-5-.8-1.4-1-3.2,1.2-4.2,0-1.2-.7-2.7-1.2-3.8-2.3-1.1-.5-2.1-1.1-3.3-1.3-2.1.2-4-.8-5.7-2-1.2-.9-3.9-1.8-3.5-3.5,1.3-.5,2.3-1.6,1.4-2.8,1.1-1.5.4-3.6,2.1-4.7,1.3-1.4,2.7-2.7,2.7-4.7-.2-1.6.4-3,1.3-4.3.5-1.7,2.4-2.1,3.4-3.4.8-1.5,2.7-.7,4-.6,2.4.3,4.7,1.2,7.1,1.1,1.7-.4,3.5-.3,5-1,.9-.9,1.6-2.1,1.9-3.4-.2-.2-.5-.5-.7-.7-1,1-1.8,2.2-2.8,3.2-1.5.9-3.2,0-4.2-1.2-.3-1.6-1.7-1.4-3-1.2-.9-.7-1.2-2.7-.8-3.7,1-.7,3.2-1.5,2.2-3.1.2-1.5-1.4-.8-1.7-1.4-1-1.1-1-2.7.2-3.7.3-1.4.3-3.3-.8-4.3-1.4-.4-2.8,1.1-3.8-.6-1-.9-.7-3.3-2.6-2.7-.2.7,1.1,1.3-.2,1.8-1.7.5-1.3-1.9-2.3-2.7-.6-1.3-1.6-2.7-.4-4,1.2-.8,2.1-1.9,3.3-2.8,1,0,2.1.2,2.8-1,.3-1.2-1.3-3,.4-3.9,1.4-.9.2-1.2-.5-2-1.8-1-3.2-2.5-4.6-3.9Z"/>
    <path id="path3579" class="st7" d="M249.6,245.5c-.5,0-.8.2-.8.7-.1,1,.9,1.3,1,2.2.5,1.1-1,1.1-1.7.9-.8-.5-1.6-.4-1.7.6-.7.7-1.7,0-2.1-.7-.4-1-1.3-1.5-2.2-2-.9-.7-1.9.1-2.7-.7-.9-.4-2.2-.2-2.3.9l-1.1,3.5c-1,.6-2.4,1.1-3,2.1-.3.5-.2,1.4-.8,1.7-.6.2-1.2.5-1.7.7-1.5,1.7-3.3,2.2-5.1,4.1-.5-.2-1.2-.8-1.7-.7l-.7,1.2c-1.1.3-2.1.7-3,1.4-.5.4-1.1,1-1.8.7-1.2-.2.6,1,0,1.6-.2.7.1,1.5.9,1.6.5.3,1.5.6,1.1,1.3,0,.9-.9,1.3-1.7,1-.6-.2-1.4-.4-1.9.1-.6.6-1,1.6-1.8,1.9-.6.2-1.5.9-1.9,0-.6-.5-1.5-1.1-.8-2,0-.6-.3-1.2-.7-1.7-.5-.6-.8-1.5-1.7-1.7-.5,0-1.1,0-1.6-.1,0,0-.4.3-.5.5,0,.8-.2,1.2-.8,1.8l-2,2.7,14.6,42.3,13.9,11.2,26.5,64.5,4.9-5.1c.5-.6.9-1.5,1.6-1.9,1.1-.2,1.4-1.4,2.4-1.7.8-1,1.4-2.2,2.5-3,.4-1.5,1.9-.8,2.9-1.3,1-.1,1.6-.7,2-1.7.8-.9.2-1.8-1-1.6-.7,0-1.3.5-1.9,0-.9-.4-1.9-.6-2.5-1.4-.2-1.2,1.2-2.7,1.6-4,1.2.5,1.6-1,2.1-1.8.6-.8.5-2.2,1.7-2.5.9-.6,1.9-.9,3-.7,1-.5-.3-2.9,1.2-2.6.7.4,1.2,1.2,2.2,1.2,1.2.4,1.8-1,2.3-1.8.7-.6,1.8-.4,2.6-.8,1,0,1.9.3,2.8-.2.9-.3,1.9-.8,2.1-1.8.5-.8,1.4-1.3,2.1-1.9,1,.2,1.5,1.5,2.6,1.6.6.2,1,.8,1.5,1.2,1.2-.8,2.8-1.3,3.8-2.7.8-1.4,2.2.6,3.5,0,1.4-.4,2.9.8,4.2-.5,1.5-1,2.1-2.7,4-3.1-.2-1.1-.4-2.3,1-2.6,1.7-1.2,3.9-1,5.7-2,2-.7.8-2.7,1.1-4.1-.6-.4-.8.2-1.2.5-1-.7-2.7-.8-3-2.2-.9-1.3-.6-2.9.3-4.1.9-1.1.4-2.5.4-3.8,0-1.4-.1-3,1.3-3.7-.4-.9,0-1.9,1-1.6,1.6,1.5,2.3-1.3,3.3-2.2.6-1.6,1.5-.3,2.4.3,1-1.3.3-2.7,0-4.1-.3-1.5.8-2.8,1.2-4.3l-1.5-1.3-1.1-1.7-1.5-1.6-1.7-.6-1.6-1.1-1.9-.3-1-1.4.9-.9-.8-1-.2-1.5-3.4-.8h-.5s-2.3,2.5-2.3,2.5l-1-.2-1,1.2-1-.5h-.7c0,.1-.6.8-.6.8l-1.6-1.4-2-.9-1.3-.4-1.8-1.5-1.7-1-1.8-1.3-.7-.8-1.4-.8-1.1-1.1-.8-.4-.5-.4-1.9-2.2v-1.1c.1,0-.2-1.1-.2-1.1v-1.6c0,0-1.2-.4-1.2-.4h-1.1c0-.1-1.1-.8-1.1-.8l-.5-.5-2.2-.5-1.8-1.2-1.9-1.3-.4-.5-.2-1.8-1.4-1.1v-1.3c.1,0,.5-.8.5-.8v-2.7s.4-.9.4-.9l.8-2,.4-1.4-.4-2.5v-.7s.5-.6.5-.6l1.1-.6.3-.5-1.9-1-.5-.6-1.5-.5-2.1.2-1.4-.2-.5-.5-1.4.2-2.2-.3-1.6.3-.2-.6-.8-.5v-.7s-.2-.8-.2-.8l-1.7-1-1.1-1.2-1.1-.3-.7-1.6-.6-.5-2-1.2-1.1-.4h-1.4s.6-1.1.6-1.1l-2-1.6-.7-.7v-.5c0,0,.8-.7.8-.7l.2-1.8.8-1.2-.3-1.8-.8-.8-2.2-1h0s0,0,0,0c-.8-.9-2.1-1.1-3.2-1.1-.3,0-.9,0-1.3,0Z"/>
    <path id="path3302" class="st7" d="M193.6,142.7c-.9,0-1.5,1.5-2.6,1.4-2.2.1-4.8-1.8-6.6.3-.9.6-1.9.3-1.8-.2-.2-.5-1.5-.2-1.5-.9-.8,0-1.3,0-2,.9-.2.9-1.7.6-1-.3.8-1.4-1.4-.4-1,.5.6.9-.5,1-.9,1.5-.7-.2-1.1.5-1.6,0-1.3-.5-1.1,1.3-1.8,1.7-1.2-.2-1.4,1.1-2.3,1.4-.9-.3-1.6,1.3-2.3.2-.8-.5-2.2,1.1-2.8.1-.4-.9-1.7-1.6-2.5-.7-1,.3-2.1.2-3.1.4-1,.2-1.2,1.4-1.9,2,.2,1.7.4,3.4.6,5,0,.9-.5,1.8-1.5,1.7-1.1-.6-1.4.9-2.4,1.1-.8.5-1.8.3-2.6.7-.7.6-1.4,1.1-2.3,1.3-1,.4-2,0-3-.3-.9-.5-1.5.8-1.9,1.4-.5.8-1.2,1.4-1.9,2-.3.2-.6.4-1,.7l-1.2,1.2c-.5.3-.9,0-1.3-.2-.8,0-1.5.4-2.3.4-.6,0-1.2.2-1.8,0-.4,0-1.2.2-.8.7.3.8.7,1.4,1.3,2.1.5.4,1.1.9,1.4,1.6.2.8.5,1.7.5,2.6,0,.7.2,1.3.2,2,.1.4.9.9.5,1.3-.4.4-.6.8-.8,1.3-.5.7.6,1.3.5,2.1.3.4.4,1-.2,1.1-.2.4-.3.8.2,1-.2.9.5,1.9-.3,2.6-.4.7-1.6.2-2.1-.3-.4-.2-.8-.4-1.2-.5,0,.6-.3.7-.5,1.2-.1.3-.3.6-.5.9.4.7.8,1.3,1.4,2,.2.5,0,1,.1,1.5,0,.8.3,1.6.8,2.2.4.6.7,1.3.9,2,0,.2.3.8.3,1l-.7.4-4.6,3.5,2.4,5.4,66.4,63.5,5-3.1,1.3-.9h.7l.5.5.3.7c.5,0,1.1.1,1.6.1.8.2,1.2,1.1,1.7,1.7.4.5.7,1.1.7,1.7-.7.8.2,1.5.8,2,.3.9,1.2.3,1.9,0,.9-.4,1.2-1.3,1.8-1.9.5-.5,1.3-.3,1.9-.1.8.3,1.7-.1,1.7-1,.4-.8-.6-1.1-1.1-1.3-.8-.2-1.1-.9-.9-1.6.5-.6-1.3-1.8,0-1.6.7.3,1.3-.3,1.8-.7.9-.7,1.9-1.1,3-1.4l.7-1.2c.5-.1,1.1.5,1.7.7,1.8-1.9,3.6-2.3,5.1-4.1.6-.2,1.2-.5,1.7-.7.6-.2.5-1.1.8-1.7.6-1,2-1.4,3-2.1l1.1-3.5c.2-1.1,1.5-1.3,2.3-.9.8.8,1.9,0,2.7.7.8.5,1.8,1,2.2,2,.3.7,1.4,1.4,2.1.7.2-1,.9-1.1,1.7-.6.7.2,2.1.1,1.7-.9-.1-.9-1.2-1.2-1-2.2,0-1.1,1.5-.6,2.2-.6,1.2,0,2.4.2,3.2,1.1.2-.5.3-1,.6-1.4.4-.8,1.2-1.3,2.1-1.4,1-.2,1.7-1,1.6-2,.2-1.3-.9-1.9-1.6-2.7-.2-.6.2-1.4.3-2,.6-.8,1.4-1.5,2.1-2.2.7-.4.8-1.3,1.3-1.9h1.2c.5,0,.9.1,1.3.4.7.6,1.7.7,2.5.6.7-.2,1.2-.8,2-.9.8.1,1.2,1.3,2.1,1.4.9.5,2-.7,2.7.4l1.7-.2c.7.6,1.4.9,2.3.5.6.4,1.1.6,1.8.4.8.5,1.7.1,2.6-.1.7-.5,1.6.1,2.2-.4.9-.2.4,1.6,1.3,1,.5-.6.3-1.3.2-2,0-.7.4-1.4.6-2.1-1.2-.8-2.5-1.5-3.6-2.6.9-.4,2.2-.5,2.9-1.1.7-1.2.6-2.6.6-3.9-.2-.7-.3-1.5-.9-2-.7-.5-.6-1.1-.2-1.8.5-.8,1.3-.9,2.1-1.1.9-.2,1.1-1,1-1.9-1.3.8-2.5-.3-3.7-.4-1.8.5-3.8,0-5.6-.5-2.5-.3-4.8-1.4-6.8-3-2.2-.8-1.7-4.2-4.2-4.3-2.2,0-2.4-2.7-2.4-4.3,1.6-1.9-.5-3.6-2.2-4.2.2-2-2.2-2.2-2.9-3.7.7-1.2-1.4-2.3-.6-3.1.4-1.6,2.3-4.2,0-5.2-1.5,0-2.9-.6-4.5-.5-1.6-.2-3.5-.6-4.9.4-2,.5-3.3,2.1-5.5,2.4-.9,0-1.8-.5-1.4-1.5,1.4-1.6-.6-2.8-1.5-4.1-1.5,0-1.6-1.1-1.3-2.3.9-1.9-1.9-1.7-3.1-1.8-.8,1.7-3,3.5-4.9,2-1-1.2-2.6-2.4-2.5-4.1-1.2-1.1-.3-2.7-1.3-3.9-1.3,0-.3-2-1.6-2-1.3.1-2.7-2.4-4.1-.9-.9-.5-2,0-3.2,0-.9,1.2-1.4,0-2.2-.7-1.3-.1-2.3-.7-3.2-1.7-1.8,0-2.5-1.7-3.5-2.6.2-2-1.6-2.7-2.8-3.6-2.2-.1.8-1.9,0-3.2l-.4-.3c-.7-.7-2-.9-2.2-2,.4-1.5-1.7-1.4-1.1-2.5-.4-1.9-1.6-3.5-2.9-4.8.2-1.9-2.3-.6-2.7-2.2-.7-1.9-1.4-5.3-3.5-6-.4-.4-.7-.6-1-.6ZM210.2,248.4c.3.3.5.7.9.9,1.1.5,0,1.4-.3,2.1-.6.8.4,1.7,0,2.6-.2.9.3,1.9,1.1,2.2.7,0,1.4.4,1.4,1.1.3.7-.3,1.4-.3,2.1,0,.9-.8,1.1-1.6,1.1-.6.2-1.3.4-1.8.7-.8,0-1.1-.7-1.2-1.4-.8,0-1.2.8-.8,1.5,0,1-.9.6-1.5.9,0-.9.3-.9.7-1.4,0-.8-.8-1.2-.9-2,0-1,.6-1.7,1.4-2.3.7-.6,1.6-.4,2.3-.9.4-.8.4-1.9,0-2.7-.3-.4-.8-.6-1-1.1-.3-.4-.3-1-.6-1.5-.4-.6.3-1.2.9-1.4.5-.2,1-.3,1.2-.8Z"/>
    <path id="path3427" class="st7" d="M482.4,777.4c-.2,1.2-.4,2.4-.5,3.6-.1.8.3,1.6,0,2.3-.5.7-.5,1.5-.2,2.3.2.7.1,1.9,1.1,2,.7.3,1.6-.1,2.3.4,1.1,1,2.6,1.2,4,1.7-1,.9-1.8,2.1-3,2.8-1.2,0-2.5-.1-3.7-.6-1.4-.4-2.8-1.1-4.3-.9-1.1-.3-.9.8-1.1,1.6-.9-.5-.5-2.2-1.3-3-.4.4-.8.8-1.2,1.2-.9,0-2-.9-3-1.2l-1.2,1.1c-.4.7-.9.2-1.4.2,0,.9-.5,1.8-1.4,1.1-1.2.5-1.2,1.9-1,3-.1,1.2-1.2,1.4-2.1,1.8-1,.4-2.2.3-3.3,0-1-.7-.9-1.5-1.4-2.6-1.9-.6-1.9-1.1-3.9-1.5-.7.6-1.4,1.3-2.1,1.9-.2.9-.7,1.4-.5,2.2.4.4.7,1.8.7,1.8-.2.2.2,1.1.2,1.2-1-.4-2.2.4-2.9.4-.3-.8.6-3.6-.9-2.8-.6,1.5-2.4,1.5-3,0-.6.6-1,1.6-1.9.7-1.1.3-2.2.1-3.1-.4-1.7-.8-4.2.3-5.2,0-.4.7-.1,1.6-1.6,1.7-.1,1.1-1.2.4-1.8.4.8-.8,1-1.5,1.2-2.3-1.4-.3-2.8-.5-4.3-.6-.9-.1-2.1.2-2.7-.8v-1.4c0-.5-.2-.9-.4-1.3-.2-.6-1.5-1.2-.5-1.8.7-.2.9-.8.8-1.5.2-1.5,0-3,0-4.5-.9.2-2,0-2.8.3-.7.5-.9,1.4-1.3,2.2-.5.6-1.6.2-2.3.4-.8.3-1,1.3-1.9,1.4-1.2,0-2.4-.2-3.6-.1-1.1-.2-1.2.8-1.4,1.7-.6.1-.8.6-.8,1.2-.5,0-1-.1-1.5-.2-.8.1-1.1,1.6-2.2,1.4-1,0-2,.3-2.9-.3-.7-.8-.6-2.2-1.2-3-.5-.3-.5-.8-.5-1.3,0-.4.3-1.4-.5-.9-1.4.4-2.9,0-4.3,0-1-.4-1.4.7-2.2,1-.7.5.8,2.2-.4,1.7-1.3-.6-2.6.2-3.9.2l-6.1,1.9.3.8,8,17,8.5,28,23.9,23.6.2.3,6-2.5c-.2-1.3,0-2.5,1.1-1.7.7.2,1.3-.8,1.8,0,.7-.1.8-1.1,1.5-1.2.7-.4,1.2-1.4,2.1-1.2.9.5,1.9.7,2.9,1,1.3.5,2.7.4,4,.4.2-.4.4-.9,1-.6.7.3,2.1-.6,1.2-1.1.3-.5.4-1.3,1.3-1h3c.5-.9-.3-1.9-1.3-1.8-.7-.6.9-.8,1.3-.6.7-1,0-1.9-.8-2.6-.5-.9-1.6-1.5-2-2.2.5-1,.8-2,.3-3,.8-.3,1.1,0,1.5.6.8.2,1.8.1,2.4.7.4.9,1.5.5,1.7-.3.7,0,1.3-.3,1.8-.7,1.1.3,1.5,1.2,1.8,2.2.2,1.3,1.9.3,2.6,1.2.7.4,1.8.9,1.8,1.8,0,1.1.9,1.7,1.2,2.8.8.6,1.9.1,2.6,1,.9.8,2.3.5,3.1,1.4,1.1.8,1.3-1.2,2.5-.8,1.4-.4,2.2.7,2.9,1.6.7,1,1.7,1.8,2.2,2.9,1,1-.9,1.4-1.1,2.1,1.1.9,2.2,1.7,3.2,2.7.2.3.4.6.6.9,1-.5,2-1.2,2.9-1.8.7-.5,1.6.1,2.4-.1.8-.3,2.1,0,2.5-.7.3-.8.2-2,1.2-2.3,1.1-.2,2.1.2,3.1.7.8.8,1.4,2.2,2.6,2.2,1.2,0,2.5,0,3.6-.5.7-.2-.4-1.1-.6-1.6-.8-1.2-1.6-2.6-2-4-.2-.8-.5-1.7.3-2.2.6-.6,1.9-.4,1.7-1.6.1-.6.2-1.3.3-1.9,1.1-.5,1-2.1,1.9-2.5,1.1-.5,2.3-.7,3.5-.5,2.6.8,5.3,1.3,7.8,2.4,1.2.8,3,.2,3.6,1.7,1.4.9,2.6,1.3,3.5,2.4.7.5,1.1,1.3,2,1.4.9.3,2.1.5,2.6,1.4.5,1,1.8.9,2.5,1.8,1,.6,2.1,1,2.9,1.8,1.3,1,2.9,1.6,4.4,2.4,0,0,0,0,0,0,.6.2,1.2.4,1.8.5.7.3,2.1,0,1.9-.8-.7-.4-.9-1.8.2-1.5.8-.3,1.6-.9,2.3-1.3.2-1.4,0-2.8.6-4.1.6-.3,1.7-.4,2.1-1.2,1-.5.2-1.7.9-2.4.3-.4.7-.7,1-1.1.7-1.3,2.7-2.4,1.5-3.9-.8-.8.8-1.2-.2-1.9-1.2-.8.1-1.6-.2-2.6-.2-.9-.5-1.9-1.6-1.7-1.2-.1-2.7-1.4-2.3-2.8.1-1.5-1.9-2.4-3.2-2.3-.5-.6-1.3-2.3-.8-3.1,1.2-.7.9-2.1-.5-2.1-1-.9-2.4-.5-2.7.8,1,.4.2.7-.4,1-.7-.7-.8-1.5-1.2-2.2,1.2-1.6,0-3.3.4-5-1.1-.6-.9-2-1.8-2.6-2.3-.4-1.8-3.1-3.1-4.4-1.1-.9-2.7-1.8-2.6-3.4-1.9,0-1.7-1.3-2.2-2.8,1-.7,3.5-1.6,2.6-3.5.5-2,2.7-2,4.4-2.2.4,1.3,2.4.6,3,.1-.9-2.2,1.8-3.6,2.2-5.6-.4-.7-.2-1.2-.9-1.5-1.6.2-2.9-.8-4.2-1-1.3.5-2.5-.4-3.6-.9-1.3-.7-3,.1-4.1-1.2-1.2-.7-2.6-.5-3.9-.7-.9-1.1-2.4-1.1-3.4-1.8-1.2-.7-2.3-1.5-3.4-2.4-.3-.9-1.3-1.5-2.1-1-.9.9-1.7,0-1-1-.4-1.4-2.6-.3-3.6-1.3-1.4-.1-2.8.1-4.1-.6-1.3-.9-2.7-1.4-4.3-1.1-1.4-.8-3.4.6-4.2-1.3-1.2-1.3-3.3.3-4.2-1.3-1-1.1-2.8-1.3-3.5-2.8-1.5-.6-2.5-1.6-3.4-2.9-.5-.4-1.3-.9-1.7-.9h0Z"/>
    <path id="path3425" class="st10" d="M415,549.4c-.5,0-.8,1.2-1.5,1.4-1.5.4,0,1.2.5,1.8.4,1.6-1.8-.3-2.5.5-.8.8-1.9.5-2.4-.5-1.1-.5-2.4,0-3.5.3-1.1.6-2.2.3-3.3-.2-1.1-.5-2.2.2-3.2.2-1-.7-1.9-1.6-3.2-1.1-2.3.3-4.3-.8-6.6-.9-1,.5-2,.8-3,.3-.8,1.8-1.3.2-3.4.2-.4.6,0,1.1-.7,1.5-.4.9-1.1,1.6-1.8,2.2-.9.4-1.5,1.1-2.4,1.4-1,.5-.6,2-1.8,2.4-1.1.3-.4,1.6-1.1,2.1-.8,0-2.1,0-1.9,1.2-.1,1.3-1.5,1.9-2.6,2.1-1.5.4-3,.7-4.4,1.1-.2.1-.3.2-.5.3-.7,1.1-.2,2.7-1,3.7-1,1-2.6.9-4,1.3-1.5.1-.6,1.8-.6,2.8-.2.7.8,3.1-.7,1.9-1.3-1.2-1.9,1.4-3.3,1.1-1.1,0-2.7.9-3.5.5-.2-1-.9-2.6-2.1-2.6-.8-.2-1-1.6-.1-1.9-.4-1.2-2.4-.5-3.4-.8-1-1-2.1-.2-3.2-.5-1,0-1.4-.9-2.4.5-1-.3-1.8.5-2.8.3-1-.4-2,.1-2.9.6-.9.6-2.2.5-2.7,1.7-.2.3-.4.7-.6,1h-7.1s13.1,41.2,13.1,41.2l10.3,38.6,6-1.4c1.6-.8-.3-2,.6-4.1,1-.3.4-1.8.2-2.6-.7-1,0-1.9.2-3,0-1.2-.4-2.9.8-3.4,1.3-.2,2.1-.7,1.4-1.5-.2-1.3.4-2.2.2-3.4-.3-1-.2-2.7,1-2.8.9.5,1.9,1.7,2.8,2.2,1.1.4,2.2,1.1,3.4,1,1.3-.1,2.8.1,4-.5.9-.7,1.8.5,2.2,1.1.5,1,1,2.1,1.8,2.9.8.9-.2,2.2,0,3.2.5,1,1.1,1.9,1.7,2.7l1.1,1,1.8.9c.3,0,.6.2.9.4.8.8,1.9,1,3,.6,1.6-.3,3-1,4.4-1.7.6-1.1,1.6-1.8,2.5-2.6.5-.6.7.4,1.6.2.8-3.2,2.7-1.1,3.8-.8.9-.2,1.3-1.5,2.2-1,1.1,0,2.6,0,3.6.5.6,1.7,1.1,3.4,1.7,5.2.5,0,1,0,1.5,0,.8,0,2.3,0,2.2,1.2-.1.8.6,1.2.5,1.8-.4.8.4.9.6,1.5.2,1.1,1.5,0,2.2,0,.6-.8.2-2.2.7-2.9.5-.7,1.4-1.6,2.3-.8.8.8,1.7-.5,2-1.2-.3-.8-.3-1.5-.1-2.3-.3-1,.7-.5,1.3-.9.8-.4,1.6-.9,2.4-.4.8-.2,1.4,1.6,1.9.5.4.4.7.5,1.1.1.8-.3-.7-1-.8-1.6.7-.5,1.5-1.1,2.2-1.6.6-.2,1.3,0,1.8.3.4-1,0-2.2.8-3,.7-.7.5-1.9-.3-2.4-.6-.5-.6-1.4-.6-2.1-.3-.9,0-1.7-.1-2.5-.3-1.2.6-2.5,1.8-2.5.8,0,1.6-.7,2.3-.2.6.5,1.6-.1,2.3.4.9.3,1.5-.8,2.4-.5.9-.2,1.5.3,1.8,1.1.5.6,1.1,1.3,1.9,1.3.6-.1,1.4-.8,1.1-1.5-.3-.4-.7-.6-1.1-.9-.3-.2-.5-.4-.8-.6v-.7c.5-.6,1.1-1,1.8-.8.6-.8,1.3-1.6,1.7-2.6.3-.6.7-1.3.6-1.9.9-.4,1.5-1,1.4-2,.2-1-.5-1.9-.8-2.9-.4-1.4-.6-2.8-1-4.2.6.2,1.2.5,1.6,0,.6.3,1.1,1.3,1.7,1,.3-.2.6-.3.9-.5,1.3-.3,2.6-1.4,3.9-.7.9.3,2.3,1.2,2.8,1.1-.4-.9,0-1.5,1.1-1.6.6-1.6-.6-3-.9-4.2,1.5-.9,3.1-1.7,4.6-2.6.8-1.1,1.6-2.1,3-1.2,1,.9,2.7.7,3.6,1.8,1.1,1.1,2.6,1.5,4,2.1,1.2-.2,1.3-1.9,2.3-2.6-1.4-.3-2.7-.7-3.7-1.7-1-.5-2.1-.4-2.8-1.3-1.3-.3-2.7-.4-3.6-1.5-.9-1-1.5-2.6-3.1-2.2-1.2.2-1.7-1.1-2.5-1.7-1.2,0-1.5-1.6-2.6-1.6-.5-.6-.7-1.4-1.3-1.9,1-.3,2.1-.8,3.1,0,1.3.5,2.4,1.3,3.8,1.4,1.2-.1,1.7,1.6,2.9,1.4.9.5,1.8,1.5,2.9.9.8-.5,2.2.2.9.8-1.4,0-1.8,1.9-.2,1.9,1.2,0,2.5.8,3.6,0,0-.6-1.7-2.2,0-2.4,1.6,0,3.2.6,4.8.5,1.2-.2.5-.8-.2-1.2-.2-1.3-1.6-1.7-2.4-2.5-.4-.9-1.4-1.7-1.1-2.9.2-.4.7-.5,1-.7.5-1.5,1.5,0,2.4.2.6.9,1.8,1.1,2.5,1.8.9.5,1.3-1.5,1.9-2.2.4-1.4,1.5-2.2,2.5-3.2.7-.7,1.1-1.6,1.1-2.6.5-1,1.4-1.7,1.8-2.7.6-.9,1.2-1.5,1.8-2.4,1.3-.2,1.2-1.5,1.5-2.4h0c1.1-.3,2.1.4,3,1,1.3.8,3-.4,4.1,1,.7.7,2.5,1.3,2.8,0,.7-1.2,2.4-1.4,3.6-1.7,1.4.9,2.6-.1,3.5-1.2,1.1-.8,2.4-.7,3.6-.8,1.2-.6,2.2,1.1,3.4,0,.8-.9,2-.9,3.2-.9,1.3.2,2.6,1.1,4,.8,1.2-.2,1.8-1.4,3.1-1.6.2-.2.4-.4.6-.6-.6-.9-1.6-1.6-2.7-1.8-1,0-1.8-.8-1.5-1.9,0-1.6-2.2-2.3-3.2-1.2-1.1,1-2.2-.4-3.3-.7-1.1-.4-2.7-.1-3.4-1.4-.9-1.2.7-1.3,1.4-2,.9-.2,1.9-.7,2.9-.3,1.2,0,2.5,0,3.5-.8,1-.4,1.1-1.8.2-2.4-1-.8-1.4-2-2.2-3-.3-.3-.8-.5-1.3-.5-.3,1.7-1.1,2.3-3,2.8-.4.3-.7.6-1.2.5-1.2.3-1.4,1.8-2.4,2.4-1.1.3-2.2.6-3.1,1.3-.5,1-1.4,1.8-2.6,1.2-1.2-.6-2.3-1.6-3.6-1.9-1.1-.7-2.2.5-3.3-.2-.4-1.1-2.1-1.3-3-.5-.9,1.1-2.2.8-3.4.5-1.2.1-.6-1.3-1.5-1.4-1,.2-2.4.5-3.1-.5h0c-.3-.3-1.3-.3-2-.6-.7-.3-1.8-.8-2.3-.8,0-.7-.6-.9-.4-1.7-.2-.7-1.6-1.5-2.1-.7-.7,0-1.2-1-2-1-1-.4-2-1.1-2.9-1.1-.4-.9-1.3-.8-1.5.2-.4.9-1.4.8-1.7,0-1.4-.6-2.9-1.1-4.5-1.2-.6.5-.8,1.8-1.6,1.7-.7-.9-1.6,0-2.6,0-.8.1-2.1-.3-1.7,1-1,.5-2.5.8-3.5.3-.6-.4-1.3-.8-1.8-1.4-1.3,1-3.1.6-4.6,1.3-1.4.3-2.9,0-4.2.8-1.3.9-3,.3-4.3-.2-1.8-.3-3.2-.9-4.4-2.2-1-.4-2.1-.3-3.1-.4-.4,1.7-2.4,1.5-3.8,1.6-2.2,0-1.8-2.8-3.2-3.6-1-.7-2.2-1.7-2.1-3.1-.4,0-1.4-.4-1.8-.6-.2-.3-.4-.3-.6-.3h0Z"/>
    <path id="path3423" class="st7" d="M347.5,301.7c-1.1.4-2.6.3-3.4,1.3-.8,1.2-1.6,2.3-3.2,2.4-1.6.3-3,.9-4.1,2.1-.8.6-1.8,1.4-.8,2.3.3,1.4-1.4,1.8-2.4,2.2-1.5.2-1.9,2.1-3.5,2.2-.9.4-1.8.8-2.7,1.3-.4,1.4-1.5,2.7-1.2,4.3.3,1.4,1.1,2.8,0,4.1-.9-.6-1.9-1.8-2.4-.3-1.1.9-1.7,3.7-3.3,2.2-1.1-.3-1.4.7-1,1.6-1.5.7-1.3,2.3-1.3,3.7,0,1.3.5,2.7-.4,3.8-.8,1.3-1.2,2.8-.3,4.1.3,1.4,2,1.5,3,2.2.4-.3.6-.9,1.2-.5-.3,1.4.8,3.4-1.1,4.1-1.8.9-4,.7-5.7,2-1.4.3-1.2,1.4-1,2.6-1.8.4-2.5,2.1-4,3.1-1.2,1.2-2.7.1-4.2.5-1.2.6-2.7-1.3-3.5,0-1,1.4-2.6,1.9-3.8,2.7-.5-.4-.9-1-1.5-1.2-1.1-.1-1.6-1.4-2.6-1.6-.7.6-1.6,1.1-2.1,1.9-.2,1-1.2,1.5-2.1,1.8-.9.5-1.9.3-2.8.2-.8.4-1.9.2-2.6.8-.6.8-1.1,2.2-2.3,1.8-.9,0-1.5-.8-2.2-1.2-1.6-.3-.3,2.1-1.2,2.6-1.1-.1-2.1.2-3,.7-1.2.4-1.1,1.7-1.7,2.5-.5.8-.9,2.2-2.1,1.8-.4,1.3-1.8,2.8-1.6,4,.6.8,1.6,1,2.5,1.4.6.5,1.3,0,1.9,0,1.1-.1,1.8.7,1,1.6-.3.9-.9,1.6-2,1.7-1.1.5-2.5-.2-2.9,1.3-1.1.8-1.7,2.1-2.5,3-1,.3-1.3,1.5-2.4,1.7-.7.4-1.1,1.3-1.6,1.9l-4.9,5.1.4.9,15.4,64,9.8,21,5.6-1.1c.7,0,1.1-1.5,1.7-.3.4,0,1.1-.2,1.3.2-.5.9,1,1.5.7.4-.4-1.3,1.6-.6,2.1-1.3.4.7,1.8.3,2.1,1.4,1.3,1,2.1-.8,3.3-1.1.9-.6,2.4-.3,3-1.3.4-1.2,1.1-.5,2-.4.3-1,1.1.3,1.4-.6-.1-1.6,1.1-2.2,2.2-3.1,1.3,0,.3-1.1,1.2-1.5-.3-1.1-.3-2.3-1.3-3.4-.8.8-1.7,0-2.6.2-1.2.4-.5-1.9-1.1-2-1.2.3-.9-.6-.7-1.5-.6-1.1.5-2.8.6-4.1.5-1.4.4-3.2,1.3-4.4.9.6,1.3-.6.6-1.1.2-1.1-1.7-.8-2.5-1.3.5-1.1.2-1.7-.9-2.1-1.3-.8-.5-1.7.4-2.5.2,0,.4,0,.5,0,.8-.6.3-1.7.6-2.5.1-.9,1.2-1.8,2-1,1,1,2.4,1.2,3.7,1.8.7.5,1.7.8,2.3,0,.4-.6,1.7-.9,2.4-.1.7-.6,1.9-.2,2.4-1.2.5-.9,0-2,.3-3,.1-.8-.7-2.5.6-2.4.6.2.9,1.6,1.5.6.5-.9-.4-2.2.5-2.8.9.2,1.9.7,2.9.7.6-.2-.1-1.3,0-1.9-.4-.9,0-2.5,1.3-1.9.7.6,1.5,2,2.5,1.3.5-.8,1.5-1.5,1.7-2.5,0-.9,0-2,1.1-2.2.9-.5,2.2-.3,1.9.9.4,1.3,1.4-.5,2.2-.4,1.2-.2.9,1.1.5,1.7,0,.2,0,.4.2.6.8.7,1.8,0,2.7.3,1.2.4.8-1.2,1.5-1.6.2-.7.3-2,1.4-1.4.3.6.2,1.4.9,1.9,0,1.2,1.6,1.7,1.7,2.9,0,1.5,1.8.8,2.7.6.9,0,2.2.8,2.5-.5.1-1,1-1.6,1.5-2.4.5-.9.4-2.4,1-2.8.9,0,2-.5,2.8,0,1,.7,2-.5,2.7-1.1,1,.1,1.2,1.6,2.3,1.8.9-.2,2.4-.8,2.9.3-.3,1.2,1.2.9,1.9,1.1,0-.9.2-1.9.3-2.8-.2-1.4-1.8-2-2.1-3.4-.9-1.4.4-2.8.2-4.3-.2-1.1.7-4.1,2-2.4.6,0,1.3-.6,2,0,1-.3,2.8.8,2.9-.6.3-1.2.9-2.3,1-3.6-1.5-.1-2.9-.3-4.4-.4-1.4,0-2.8.1-3.8-1-1.6-.8,0-2.5,0-3.7-1-.3-1.9-.7-2.9-.8-1.6-.4-3.3-.2-4.5.6-1.4,1.1-1.2-1.1-1-1.9-.5-.8-.1-1.3.6-1.6.9-.3,1.1-1.4,1.3-1.9,1.1,0,2.7,1.1,3.2-.4,1.3.6,4,.7,3.9-1.2.8-.8.3-1.7.3-2.7.5-1.5,1.9-2.8,2.9-4,1-.8,2.4-1.2,3.7-1.5,1.7.5,3.1-.6,4.8-.9.2-.3.4-.7.6-1,.9-1,2.3-1.5,3.6-1.6-.2-1.1,0-2.1.2-3.2.4-1.3,1-2.4,0-3.6-.7-1,0-2.2.2-3.3.7-1.3-.3-2.2-1.1-3.1-1.2-.8,0-2,.2-3.1.5-.7-.5-2.5.8-2.2.9,0,1.8,0,2.6.4,1.2.7,2.5,0,3.8,0l1-1c.2-2.1.6-5,.8-7.1,1.5-.8,3.8-3.2,5.4-4,1.6-.3,3.9-1.2,6.5-2.2,1.8-.1,3.1-1.4,4.2-3.1.2-1.4-1.2-1.7,1.2-3.4,1.9-.9,0-2.2.4-3.7-.5-1.5,1.2-2,1.9-3.8.6-1.7,0-3.5-.1-5.3.3-1.8-4.3,0-5.7.8-1.8.2-3.9,2.2-5.2,2.1-.7-.5,3.3-3.1,2.9-4-1.4-2-2.1-2.8-5.4-3.8-2.1-.3-4.6-.8-5.8-2.5-2-1.5-6.3-1.6-8.1-3.5.1-1.3.4-2.5.3-3.8-1-.1-2.7.8-3.9,1-1.1-.7-2.1-1.4-3.2-2-1.3-.6-2-2.1-3.5-2.4-1.5-.6-3.3-.4-4.5-1.6-1,.2-1.8,1.8-2.7,2.6-.4-.5-.9-1-1.3-1.6-.8-.8-1.9-1.9-3.1-1.2-.7.6-2-1-1.4-1.5.9-.8-1-1.5-1.5-2.1-.5.3-1,.5-1.5.8-.7.7-1.6,0-2.4.2-1.1.9-2.1,1.9-3.3,2.7-.4-.6-.1-2.7-.2-3.9.1-1.6,1.2-3.2.4-4.7-.2-1.5-1.3-2.7-2-4h0Z"/>
    <path id="path3419" class="st9" d="M182.5,144.2s.4-.1.8-.4l-.8.4Z"/>
    <path id="path3316" class="st7" d="M453.1,844.6c-.2-.1-.5-.1-.9,0,.5,1,.1,2-.3,3,.5.7,1.5,1.3,2,2.2.8.7,1.4,1.6.8,2.6-.4-.2-2,0-1.3.6.9,0,1.8,1,1.3,1.8h-3c-.9-.3-1,.5-1.3,1,.9.6-.5,1.4-1.2,1.1-.7-.3-.8.2-1,.6-1.3,0-2.7,0-4-.4-1-.3-2-.5-2.9-1-.9-.2-1.4.8-2.1,1.2-.8.1-.8,1.1-1.5,1.2-.5-.8-1.1.2-1.8,0-1.1-.9-1.3.4-1.1,1.7l-6,2.5,56.6,76.1,26.1,20.1,5.5-1.3c.7-.3,1.9-.2,2.1-1.2.9.1,1.5,0,.8-1-.8-1.1,0-1.2.9-1.2.9-.5,1.8-1.4,2.8-2,1.7-1.2,3,.8,4.7.4,1.6-1.2,1.4,1.6,2.8,1.5.7-1.7-2.6-3.1-1.3-5.1,1.3-.9.8-4-.9-3.3-.6.3-2.3,2.3-2.4,1.2-.3-1.5,2.2-2.2,1.3-3.8-.6-.8-2.5-2.3-.6-3.1,1.3-1.2,1.5,1.7,2.6,1.1,1-.7,1.9-1.7,2.6-2.6.3-1.7,1.8-2.8,3-4,0-.3,0-.6,0-.9,0-1.1.3-2.2.9-3.1.7-1.6,2.4-1.4,3.9-1.7,1.8.2,1.4-2.4.7-3.3-1.2-1-2.3-2.2-2.6-3.9-.5-1.3-.3-2.9-1.3-3.9-.2-.9,1.5-1.7,2.1-2.5h1.7c.9.8,1.9,1.4,2.6,2.4.4,1.3,1.6.6,2.1-.2.8-1,2.5-.7,3.4-1.7.6-1.9,1.2-3.7,2.2-5.4.9-1.1,2.1-2.8.5-3.9-1-1.5-1.1-3.4-1.9-5-1.1-1.1-2-2.4-3-3.6-1.2-.8-1.8-2.2-1.6-3.6.6-1.9-2.1-1.8-2.4-3.4-.8-1.4-2.2-2.4-3.5-3.5-.6-1.6-1.6-2.9-2.2-4.5.9-1.5.8-3.3-.1-4.7-1.3-1-.8-3.3-2.7-3.5-1.4-.8-2.5-2.3-2.1-3.9-.3-1.1-1.9-2.5-1.1-3.6.6-.2,1.3,1.3,2.3,1.2,1.3.5,2.4-.9,2.8-2,1.1-1.2-.9-2.5,0-3.5-1.5-.7-3.1-1.3-4.4-2.3-.8-.9-1.9-1.3-2.9-1.8-.7-.9-2-.8-2.5-1.8-.5-1-1.7-1.1-2.6-1.4-.9-.1-1.4-.9-2-1.4-.9-1-2.1-1.5-3.5-2.4-.6-1.5-2.4-.9-3.6-1.7-2.5-1.2-5.2-1.7-7.8-2.4-1.2-.2-2.4,0-3.5.5-1,.5-.9,2-1.9,2.5-.1.6-.2,1.3-.3,1.9.2,1.2-1.1,1-1.7,1.6-.8.6-.6,1.4-.3,2.2.4,1.5,1.1,2.8,2,4,.1.5,1.3,1.4.6,1.6-1.1.5-2.4.5-3.6.5-1.2,0-1.8-1.4-2.6-2.2-1-.5-2-.9-3.1-.7-1,.2-.9,1.5-1.2,2.3-.4.7-1.7.4-2.5.7-.8.2-1.7-.4-2.4.1-.9.7-1.9,1.3-2.9,1.8-.2-.3-.4-.6-.6-.9-1-1-2.2-1.8-3.2-2.7.1-.7,2.1-1.1,1.1-2.1-.5-1.1-1.6-1.9-2.2-2.9-.8-.9-1.5-2-2.9-1.6-1.2-.4-1.4,1.6-2.5.8-.8-.8-2.2-.6-3.1-1.4-.7-.9-1.8-.4-2.6-1-.2-1-1.2-1.7-1.2-2.8,0-1-1.1-1.4-1.8-1.8-.8-.9-2.4,0-2.6-1.2-.3-1-.7-1.9-1.8-2.2-.6.4-1.1.8-1.8.7-.2.8-1.3,1.1-1.7.3-.6-.6-1.6-.5-2.4-.7-.2-.3-.4-.5-.6-.6h0Z"/>
    <path id="path3314" class="st7" d="M532,540.5c-.5.3-1,.8-1.4,1.2-1.3,1.3-2.8,2.3-4.3,3.4-1.1.6-2.2,1.1-3.1,2-.6.7-1.4,1.3-2.3,1.6-.7.3-1.5.5-2.3.4-.6-.1-1,.2-1.5.5-.8.2-1.6.4-2.3.9-1,.4-1.4,1.5-2.4,1.9-.7.5-1.7.4-2.5.5-.5.3,0,.9.3,1.2-.5.3-.9.6-1.4.9-.8.3-1.7.4-2.5.6.6.7,1.1,1.4,1.7,2.1.5,0,1,.2,1.3.5.8,1,1.2,2.2,2.2,3,.9.6.8,2-.2,2.4-1,.7-2.3.8-3.5.8-1-.4-1.9.1-2.9.3-.6.7-2.3.8-1.4,2,.7,1.2,2.2,1,3.4,1.4,1.1.4,2.2,1.8,3.3.7,1-1.1,3.3-.4,3.2,1.2-.3,1.1.5,1.8,1.5,1.9,1.1.2,2.1.9,2.7,1.8-.2.2-.4.5-.6.6-1.2.2-1.9,1.4-3.1,1.6-1.4.3-2.7-.5-4-.8-1.2,0-2.4,0-3.2.9-1.2,1-2.2-.7-3.4,0-1.2.2-2.6,0-3.6.8-.9,1.1-2.1,2.1-3.5,1.2-1.2.4-2.8.6-3.6,1.7-.3,1.4-2.1.8-2.8,0-1.1-1.3-2.8-.1-4.1-1-.9-.6-1.8-1.2-3-1.1h0c-.4,1.1-.3,2.3-1.5,2.6-.6.9-1.2,1.6-1.8,2.4-.5,1-1.3,1.7-1.8,2.7,0,1-.4,1.9-1.1,2.6-.9,1-2.1,1.8-2.5,3.2-.6.7-1,2.7-1.9,2.2-.8-.8-1.9-.9-2.5-1.8-.9-.2-1.9-1.6-2.4-.2-.3.3-.8.3-1,.7-.2,1.1.8,1.9,1.1,2.9.9.8,2.3,1.2,2.4,2.5.6.4,1.4,1,.2,1.2-1.6.1-3.2-.5-4.8-.5-1.7.2,0,1.8,0,2.4-1.1.7-2.4-.1-3.6,0-1.6,0-1.2-1.9.2-1.9,1.3-.5-.2-1.3-.9-.8-1.2.5-2-.4-2.9-.9-1.3.2-1.7-1.6-2.9-1.4-1.4-.1-2.5-1-3.8-1.4-.9-.7-2.1-.2-3.1,0,.6.5.8,1.3,1.3,1.9,1.2,0,1.4,1.7,2.6,1.6.8.6,1.3,1.9,2.5,1.7,1.6-.3,2.3,1.2,3.1,2.2.9,1.2,2.3,1.3,3.6,1.5.7.8,1.8.8,2.8,1.3.9,1.1,2.3,1.5,3.7,1.7-1,.7-1.1,2.4-2.3,2.6-1.4-.6-2.9-.9-4-2.1-.9-1.1-2.6-.9-3.6-1.8-1.4-.9-2.2.1-3,1.2-1.5.9-3.1,1.7-4.6,2.6.3,1.2,1.5,2.7.9,4.2-1,0-1.5.6-1.1,1.6-.5.1-2-.8-2.8-1.1-1.3-.7-2.6.5-3.9.7-.3.2-.6.3-.9.5-.6.3-1.2-.7-1.7-1-.4.4-1,.1-1.6,0,.3,1.4.5,2.8,1,4.2.3,1,1,1.9.8,2.9.1,1-.5,1.6-1.4,2,.2.6-.2,1.3-.6,1.9-.4,1-1,1.8-1.7,2.6-.7-.2-1.3.2-1.8.8v.7c.3.2.5.4.8.6.3.3.8.5,1.1.9.2.7-.5,1.3-1.1,1.5-.8,0-1.4-.7-1.9-1.3-.3-.8-.9-1.3-1.8-1.1-.9-.3-1.5.8-2.4.5-.7-.5-1.7,0-2.3-.4-.8-.5-1.5.3-2.3.2-1.2,0-2.1,1.4-1.8,2.5,0,.9-.1,1.7.1,2.5,0,.7,0,1.6.6,2.1.8.5.9,1.7.3,2.4-.8.8-.4,2-.8,3,0,0,0,0,0,0,0,0,0,0,0,0-1.6,1.8,1.2,2,2.3,2.6,1.4.4,3,1.1,4.4.5,1.1-1.5,1.8.7,3,.5.8.9,2.2.8,3.3,1.4,0,1.6,1.5,1.5,2.5,2.1,1.4,1.5,3.4,1.8,5,2.9,1.7,1.6,2.9-.2,4.1-1.4,1.8.7,3.5,1.5,5.4,2,2.2,1.5,4.5,2.9,6.4,4.8,1.5,1.3,2.5,3.1,3.6,4.4,1.7,1.7,2.8,3.9,4.4,5.6.8,1.6,2-.9,2.5.9,1.4,1.8,4.4,1.7,5,4.2.9,2.1,2.3,4.2,2.3,6.5.5.4,1,.7,1.4,1.1.9,1.1,1.7,2.3,2.7,3.3,1.3.9,0,1.3-.7,1.9-.6,1.7,1.1,2.8,2,4,1.1.7.5,1.4-.2,2.1-1.4-.9-3-1.6-4.3-2.7-.8-1.6-3-1.1-3.2.5.5.9-.5,1-.9,1.3,0,1.2.3,2.6.7,3.8-.5,1.2,1.1,3.1-.4,3.4-1.8.2-1.3,1.9-.7,3.1,0,2.1.2,4.1.3,6.2l2.3.2c.7.5.7,1.8,1.1,2.6,1.7,1.4,3.2,3,5,4.3,1-.6,1.4.3,2,1,.6.8,2.3,2.2,2.9.9.4-1,1-1.9,1.9-2.5.8-.2,2,1,2.4,1.9.3,1,1.7,1.9,1.1,2.9.7.9.7,2,.1,3-1.5.4-3.1.6-4.6,1.3-.8.8-1.4,1.9-2.3,2.8-.8,0-2.7.8-1.6,1.7.9.4,0,1-.3,1.8h4.2c1.5.2,2.9.9,4.5,1.1,1.4.5,3.1-.2,4.1,1.1.7.3,2.4-.9,2,.6,0,.5-.2,1.2.2,1.5,1,.5,2.5.7,3.3-.2,1-.5,2.2-.8,3.4-1.1,1.2-.6,2.5,0,3.7-.1-.5-1.2-1.2-2.3-2.1-3.4-.5-1.3-1.5-2.6-1.7-3.9.3-1.6,1.7-1.8,3.1-1.4,1,1.7,2.4.4,3.7,0,1.7-.3,2.5-2.1,3.7-3.2.9-1.6,3-.1,4.2-1,.9-.5,1.1-2.4,2.2-2.3,1.5,0,2.9,1.4,1.7,2.8-.3,1.1,0,2.3.2,3.5,1.4-1.3,2.7-1.9,4.6-1.9.2.8.8.9.5,1.6.3.3,2.8-3.2,2.8-.7,1,.6-.9,2.4.8,2.2.5,1.9,3,.2,3.9,1.1,1.3.2-.7,2.1.7,1.4.7.4,1.6,1.5,2.7,1.9-.3,1.1-.1,1.9.4,2.9.7-.5,1.4.1,1.1.9-.2,2,2.2,3.8,3.2,5.6.8,2-1.3,3.7-.9,5.8-.3.4-.7.6-1,1.1-.9,1.1,1.1,2.6-.3,3.7-1.7.6.9,1.5-.3,2.3-.8,1-2.4,1.9-1.4,3.3.5,1.3,2,1.7,3.2,2,1.4.3,1.7,1.5,1.8,2.8.4-.5.7-.4,1.1,0,.4.4.2-.8.4-1.1,1.1-.2,2.5.7,3.3,1.6,1.6,0,2.6,1.4,4.2,1.7h0c.8-.6-.3-1.9,1.2-1.7.5-1.3-2.2-4.3-.7-5.7,2.1-.6,3.8-2.5,3.4-4.7-1.1-.9-.1-1.3-.3-2.3.7-1.1,1.9,0,1.7,1.3.6-.4,2.7-.2,2.1-1.2-.4-1.7,2-2.8,2-4.4,1-1.2-.6-2.2-.2-3.6-.8-1.5,1.8-1.2,1.2-2.4.3-1.1.8-2.6-.6-3.5-.6-1.8,1.8-3.2,2.4-4.9,0-.5-.1-1-.2-1.6,1.5-1,2.1-3,3.8-3.7,1.2.8,2.6,1.9,4.1.8,1.9-.6-.1-2.7,1.8-3.1-1.1-.8-1.8-1.9-1.5-3.3-.2-1.9,1.6-2.8,2.5-4,.3-1.9-2.5-.8-2-2.6.4-1.8-1-.7-2-.1-1.3,1.5-1.6-.6-2.8-.8-.6-1.2-2.6-1.7-2.3-3.2,0-1.2.3-2.8-.9-3.5-1.9.2-2.6-1.9-1.4-3.1,2.3.1-.4-2.5.4-3.6,0-1.4,1.1-1.2,2-1.4-.7-.6-1.5-.9-2.2-1.4-1,2-2.3,4-3.1,6.2-.7-.3-2-.8-2.8-1.3-.2-1,.1-2,.2-3,1-.5.3-1-.5-.7-.8-1-1.8-.7-2.9-.2-1.3.2-2.3,1.1-3.1,2.1-.8-.3-1.2-.2-.8.8-.4.3-.9.6-1.3.9-.6.3-1.2,1.1-1.9.9-.8.4-1.8.7-2.6-.2-.9-.6-1.7-1.4-2.9-1.5-.9-.4-1.7,1.1-2.4.1-1-.7-2.1-1.5-2.3-2.7-.4-1.3-2.7-.6-2.5-2.3.4-1.2-2.2-1.7-2.4-.7-1.2,0-1.8,1.7-3,.6-1.1-.6-2.9.3-3.5-1.2h.2c0-.1.2-.2.2-.2.5-.6,0-1.6,1.1-2,1.3-.6,0-2.1.7-3.1,1.6-1-.4-4.1,2-4-.1-.9.7-1.3,1.4-1.7.8-1.8,1-3.6,2.3-5.2,0-1.5-.5-3.2-.2-4.8-.6-2.1,2-1.1,3-2.3,1.3-.6,0-2.4.2-3.5.4-.7,1.1-1.3,1.1-2.2-.4-1.2,1.2-2,1.2-2.6-.8-.5-1.6-1.1-1.4-2.2,0-.7-.5-2,.7-1.7,1.8.3,2.2-1.6,3.9-1.7,0-1.7-.6-3.8-2.7-4.1,0-1.6-1.3-.6-2.2-1.2.6-1.6,1.4-3.1.8-4.8,1.4-.4,3.1-1.8,1.2-2.9-1.3.4-2.5-.2-3.2-1.5-1.3-.9-.6-1.9-.2-3,1.4-.8.1-2.6.2-3.9.4-.4.8-.8,1.3-1.2,1.2-.8,1.7-2.1,2.1-3.4,0-1.5,1.3-2.4,2.2-3.6.9-.2.2-2.3,1-1.5,1.1-.7,2.9.6,3.3-1.2,1-.9,1.7-2.1,1.4-3.5-.9-1-3-1.7-1.9-3.4-1.8.2-.7-1.9-.6-2.8-.5-.4-1.3-.7-1.4-1.4.4-.9,1.1-1.8,1.6-2.8.3-1.7-1.8-2.3-2.1-3.8-1.1-1.1-2.6-1.9-3.4-3.3-.2-1.3-1.4-1.4-2.1-2.3-.6-1.2-1.8-1.6-2.8-2.3-1.2-1.1-1-2.8-1.6-4.1.1-1.2,1.4-3.8,2.8-2.2.9-.4,1.9-.9,3-1.3.8-.7,1.6-2.3,2.9-1.9,1.2,1.1,2.8,1.4,4.4,1.7.3-1.5,1.9-1.7,1.5-3.5-1-.9-.5-1.9-.3-3,0-1.9.2-3.7.6-5.5-.2-2,2-3.3,1.6-5.2.3-.2.8-1.6,1.7-1.8.5-1.3-.8-3.7-2.3-4.2-1.3.5-3-.3-3.9.9-.7-.9-.2-3-.5-4.4-.8-1.3,1.5-1.8.7-2.6-1.8-2.1-3.4-4.4-4.7-6.8-.8-1.5-2.9-2.7-1.8-4.7.3-2,1.9-3.6,1.2-5.8-1.9-.3-3.9-.1-6-.6-.4-.5-.9-.5-1.4-.2-.7.4-1.5.1-2.3,0-.6-.3-1.3-.5-2-.5h0Z"/>
    <path id="path3312" class="st7" d="M337.3,451.8c.6,1.3,2.2,2.3,1.9,3.7-.8,1.2,0,3.4-1,4-1.9-.3-2.4,1.5-3,2.9-1.6.8-1.3,2.8-3,3.8-.1,1.1-1.2,2.7-2.2,2.7-1-.2-1-3-1.7-1.1-.9-1.2-2.3-1-3.6-1.5-1.3-1-1.1,2.9-2.8,1.4-1.6-1.2-3.2-2.8-5.5-2.6-1.6,0-3.1-.2-4.5-.6-.9.4.1,1.6-1.2,1.5-1.1.9-2.3,1.5-2.2,3.1-.2.9-1.1-.4-1.4.6-.9-.1-1.6-.8-2,.4-.6,1-2.1.7-3,1.3-1.2.3-2,2.1-3.3,1.1-.4-1.1-1.7-.8-2.1-1.4-.5.8-2.5,0-2.1,1.3.3,1.1-1.2.5-.7-.4-.2-.4-.9,0-1.3-.2-.6-1.1-1,.3-1.7.3l-5.6,1.1,23.1,49.3,16.8,53h7.1c.2-.3.4-.7.6-1,.4-1.1,1.8-1.1,2.7-1.7.9-.5,1.9-1,2.9-.6,1,.2,1.8-.6,2.8-.3,1-1.4,1.4-.5,2.4-.5,1.2.2,2.2-.6,3.2.5,1,.3,2.9-.4,3.4.8-.8.3-.7,1.7.1,1.9,1.2,0,1.9,1.6,2.1,2.6.8.4,2.4-.5,3.5-.5,1.4.3,2-2.3,3.3-1.1,1.4,1.2.4-1.2.7-1.9,0-.9-.9-2.6.6-2.8,1.3-.4,2.9-.3,4-1.3.8-1.1.3-2.6,1-3.7.2-.1.3-.2.5-.3,1.5-.4,3-.8,4.4-1.1,1.1-.2,2.5-.8,2.6-2.1-.2-1.2,1.1-1.2,1.9-1.2.7-.5,0-1.8,1.1-2.1,1.2-.4.7-1.9,1.8-2.4.9-.3,1.5-1,2.4-1.4.7-.6,1.4-1.3,1.8-2.2.6-.4.3-.8.7-1.5,2.1,0,2.7,1.6,3.4-.2,1.1.4,2,.2,3-.3,2.2,0,4.3,1.3,6.6.9,1.4-.5,2.2.3,3.2,1.1,1.1,0,2.1-.7,3.2-.2,1.1.6,2.2.9,3.3.2,1.1-.3,2.4-.8,3.5-.3.5,1,1.5,1.4,2.4.5.7-.7,2.8,1.2,2.5-.5-.5-.5-2-1.4-.5-1.8,1-.2,1.2-2.1,2.1-1.1.4.3,1.3.6,1.8.6-.1,1.4,1.1,2.4,2.1,3.1,1.4.8,1,3.7,3.2,3.6,1.4,0,3.4.1,3.8-1.6,1,.1,2.1,0,3.1.4,1.2,1.3,2.7,1.9,4.4,2.2,1.4.5,3,1,4.3.2,1.2-.7,2.8-.5,4.2-.8,1.5-.6,3.3-.3,4.6-1.3.5.6,1.1,1,1.8,1.4,1,.5,2.5.2,3.5-.3-.4-1.3.9-.8,1.7-1,1,.1,1.9-.8,2.6,0,.9,0,1.1-1.2,1.6-1.7,1.5.1,3,.6,4.5,1.2.2.9,1.3,1,1.7,0,.2-1,1.1-1,1.5-.2,1,0,2,.7,2.9,1.1.8,0,1.3,1.1,2,1,.5-.8,1.9,0,2.1.7-.2.8.4,1,.4,1.7.4,0,1.6.5,2.3.8.7.3,1.8.3,2,.6h0c-.5-.7-.7-1.7-1.4-2.5-.7-.2-1.6-.3-2-1.1-.4-.8-1.1-1.1-2-1.3-1-.5-.3-1.6,0-2.2.3-.8,1.1-1.7.7-2.6-1.1-.7-1.6,1.2-2.6,1.3-.8-.1-2.3-.4-2.1.9-.5.4-1-.9-1.5-1.2,0-1.1-1-2-2.1-2.1-.8,0-.4-1.4-.3-2,1.1-1.6,1.3-3.5,1.4-5.3-2.3,1.7-4-1-5.8-1.6-1.9,0-1.4,2.7-3.6,2.1-1.7,1-3.8-2.1-4.5.2-1.3.3-3.6.2-4.4-.7,0-2,2.5-1.9,2.8-4.1-.9-.5-2.8-.3-4-1.3-2.3-.3-4.5-2.1-6.8-1.3-1.5.1-1.1,2.6-3.1,2-2.2.9-2.5-1.7-4.6-1.9-1.1-1.1-3-4.1-3.3-1.2-1.7-1.5-3.6-.4-5.2.4-.2-.6.3-1.7-1-.8-1.6-.7-1.9-2.8-3.3-4-.9-1.3-.9-3.2-1.9-4.4-1-1-1.5-2.8-3-3.1-1.6-.3-3.4-.1-4.8.7-.8-.9,0-3-2.1-2.7-2,0-3.2-1.4-4-3.2-.9-1.7-3.2-1.9-4.7-2.6l-.3-.2c-2-.5-3.4-2-5.3-2.2-1.3-1.4-1.6-3-2.9-4.4-1-1.2-1.8-3-3.5-2.9-.9-1.5-3.3-2.4-1.8-4.5.5-1.2,1.2-2.4-.6-2.4.4-1.3-1.4-1.6-1-3-.8-.8-2.1-2-3.2-.6,0-1.8-2.4-3.2-1.2-5.1,1.2,1.1,2.7.6,2.1-1,1.6-.1,3.1-1.9,2.3-3.5,0-.4-.1-.8-.2-1.1-2.7.2,0-3-.2-4.4.8-1.1,2.6,0,2.6-1.6.8-.8.9-2,2.3-1.9,1.8.1,2.7-1.3,2.3-2.9-.3-1.7-1.4-3.2-1.9-4.9.9-1.6,3.3.2,3.7-2,.3-1.8.6-3.8,2.6-4.4,1.5-1.2-.5-2.3-1.2-2.9,0-.6.7-.9.9-1.4-.3-1.3-1.7-1-2.7-.9-1,0-1.9.3-2.9.5-1.1-.2-2.3-.6-3.4-.2-1.1.2-2.2.7-3.4.4-1,.2-1.9.6-2.9.4-1-.3-.9-1.7-.9-2.5-.2-1.1-1.1-2-2.3-1.7-1.2,0-2.2.6-3.2,1.1-.8.6-.5,1.7-.9,2.6-.2,1.3-1.6,1.3-2.5.8-.9-.3-1.8-1.1-2.8-.6-.8.2-1.6.7-2.4.5-1.2-.4-2.3-1.2-3.6-1.1-1.2-.2-2.4-1.2-3.6-.6-1,.4-2.1.6-3.2.3-1.4-.4-2.3.8-3.5,1.2-1.1.3-1.8-1.1-1.3-2,.7-.8.3-1.8-.3-2.6,0-.7-.3-1.2-1.1-1.2-.9,0-2.1.8-2.3-.7-.3-1.3-1.6-.6-2.4-.2-.9.5-1.9.3-2.7-.1-.8-.4-1.7-.3-2.6-.5Z"/>
    <path id="path3310" class="st7" d="M321.1,210.1c-1.1.6-2.1,1.1-3.2,1.7-1,.1-2.1.2-3.1.2-.6-.1-1.2.2-1.7.5-1.3.9-2.5,1.9-3.8,2.8-.4.4-1.2,0-1.6.5-.5.9-1.5,1.3-2.2,1.9-.7-.2-1.4-.4-2.2-.3-.8.3-1.6.4-2.4.5-.5-.1-.7.5-1,.8-.3.3-.4.9-.9,1-.8.3-1.6-.1-2.3-.3-.5-.3-1.1.1-1.6,0-.5,0-.6-.8-1.1-.7-.9.3-1.8,0-2.7-.2-.5-.5-1.3-.7-2-1-.7,0-1.5.1-2.3.1,0,.9-.1,1.6-1,1.9-.8.2-1.7.3-2.1,1.1-.4.6-.4,1.3.2,1.8.5.5.6,1.3.9,2,0,1.3,0,2.7-.6,3.9-.8.6-2,.7-2.9,1.1,1,1,2.3,1.8,3.6,2.6-.2.7-.7,1.4-.6,2.1,0,.7.3,1.5-.2,2-.9.6-.4-1.1-1.3-1-.7.5-1.5,0-2.2.4-.8.3-1.7.6-2.6.1-.7.2-1.2,0-1.8-.4-.9.4-1.6,0-2.3-.5l-1.7.2c-.7-1-1.8.2-2.7-.4-1,0-1.3-1.2-2.1-1.4-.7,0-1.3.7-2,.9-.9,0-1.8,0-2.5-.6-.4-.3-.8-.5-1.3-.4h-1.2c-.5.6-.6,1.5-1.3,1.9-.7.7-1.6,1.3-2.1,2.2-.2.6-.5,1.4-.3,2,.7.8,1.7,1.5,1.6,2.7.1,1-.6,1.9-1.6,2-.9.1-1.7.6-2.1,1.4-.2.4-.3.9-.5,1.3h0s2.2,1,2.2,1l.8.8.3,1.8-.8,1.2-.2,1.8-.7.7v.5c0,0,.6.7.6.7l2,1.6-.6,1.1h1.4s1.1.3,1.1.3l2,1.2.6.5.7,1.6,1.1.3,1.1,1.2,1.7,1,.2.8v.7s.8.5.8.5l.2.6,1.6-.3,2.2.3,1.4-.2.5.5,1.4.2,2.1-.2,1.5.5.5.6,1.9,1-.3.5-1.1.6-.6.6v.7s.4,2.5.4,2.5l-.4,1.4-.8,2-.4.9v2.7s-.4.8-.4.8v1.3c-.1,0,1.3,1.1,1.3,1.1l.2,1.8.4.5,1.9,1.3,1.8,1.2,2.2.5.5.5,1.1.6h1.1c0,.1,1.1.6,1.1.6v1.6c0,0,.4,1.1.4,1.1v1.1c-.1,0,1.8,2.2,1.8,2.2l.5.4.8.4,1.1,1.1,1.4.8.7.8,1.8,1.3,1.7,1,1.8,1.5,1.3.4,2,.9,1.6,1.4.6-.6h.7c0-.1,1,.3,1,.3l1-1.2,1,.2,2.3-2.5h.5s3.4.8,3.4.8l.2,1.5.8,1-.9.9,1,1.4,1.9.3,1.6,1.1,1.7.6,1.5,1.6,1.1,1.7,1.5,1.3c.9-.4,1.8-.8,2.7-1.3,1.6-.2,2-2,3.5-2.2,1-.4,2.6-.8,2.4-2.2-1.1-.9,0-1.7.8-2.3,1.1-1.2,2.5-1.8,4.1-2.1,1.6,0,2.4-1.2,3.2-2.4.8-1,2.2-.9,3.4-1.3,1-.3,1-1.5.2-2.1-.9-.7-.7-2-1.1-3-.5-1.4-1.6-2.4-1.9-3.9,2.1-1.4,4.2-2.9,6.3-4.3.7-.7,1.8-.3,2.4-1,.6-1,1.8.4,1.8,1.2.6.5,1.8.2,2.5.8.4.9.6,1.9.7,2.8.5,1.2,1.7-.3,2.3-.7,1,.6.9-.7,1.1-1.4,1.1-.7,2.3-1.4,3.3-2.1,1.1-.1,1.1,1.3,1.6,2,1.3-.8,2.8-.8,4-1.7.9-.9,3-.8,3-2.2-.4-1.2,1.6-1,1.3-2,0-1.1,0-2.1.5-3.1.6-.1,1.1-.2,1.7-.4,2.1-.6,4.3-.2,6.4-.4.9.7,1,.4,1.2-.6,1.2,0,2.5-2,1.3-2.9-1.3-.6-1.3-2.2-1.9-3.4-.8-.7-1.6-1-2.7-1-.4-.7-.7-1.4-.9-2.2-.3-.9-.7-1.7-.6-2.7,0-1,.5-2.6-1.1-2.5.1-.3.9-1.1,1.3-1.1.6,1.3,1.2-.3,1.6-.9,1.2-.3,1.7-1.3,1.3-2.5-.2-.8-.8-1.8-1.4-2.3-.4,0-1.2.4-1-.2-.4-1.2,1.5-2,.6-3.1-.3-1.4-1,.3-1.8.4-1.1.6-2.1,1.3-3.3.6-.7.5-1.4,1.1-2.2,1.6-1,.2-2.2-.4-3.2-.5-1.1.2-1.6,2.4-3,1.7-1.4.5-2.3-.5-3.3-1.4-1-.5-2.1-.7-3.1-1.2-.3-1-.5-1.9-.8-2.9-.4-1.3-.5-2.7-1.4-3.7-1.1-.3-2-1.1-3-1.6-.7-1.1-1.1-2.3-1.9-3.4-.8-1-1.8.7-2.9.2-1.3-.4-2.3.7-3.5,1-1.1-.2-2.3,0-2.9-1.1-1.2-1-2.2-2.2-2.3-3.8-.9-.7-1.5-1.3-1-2.5.4-1-.2-2-.4-3-.1-1.2-.4-2.3-.9-3.4-1.3,0-1.3-2.1-2.7-2-1.2,0-2.4,0-3.6,0-1,.7-2,1.1-3.3.8-1.9,0-3.4,1.4-4.6,2.6-1.1,1.4-2.7,1.4-3.9,2.1l-1.1-1,.2-1.6-.2-2.4-.2-1.2.2-10.5-.2-8.6Z"/>
    <path id="rect2405" class="st7" d="M97.8,41.9s0,0-.1,0c-.1,0-.2.1-.4.2,1,1,.1,2-.9,2.6-1,.1-3.1,1.6-3.3,0-.9,1-1.2-.6-2.3-.6-1.2,0-2.2.8-3.3,1.2-1.2.4-2.5.3-3.6,1.1-1.3.6-2.7.9-3.8,1.8-.7.8-1.6.7-2.5,1.2-.7,1.2-2.6,1.2-2.8-.4l-1.9.2-5.5,1.1,64.2,147.8,4.6-3.5.7-.4c0-.2-.3-.8-.3-1-.2-.7-.5-1.4-.9-2-.4-.7-.7-1.4-.8-2.2,0-.5,0-1-.1-1.5-.5-.6-1-1.3-1.4-2,.2-.3.4-.6.5-.9.2-.5.4-.7.5-1.2.4.2.8.4,1.2.5.5.5,1.7,1,2.1.3.8-.7,0-1.7.3-2.6-.4-.2-.4-.6-.2-1,.6,0,.5-.7.2-1.1,0-.8-1-1.4-.5-2.1.2-.5.5-.9.8-1.3.4-.4-.4-.8-.5-1.3,0-.7-.2-1.3-.2-2,0-.9-.3-1.7-.5-2.6-.2-.7-.8-1.1-1.4-1.6-.5-.6-1-1.3-1.3-2.1-.5-.5.4-.8.8-.7.6.2,1.2,0,1.8,0,.8,0,1.5-.5,2.3-.4.4.2.8.4,1.3.2l1.2-1.2c.3-.2.6-.4,1-.7.7-.6,1.4-1.2,1.9-2,.4-.6,1-1.9,1.9-1.4.9.4,2,.7,3,.3.9-.2,1.6-.6,2.3-1.3.8-.4,1.8-.2,2.6-.7.9-.2,1.2-1.7,2.4-1.1,1,.1,1.5-.8,1.5-1.7-.2-1.7-.4-3.4-.6-5,.8-.5.9-1.8,1.9-2,1-.2,2.1,0,3.1-.4.8-.9,2.1-.2,2.5.7.6,1,1.9-.6,2.8-.1.7,1.1,1.4-.5,2.3-.2.9-.3,1.1-1.6,2.3-1.4.7-.4.5-2.3,1.8-1.7.5.5,1-.2,1.6,0,.5-.5,1.5-.6.9-1.5-.4-.9,1.8-1.9,1-.5-.6.9.9,1.2,1,.3.8-.8,1.2-.8,2-.9,0,.7,1.3.4,1.5.9l.8-.4c.4-.2.8-.5.9-.8,0-.5.4-1,.7-1.1-.3-.4-2.5-1.1-2.4-3.4.5-1.8-1.9-3.6.3-4.6.9-1.3,1.7-3.5.7-4.9-1.3-1.7-3.3-.1-4.6-1.7-.6-2-3-.9-3.6-2.4-1-1.7-3.2-3.3-2.1-5.4.4-2.1,1.3-5-.2-6.8,0-1,1.4-.3,2-.4,1.6-.6,2.4,1.2,3.6,1.2,1.9-.2,3.8-1,4.7-2.7,2.5-.3.3-2.3.5-3.6-.4-1.2-.5-4.9-2.2-3.5-1.1,1.6-2,.1-2.7-.7-.6,1.8-2.8.4-3.3,2-2.7.2-1.1,2.2-1.4,3.8-2.2.6-3,3-5.6,2.6-1.9.4-1.2-.9-.8-1.9-.6-2,.1-5.1-2.6-5.2-2,0-5.3-.5-4.6-3,.7-2.2-1.2-2.8-3.1-2.8-2.2,1.4-1.9-1.8-2.9-3.1-.8-1.8-1-4.3.5-5.9,2.2.8,2.1-2.1,3.6-2.1,1.8-.6,4,2.1,5,.2,1.5.1,2.2-1.1,1.7-2.5-.8,0-1.7.3-2.5,0-1.5,0-1.5-1.5-2.3-2.3-.7-1.2-2.3,1.3-2.6-.5,0-1.5-2.1-1.3-2.7-2.5-1.3.2-2,1.2-2.4,2.4-.4,1.4-1.6,2.2-2.2,3.5-1,.4-.5,2-1.6,1.8-.5.1-1.4-.2-1.4.6.2,1.3-.6,2.6-2.1,2-1.3,0-1.7-1.2-2.3-2-1.1-.5-.4-3.2-2-2.3-.9.9-.8-.4-.4-.9,1-.4,1.1-1.9.5-2.7-1.4-.4-2.2-1.6-1.9-3.1-.5-1,1.5-3,0-3.3-1.4.2-3.2-1.2-4.1.4-.9.9-1.9,1.7-3.2,1.2-.5.2-.8.2-1.3-.2-.8-.6-3-2-2-3.1.7-.5,1.6-.9,1.4-1.9.4-1.3,1.8-2.9,1.5-4.3-1.8.4-2.2-1.3-2-2.7-.8.7-2.1.4-3,.9-1.5-.6-3.6-.4-4.9-1.2-.7-1.8-1.7-3.5-3.8-3.5-.6-.7-2.3-.5-1.9.5.6,1.3,1.2,3.1.5,4.4-.2,1.4-1.6.4-2.2,1.4-.4,1.4-1.8,1.7-2.7.4-.5,1.2-1.7,0-2.7.3-1.1-1.1-.8-2.8-.7-4.2-.5-1.5,1.6-2.1,2-.6,1-.7-.2-1.8-.3-2.7.9-1.2.2-2.8-.9-3.7-1.1.2-1.8-.9-2.8-.5-1.1.9-3.1,0-3.6,1.6-.5,1.1-3.3-.3-2-1.1,1.4-.5,1.4-2-.2-2-1.3-.1-1.9-2-3.1-1.3-.7,1.4-1.2-.6-.6-1.2,1.5.4,1.5-1.5,2.3-2.3.9-1,2.8-1.9,1.9-3.5-1-1.1-.3-2.7-.5-3.9-1,.9-1.8-1-2.6-1h0Z"/>
    <path id="rect2065" class="st0" d="M0,0v1018.9h699.2v-71.1c-2.4,1.3-4.8,2.4-7.1,4-1.8.3-.9,2.4-2.1,3-1.6.4-2.8,1.6-4.2,2.4-3.3,1.7-6.9,3-9.3,6.1-1.7,1.2-3.7,1.7-5.5,2.4-2.4.9-4.8,1.7-7.2,2.5-1.8.8-4.1,1-5.2,2.8-.5.5-.9,1-1.4,1.3-2.3.9-.7,3.2-1.4,4.7-.8,2.2-3.3,1.8-4.8,3.2-1.4,1.2-2.7,2.7-4.7,2.8-2.1.3-3.5,1.9-5.6,2.1.1,1-.6,1.4-1.6,1.5-.9-1.8-3.6-1-4.9-.5-2.1.5-4.3-.5-6.2.5-2.3-.1-4.3,1.2-6.6,1.5-1.9.9-3.8,1.2-5.7,2.3-1.9.7-3,2.5-4.4,3.8-1.1,1.1.3,2.2-.4,3.1-.7,2,1.8.5,1.3,2.2-1.1.4-2.8,1.4-2.5,3.1-1.3-.1-2.7-.4-4,0-.8-1.7-2.9-.5-4.3-.9-1.6-.6-3.3-.9-5-1.2-3.5-1-7.2-.7-10.6-2-3.6-.9-7.1-2.1-10.6-3.2-2.8-1.1-5.6-2.3-8.6-2.1-1.8,0-3.8,1.1-5.2-.5l-.3-.3-.4-.3c-.9-1.4-.6-4-2.8-4.7-2.2-1.3-4.2-2.9-6.5-3.7-2.2-.3-4.6-1-5.8-3.1-1.2-1.8-2.7-3.5-4.7-4.5-1.4-1-3.3-1.3-4.7-2.4-.8-2-2.6-3.2-4-4.7-1.2-1.7-2.9-2.8-4.7-3.7-1.4-1.4-3.2-2.4-4.7-3.7-2-1.3-3.8-2.8-5.7-4.2-.7-.3-1.3-.8-1.8-1.4-3.4-2.9-7.1-5.6-10.5-8.4-3-.8-3.9-3.8-6.4-5,.6-.4-.6-1.9-1.2-.7-.7-1.5-4.5-2.6-3-4.5-1.3-4.4-5.1-7.5-7.8-11.2-5.4-6.5-11-12.8-16-19.6-3.5-4.4-7.2-8.6-10.7-13.1-2.3-2.4-3.7-4.7-5.5-7.6-.3-.3-.7-.7-1-1-1.6-2.3-3.5-4.3-5.3-6.4-.9-1.2-1.7-2.4-2.7-3.5-1.1-1.2-2.2-2.5-3.2-3.8-1.2-1.3-2.1-2.8-3.1-4.2-.2-1-.9-1.5-1.6-2.3-.6-1.7-2-2.9-2.7-4.5-.5-.6-1-1.1-1.3-1.8-1.2-1.6-2.8-2.8-3.7-4.6-2.1-3.6-4.5-7-7.5-9.8-1.8-1.7-3.8-3.9-6.5-3.9,1.5-1-1-1.4-1.8-1.3-1,1-1.6-.4-2.3-1.1-1.2-1.2-2.4-2.3-3-4-.5-1.9-1.2-3.7-1.4-5.6-.7-1-.6-2.3-.9-3.4-.9-2.7-1.6-5.5-2.3-8.4-.6-1.7.2-3.6-.6-5.2-.8-1.3-1.7-2.6-2.3-4-1.3-3.2-2.6-6.4-4-9.6-.8-2.3-2-4.5-3.2-6.7-.3-.9-.5-1.6-1.1-2.3-.3-.4-.9-1.6-.9-1.6,1.1-.4,1.1.2,1.7.9.2.7.9.7.8,0,.8-1.2.8,1.1,1.7,1,.9-.4,0-1.9.4-2.8.2-1.1-.4-2.1-.7-3.2-.3-1-.5-2.2.4-2.8-.4,0-1-.4-1.2.2-1,.9,0,2.1.1,3.1.1,1.1-1.2,1.1-1.1,2.1-.4-.2-1-1.6-1-2.4,0-1.1-.7-2-1.5-2.6-.9-1.1-1.2-2.5-1.8-3.7-.9-1.4-1.7-2.9-1.9-4.6-.5-2.2.2-4.5-.3-6.7-.4-1-1.6-.9-2.3-1.6-.5.2-1.7,0-1.4.8,0,1.7,1.2,3,2.1,4.3.6,1.2.9,2.5,1.3,3.8.4,1.1.3,2.2.8,3.2.3,1,1.3,1.5,1.8,2.4.5,1.2,1.3,2.2,1.8,3.5.4.8.4,1.9,1,2.7,1,.6.1,2.1-.9,1.6h0c-.7-1.8-1.4-3.7-2.3-5.6-.8-1.3-1.5-2.6-1.8-4.1-1.5-3.5-3-6.9-4.6-10.4-.9-2.4-2.4-4.5-3.3-6.9-1-2.7-2.5-5.3-3.9-7.8-.6-2.6-1.8-4.9-2.9-7.3-1-3.5-3.8-6.3-4-10-1.8-3-1.8-6.5-3.6-9.6-1.6-6.4-2.9-12.9-4.2-19.3.2-3.6-1.4-7-1.6-10.6-.7-3.6-.8-7.3-1.1-11-.8-3.6-.6-7.3-.9-10.9-.7-6.4-1.1-12.9-2.6-19.2-.2-1.3-.4-2.7-.6-4-.4-3.8-1.3-7.6-2.1-11.4-.7-2.8-.9-5.7-1.8-8.4-.7-2.8-1.9-5.5-2.9-8.2-.3-1.2-1.2-3.4.4-4,1.4-.9,2.7.2,3.5,1.4.4,1.6.5,3.3.9,5,.5,1.5,2.3,1.7,3.5,2.4,1.3.6,3.4,1.1,3,3-.2,1,.5,3.2-.2,3.6-1.1-.8-.9-2.1-1.4-3.2-.7.7-.1,2.2.2,3.2.3,2.3.7,4.7,1.3,7,.9-1.5-.1-2.5.1-4.3-1-.7.4-2.5.9-1.1,1,1,2.5,1.4,3.7,2,.9,1,2.5,0,2.9,1.6.6,1.2,1.4,2.5,1.2,3.9-.3,1.3.3,2.6,1.1,3.5,1,1.2,2.2,2.3,3.8,2.4,1.1-1.2,1.1.8.6,1.4-1,.7-1.5,1.9-1.7,3.1,0,1.5,1,2.8,1.5,4.2.8,1.3-.2,2.7.3,4.1.8,1-.6,2.7.5,3.1.2,1.5-1.4,2.5-1.1,4,.4,1.4,0,3.2-.9,4.2.7.6.4,1.8,1.5,2.2.1,1.4,1.3,1.4,2.4,1.6.5,1.2,1.7.3,2.6.9,0,.8-.5,2-.4,3,0,1.6-2.4,1.8-2,3.6-1,1.1.5,2.4-.5,3.5-.8,1.3-1.8,2.4-2.3,3.8,0,1.1-1,2-.7,2.9,0,1,1,1.8.4,2.8-1.3.9-1.5,2.3-1.6,3.7,0,1.3-.3,2.6-.5,3.8-.7,1.3-.5,3,.8,4,1.2,1.1,2.5,0,4,1.3.3.2.5.3.9.3.2-.3,0-.9,0-1.3,0-1.3-.1-2.5-.1-3.8.5-.4,1.1-.8,1.7-1.1.7-.4,1.6-.5,2.3-1,.4-.3.2-.9.5-1.3.6-.4,1.3-.5,1.9-.9.5-.2.2-.8.3-1.3,0-.4.4-.6.6-1,.4-.8.4-1.8.8-2.7.4-1,.1-2.1.7-3,.7-.8,1-1.9.3-2.8-.2-.8-1-1.2-.9-2.1-.1-.9-1.7-.8-1.3-2,.5-1.2-.9-1-1.5-1.7-.4-.6-1.8-.2-1.2-1.1,0-.9.1-1.7.3-2.5.4-.5,0-.7-.2-1.2.4-1.3,1.3-2.3,2.1-3.5.1-.5.1-1.1.1-1.7,0-1-1.3-1.6-2.2-1.2-.7.7-1-.2-1.8-.3-.7-.3-2.8.5-2.3-.9.4-1.3,1.2-2.5,1.3-3.9,0-1.1,0-2.1.2-3.1-.3-1.1-.1-2.4-.7-3.4-.3-1-1.8-1.4-1.8-2.5-1.1-.2-1-1.1-.8-2-.7,0-.3-.7-.6-1.2-1.1-.9-.2-2.2.6-2.8-.3.5,0,1.5.7,1.1-.6-.9.5-1.8.8-2.6.6-.7,1.9-2,1.3-2.9-1,.6-1.6-.7-1-1.4,0-.3-.1-.6,0-.9-.2-.6.4-.6.7-.8.4-1-1.3-1.6-1.7-.6-.8.5-1.7-.9-1.4-1.7.4-.9,1.8-1,1.6-2.2.3-1.2-.7-1.9-1.2-2.7,0-1.1-.8-1.8-1.2-2.8-.2-.9-.6-1.8-1.1-2.6-.5-.7-.7-1.4-.9-2.2-.7-.5-.8-1.2-1-1.9-.3-.9-2,.4-1.5-.7.9-.7.4-2-.7-2-.9-.3-.6.6-.7,1.1-.3.6.2,1.5-.4,2.1,0,.9.3,1.8.6,2.7.4.8,0,1.8.7,2.5,1,.7-.3,1.3-1,1.1-1.1.5-1.9-.5-2.8-.9-.9,0-.2-.6,0-.9-1.1-.6-.9.5-.8,1.2-.7,0-1.5-.1-2-.7-.4-.8,0-1.7-.7-2.4,0-.8,0-1.7,0-2.5-.3-1,.5-1.4,1.3-1.2-.5-.5-.6-1.3-1.1-1.7-.5-.3,0,1.1-.5.5-.9-.8-1.5-1.9-2-3.1-.6-1.8-1.7-3.4-2.5-5.1-.9-1.7-1.7-3.4-2.3-5.1-.1.1-.2.3-.2.5,0,.6,0,1.2.1,1.9-.3-.4-.6-.9-.9-1.4-.3-.4-.1-1-.2-1.5,0-.7-.2-1.5-.6-2.1-.4-.9-1-1.8-1.6-2.6-.6-.9-1.4-1.7-2.2-2.5-.3.3-.3,1-.6,1.3-.5.4,0,1,0,1.6,0,.6.1,1.2.3,1.8.2.5.3,1.1,0,1.6,0,.9.2,1.8.6,2.6.3.4,0,.7-.1,1.1.2.5.6,1,.9,1.4-.2.3-.9.2-1.3.2-.8-.2-1.6-.2-2.5,0-.3-.5-.5-.9-.8-1.4-.3-.8-.2-1.8-.5-2.6,0-.9-.4-1.6-.6-2.3.2-.9-.5-1.6-.7-2.5.3-.9-.4-1.8-.6-2.7-.2-1-.4-2-.8-3-.1-.8-.6-1.4-1.1-2.1-.3-.7-.2-1.6-.5-2.4-.2-1.5-.8-2.8-1.1-4.3,0-.6,0-1.2-.2-1.7-.5-2-.9-3.9-1.5-5.9-.3-.8-.5-1.6-.6-2.4-.2-.9-.6-1.7-.8-2.5-.5-1.3-.9-2.6-1.3-3.9-.3-.7-.8-1.3-1.1-2-.4-.2-.7-.6-.7-1.1,0-1.6-.5-3.1-1.2-4.6-.4-2.6-1.9-5-2.2-7.7-.2-1.9-1.3-3.6-1.7-5.5-.7-2.4-1.4-4.7-2.2-7.1,0-1.8-.8-3.5-1.5-5.2-1.4-3.2-2.5-6.5-3.7-9.8-.8-2-1.7-4-2.5-6.1-.3-1.3-.7-2.5-1.3-3.7-.8-1.5-1.1-3.2-1.8-4.8-1.2-2.5-2.4-4.9-3.6-7.4-1-1.6-1.1-3.5-2.5-4.8-2.1-2.5-3.3-5.7-4.7-8.6-.9-1.7-1.5-3.4-2.2-5.2-2.2-4.5-4.3-9-6.2-13.6-1.1-2.8-2.3-5.6-3.6-8.4-1.2-2.7-2.5-5.4-3.5-8.2-.3-1.1-1-2-1.5-3-.2-1.1-.6-2-1.2-2.9-.3-1.3-.9-2.6-1.4-3.9-.5-.9-.7-2.2-1.9-2.5.3-.3.7-.2,1-.2.5-.1,1-.5,1.3.2,1.5,0,3-.7,4-1.9.4-.6,1.1-.6,1.5-1.1.3-.5,1.1-.6,1.3-1.2.3-.7.8-1.3,1.2-2-.3.3-.7.6-1,.9-.5.6-1.3.9-2.1,1.1-1.1.3-2.2.9-3.1,1.6-.7.6-1.6.5-2.4.6-.6,0-1.3.4-1.4,1-.5.4-.5-1.1-.7-1.4.3-1.3-.6-2.3-.7-3.6,0-1.3-.7-2.5-.8-3.9,0-1.3-.9-2.4-1.1-3.6.1-1.4-.1-2.7-.5-4-.7-1.2-.2-2.6-.7-3.9,0-1.2-1.1-2.1-1.1-3.4.1-1.3-.7-2.4-.6-3.6,0-1.4-.4-2.6-1.1-3.9,0-1.6-.6-3.1-.9-4.7,0-.3,0-.7-.1-1-.6-1.6-1-3.3-1.5-5-.1-1-.2-2-.6-3-.8-2.1-1.2-4.3-1.6-6.5-.3-2.6-1.2-5-1.8-7.5-.4-2.1-1.2-4.1-1.9-6.1-.3-1.2-1.5-2.1-1.4-3.4-.2-.7-.7-1.3-1-2-.7-1-.8-2.3-1.4-3.4-.9,0-1.4-.8-2.2-1.2-.8-.3-.2-1,.4-.9.2-.2.8-.2.8-.2.2,0,.8-.2,1-.6.3-.8.4-1.7,1.3-2.1.1-1,1.2-.9,2-1.1-.6,0-1.1-.2-1.7-.2-2-.4-2,2.3-3.3,3.1-.8,1.1-.8,0-1-.9-.9-1.8-1.3-3.8-2.1-5.7-1-1.5-.9-3.4-1.8-5-.4-1.4-1.4-2.7-1.3-4.2-.3-1.8-1.7-3.2-1.7-5-1-2.2-1.4-4.6-2.5-6.7-.4-1.4-1.8-2.4-1.4-3.9-1.7.2-1.7-1.7-2.3-2.7.5-1,.5-2.5,0-3.8-.1-.2-.3-.4-.4-.6-.9-1-1-2.4-1.6-3.7-.5-1.2-1.3-2.3-1.7-3.6-1-1.5-1.6-3.2-2.6-4.8-1.1-1.7-1.8-3.5-2.9-5.2-.6-.8-1.2-2.5-2.4-2.2-1.1-.9-2-2.1-3.3-2.8-1.2-.5-2.5-.9-3.7-.4-.5.7-1.9,1.3-2.1,0,0-1.6-1.8-1.5-2.7-2.2.1-1.3-.1-2.6-.6-3.9-1.3-2.9-2.4-6-3.4-9.1-.3-1.8-1.6-3.3-1.6-5.1-.7-1.6-1.8-4.7-1.8-5.1-.2-.4-1.2-3.3-1.3-3.7-.6-1.2-1-2.7-1.5-3.5-.7-1.5-1-3-1.8-4.5-.5-1.5-2-2.7-1.9-4.5-.7-1.5-1.6-2.9-2.4-4.4-.2-.4-.5-.8-.8-1.2-.2-.2-.4-.3-.6-.5-.1-.1-.1-.3,0-.5.2-.1,0-.5-.2-.5-.6-.4-.8-1.1-1.3-1.6-1.1-.5-1.3-1.7-1.9-2.7-.8-.6-1.7-2.4-2.8-1.4-.5-.8-.9-2.3-2-2.8-.9,0-.9-.6-.9-1.4-.5-1-2.2-1.2-2.1-2.5.8-.2.4-.5-.2-.6-.9.5-1.8.5-2.8,0-1.5,0-.4-1.7-1.2-2.3-1.1-.1-1-.9-1.2-1.8-.7-1.3-1.5-2.6-2.5-3.6-1-.6-2-1.2-2.7-2.2-.2-.3-.4-.7-.6-1-1-1.2-1.9-2.5-3-3.6-1.2-.4-1.3-1.5-2.2-2.2-.9-.8-2-2-3.3-1.6-1.1.2.3,1.1-.6,1.2-1.3.7-1.8-1.2-2.8-1.6-.7.4-.7,0-.8-.6-.4-1.8-1.8-3.2-2.8-4.8-1-1.2-1.8-2.7-3.1-3.6-1.4,0-.9-1-1-2-1.4-2.2-3.2-4-4.8-6-1.5-2.3-2.6-4.8-4.4-6.9-1.6-2-3.1-4-4.7-6-1.3-1.2-2.8-2.2-4.2-3.3-.9.2-1.4,1.3-2,2-.5,1.2-2-.1-2.4,1.2-.3.6-.7.9-.9,0-.9-1.9-1.5-3.9-2.6-5.7-.2-.3-.3-.6-.5-.9-.2-.3-.6-1-.7-1.2-.1-.2-.6-1.1-.6-1.3-.5-1.2-.7-1.7-1.1-2.9-.6-1.4-1.3-2.8-2-4.2-.4-1.2-.7-2.4-1.3-3.5-.6-1.7-1-3.5-1.9-5.1-1.1-2.2-1.8-4.7-2.8-7-.8-2.5-2-4.9-3-7.3-1.4-4.5-7.2-20.6-8.6-22.4-1.5-4.5-5.9-14.1-7.8-16.4-1.4.5-1.9-1.2-2.1-2.2-.4-1.1-.7-2.5-2.1-2.6-1-.8-.8-2.5-1.5-3.5-.7-1.3-1.3-2.6-2.1-3.8-.6-1.2-1-2.5-1.3-3.7.5-1,2.2,0,2.7-1.1.2-.5,0-1-.1-1.4-1.3,1.4-2.9.9-3.2-1-.6-1.1-1.8-2.5-1-.4.6.8.9,3.8-.3,1.7-2.6-5.9-4.3-12.2-6.8-18.2-1.3-2.8-3-5.6-3.8-8.6-.6-2.9-2.1-5.4-3.3-8.1-1.7-3.5-2.8-7.3-4.6-10.7,0-1.2-.3-2.5-1.5-.9-.5-2.5-.7-5.1-2.3-7.2-.5-1.2-.6-2.2-1.1-3.4-.8-1.8-1.4-3.9-2.3-5.7-.6-1.2-2.2-1.8-2.2-3.2.3-1.3-.8-2.1-1.1-3.2-.4-1.3-1.4-2.4-1-3.8.2.3.4.7.8.4.4,0,.7.2,1.1.2.6,0,1.2,0,1.8,0,.5,0,.8-.6,1.3-.6.4,0,.7,0,1,.2.3,0,.6,0,1,0,.3-.5.5-.9.9-1.4-.6,0-1.2-.2-1.8,0-.6,0-1.1-.2-1.7-.2-.5.1-.9.5-1.4.3-.6-.2-1.2-.4-1.6-.8-.6-.9-.8-1-1.6-.7-.1.2-.3.3-.3.6-1.9.1-2.2-1.8-2.1-3.4-.5-3.4-1.4-6.7-2-10.1,0-2.7-1.1-5.1-1.5-7.7-.6-2.9-1.1-5.9-1.9-8.8C58.2,1,58.2.5,58.1,0H0ZM348.1,608.9c.4.2.8.4,1.2.7.8.4,1,1.4,1.2,2.2.4.8.7,1.8.7,2.7.1.8-.7,1.3-1.4,1.4-1,.6-1.3-.6-1.2-1.3,0-1-.3-1.9-.5-2.8,0-1-.4-1.9-.2-2.8ZM351.3,617.2c1.2.6,2.8.6,3.5,1.9.8,1.6,1.7,3.2,2.6,4.8.3.8,1,1.5,1,2.4-.7.4-1.9-.6-2.8-.8-1.1-.3-1.9-1.1-2.5-2.1-.5-1.3,0-2.9-.6-4.2-.2-.8-1.7-1.1-1.3-2ZM369.4,636.9c.3.5.5,1,.7,1.5.2.6.6,1.2,1.2,1.6.4.3.9.4,1.3.8.2.7.1,1.5.3,2.2.2.9.7,1.6,1.1,2.4-.2.2-.4.4-.7.6-.6,0-1.1,0-1.7-.2-.5-.2-.9-.6-1.3-.9-.3-.3-.8-.5-1-.9.1-.4.8-.5.9-1,.2-.6,0-1.2.1-1.8.2-.6-.2-1.1-.6-1.4-.4-.3-.3-.9-.4-1.3-.2-.5-.2-1.2.3-1.5Z"/>
    <path id="path131140" class="st1" d="M347.5,301.7c-1.1.4-2.6.3-3.4,1.3-.8,1.2-1.6,2.3-3.2,2.4-1.6.3-3,.9-4.1,2.1-.8.6-1.8,1.4-.8,2.3.3,1.4-1.4,1.8-2.4,2.2-1.5.2-1.9,2.1-3.5,2.2-.9.4-1.8.8-2.7,1.3-.4,1.4-1.5,2.7-1.2,4.3.3,1.4,1.1,2.8,0,4.1-.9-.6-1.9-1.8-2.4-.3-1.1.9-1.7,3.7-3.3,2.2-1.1-.3-1.4.7-1,1.6-1.5.7-1.3,2.3-1.3,3.7,0,1.3.5,2.7-.4,3.8-.8,1.3-1.2,2.8-.3,4.1.3,1.4,2,1.5,3,2.2.4-.3.6-.9,1.2-.5-.3,1.4.8,3.4-1.1,4.1-1.8.9-4,.7-5.7,2-1.4.3-1.2,1.4-1,2.6-1.8.4-2.5,2.1-4,3.1-1.2,1.2-2.7.1-4.2.5-1.2.6-2.7-1.3-3.5,0-1,1.4-2.6,1.9-3.8,2.7-.5-.4-.9-1-1.5-1.2-1.1-.1-1.6-1.4-2.6-1.6-.7.6-1.6,1.1-2.1,1.9-.2,1-1.2,1.5-2.1,1.8-.9.5-1.9.3-2.8.2-.8.4-1.9.2-2.6.8-.6.8-1.1,2.2-2.3,1.8-.9,0-1.5-.8-2.2-1.2-1.6-.3-.3,2.1-1.2,2.6-1.1-.1-2.1.2-3,.7-1.2.4-1.1,1.7-1.7,2.5-.5.8-.9,2.2-2.1,1.8-.4,1.3-1.8,2.8-1.6,4,.6.8,1.6,1,2.5,1.4.6.5,1.3,0,1.9,0,1.1-.1,1.8.7,1,1.6-.3.9-.9,1.6-2,1.7-1.1.5-2.5-.2-2.9,1.3-1.1.8-1.7,2.1-2.5,3-1,.3-1.3,1.5-2.4,1.7-.7.4-1.1,1.3-1.6,1.9" sodipodi:nodetypes="cccccccccccccccccccccccccccccccccccccccccccccc"/>
    <path id="path26898" class="st5" d="M384.3,273.4c1.3.8,2.9.8,4.4.9,1.3.5,1.9-.6,2.6-1.4.9-1.1,1.9-2.2,3-3.1,0-.3-.2-1.2.2-1.1,1.3.6,2.5.4,3.2-.9,1.4-1.5,2.8-3,4.2-4.4.9.5,1.9.9,2.6,1.6,1.2.9,2.5,1.8,3.7,2.8.4.6,1,1.2,1.2,2,.2.5.4,1,.3,1.6,0,1,.3,2,.5,3,.2,1.3.5,2.7,1,4,.2.6.6,1.1.5,1.7,0,.3-.2.9.3.9,1.3.5,2.6.9,3.9,1.3.5-.2.9-.5,1.4-.7.3.2.8.2,1,.4.1.4.3.7.8.6.6,0,1.2,0,1.8.4.5.4,1.2.2,1.8.2.4,0,.7,0,1.1,0,1.8-1.2,4-.4,5-.4,1.7-.2,3.3-.9,5-.6,1.6.1,3.3.9,4.9.2,2-.1,4.1.2,6.1.2,1.5,0,3.2.4,4.7-.3,1.6-1.6,2.1.6,3.7.3.9-.3,1.7,1,2.7.4,1-.4,2.1-.4,2.4.8,1.1.3,2.4-.7,3.5,0,.9,1.1,2.3-.6,3,.7.5.9,1.5,1.4,2.5,1.6.8,0,1.6.5,1.7,1.2.7-1.3,2.1-1.9,2.1-3.4.7-1.2-1.8-1.5-1.2-2.8-.9-.4-2-1.1-1.4-2.4-.7-.4-2.2-.9-2-2.3-.4-1.7.1-3.5,1.4-4.6.2-1.2.9-2.2,1.4-3.3.5-1.1.5-2.5,1.6-3.3.7-.6,1.3-1.1.6-1.9.8-1.2,2-2.3,3.2-3.1,1-.6,1.9-1.4,2.2-2.6,0-1.2.6-2.4.9-3.6,1.2-1.7,0-3.9,1.1-5.3.2-1.9,2-3.1,3.7-2.2,1.8,0,3.5.2,5.1.7,1.3-1.8,2.7,0,3.6,1.3.6.9,1.4,1.6,1.9.1.5-1.5,1.5-2.8,2.3-4.1-.2-1-.8-2.6.8-1.8,1.8.4,3.5-.2,5.1-.7.4,1.1,1,1.5,2.1.9,1.9.4,2.8,2,3.3,3.4.2,1.4-1.8,2.4-1.5,3.7,1.8,1,2.4-2.2,3.7-2.9,1.4-.4,3.3-.2,3.9,1.3-1,.9-3.2,2.6-1.4,3.8l3.9,4.7c-.9,1.9,2.3,1.1,3.3,1.3,1.9-.4,2.1,1.9,3.8,2.1,0-1.1-.2-2.2-.7-3.3-.4-1.1-.4-2.3-.5-3.5.9-1,.3-2.6,0-3.4,1.1-.4,2,.4,3.1-.1,1.1.4,2.5.7,3.2-.6.2-.8.5-1.5,1.5-1,1.2,0,2.3-.9,3.6-.6,1.1,0,2.4,0,3.3-.7,1.1-.7,2.5-1,3.8-1.1,2.1-.4,4.3-.2,6.5,0,1.1-.4,2.3-.8,2.8-2,.1-.6,0-1.2,0-1.8,2.5.6,4.8,1.9,7.3,2.6,1-.2,1-2.4,2.1-1.2,1.5,1.3,2.9,2.8,4.3,4.3,1,1.2,2.2,2.1,3.3,3.1,1.5-.5,3.3-.5,4.5-1.5,1-.5.8-2.9,2.3-2.3.6,1,2.1.2,3.2.4,1.7-.4,2.9,1.2,4.3,1.8.8.9,2.5.7,3.1,1.3,0,.7,0,1.3.2,2,.4-.1,1.3.3,1.2-.3.1-.8,0-1.6.5-2.2.3-.8,1.2-1.2,1.8-1.8-.1-.5-.3-1,.2-1.4.4-.3,1-.5,1.1-1,.3-.8.8-1.6.7-2.5.1-.7.1-1.5.3-2.2.3-.5.9-.8.8-1.5,0-.7.6-1.1.8-1.7.4-.8.5-1.8.8-2.7.2-.4.2-1,0-1.4-.6-.1-1-.3-.6-.9.4-.5-.3-1.2.2-1.6.5-.7.3-1.6.5-2.4-.3-.6-.4-1.1-.3-1.8,0-.7.3-1.4,0-2.1-.3-.4,0-1.2.5-.9.7.3,1.6.4,2.1,1.1.3.7,1-.2,1.1.6.2.5.5.9,1,1.1.2-.1,0-.9,0-1.3-.1-1-.2-2.1.3-3,.5-.9.5-2,.8-3,.2-.9.4-1.8.2-2.7-.2-.5,0-.8.3-1.3,1.1.6,2.4.9,3.6,1.1.8.1,1.6.3,2.3.3l1.8.8c.7-.4,1.4-1.1,2.2-1.2.9-.2,1.8-.5,2.7-.7l4.8,1.4c.6-.4,1.1-1,1.9-1,.4-.2.8-.2,1.2.2.4.4.8.4,1.1,0,.5-.5,1.2-.3,1.8-.4,1.9-.5,3.8-1.1,5.6-1.6.6-.3,1.2-.5,1.7-1,.5-.2.9-.2,1,.4.2.5.6.6,1.1.6.5,0,.9.3,1.4,0,.2,0,.4-.1.6-.2.8-.3,1.2-.5,1.1-1.7l.4-1.7c.9-2.9,1.8-5.8,3.2-8.5,1.1-2.8,2.9-5.3,4.9-7.6.8-3.6,4.2-4.5,6.8-6.6,1.8-2.5,2.6-5.5,5-7.6-.4-2.8-6.7-3.3-5.4-7.2-.2-2.3-2.5-4-3.4-6-3.2-1.6-7-.8-10.3-2.7-2.6-1.6-5.7-1.6-8.6-.9-1.4-1.6-3.7-.4-5.4-1.7-2.3.7-5.2,2-7.7,1-2.4,1.5-5.2-2.2-7.1,0-3,1.2-6.4,1.4-9.4-.3-2.7-.9-3.8-2.8-1.7-5.3.7-1.5-.5-3.1-1.9-3.7-.2-1.5,1.1-2.6,1-4.1.5-1.6,2.3-3.4,4-3.4,1.3-1.5,2.3.5,3.5.8,1.3-.5,3.4,0,3.6-1.8.2-1.9,2.3-1,3.6-1.4,1.3-.4.6-2.5,2.3-2.6,1.4-.2,1.4-1.7,1.9-2.8.2-1.4,1.6-2.9,2.2-4.3,1.8-1,1.7-3.8,4.2-3.6,1.8-.7,1.1-1.5,2.1-2.8.1-1.7-.1-2.9.3-4.5.2-1.6,2.4-2.6.8-4.2-.4-1.4.4-2.8.5-4.2-1-1.3.5-2.5.5-3.9,0-1.4,1.1-3.3.2-4.4-.4-.4-.9-.9-1.3-1.3-1.1,1.6-2.6,3-4.2,4.3-1.2-.4-3.4-.4-4-1,1.6-2.1,4.1-3.3,5.8-5.3,1.1-1.9-1.2-1.7-2.4-1.7-1.2-.4-3.5,0-2.7-1.9-.2-1.6-.4-3.3-.7-4.8-1.3-1-.8-2.8-1.1-4.3.1-1.6,1.5-2.8,1.9-4.5.9-2.1-.3-4.8,1.3-6.6.8-.5,1.6-1,2.2-1.8-.5-1.2-.3-2.2-1.5-2.9-.6-1.4-.3-3.6.5-4.6,2.4-.7,4.8-1.6,7.3-2.3,1.6-.3,3.3-.4,4.8-1,1,0,2.8.3,3.3.8-.5.7-.9,1.3,0,1.9-.3,1.2-.7,2.5,1,2.2,1.3.6,2.5-.7,3.9-.1,1.7-.4,1.8-2.8,2.1-4.3.2-.5,2.6,0,2.1,1.1,0,1.8,2.2.1,3.3.6.4-1,.5-2,0-2.9-1.3-1,0-1.9.7-2.8,1,.6,3,1.8,3.6.2.9-1.2,1-2.8,2-3.8,1-1.8-2.5-.6-1.9-2.5,0-1.4,1.6-1.9,2.8-1.7,1.3-.4,2.8-.8,3.4-2.1.6-1-.3-1.2-1.2-1.5-1.2-.6-1.6-2.4-.5-3.2.9-.8,1.3-1.9,1.9-2.9.7-.8,1.7-1.5,2.7-1.1.6-1.4-2-2.2-1.1-3.7-.3-1.6,2.4-.2,1.2-1.8-.2-1,1.1-2.8-.8-2.2-1.3,0-3-1.8-1.6-2.8.5-.6,1.2-1.4,2.2-.7,1-.2,1.8-1,3-1.1.5-1.2,2.1-1,2-2.4.9-1.6,3.1.5,4.5-.2,1.4-.4,2.9.2,4.2-.4,1.5-.4,3.4.6,3.8-1.4.9-1.4,3.3.3,3.4-1.7,1.5.6,2.4-.4,3.5-.9,1.4-.4,2.5,1.8.5,1.7-1.7,0-.5,1.9.7,1.4,1.5-.4,2.3,1.6.5,1.7-.4,1.6-3.3,1-2.8,3.2-.5,1.2-2.3,4.6.4,4,.7.8,2.3,1.9,3.3,1.1l1.2-3.2c-1.3-1.1-2.2-3.3-.2-4.1,1.7-.4,2.2.9,1.6,2.2,1.2,0,2.8.1,1.8,1.9-.8,2.1,1.8,1.7,3,1.4.3,1.3,1.2,2,2,2.9v2.6c1.3.2,2.5-.5,3.7-.1v-2.4c-1-.5-1.6-1.3-.4-1.8.1,0,.2-.2.4-.3"/>
    <path id="path152919" class="st1" d="M507.9,557.7c.5,0,1,.2,1.3.5.8,1,1.2,2.2,2.2,3,.9.6.8,2-.2,2.4-1,.7-2.3.8-3.5.8-1-.4-1.9.1-2.9.3-.6.7-2.3.8-1.4,2,.7,1.2,2.2,1,3.4,1.4,1.1.4,2.2,1.8,3.3.7,1-1.1,3.3-.4,3.2,1.2-.3,1.1.5,1.8,1.5,1.9,1.1.2,2.1.9,2.7,1.8-.2.2-.4.5-.6.6-1.2.2-1.9,1.4-3.1,1.6-1.4.3-2.7-.5-4-.8-1.2,0-2.4,0-3.2.9-1.2,1-2.2-.7-3.4,0-1.2.2-2.6,0-3.6.8-.9,1.1-2.1,2.1-3.5,1.2-1.2.4-2.8.6-3.6,1.7-.3,1.4-2.1.8-2.8,0-1.1-1.3-2.8-.1-4.1-1-.9-.6-1.8-1.2-3-1.1h0c-.4,1.1-.3,2.3-1.5,2.6-.6.9-1.2,1.6-1.8,2.4-.5,1-1.3,1.7-1.8,2.7,0,1-.4,1.9-1.1,2.6-.9,1-2.1,1.8-2.5,3.2-.6.7-1,2.7-1.9,2.2-.8-.8-1.9-.9-2.5-1.8-.9-.2-1.9-1.6-2.4-.2-.3.3-.8.3-1,.7-.2,1.1.8,1.9,1.1,2.9.9.8,2.3,1.2,2.5,2.5.6.4,1.4,1,.2,1.2-1.6.1-3.2-.5-4.8-.5-1.7.2,0,1.8,0,2.4-1.1.7-2.4-.1-3.6,0-1.6,0-1.2-1.9.2-1.9,1.3-.5-.2-1.3-.9-.8-1.2.5-2-.4-2.9-.9-1.3.2-1.7-1.6-2.9-1.4-1.4-.1-2.5-1-3.8-1.4-.9-.7-2.1-.2-3.1,0,.6.5.8,1.3,1.3,1.9,1.2,0,1.4,1.7,2.6,1.6.8.6,1.3,1.9,2.5,1.7,1.6-.3,2.3,1.2,3.1,2.2.9,1.2,2.3,1.3,3.6,1.5.7.8,1.8.8,2.8,1.3.9,1.1,2.3,1.5,3.7,1.7-1,.7-1.1,2.4-2.3,2.6-1.4-.6-2.9-.9-4-2.1-.9-1.1-2.6-.9-3.6-1.8-1.4-.9-2.2.1-3,1.2-1.5.9-3.1,1.7-4.6,2.6.3,1.2,1.5,2.7.9,4.2-1,0-1.5.6-1.1,1.6-.5.1-2-.8-2.8-1.1-1.3-.7-2.6.5-3.9.7-.3.2-.6.3-.9.5-.6.3-1.2-.7-1.7-1-.4.4-1,.1-1.6,0,.3,1.4.5,2.8,1,4.2.3,1,1,1.9.8,2.9.1,1-.5,1.6-1.4,2,.2.6-.2,1.3-.6,1.9-.4,1-1,1.8-1.7,2.6-.7-.2-1.3.2-1.8.8v.7c.3.2.5.4.8.6.3.3.8.5,1.1.9.2.7-.5,1.3-1.1,1.5-.8,0-1.4-.8-1.9-1.3-.3-.8-.9-1.3-1.8-1.1-.9-.3-1.5.8-2.4.5-.7-.5-1.7,0-2.3-.4-.8-.5-1.5.3-2.3.2-1.2,0-2.1,1.4-1.8,2.5,0,.9-.1,1.7.1,2.5,0,.7,0,1.6.6,2.1.8.5.9,1.7.3,2.4-.8.8-.4,2-.8,3-.6-.2-1.3-.4-1.8-.3-.7.5-1.5,1.1-2.2,1.6,0,.6,1.6,1.2.8,1.6-.5.4-.8.3-1.1-.1-.5,1.1-1.1-.7-1.9-.5-.9-.5-1.6,0-2.4.4-.5.4-1.6-.1-1.3.9-.2.8-.2,1.5.1,2.3-.3.7-1.3,1.9-2,1.2-.8-.9-1.7,0-2.3.8-.6.8-.2,2.2-.7,2.9-.7.1-2.1,1.2-2.2,0-.2-.6-1-.7-.6-1.5.2-.7-.6-1-.5-1.8.1-1.2-1.3-1.1-2.2-1.2-.5,0-1,0-1.5,0-.6-1.7-1.1-3.4-1.7-5.2-1-.5-2.5-.6-3.6-.5-.9-.5-1.3.8-2.2,1-1.1-.3-3-2.5-3.8.8-.9.2-1.1-.7-1.6-.2-.9.8-1.9,1.6-2.5,2.6-1.4.6-2.9,1.3-4.4,1.7-1,.4-2.2.1-3-.6-.3-.2-.5-.4-.9-.4l-1.8-.9-1.1-1c-.6-.8-1.2-1.6-1.7-2.7-.3-1.1.8-2.3,0-3.2-.8-.9-1.3-1.9-1.8-2.9-.5-.7-1.3-1.9-2.2-1.1-1.2.7-2.7.4-4,.5-1.2,0-2.3-.6-3.4-1-.9-.5-1.8-1.7-2.8-2.2-1.2.1-1.3,1.8-1,2.8.2,1.3-.4,2.2-.2,3.4.7.8-.1,1.4-1.4,1.5-1.2.5-.9,2.3-.8,3.4-.2,1.1-.9,2-.2,3,.2.9.9,2.3-.2,2.6-.9,2.1,1,3.3-.6,4.1" sodipodi:nodetypes="ccccccccccccccccccccccccccccccccccccccccccccccccccccccccccccccccccccccccccccccccccccccccccccccccccccccccccccccccccccccccccccc"/>
    <path id="path154356" class="st1" d="M484.5,728.9c.4-.8,1.2-1.4.3-1.8-1.1-1,.8-1.6,1.6-1.7.9-.8,1.5-1.9,2.3-2.8,1.4-.7,3.1-.9,4.6-1.3.6-1,.6-2.2-.1-3,.6-1-.8-2-1.1-2.9-.4-.9-1.6-2.1-2.4-1.9-.9.6-1.5,1.5-1.9,2.5-.6,1.3-2.3,0-2.9-.9-.7-.7-1-1.6-2-1-1.8-1.3-3.3-2.8-5-4.3-.4-.8-.4-2.1-1.1-2.6l-2.3-.2c-.1-2.1-.4-4.1-.3-6.2-.5-1.2-1.1-2.9.7-3.1,1.6-.3,0-2.2.5-3.4-.4-1.2-.6-2.6-.7-3.8.5-.3,1.5-.4.9-1.3.2-1.6,2.4-2.1,3.2-.5,1.3,1.1,2.8,1.8,4.3,2.7.8-.7,1.3-1.4.2-2.1-.9-1.2-2.6-2.3-2-4,.6-.5,2-1,.7-1.9-1.1-.9-1.9-2.2-2.7-3.3-.5-.4-1-.8-1.4-1.1,0-2.4-1.4-4.4-2.3-6.5-.7-2.5-3.7-2.4-5-4.2-.5-1.8-1.7.7-2.5-.9-1.6-1.7-2.8-3.9-4.4-5.6-1.1-1.4-2.1-3.1-3.6-4.4-1.9-1.9-4.2-3.3-6.4-4.8-1.9-.5-3.6-1.3-5.4-2-1.2,1.2-2.3,3.1-4,1.4-1.6-1.1-3.6-1.3-5-2.9-1-.6-2.6-.5-2.5-2.1-1.1-.5-2.5-.4-3.3-1.4-1.1.3-1.9-2-3-.5-1.4.6-3-.2-4.4-.5-1.1-.6-4-.8-2.3-2.6" sodipodi:nodetypes="cccccccccccccccccccccccccccccccccccccccc"/>
    <path id="path252" class="st1" d="M555.8,760.9c-1.6-.3-2.6-1.7-4.2-1.7-.8-.9-2.2-1.8-3.3-1.6-.1.3,0,1.5-.4,1.1-.4-.5-.8-.6-1.1,0,0-1.3-.3-2.4-1.8-2.8-1.2-.3-2.8-.7-3.2-2-1-1.4.6-2.3,1.4-3.3,1.2-.8-1.4-1.7.3-2.3,1.5-1.1-.6-2.5.3-3.7.2-.4.6-.7,1-1.1-.5-2.1,1.7-3.8.9-5.8-.9-1.9-3.4-3.6-3.2-5.6.3-.8-.4-1.4-1.1-.9-.5-1-.7-1.8-.4-2.9-1-.4-2-1.5-2.7-1.9-1.4.7.6-1.2-.7-1.4-.9-1-3.4.8-3.9-1.1-1.7.2.2-1.7-.8-2.2,0-2.5-2.5,1-2.8.7.3-.8-.4-.8-.5-1.6-1.9,0-3.2.6-4.6,1.9-.2-1.1-.5-2.3-.2-3.5,1.2-1.4-.2-2.9-1.7-2.8-1.1,0-1.3,1.8-2.2,2.3-1.2.8-3.3-.6-4.2,1-1.2,1.1-2,2.9-3.7,3.2-1.3.4-2.7,1.8-3.7,0-1.3-.4-2.8-.3-3.1,1.4.2,1.4,1.1,2.6,1.7,3.9.9,1,1.6,2.1,2.1,3.4-1.2,0-2.5-.4-3.7.1-1.2.3-2.4.6-3.4,1.1-.8.8-2.3.7-3.3.2-.4-.3,0-1-.2-1.5.4-1.4-1.3-.2-2-.6-1-1.3-2.7-.5-4.1-1.1-1.5-.2-2.9-.9-4.5-1.1h-4.2c0,.5-.2.9-.2,1.4-.6,0-1.2.6-1.9.8-1,.6-1.4-.4-1.3-1.2-.5-.8-1.8-.3-2.6-.7-1.3-.8-2.6-1.6-3.7-2.6-1-.8-2.3-1.1-3.5-1.1-1.3-.4-2.5-1.3-3.6-2.1-.6,0-.5,1.5-1.1,1.9-1.1.3-2.1-.6-3.2-.6-.9-.5-1.5,1.7-2.1.4-.4-1.1-1.5-1.5-2.5-1.1-.8,0-1.9-.5-2.1.6-1.5-.9-.7.4-1.4,1.2-1.4-.7-3,0-4.2.8-1.2.9-2.4,0-2.4-1.4.2-1.6-2.1-.2-1.8-1.6.9-1.2-.2-2.3-.6-3.4-.8,0-2.6-.5-3.3.5.3,1-.4,1.5-1.4,1.7-1.3,0-1.9,1.9-3.3,1.3-.4-1-1.4-1.6-1.5-2.7.6-1.9-1.5-2-2.8-1.9-.9-.7-1.9-1-2.9-.5-1.6-.3-3.4-.4-4.9.4-1.4,0-1.1,1.2-1.6,2.2-.3,1.1-1,.5-1.3-.2-.9-1.1-1.8,1-1.1,1.7-.9.2-3.3-.6-3.4.7.2,1.6-1.6-1.4-1.5.3.3,1.2-.5,1.2-1.4,1.7-1.6.3-.5,1.6-.5,2.5-.7,1.2.2,2.1.6,3.2-.5,1.3-1.8-.6-2.8-.6-1.5,0-2.3,1.8-3.8,2-1.7.8-1.1-1.5-2.3-1.9-1.6-1.1-1.8,1.5-3.1,1.3-.8-1.1-.9.9-1.7.4-.2,1.2-1.4.9-2.3.9v1.5" sodipodi:nodetypes="cccccccccccccccccccccccccccccccccccccccccccccccccccccccccccccccccccccccccccccc"/>
    <path id="path30308" class="st1" d="M287.1,217.7c0,.9-.1,1.6-1,1.9-.8.2-1.7.3-2.1,1.1-.4.6-.4,1.3.2,1.8.5.5.6,1.3.9,2,0,1.3,0,2.7-.6,3.9-.8.6-2,.7-2.9,1.1,1,1,2.3,1.8,3.6,2.6-.2.7-.7,1.4-.6,2.1,0,.7.3,1.5-.2,2-.9.6-.3-1.1-1.3-1-.7.5-1.5,0-2.2.4-.8.3-1.7.6-2.6.1-.7.2-1.2,0-1.8-.4-.9.4-1.6,0-2.3-.5l-1.7.2c-.7-1-1.8.2-2.7-.4-1,0-1.3-1.2-2.1-1.4-.7,0-1.3.7-2,.9-.9,0-1.8,0-2.5-.6-.4-.3-.8-.5-1.3-.4h-1.2c-.5.6-.6,1.5-1.3,1.9-.7.7-1.6,1.3-2.1,2.2-.2.6-.5,1.4-.3,2,.7.8,1.7,1.5,1.6,2.7.1,1-.6,1.9-1.6,2-.9.1-1.7.6-2.1,1.4-.3.4-.4,1-.6,1.4-.8-.9-2.1-1.1-3.2-1.1-.7,0-2.2-.4-2.2.6-.1,1,.9,1.3,1,2.2.5,1.1-1,1.1-1.7.9-.8-.5-1.6-.4-1.7.6-.7.7-1.7,0-2.1-.7-.4-1-1.3-1.5-2.2-2-.9-.7-1.9.1-2.7-.7-.9-.4-2.2-.2-2.3.9l-1.1,3.5c-1,.6-2.4,1.1-3,2.1-.3.5-.2,1.4-.9,1.7-.6.2-1.2.5-1.7.7-1.5,1.7-3.3,2.2-5.1,4.1-.5-.2-1.2-.8-1.7-.7l-.7,1.2c-1.1.3-2.1.7-3,1.4-.5.4-1.1,1-1.8.7-1.2-.2.6,1,0,1.6-.2.7.1,1.5.9,1.6.5.3,1.5.6,1.1,1.3,0,.9-.9,1.3-1.7,1-.6-.2-1.4-.4-1.9.1-.6.6-1,1.6-1.8,1.9-.6.2-1.5.9-1.9,0-.6-.5-1.5-1.1-.8-2,0-.6-.3-1.2-.7-1.7-.5-.6-.8-1.5-1.7-1.7-.5,0-1.1,0-1.6-.1"/>
    <path id="path9348" class="st6" d="M205.4,264l1.3-.9h.7l.5.5.3.7s-.4.3-.5.5c0,.8-.2,1.2-.8,1.8"/>
    <path id="path163082" class="st6" d="M517,957.7c.7-.3,1.9-.2,2.1-1.2.9.1,1.5,0,.8-1-.8-1.1,0-1.2.9-1.2.9-.5,1.8-1.4,2.8-2,1.7-1.2,3,.8,4.7.4,1.6-1.2,1.4,1.6,2.8,1.5.7-1.7-2.6-3.1-1.3-5.1,1.3-.9.8-4-.9-3.3-.6.3-2.3,2.3-2.4,1.2-.3-1.5,2.2-2.2,1.3-3.8-.6-.8-2.5-2.3-.6-3.1,1.3-1.2,1.5,1.7,2.6,1.1,1-.7,1.9-1.7,2.6-2.7.3-1.7,1.8-2.8,3-4,0-.3,0-.6,0-.9,0-1.1.3-2.2.9-3.1.7-1.6,2.4-1.4,3.9-1.7,1.8.2,1.4-2.4.7-3.3-1.2-1-2.3-2.2-2.6-3.9-.5-1.3-.3-2.9-1.3-3.9-.2-.9,1.5-1.7,2.1-2.5h1.7c.9.8,1.9,1.4,2.6,2.4.4,1.3,1.6.6,2.1-.2.8-1,2.5-.7,3.4-1.7.6-1.9,1.2-3.7,2.2-5.4.9-1.1,2.1-2.8.5-3.9-1-1.5-1.1-3.4-1.9-5-1.1-1.1-2-2.4-3-3.6-1.2-.8-1.8-2.2-1.6-3.6.6-1.9-2.1-1.8-2.4-3.4-.8-1.4-2.2-2.4-3.5-3.5-.6-1.6-1.6-2.9-2.2-4.5.9-1.5.8-3.3-.1-4.7-1.3-1-.8-3.3-2.7-3.5-1.4-.8-2.5-2.3-2.1-3.9-.3-1.1-1.9-2.5-1.1-3.6.6-.2,1.3,1.3,2.3,1.2,1.3.5,2.4-.9,2.8-2,1.1-1.2-1-2.5.1-3.5.6.2,1.2.4,1.8.5.7.3,2.1,0,1.9-.8-.7-.4-.9-1.8.2-1.5.8-.3,1.6-.9,2.3-1.3.2-1.4,0-2.8.6-4.1.6-.3,1.7-.4,2.1-1.2,1-.5.2-1.7.9-2.4.3-.4.7-.7,1-1.1.7-1.3,2.7-2.4,1.5-3.9-.8-.8.8-1.2-.2-1.9-1.2-.8.1-1.6-.2-2.6-.2-.9-.5-1.9-1.6-1.7-1.2-.1-2.7-1.4-2.3-2.8.1-1.5-1.9-2.4-3.2-2.3-.5-.6-1.3-2.3-.8-3.1,1.2-.7.9-2.1-.5-2.1-1-.9-2.4-.5-2.7.8,1,.4.2.7-.4,1-.7-.7-.8-1.5-1.2-2.2,1.2-1.6,0-3.3.4-5-1.1-.6-.9-2-1.8-2.6-2.3-.4-1.8-3.1-3.1-4.4-1.1-.9-2.7-1.8-2.6-3.4-1.9,0-1.7-1.3-2.2-2.8,1-.7,3.5-1.6,2.6-3.5.5-2,2.7-2,4.4-2.2.4,1.3,2.4.6,3,.1-.9-2.2,1.8-3.6,2.2-5.6.4,0,.8,0,1.2,0,.5-.5,1.4-.8,1.4-1.6-.2-1.1.8-1.3,1.5-1.8.1-1,1.4-.7,1.5-1.7.1-.9.4-1.6,1.4-1.6.7-1.1,1.5-2.2,2.2-3.4h1c.5-.9.8-1.9,1.3-2.9.4-.6,1.1-.9,1.7-1.4,0-.6.2-1.1.8-1.3.9-.6,0-2,.1-2.9.4-1.3.5-2.6.6-4.2.5-1.2-.5-1.3-1.4-1.4-1.2,0-.7-1-.3-1.7-.3-1.5,1.2-.4,2-.8,1.2-1,2-2.5,2.9-3.7-.1-1.1-1.5-2.1-1.4-3.5.9-1,.8-2.2.8-3.4.7-.7.4-1.9.6-2.8.8-.6-.3-1.9,1.2-1.7.5-1.3-2.2-4.3-.7-5.7,2.1-.6,3.8-2.5,3.4-4.7-1.1-.9-.1-1.3-.3-2.3.7-1.1,1.9,0,1.7,1.3.6-.4,2.7-.2,2.1-1.2-.4-1.7,2-2.8,2-4.4,1-1.2-.6-2.2-.2-3.6-.8-1.5,1.8-1.2,1.2-2.4.3-1.1.8-2.6-.6-3.5-.6-1.8,1.8-3.2,2.4-4.9,0-.5-.1-1-.2-1.6,1.5-1,2.1-3,3.8-3.7,1.2.8,2.6,1.9,4.1.8,1.9-.6-.1-2.7,1.8-3.1-1.1-.8-1.8-1.9-1.5-3.3-.2-1.9,1.6-2.8,2.5-4,.3-1.9-2.5-.8-2-2.6.4-1.8-1-.7-2-.1-1.3,1.5-1.6-.6-2.8-.8-.6-1.2-2.6-1.7-2.3-3.2,0-1.2.3-2.8-.9-3.5-1.9.2-2.6-1.9-1.4-3.1,2.3.1-.4-2.5.4-3.6,0-1.4,1.1-1.2,2-1.4-.7-.6-1.5-.9-2.2-1.4-1,2-2.3,4-3.1,6.2-.7-.3-2-.8-2.8-1.3-.2-1,.1-2,.2-3,1-.5.3-1-.5-.7-.8-1-1.8-.7-2.9-.2-1.3.2-2.3,1.1-3.1,2.1-.8-.3-1.2-.2-.8.8-.4.3-.9.6-1.3.9-.6.3-1.2,1.1-1.9.9-.8.4-1.8.7-2.6-.2-.9-.6-1.7-1.4-2.9-1.5-.9-.4-1.7,1.1-2.4.1-1-.7-2.1-1.4-2.3-2.7-.4-1.3-2.7-.6-2.5-2.3.4-1.2-2.2-1.7-2.4-.7-1.2,0-1.8,1.7-3,.6-1.1-.6-2.9.3-3.5-1.2h.2c0-.1.2-.2.2-.2.5-.6,0-1.6,1.1-2,1.3-.6,0-2.1.7-3.1,1.6-1-.4-4.1,2-4-.1-.9.7-1.3,1.4-1.7.8-1.8,1-3.6,2.3-5.2,0-1.5-.5-3.2-.2-4.8-.6-2.1,2-1.1,3.1-2.3,1.3-.6,0-2.4.2-3.5.4-.7,1.1-1.3,1.1-2.2-.4-1.2,1.2-2,1.2-2.6-.8-.5-1.6-1.1-1.4-2.2,0-.7-.5-2,.7-1.7,1.8.3,2.2-1.6,3.9-1.7,0-1.7-.6-3.8-2.7-4.1,0-1.6-1.3-.6-2.2-1.2.6-1.6,1.4-3.1.8-4.8,1.4-.4,3.1-1.8,1.2-2.9-1.3.4-2.5-.2-3.2-1.5-1.3-.9-.6-1.9-.2-3,1.4-.8.1-2.6.2-3.9.4-.4.8-.8,1.3-1.2,1.2-.8,1.7-2.1,2.1-3.4,0-1.5,1.3-2.4,2.2-3.6.9-.2.2-2.3,1-1.5,1.1-.7,2.9.6,3.3-1.2,1-.9,1.7-2.1,1.4-3.5-.9-1-3-1.7-1.9-3.4-1.8.2-.7-1.9-.6-2.8-.5-.4-1.3-.7-1.4-1.4.4-.9,1.1-1.8,1.6-2.8.3-1.7-1.8-2.3-2.1-3.8-1.1-1.1-2.6-1.9-3.4-3.3-.2-1.3-1.4-1.4-2.1-2.3-.6-1.2-1.8-1.6-2.8-2.3-1.2-1.1-1-2.8-1.6-4.1.1-1.2,1.4-3.8,2.8-2.2.9-.4,1.9-.9,3-1.3.8-.7,1.6-2.3,2.9-1.9,1.2,1.1,2.8,1.4,4.4,1.7.3-1.5,1.9-1.7,1.5-3.5-1-.9-.5-1.9-.3-3,0-1.9.2-3.7.6-5.5-.2-2,2-3.3,1.6-5.2.3-.2.8-1.6,1.7-1.8.5-1.3-.8-3.7-2.3-4.2-1.3.5-3-.3-3.9.9-.7-.9-.2-3-.5-4.4-.8-1.3,1.5-1.8.7-2.6-1.8-2.1-3.4-4.4-4.7-6.8-.8-1.5-2.9-2.7-1.8-4.7.3-2,1.9-3.6,1.2-5.8-1.9-.3-3.9-.1-6-.6-.4-.5-.9-.5-1.4-.2-.7.4-1.5.1-2.3,0-.6-.3-1.3-.5-2-.5-.5.3-1,.8-1.4,1.2-1.3,1.3-2.8,2.3-4.3,3.4-1.1.6-2.2,1.1-3.1,2-.6.7-1.4,1.3-2.3,1.6-.7.3-1.5.5-2.3.4-.6-.1-1,.2-1.5.5-.8.2-1.6.4-2.3.9-1,.4-1.4,1.5-2.4,1.9-.7.5-1.7.4-2.5.5-.5.3,0,.9.3,1.2-.5.3-.9.6-1.4.9-.8.3-1.7.4-2.5.6.6.7,1.1,1.4,1.7,2.1-.3,1.7-1.1,2.3-3,2.8-.4.3-.7.6-1.2.5-1.2.3-1.4,1.8-2.4,2.4-1.1.3-2.2.6-3.1,1.3-.5,1-1.4,1.8-2.6,1.2-1.2-.6-2.3-1.6-3.6-1.9-1.1-.7-2.2.5-3.3-.2-.4-1.1-2.1-1.3-3-.5-.9,1.1-2.2.8-3.4.5-1.2.1-.6-1.3-1.5-1.4-1,.2-2.4.5-3.1-.5-.5-.7-.7-1.7-1.4-2.5-.7-.2-1.6-.3-2-1.1-.4-.8-1.1-1.1-2-1.3-1-.5-.3-1.6,0-2.2.3-.8,1.1-1.7.7-2.6-1.1-.7-1.6,1.2-2.6,1.3-.8-.1-2.3-.4-2.1.9-.5.4-1-.9-1.5-1.2,0-1.1-1-2-2.1-2.1-.8,0-.4-1.4-.3-2,1.1-1.6,1.3-3.5,1.4-5.3-.8-.9.6-1.6.5-2.6,0-1.7,1.6-3.5,0-4.8-1.3-1.3-2.7-2.5-3.7-4,1-.7,2.1-2.1,1-3.3-1.8,1-1.3-1.9-2.6-2.5.6-1.5,1.3-2.9,1.9-4.4.3-1.8.4-3.8.5-5.6.2-1.8.2-3.6.2-5.4.7-1.8,1.3-3.6,1.8-5.5.6-1.3.7-2.7-.7-3.5-.8-1.2.5-2.5.9-3.6-1.2-1.5-1.1-2.9-.2-4.5.6-1.6-.5-3.6-2.3-2.6-1.8,0-2-2.1-1.7-3.5-1-.7-1.5-1.9-.7-3.1-.6-1.7,1.2-.9,2.3-1.1,1.5-.3,3.1.1,4.6,0,1.6.4,3.2.9,4.7,0,1.5-.1,2.2-1.1,2.1-2.6-.2-1.2-.2-2.5-.9-3.4.7-1.9-1-2.1-2.4-2.8-1.5-.6,0-1.3.6-1.8,0-1.7.9-3.3,2-4.6.4-1.3,1.4-1,2.3-1.1,0-1.4-1.3-3-.2-4.5,1.2-1.3.7-3.3,2.3-4.3.2-1.3.2-2.5.8-3.7-.3-2.1-.7-5-2.1-6.5-1.9-.6-4.5.9-5.9-.7-.6-2-3,.1-3.6-1.5-1.1-1.5,2.3-2.6.7-4.2-1-2.1-3.7-3-4.2-5.4-1.4-1.6-3.8-1.6-5.6-2.5-1.5,0-2.6-.8-3.5-2-1.6-.7-3.4.5-5-.8-1.4-1-3.2,1.2-4.2,0-1.2-.7-2.7-1.2-3.8-2.3-1.1-.5-2.1-1.1-3.3-1.3-2.1.2-4-.8-5.7-2-1.2-.9-3.9-1.8-3.5-3.5,1.3-.5,2.3-1.6,1.4-2.8,1.1-1.5.4-3.6,2.1-4.7,1.3-1.4,2.7-2.7,2.8-4.7-.2-1.6.4-3,1.3-4.3.5-1.7,2.4-2.1,3.4-3.4.8-1.5,2.7-.7,4-.6,2.4.3,4.7,1.2,7.1,1.1,1.7-.4,3.5-.3,5-1,.9-.9,1.6-2.1,1.9-3.4-.2-.2-.5-.5-.7-.7-1,1-1.8,2.2-2.8,3.2-1.5.9-3.2,0-4.2-1.2-.3-1.6-1.7-1.4-3-1.2-.9-.7-1.2-2.7-.8-3.7,1-.7,3.2-1.5,2.2-3.1.2-1.5-1.4-.8-1.7-1.4-1-1.1-1-2.7.2-3.7.3-1.4.3-3.3-.8-4.3-1.4-.4-2.8,1.1-3.8-.6-1-.9-.7-3.3-2.6-2.7-.2.7,1.1,1.3-.2,1.8-1.7.5-1.3-1.9-2.3-2.7-.6-1.3-1.6-2.7-.4-4,1.2-.8,2.1-1.9,3.3-2.8,1,0,2.1.2,2.8-1,.3-1.2-1.3-3,.4-3.9,1.4-.9.2-1.2-.5-2-1.8-1-3.2-2.5-4.6-3.9-1.1.3-2.3.5-3.4.9-.3,1.6-1.2,2.6-2.7,3.3-2.6,1.1-4.8,2.8-7.3,4-1.8,2.1-3.8-1.8-5.9-2.1-2.6,0-5-1-7.7.3-1.8.1-3.8.9-5.5,1.7-1.7-.2-3.1.2-4.6-.6-.8-1.8-2.6-1.9-4.4-1.6-1.4.5-4.8-.3-4.5,1.6.8,2-1.2,1.9-2.4,2.6-1.1,0-2.1-2-3.2-2.7l1-1c.2-2.1.6-5,.8-7.1,1.5-.8,3.8-3.2,5.4-4,1.6-.3,3.9-1.2,6.5-2.2,1.8-.1,3.1-1.4,4.2-3.1.2-1.4-1.3-1.7,1.2-3.4,1.9-.9,0-2.2.4-3.7-.5-1.5,1.2-2,1.9-3.8.6-1.7,0-3.5-.1-5.3.3-1.8-4.3,0-5.7.8-1.8.2-4,2.2-5.2,2.1-.7-.5,3.3-3.1,2.9-4-1.4-2-2.1-2.8-5.4-3.8-2.1-.3-4.6-.8-5.8-2.5-2-1.5-6.3-1.6-8.1-3.5.1-1.3.4-2.5.3-3.8-1-.1-2.7.8-3.9,1-1.1-.7-2.1-1.4-3.2-2-1.3-.6-2-2.1-3.5-2.4-1.5-.6-3.3-.4-4.5-1.6-1,.2-1.8,1.8-2.7,2.6-.4-.5-.9-1-1.3-1.6-.8-.8-1.9-1.9-3.1-1.2-.7.6-2-1-1.4-1.5.9-.8-1-1.5-1.5-2.1-.5.3-1,.5-1.5.8-.7.7-1.6,0-2.4.2-1.1.9-2.1,1.9-3.3,2.7-.4-.6-.1-2.7-.2-3.9.1-1.6,1.2-3.2.4-4.7-.2-1.5-1.3-2.7-2-4,1-.3,1-1.5.2-2.1-.9-.7-.7-2-1.1-3-.5-1.4-1.6-2.4-1.9-3.9,2.1-1.4,4.2-2.9,6.3-4.3.7-.7,1.8-.3,2.4-1,.6-1,1.8.4,1.8,1.2.6.5,1.8.2,2.5.9.4.9.6,1.9.7,2.8.5,1.2,1.7-.3,2.3-.7,1,.6.9-.7,1.1-1.4,1.1-.7,2.3-1.4,3.3-2.1,1.1-.1,1.1,1.3,1.6,2,1.3-.8,2.8-.8,4-1.7.9-.9,3-.8,3-2.2-.4-1.2,1.6-1,1.3-2,0-1.1,0-2.1.5-3.1.6-.1,1.1-.2,1.7-.4,2.1-.6,4.3-.2,6.4-.4.9.7,1,.4,1.2-.6,1.2,0,2.5-2,1.3-2.9-1.3-.6-1.3-2.2-1.9-3.4-.8-.7-1.6-1-2.7-1-.4-.7-.7-1.4-.9-2.2-.3-.9-.7-1.7-.6-2.7,0-1,.5-2.6-1.1-2.5.1-.3.9-1.1,1.3-1.1.6,1.3,1.2-.3,1.6-.9,1.2-.3,1.7-1.3,1.3-2.5-.2-.8-.8-1.8-1.4-2.3-.4,0-1.2.4-1-.2-.4-1.2,1.5-2,.6-3.1-.3-1.4-1,.3-1.8.4-1.1.6-2.1,1.3-3.3.6-.7.5-1.4,1.1-2.2,1.6-1,.2-2.2-.4-3.2-.5-1.1.2-1.6,2.4-3,1.7-1.4.5-2.3-.5-3.3-1.4-1-.5-2.1-.7-3.1-1.2-.3-1-.5-1.9-.8-2.9-.4-1.3-.5-2.7-1.4-3.7-1.1-.3-2-1.1-3-1.6-.7-1.1-1.1-2.3-1.9-3.4-.8-1-1.8.7-2.9.2-1.3-.4-2.3.7-3.5,1-1.1-.2-2.3,0-2.9-1.1-1.2-1-2.2-2.2-2.3-3.8-.9-.7-1.5-1.3-1-2.5.4-1-.2-2-.4-3-.1-1.2-.4-2.3-.9-3.4-1.3,0-1.3-2.1-2.7-2-1.2,0-2.4,0-3.6,0-1,.7-2,1.1-3.3.8-1.9,0-3.4,1.4-4.6,2.6-1.1,1.4-2.7,1.4-3.9,2.1l-1.1-1,.2-1.6-.2-2.4-.2-1.2.2-10.5-.2-8.6c-1.1.6-2.1,1.1-3.2,1.7-1,.1-2.1.2-3.1.2-.6-.1-1.2.2-1.7.5-1.3.9-2.5,1.9-3.8,2.8-.4.4-1.2,0-1.6.5-.5.9-1.5,1.3-2.2,1.9-.7-.2-1.4-.4-2.2-.3-.8.3-1.6.4-2.4.5-.5-.1-.7.5-1,.8-.3.3-.4.9-.9,1-.8.3-1.6-.1-2.3-.3-.5-.3-1.1.1-1.6,0-.5,0-.6-.8-1.1-.7-.9.3-1.8,0-2.7-.2-.5-.5-1.3-.7-2-1-.7,0-1.5.1-2.3.1-1.3.8-2.5-.3-3.7-.4-1.8.5-3.8,0-5.6-.5-2.5-.3-4.8-1.4-6.8-3-2.2-.8-1.7-4.2-4.2-4.3-2.2,0-2.4-2.7-2.4-4.3,1.6-1.9-.5-3.6-2.2-4.2.2-2-2.2-2.2-2.9-3.7.7-1.2-1.4-2.3-.6-3.1.4-1.6,2.3-4.2,0-5.2-1.5,0-2.9-.6-4.5-.5-1.6-.2-3.5-.6-4.9.4-2,.5-3.3,2.1-5.5,2.4-.9,0-1.8-.5-1.3-1.5,1.4-1.6-.6-2.8-1.5-4.1-1.5,0-1.6-1.1-1.3-2.3.9-1.9-1.9-1.7-3.1-1.8-.8,1.7-3,3.5-4.9,2-1-1.2-2.6-2.4-2.5-4.1-1.2-1.1-.3-2.7-1.3-3.9-1.3,0-.3-2-1.6-2-1.3.1-2.7-2.4-4.1-.9-.9-.5-2,0-3.2,0-.9,1.2-1.4,0-2.2-.7-1.3-.1-2.3-.7-3.2-1.7-1.8,0-2.5-1.7-3.5-2.6.2-2-1.6-2.7-2.8-3.6-2.2-.1.7-1.9,0-3.2l-.4-.3c-.7-.7-2-.9-2.2-2,.4-1.5-1.7-1.4-1.1-2.5-.4-1.9-1.6-3.5-2.9-4.8.2-1.9-2.3-.6-2.7-2.2-.7-1.9-1.4-5.3-3.5-6-1.4-1.8-2.1,1-3.6.8-2.2.1-4.8-1.8-6.6.3-.9.6-1.9.3-1.8-.2,0,0,1.4-.5,1.7-1.2,0-.5.4-1,.7-1.1-.3-.4-2.5-1.1-2.4-3.4.5-1.8-1.9-3.6.3-4.6.9-1.3,1.7-3.5.7-4.9-1.3-1.7-3.3-.1-4.6-1.7-.6-2-3-.9-3.6-2.4-1-1.7-3.2-3.3-2.1-5.4.4-2.1,1.3-5-.2-6.8,0-1,1.4-.3,2-.4,1.6-.6,2.4,1.2,3.6,1.2,1.9-.2,3.8-1,4.7-2.7,2.5-.3.3-2.3.5-3.6-.4-1.2-.5-4.9-2.2-3.5-1.1,1.6-2,.1-2.7-.7-.6,1.8-2.8.4-3.3,2-2.7.2-1.1,2.2-1.4,3.8-2.2.6-3,3-5.6,2.6-1.9.4-1.2-.9-.8-1.9-.6-2,.1-5.1-2.6-5.2-2,0-5.3-.5-4.6-3,.7-2.2-1.2-2.8-3.1-2.8-2.2,1.4-1.9-1.8-2.9-3.1-.8-1.8-1-4.3.5-5.9,2.2.8,2.1-2.1,3.6-2.1,1.8-.6,4,2.1,5,.2,1.5.1,2.2-1.1,1.7-2.5-.8,0-1.7.3-2.5,0-1.5,0-1.5-1.5-2.3-2.3-.7-1.2-2.3,1.3-2.6-.5,0-1.5-2.1-1.3-2.7-2.5-1.3.2-2,1.2-2.4,2.4-.4,1.4-1.6,2.2-2.2,3.5-1,.4-.5,2-1.6,1.8-.5.1-1.4-.2-1.4.6.2,1.3-.6,2.6-2.1,2-1.3,0-1.7-1.2-2.3-2-1.1-.5-.4-3.2-2-2.3-.9.9-.8-.4-.4-.9,1-.4,1.1-1.9.5-2.7-1.4-.4-2.2-1.6-1.9-3.1-.5-1,1.5-3,0-3.3-1.4.2-3.2-1.2-4.1.4-.9.9-1.9,1.7-3.2,1.2-.5.2-.8.2-1.3-.2-.8-.6-3-2-2-3.1.7-.5,1.6-.9,1.4-1.9.4-1.3,1.8-2.9,1.5-4.3-1.8.4-2.2-1.3-2-2.7-.8.7-2.1.4-3,.9-1.5-.6-3.6-.4-4.9-1.2-.7-1.8-1.7-3.5-3.8-3.5-.6-.7-2.3-.5-1.9.5.6,1.3,1.2,3.1.5,4.4-.2,1.4-1.6.4-2.2,1.4-.4,1.4-1.8,1.7-2.7.4-.5,1.2-1.7,0-2.7.3-1.1-1.1-.8-2.8-.7-4.2-.5-1.5,1.6-2.1,2-.6,1-.7-.2-1.8-.3-2.7.9-1.2.2-2.8-.9-3.7-1.1.2-1.8-.9-2.8-.5-1.1.9-3.1,0-3.6,1.6-.5,1.1-3.3-.3-2-1.1,1.4-.5,1.4-2-.2-2-1.3-.1-1.9-2-3.1-1.3-.7,1.4-1.2-.6-.6-1.2,1.5.4,1.5-1.5,2.3-2.3.9-1,2.8-1.9,1.9-3.5-1-1.1-.3-2.7-.5-3.9-1.2,1.1-2.1-1.9-3-.8,1,1,.1,2-.9,2.6-1,.1-3.1,1.6-3.3,0-.9,1-1.2-.6-2.3-.6-1.2,0-2.2.8-3.3,1.2-1.2.4-2.5.3-3.6,1.1-1.3.6-2.7,1-3.8,1.8-.7.8-1.6.7-2.5,1.2-.7,1.2-2.6,1.2-2.8-.4l-1.9.2"/>
    <path id="path288" class="st1" d="M393.9,791.2c1.3,0,2.6-.7,3.9-.2,1.2.4-.3-1.2.4-1.7.8-.3,1.2-1.4,2.2-1,1.4,0,2.9.5,4.3,0,.7-.4.4.5.5.9,0,.5,0,1.1.5,1.3.7.9.6,2.3,1.2,3,.9.6,1.9.4,2.9.3,1,.3,1.4-1.2,2.2-1.4.5,0,1,.1,1.5.2,0-.6.2-1.1.8-1.2.1-.9.2-1.9,1.4-1.7,1.2-.1,2.4,0,3.6.1.9-.1,1.1-1,1.9-1.4.7-.2,1.8.2,2.3-.4.4-.7.6-1.7,1.3-2.2.8-.4,1.9-.2,2.8-.3,0,1.5.2,3,0,4.5,0,.7,0,1.2-.8,1.5-1,.6.3,1.2.5,1.8.2.4.5.8.4,1.3v1.4c.6,1,1.7.7,2.7.8,1.5,0,2.9.3,4.3.6-.2.8-.4,1.5-1.2,2.3.7,0,1.7.7,1.8-.4,1.5-.1,1.3-1.1,1.6-1.7,1,.3,3.5-.8,5.2,0,.9.6,1.9.8,3.1.4.9.8,1.4-.1,1.9-.7.6,1.4,2.4,1.4,3,0,1.5-.8.6,2,.9,2.8.7,0,1.9-.7,2.9-.4,0-.2-.4-1-.2-1.2,0,0-.4-1.4-.7-1.8-.1-.8.3-1.3.5-2.2.7-.6,1.4-1.3,2.1-1.9,1.9.4,2,.9,3.9,1.5.5,1.1.4,1.9,1.4,2.6,1,.4,2.2.4,3.3,0,.9-.4,2-.6,2.1-1.8-.2-1.1-.2-2.6,1-3,.9.7,1.5-.2,1.4-1.1.5,0,1,.4,1.4-.2l1.2-1.1c1,.3,2.1,1.3,3,1.2.4-.4.8-.8,1.2-1.2.9.8.5,2.5,1.3,3,.2-.7,0-1.8,1.1-1.6,1.5-.3,2.9.4,4.3.9,1.2.5,2.4.6,3.7.6,1.2-.6,2-1.8,3-2.8-1.3-.5-2.9-.7-4-1.7-.7-.5-1.5-.1-2.3-.4-1-.1-.9-1.3-1.1-2-.3-.7-.3-1.6.2-2.3.2-.8-.2-1.6,0-2.3.2-1.2.4-2.4.5-3.6.5,0,1.2.6,1.7.9.9,1.3,2,2.3,3.4,2.9.7,1.4,2.4,1.7,3.5,2.8.9,1.6,3,0,4.2,1.3.8,1.9,2.7.5,4.2,1.3,1.6-.3,3,.2,4.3,1.1,1.3.7,2.7.5,4.1.6,1,1,3.2,0,3.6,1.3-.7,1,.1,1.9,1,1,.9-.5,1.8,0,2.1,1,1.1.8,2.2,1.7,3.4,2.4,1,.8,2.5.7,3.4,1.8,1.3.2,2.7,0,3.9.7,1.1,1.3,2.8.5,4.1,1.2,1.1.5,2.3,1.4,3.6.9,1.4.3,2.7,1.2,4.2,1,.6.3.4.8.9,1.5" sodipodi:nodetypes="cccccccccccccccccccccccccccccccccccccccccccccccccccccccccccccccccccccccccccc"/>
    <path id="path97474" class="st1" d="M427.6,785.7c.9,0,1.8.2,2.7,0,1.9-.3.4-2.5,1.1-3.7.3-1.4,2,.3,2.3-.8,0-1.4-1.6-2-2.2-3.2-.7-1.1-1.1-2.5-2.7-2.3-1.1,0-1.9-.4-2.1-1.5-.8-.9-.8.5-.9.9-1-.4-.6-1.7-.5-2.4-.6-.2-.5-.4,0-.8,0-.8-.4-1.7-.6-2.5.8-1,2.5-.2,3.1-1.4,1-.8-.2-2-.4-2.9.3-1.2,1.2-2.1,1.9-3,.8-.5,2.3,0,2.9-.8.4-.9.4-2.3,1.8-2.2,1.5,0,1.4-1.6,1.2-2.7-.7,0-1.5-.1-1.4.8-.6.3-1-1.4-1.5-.4-.5.7-1.4,1-2.1,1.5-.9-.5-2.2.2-2.6-1.1-.5-1.2.6-2.7-.6-3.6-1.2-1-1.8-2.4-2.6-3.7.6-.5,1.6-1.1.7-1.9.3-.7,0-1.7-.9-1.4-.8-.1-1.4.2-2.1.5-1.5,0-3-.7-4.5-1-.3-.2-.5-.6-.8-.7-1-.2-2.1-.2-3.1,0-1,.7-1.3-.7-2.2-.9-.7-.3-1.5.6-2.2.8-.6.8-1,0-1.7.1-.9,0-.4.8.1,1,1.4,0,.7,1.4,0,1.8v1.3c.3,1-.6,1.3-1.4,1.4-1,.1-2.1.8-2.9-.2-1.1-.5-2.3-.2-3.5-.4-.7.2-1.3.7-2,.7-1,.2-1.8-.6-2.8-.8-.9-.5-3.1.3-2.9-1.2.2-1.3,1.5-2,2.3-3,.2-.5.8-.3,1.3-.3,1.1-.6,2.9-.6,3.5-1.6.1-.9,0-1.9,1.3-1.6.6.3,1.5-.7.5-.7-1.1,0-2.2-.8-2.4-1.9.9-.3.2-1.6.9-2.2-.5-.9-.6-2.1.2-2.9l-1.2-.4c0-.9-.4-2,0-2.9.2-.6-.3-1.2-.3-1.8-.9-.2.3-1,.4-1.4.3-.6-1-1-1.5-1.2-.9-.2-1.5-.5-1-1.4.2-1,.2-2.1.8-3,.5-.7,1.1-1.6.8-2.5.2-1,.4-1.9.3-3,.2-1,.5-2.2-.2-3.1-1.1.2-1.9-.4-2.8-.7-.7,0-1.3-.1-2-.2-.2-.3-.3-.6-.5-.9l.2-3.3-.2-1.6-.2-2.7-5.8-2s-.7-.3-1.6-.5c-1.4-.5-2.6-.7-2.8-2.3-1.1-1.7-2.3-3.6-2.3-5.7,0-2.9-1-5.7-1.5-8.5-.3-2.9,1.4-5.8.7-8.7-.7-2.1-3-2.9-4.7-4-.8-2.1,1.1-4.1,1.5-6.2.2-2.6-.8-5.1-1.8-7.4-.6-2-1.1-4-1.9-5.9-.3-2.1,2.5-3.1,2.5-5.3.1-.8.2-1.7.3-2.5" sodipodi:nodetypes="ccccccccccccccccccccccccccccccccccccccccccccccccccccccccccccccccccccccccccccc"/>
    <path id="path31880" class="st1" d="M387.2,367.9c-1.3,0-2.5.7-3.8,0-.8-.4-1.7-.5-2.6-.4-1.3-.3-.3,1.5-.8,2.2-.2,1-1.4,2.3-.2,3.1.8.9,1.8,1.9,1.1,3.1-.1,1.1-.9,2.2-.2,3.3.9,1.2.3,2.3,0,3.6,0,1.1-.4,2.2-.2,3.2-1.3.1-2.7.6-3.6,1.6-.2.3-.4.7-.6,1-1.7.3-3,1.4-4.8.9-1.3.3-2.7.7-3.7,1.5-1,1.3-2.4,2.5-2.9,4,0,1.1.5,1.9-.3,2.7.1,1.9-2.6,1.8-3.9,1.2-.6,1.5-2.1.4-3.2.4-.2.5-.4,1.6-1.3,1.9-.7.4-1.1.9-.6,1.6-.2.8-.4,3,1,1.9,1.2-.8,2.9-1,4.5-.6,1,.2,2,.5,2.9.8,0,1.2-1.6,2.9,0,3.7,1,1.1,2.4.9,3.8,1,1.5.2,2.9.3,4.4.4,0,1.2-.7,2.4-1,3.6-.2,1.4-1.9.2-2.9.6-.7-.6-1.3,0-2,0-1.3-1.6-2.2,1.4-2,2.4.2,1.4-1.1,2.8-.2,4.3.3,1.4,1.9,2,2.1,3.4,0,.9-.2,1.9-.3,2.8-.7-.2-2.3.1-1.9-1.1-.5-1.1-2-.5-2.9-.3-1-.1-1.3-1.7-2.3-1.8-.7.6-1.7,1.7-2.7,1.1-.9-.4-1.9.1-2.8,0-.6.4-.5,1.9-1,2.8-.6.8-1.4,1.4-1.5,2.4-.3,1.3-1.6.6-2.5.5-.9.1-2.7.9-2.7-.6,0-1.3-1.6-1.7-1.7-2.9-.7-.5-.5-1.3-.9-1.9-1.1-.6-1.2.7-1.4,1.4-.8.4-.4,2-1.5,1.6-.9-.3-1.9.5-2.7-.2-.2-.1-.3-.3-.2-.6.4-.6.7-1.9-.5-1.7-.8-.1-1.8,1.7-2.2.4.3-1.3-1-1.4-1.9-.9-1.2.2-1.2,1.3-1.1,2.2-.1,1-1.1,1.7-1.7,2.5-1,.7-1.8-.7-2.5-1.3-1.2-.6-1.7.9-1.3,1.9-.2.6.5,1.7,0,1.9-1,0-2-.5-2.9-.7-.8.7,0,2-.5,2.8-.6,1-.9-.4-1.5-.6-1.3-.2-.5,1.6-.6,2.4-.2,1,.2,2.1-.3,3-.5,1-1.7.6-2.4,1.2-.7-.8-2-.5-2.4.1-.6.8-1.6.5-2.3,0-1.2-.6-2.7-.8-3.7-1.8-.8-.8-1.9,0-2,1-.3.8.2,1.9-.6,2.5-.2.1-.4.1-.5,0-.9.8-1.7,1.7-.4,2.5,1.1.4,1.4,1.1.9,2.1.9.5,2.7.2,2.5,1.3.7.6.3,1.7-.6,1.1-.9,1.2-.8,3-1.3,4.4,0,1.3-1.2,3-.6,4.1-.3.9-.5,1.8.7,1.5.6.1-.1,2.4,1.1,2,.9-.3,1.8.6,2.6-.2,1,1,1,2.3,1.3,3.4-.9.4.1,1.6-1.2,1.5-1.1.9-2.3,1.5-2.2,3.1-.2.9-1.1-.4-1.4.6-.9-.1-1.6-.8-2,.4-.6,1-2.1.7-3,1.3-1.2.3-2,2.1-3.3,1.1-.4-1.1-1.7-.8-2.1-1.4-.5.8-2.5,0-2.1,1.3.3,1.1-1.2.5-.7-.4-.2-.4-.9,0-1.3-.2-.6-1.1-1,.3-1.7.3" sodipodi:nodetypes="cccccccccccccccccccccccccccccccccccccccccccccccccccccccccccccccccccccccccccccccccccccccc"/>
    <path id="path308" class="st1" d="M466,543.7c-2.3,1.7-4-1-5.8-1.6-1.9,0-1.4,2.7-3.6,2.1-1.7,1-3.8-2.1-4.5.2-1.3.3-3.6.2-4.4-.7,0-2,2.5-1.9,2.8-4.1-.9-.5-2.8-.3-4-1.3-2.3-.3-4.5-2.1-6.8-1.3-1.5.1-1.1,2.6-3.1,2-2.2.9-2.5-1.7-4.6-1.9-1.1-1.1-3-4.1-3.3-1.2-1.7-1.5-3.6-.4-5.2.4-.2-.6.3-1.7-1-.8-1.6-.7-1.9-2.8-3.3-4-.9-1.3-.9-3.2-1.9-4.4-1-1-1.5-2.8-3-3.1-1.6-.3-3.4-.1-4.8.7-.8-.9,0-3-2.1-2.7-2,0-3.2-1.4-4-3.2-.9-1.7-3.2-1.9-4.7-2.6l-.3-.2c-2-.5-3.4-2-5.3-2.2-1.3-1.4-1.6-3-2.9-4.4-1-1.2-1.8-3-3.5-2.9-.9-1.5-3.3-2.4-1.8-4.5.5-1.2,1.2-2.4-.6-2.4.4-1.3-1.4-1.6-1-3-.8-.8-2.1-2-3.2-.6,0-1.8-2.4-3.2-1.2-5.1,1.2,1.1,2.7.6,2.1-1,1.6-.1,3.1-1.9,2.3-3.5,0-.4-.1-.8-.2-1.1-2.7.2,0-3-.2-4.4.8-1.1,2.6,0,2.6-1.6.8-.8.9-2,2.3-1.9,1.8.1,2.7-1.3,2.3-2.9-.3-1.7-1.4-3.2-1.9-4.9.9-1.6,3.3.2,3.7-2,.3-1.8.6-3.8,2.6-4.4,1.5-1.2-.5-2.3-1.2-2.9,0-.6.7-.9.9-1.4-.3-1.3-1.7-1-2.7-.9-1,0-1.9.3-2.9.5-1.1-.2-2.3-.6-3.4-.2-1.1.2-2.2.7-3.4.4-1,.2-1.9.6-2.9.4-1-.3-.9-1.7-.9-2.5-.2-1.1-1.1-2-2.3-1.7-1.2,0-2.2.6-3.2,1.1-.8.6-.5,1.7-.9,2.6-.2,1.3-1.6,1.3-2.5.8-.9-.3-1.8-1.1-2.8-.6-.8.2-1.6.7-2.4.5-1.2-.4-2.3-1.2-3.6-1.1-1.2-.2-2.4-1.2-3.6-.6-1,.4-2.1.6-3.2.3-1.4-.4-2.3.8-3.5,1.2-1.1.3-1.8-1.1-1.3-2,.7-.8.3-1.8-.3-2.6,0-.7-.3-1.2-1.1-1.2-.9,0-2.1.8-2.3-.7-.3-1.3-1.6-.6-2.4-.2-.9.5-1.9.3-2.7-.1-.8-.4-1.7-.3-2.6-.5.6,1.3,2.2,2.3,1.9,3.7-.8,1.2,0,3.4-1,4-1.9-.3-2.4,1.5-3,2.9-1.6.8-1.3,2.8-3,3.8-.1,1.1-1.2,2.7-2.2,2.7-1-.2-1-3-1.7-1.1-.9-1.2-2.3-1-3.6-1.5-1.3-1-1.1,2.9-2.8,1.4-1.6-1.2-3.2-2.8-5.5-2.6-1.6,0-3.1-.2-4.5-.6" sodipodi:nodetypes="cccccccccccccccccccccccccccccccccccccccccccccccccccccccccccccccccccccccccc"/>
    <path id="path312" class="st1" d="M434.7,860.4c-.2-1.3,0-2.5,1.1-1.7.7.2,1.3-.8,1.8,0,.7-.1.8-1.1,1.5-1.2.7-.4,1.2-1.4,2.1-1.2.9.5,1.9.7,2.9,1,1.3.5,2.7.4,4,.4.2-.4.4-.9,1-.6.7.3,2.1-.6,1.2-1.1.3-.5.4-1.3,1.3-1h3c.5-.9-.3-1.9-1.3-1.8-.7-.6.9-.8,1.3-.6.7-1,0-1.9-.8-2.6-.5-.9-1.6-1.5-2-2.2.5-1,.8-2,.3-3,.8-.3,1.1,0,1.5.6.8.2,1.8.1,2.4.7.4.9,1.5.5,1.7-.3.7,0,1.3-.3,1.8-.7,1.1.3,1.5,1.2,1.8,2.2.2,1.3,1.9.3,2.6,1.2.7.4,1.8.9,1.8,1.8,0,1.1.9,1.7,1.2,2.8.8.6,1.9.1,2.6,1,.9.8,2.3.5,3.1,1.4,1.1.8,1.3-1.2,2.5-.8,1.4-.4,2.1.7,2.9,1.6.7,1,1.7,1.8,2.2,2.9,1,1-.9,1.4-1.1,2.1,1.1.9,2.2,1.7,3.2,2.7.2.3.4.6.6.9,1-.5,2-1.2,2.9-1.8.7-.5,1.6.1,2.4-.1.8-.3,2.1,0,2.5-.7.3-.8.2-2,1.2-2.3,1.1-.2,2.1.2,3.1.7.8.8,1.4,2.2,2.6,2.2,1.2,0,2.5,0,3.6-.5.7-.2-.4-1.1-.6-1.6-.8-1.2-1.6-2.6-2-4-.2-.8-.5-1.6.3-2.2.6-.6,1.9-.4,1.7-1.6.1-.6.2-1.3.3-1.9,1.1-.5,1-2.1,1.9-2.5,1.1-.5,2.3-.7,3.5-.5,2.6.8,5.3,1.3,7.8,2.4,1.2.8,3,.2,3.6,1.7,1.4.9,2.6,1.3,3.5,2.4.7.5,1.1,1.3,2,1.4.9.3,2.1.5,2.6,1.4.5,1,1.8.9,2.5,1.8,1,.6,2.1,1,2.9,1.8,1.3,1,2.9,1.6,4.4,2.4" sodipodi:nodetypes="cccccccccccccccccccccccccccccccccccccccccccccccccccccc"/>
    <path id="path32627" class="st1" d="M477.8,561.7c-.3-.3-1.3-.3-2-.6-.7-.3-1.8-.8-2.3-.8,0-.7-.6-.9-.4-1.7-.2-.7-1.6-1.5-2.1-.7-.7,0-1.2-1-2-1-1-.4-2-1.1-2.9-1.1-.4-.9-1.3-.8-1.5.2-.4.9-1.4.8-1.7,0-1.4-.6-2.9-1.1-4.5-1.2-.6.5-.8,1.8-1.6,1.7-.7-.9-1.6,0-2.6,0-.8.1-2.1-.3-1.7,1-1,.5-2.5.8-3.5.3-.6-.4-1.3-.8-1.8-1.4-1.3,1-3.1.6-4.6,1.3-1.4.3-2.9,0-4.2.8-1.3.9-3,.3-4.3-.2-1.8-.3-3.2-.9-4.4-2.2-1-.4-2.1-.3-3.1-.4-.4,1.7-2.4,1.5-3.8,1.6-2.2,0-1.8-2.8-3.2-3.6-1-.7-2.2-1.7-2.1-3.1-.4,0-1.4-.4-1.8-.6-1-1-1.2.8-2.1,1.1-1.5.4,0,1.2.5,1.8.4,1.6-1.8-.3-2.5.5-.8.8-1.9.5-2.4-.5-1.1-.5-2.4,0-3.5.3-1.1.6-2.2.3-3.3-.2-1.1-.5-2.2.2-3.2.2-1-.7-1.9-1.6-3.2-1.1-2.3.3-4.3-.8-6.6-.9-1,.5-2,.8-3,.3-.8,1.8-1.3.2-3.4.2-.4.6,0,1.1-.7,1.5-.4.9-1.1,1.6-1.8,2.2-.9.4-1.5,1.1-2.4,1.4-1,.5-.6,2-1.8,2.4-1.1.3-.4,1.6-1.1,2.1-.8,0-2.1,0-1.9,1.2-.1,1.3-1.5,1.9-2.6,2.1-1.5.4-3,.7-4.4,1.1-.2.1-.3.2-.5.3-.7,1.1-.2,2.7-1,3.7-1,1-2.6.9-4,1.3-1.5.1-.6,1.8-.6,2.8-.2.7.8,3.1-.7,1.9-1.3-1.2-1.9,1.4-3.3,1.1-1.1,0-2.7.9-3.5.5-.2-1-.9-2.6-2.1-2.6-.8-.2-1-1.6-.2-1.9-.4-1.2-2.4-.5-3.4-.8-1-1-2.1-.2-3.2-.5-1,0-1.4-.9-2.4.5-1-.3-1.8.5-2.8.3-1-.4-2,.1-2.9.6-.9.6-2.2.5-2.7,1.7-.2.3-.4.7-.6,1" sodipodi:nodetypes="ccccccccccccccccccccccccccccccccccccccccccccccccccccccccccc"/>
    <path id="path320" class="st1" d="M327.6,315.4l-1.5-1.3-1.2-1.7-1.5-1.6-1.7-.6-1.6-1.1-1.9-.3-1-1.4.9-.9-.8-1-.2-1.5-3.4-.8h-.5s-2.3,2.5-2.3,2.5l-1-.2-1,1.2-1-.5-.7.2-.6.6-1.6-1.4-2-.9-1.3-.4-1.8-1.5-1.7-1-1.8-1.3-.7-.8-1.4-.8-1.1-1.1-.8-.4-.5-.4-1.9-2.2v-1.1c.1,0-.2-1.1-.2-1.1v-1.6c0,0-1.2-.4-1.2-.4h-1.1c0-.1-1.1-.8-1.1-.8l-.5-.5-2.2-.5-1.8-1.2-1.9-1.3-.4-.5-.2-1.8-1.4-1.1v-1.3c.1,0,.5-.8.5-.8v-2.7s.4-.9.4-.9l.8-2,.4-1.4-.4-2.5v-.7s.5-.6.5-.6l1.1-.6.3-.5-1.9-1-.5-.6-1.5-.5-2.1.2-1.4-.2-.5-.5-1.4.2-2.2-.3-1.6.3-.2-.6-.8-.5v-.7s-.2-.8-.2-.8l-1.7-1-1.1-1.2-1.1-.3-.7-1.6-.6-.5-2-1.2-1.1-.4h-1.4s.6-1.1.6-1.1l-2-1.6-.7-.7v-.5c0,0,.8-.7.8-.7l.2-1.8.8-1.2-.3-1.8-.8-.8-2.2-1" sodipodi:nodetypes="cccccccccccccccccccccccccccccccccccccccccccccccccccccccccccccccccccccccccccccccccccccc"/>
    <path id="path43790" class="st3" d="M207.7,261.5c-.4-.7,0-1.5.8-1.5,0,.6.5,1.4,1.2,1.4.6-.4,1.2-.5,1.8-.8.7,0,1.6-.2,1.6-1.1,0-.7.6-1.4.3-2.1,0-.8-.7-1.1-1.4-1.1-.9-.4-1.4-1.3-1.1-2.2.4-.9-.7-1.8,0-2.6.3-.7,1.3-1.6.3-2.1-.4-.2-.6-.6-.9-.9-.2.5-.8.7-1.2.8-.5.2-1.3.8-.9,1.4.3.4.3,1,.6,1.5.2.5.7.7,1,1.1.4.8.4,1.8,0,2.7-.7.5-1.7.3-2.3.9-.7.5-1.5,1.3-1.4,2.3,0,.8.9,1.2.9,2-.4.4-.7.5-.7,1.4.6-.2,1.6.2,1.5-.9h0Z" sodipodi:nodetypes="cccccccccccccccccccccc"/>
    <path id="path163699" class="st2" d="M136.2,194.7l.7-.4c0-.2-.3-.8-.3-1-.2-.7-.5-1.4-.9-2-.4-.7-.7-1.4-.8-2.2,0-.5,0-1-.1-1.5-.5-.6-1-1.3-1.4-2,.2-.3.4-.6.5-.9.2-.5.4-.7.5-1.2.4.2.8.4,1.2.5.5.5,1.7,1,2.1.3.8-.7,0-1.7.3-2.6-.4-.2-.4-.6-.2-1,.6,0,.5-.7.2-1.1,0-.8-1-1.4-.5-2.1.2-.5.5-.9.8-1.3.4-.4-.4-.8-.5-1.3,0-.7-.2-1.3-.2-2,0-.9-.3-1.7-.5-2.6-.2-.7-.8-1.1-1.4-1.6-.5-.6-1-1.3-1.3-2.1-.5-.5.4-.8.8-.7.6.2,1.2,0,1.8,0,.8,0,1.5-.5,2.3-.4.4.2.8.5,1.3.2l1.2-1.2c.3-.2.6-.4,1-.7.7-.6,1.4-1.2,1.9-2,.4-.6,1-1.9,1.9-1.4.9.4,2,.7,3,.3.9-.2,1.6-.6,2.3-1.3.8-.4,1.8-.2,2.6-.7.9-.2,1.2-1.7,2.4-1.1,1,.1,1.5-.8,1.5-1.7-.2-1.7-.4-3.4-.6-5,.8-.5.9-1.8,1.9-2,1-.2,2.1,0,3.1-.4.8-.9,2.1-.2,2.5.7.6,1,1.9-.6,2.8-.1.7,1.1,1.4-.5,2.3-.2.9-.3,1.1-1.6,2.3-1.4.7-.4.5-2.3,1.8-1.7.5.5,1-.2,1.6,0,.5-.5,1.5-.6.9-1.5-.4-.9,1.8-1.9,1-.5-.6.9.9,1.2,1,.3.8-.8,1.2-.8,2-.9,0,.7,1.3.4,1.5.9" sodipodi:nodetypes="cccccccccccccccccccccccccccccccccccccccccccccccc"/>
    <path id="path3792" class="st4" d="M699.5,947.6c-2.5,1.4-5,2.5-7.4,4.1-1.8.3-.9,2.4-2.1,3-1.6.4-2.8,1.6-4.2,2.4-3.3,1.7-6.9,3-9.3,6.1-1.7,1.2-3.7,1.7-5.5,2.4-2.4.9-4.8,1.7-7.2,2.5-1.8.8-4.1,1-5.2,2.8-.5.5-.9,1-1.4,1.3-2.3.9-.7,3.2-1.4,4.7-.8,2.2-3.3,1.8-4.8,3.2-1.4,1.2-2.7,2.7-4.7,2.8-2.1.3-3.5,1.9-5.6,2.1.1,1-.6,1.4-1.6,1.5-.9-1.8-3.6-1-4.9-.5-2.1.5-4.3-.5-6.2.5-2.3-.1-4.3,1.2-6.5,1.5-1.9.9-3.8,1.2-5.7,2.3-1.9.7-3,2.5-4.4,3.8-1.1,1.1.3,2.2-.4,3.1-.7,2,1.8.5,1.3,2.2-1.1.4-2.8,1.4-2.5,3.1-1.3-.1-2.7-.4-4,0-.8-1.7-2.9-.5-4.3-.9-1.6-.6-3.3-.9-5-1.2-3.5-1-7.2-.7-10.6-2-3.6-.9-7.1-2.1-10.6-3.2-2.8-1.1-5.6-2.3-8.6-2.1-1.8,0-3.8,1.1-5.2-.5l-.3-.3-.4-.3c-.9-1.4-.6-4-2.8-4.7-2.2-1.3-4.2-2.9-6.5-3.7-2.2-.3-4.6-1-5.8-3.1-1.2-1.8-2.7-3.5-4.7-4.5-1.4-1-3.3-1.3-4.7-2.4-.8-2-2.6-3.2-4-4.7-1.2-1.7-2.9-2.8-4.7-3.7-1.4-1.4-3.2-2.4-4.7-3.7-2-1.3-3.8-2.8-5.7-4.2-.7-.3-1.3-.8-1.8-1.4-3.4-2.9-7.1-5.6-10.5-8.4-3-.8-3.9-3.8-6.4-5,.6-.4-.6-1.9-1.2-.7-.7-1.5-4.5-2.6-3-4.5-1.3-4.4-5.1-7.5-7.8-11.2-5.4-6.5-11-12.8-16-19.6-3.5-4.4-7.2-8.6-10.7-13.1-2.3-2.4-3.7-4.7-5.5-7.6-.3-.3-.7-.7-1-1-1.6-2.3-3.5-4.3-5.3-6.4-.9-1.2-1.7-2.4-2.7-3.5-1.1-1.2-2.2-2.5-3.2-3.8-1.2-1.3-2.1-2.8-3.1-4.2-.2-1-.9-1.5-1.6-2.3-.6-1.7-2-2.9-2.7-4.5-.5-.6-1-1.1-1.3-1.8-1.2-1.6-2.8-2.8-3.7-4.6-2.1-3.6-4.5-7-7.5-9.8-1.8-1.7-3.8-3.9-6.5-3.9,1.5-1-1-1.4-1.8-1.3-1,1-1.6-.4-2.3-1.1-1.2-1.2-2.4-2.3-3-4-.5-1.9-1.2-3.7-1.4-5.6-.7-1-.6-2.3-.9-3.4-.9-2.7-1.6-5.5-2.3-8.4-.6-1.7.2-3.6-.6-5.2-.8-1.3-1.7-2.6-2.3-4-1.3-3.2-2.6-6.4-4-9.6-.8-2.3-2-4.5-3.2-6.7-.3-.9-.5-1.6-1.1-2.3-.3-.4-.9-1.6-.9-1.6,1.1-.4,1.1.2,1.7.9.2.7.9.7.8,0,.8-1.2.8,1.1,1.7,1,.9-.4,0-1.9.4-2.8.2-1.1-.4-2.1-.7-3.2-.3-1-.5-2.2.4-2.8-.4,0-1-.4-1.2.2-1,.9,0,2.1.1,3.1.1,1.1-1.2,1.1-1.1,2.1-.4-.2-1-1.6-1-2.4,0-1.1-.6-2-1.5-2.6-.9-1.1-1.2-2.5-1.8-3.7-.9-1.4-1.7-2.9-1.9-4.6-.5-2.2.2-4.5-.3-6.7-.4-1-1.6-.9-2.3-1.6-.5.2-1.7,0-1.4.8,0,1.7,1.2,3,2.1,4.3.6,1.2.9,2.5,1.3,3.8.4,1.1.3,2.2.8,3.2.3,1,1.3,1.5,1.8,2.4.5,1.2,1.3,2.2,1.8,3.5.4.8.4,1.9,1,2.7,1,.6.1,2.1-.9,1.6h0c-.7-1.8-1.4-3.7-2.3-5.6-.8-1.3-1.5-2.6-1.8-4.1-1.5-3.5-3-6.9-4.6-10.4-.9-2.4-2.4-4.5-3.3-6.9-1-2.7-2.5-5.3-3.9-7.8-.6-2.6-1.8-4.9-2.9-7.3-1-3.5-3.8-6.3-4-10-1.8-3-1.8-6.5-3.6-9.6-1.6-6.4-2.9-12.9-4.2-19.3.2-3.6-1.4-7-1.6-10.6-.7-3.6-.8-7.3-1.1-11-.8-3.6-.6-7.3-.9-10.9-.7-6.4-1.1-12.9-2.6-19.2-.2-1.3-.4-2.7-.6-4-.4-3.8-1.3-7.6-2.1-11.4-.7-2.8-.9-5.7-1.8-8.4-.7-2.8-1.9-5.5-2.9-8.2-.3-1.2-1.2-3.4.4-4,1.4-.9,2.7.2,3.5,1.4.4,1.6.5,3.3.9,5,.5,1.5,2.3,1.7,3.5,2.4,1.3.6,3.4,1.1,3,3-.2,1,.5,3.2-.2,3.6-1.1-.8-.9-2.1-1.4-3.2-.7.7-.1,2.2.2,3.2.3,2.3.7,4.7,1.3,7,.9-1.5-.1-2.5.1-4.3-1-.7.4-2.5.9-1.1,1,1,2.5,1.4,3.7,2,.9,1,2.5,0,2.9,1.6.6,1.2,1.4,2.5,1.2,3.9-.3,1.3.3,2.6,1.1,3.5,1,1.2,2.2,2.3,3.8,2.4,1.1-1.2,1.1.8.6,1.4-1,.7-1.5,1.9-1.7,3.1,0,1.5,1,2.8,1.5,4.2.8,1.3-.2,2.7.3,4.1.8,1-.6,2.7.5,3.1.2,1.5-1.4,2.5-1.1,4,.4,1.4,0,3.2-.9,4.2.7.6.4,1.8,1.5,2.2.1,1.4,1.3,1.4,2.4,1.6.5,1.2,1.7.3,2.6,1,0,.8-.5,2-.4,3,0,1.6-2.4,1.8-2,3.6-1,1.1.5,2.4-.5,3.5-.8,1.3-1.8,2.4-2.3,3.8,0,1.1-1,2-.7,2.9,0,1,1,1.8.4,2.8-1.3.9-1.5,2.3-1.6,3.7,0,1.3-.3,2.6-.5,3.8-.7,1.3-.5,3,.8,4,1.2,1.1,2.5,0,4,1.3.3.2.5.3.9.3.2-.3,0-.9,0-1.3,0-1.3-.1-2.5-.1-3.8.5-.4,1.1-.8,1.7-1.1.7-.4,1.6-.5,2.3-1,.4-.3.2-.9.5-1.3.6-.4,1.3-.5,1.9-.9.5-.2.2-.8.3-1.3,0-.4.4-.6.6-1,.4-.8.4-1.8.8-2.7.4-1,.1-2.1.7-3,.7-.8,1-1.9.3-2.8-.2-.8-1-1.2-.9-2.1-.1-.9-1.7-.8-1.3-2,.5-1.2-.9-1-1.5-1.7-.4-.6-1.8-.2-1.2-1.1,0-.9.1-1.7.3-2.5.4-.5,0-.7-.2-1.2.4-1.3,1.3-2.3,2.1-3.5.1-.5.1-1.1.1-1.7,0-1-1.3-1.6-2.2-1.2-.7.7-1-.3-1.8-.3-.7-.3-2.8.5-2.3-.9.4-1.3,1.2-2.5,1.3-3.9,0-1.1,0-2.1.2-3.1-.3-1.1-.1-2.4-.7-3.4-.3-1-1.8-1.4-1.8-2.5-1.1-.2-1-1.1-.8-2-.7,0-.3-.7-.6-1.2-1.1-.9-.2-2.2.6-2.8-.3.5,0,1.5.7,1.1-.6-.9.5-1.8.8-2.6.6-.7,1.9-2,1.3-2.9-1,.6-1.6-.7-1-1.4,0-.3-.1-.6,0-.9-.2-.6.4-.6.7-.8.4-1-1.4-1.6-1.7-.6-.8.5-1.7-.9-1.4-1.7.4-.9,1.8-1,1.6-2.2.3-1.2-.7-1.9-1.2-2.7,0-1.1-.8-1.8-1.2-2.8-.2-.9-.6-1.8-1.1-2.6-.5-.7-.7-1.4-.9-2.2-.7-.5-.8-1.2-1-1.9-.3-.9-2,.4-1.5-.7.9-.7.4-2-.7-2-.9-.3-.6.6-.7,1.1-.3.6.2,1.5-.4,2.1,0,.9.3,1.8.6,2.7.4.8,0,1.8.7,2.5,1,.7-.3,1.3-1,1.1-1.1.5-1.9-.5-2.8-.9-.9,0-.2-.6,0-.9-1.1-.6-.9.5-.8,1.2-.7,0-1.5-.1-2-.7-.4-.8,0-1.7-.7-2.4,0-.8,0-1.7,0-2.5-.3-1,.5-1.4,1.3-1.2-.5-.5-.6-1.3-1.1-1.7-.5-.3,0,1.1-.5.5-.9-.8-1.5-1.9-2-3.1-.6-1.8-1.7-3.4-2.5-5.1-.9-1.7-1.7-3.4-2.3-5.1-.1.1-.2.3-.2.5,0,.6,0,1.2.1,1.9-.3-.4-.6-.9-.9-1.4-.3-.4-.1-1-.2-1.5,0-.7-.2-1.5-.6-2.1-.4-.9-1-1.8-1.6-2.6-.6-.9-1.4-1.7-2.2-2.5-.3.3-.3,1-.6,1.3-.5.4,0,1,0,1.6,0,.6.1,1.2.3,1.8.2.5.3,1.1,0,1.6,0,.9.2,1.8.6,2.6.3.4,0,.7-.1,1.1.2.5.6,1,.9,1.4-.2.3-.9.2-1.3.2-.8-.2-1.6-.2-2.5,0-.3-.5-.5-.9-.8-1.4-.3-.8-.2-1.8-.5-2.6,0-.9-.4-1.6-.6-2.3.2-.9-.5-1.6-.7-2.5.3-.9-.4-1.8-.6-2.7-.2-1-.4-2-.8-3-.1-.8-.6-1.4-1.1-2.1-.3-.7-.2-1.6-.5-2.4-.2-1.5-.8-2.8-1.1-4.3,0-.6,0-1.2-.2-1.7-.5-2-.9-3.9-1.5-5.9-.3-.8-.5-1.6-.6-2.4-.2-.9-.6-1.7-.8-2.5-.5-1.3-.9-2.6-1.3-3.9-.3-.7-.8-1.3-1.1-2-.4-.2-.7-.6-.7-1.1,0-1.6-.5-3.1-1.2-4.6-.4-2.6-1.9-5-2.1-7.7-.2-1.9-1.3-3.6-1.7-5.5-.7-2.4-1.4-4.7-2.2-7.1,0-1.8-.8-3.5-1.5-5.2-1.4-3.2-2.5-6.5-3.7-9.8-.8-2-1.7-4-2.5-6.1-.3-1.3-.7-2.5-1.3-3.7-.8-1.5-1.1-3.2-1.8-4.8-1.2-2.5-2.4-4.9-3.6-7.4-1-1.6-1.1-3.5-2.5-4.8-2.1-2.5-3.3-5.7-4.7-8.6-.9-1.7-1.5-3.4-2.2-5.2-2.2-4.5-4.3-9-6.2-13.6-1.1-2.8-2.3-5.6-3.6-8.4-1.2-2.7-2.5-5.4-3.5-8.2-.3-1.1-1-2-1.5-3-.2-1.1-.6-2-1.2-2.9-.3-1.3-.9-2.6-1.4-3.9-.5-.9-.7-2.2-1.9-2.5.3-.3.7-.2,1-.2.5-.1,1-.5,1.3.2,1.5,0,3-.7,4-1.9.4-.6,1.1-.6,1.5-1.1.3-.5,1.1-.6,1.3-1.2.3-.7.8-1.3,1.2-2-.3.3-.7.6-1,.9-.5.6-1.3.9-2.1,1.1-1.1.3-2.2.9-3.1,1.6-.7.6-1.6.5-2.4.6-.6,0-1.3.4-1.4,1-.5.4-.5-1.1-.7-1.4.3-1.3-.6-2.3-.7-3.6,0-1.3-.7-2.5-.8-3.9,0-1.3-.9-2.4-1.1-3.6.1-1.4-.1-2.7-.5-4-.7-1.2-.2-2.6-.7-3.9,0-1.2-1.1-2.1-1.1-3.4.1-1.3-.7-2.4-.6-3.6,0-1.4-.4-2.6-1.1-3.9,0-1.6-.6-3.1-.9-4.7,0-.3,0-.7-.1-1-.6-1.6-1-3.3-1.5-5-.1-1-.2-2-.6-3-.8-2.1-1.2-4.3-1.6-6.5-.3-2.6-1.2-5-1.8-7.5-.4-2.1-1.2-4.1-1.9-6.1-.3-1.2-1.5-2.1-1.4-3.4-.2-.7-.7-1.3-1-2-.7-1-.8-2.3-1.4-3.4-.9,0-1.4-.8-2.2-1.2-.8-.3-.2-1,.4-.9.2-.2.8-.2.8-.2.2,0,.8-.2,1-.6.3-.8.4-1.7,1.3-2.1.1-1,1.2-.9,2-1.1-.6,0-1.1-.2-1.7-.2-2-.4-2,2.3-3.3,3.1-.8,1.1-.8,0-1-.9-.9-1.8-1.3-3.8-2.1-5.7-1-1.5-.9-3.4-1.8-5-.4-1.4-1.4-2.7-1.3-4.2-.3-1.8-1.7-3.2-1.7-5-1-2.2-1.4-4.6-2.5-6.7-.4-1.4-1.8-2.4-1.4-3.9-1.7.2-1.7-1.7-2.3-2.7.5-1,.5-2.5,0-3.8-.1-.2-.3-.4-.4-.6-.9-1-1-2.4-1.6-3.7-.5-1.2-1.3-2.3-1.7-3.6-1-1.5-1.6-3.2-2.6-4.8-1.1-1.7-1.8-3.5-2.9-5.2-.6-.8-1.2-2.5-2.4-2.2-1.1-.9-2-2.1-3.3-2.8-1.2-.5-2.5-.9-3.7-.4-.5.7-1.9,1.3-2.1,0,0-1.6-1.8-1.5-2.7-2.2.1-1.3-.1-2.6-.6-3.9-1.3-2.9-2.4-6-3.4-9.1-.3-1.8-1.6-3.3-1.6-5.1-.7-1.6-1.8-4.7-1.8-5.1-.2-.4-1.2-3.3-1.3-3.8-.6-1.2-1-2.7-1.6-3.5-.7-1.5-1-3-1.8-4.5-.5-1.5-2-2.7-1.9-4.5-.7-1.5-1.6-2.9-2.4-4.4-.2-.4-.5-.8-.8-1.2-.2-.2-.4-.3-.6-.5-.1-.1-.1-.3,0-.5.2-.1,0-.5-.2-.5-.6-.4-.8-1.1-1.3-1.6-1.1-.5-1.3-1.7-1.9-2.7-.8-.6-1.7-2.4-2.8-1.4-.5-.8-.9-2.3-2-2.8-.9,0-.9-.6-.9-1.4-.5-1-2.2-1.2-2.1-2.5.8-.2.4-.5-.2-.6-.9.5-1.8.5-2.8,0-1.5,0-.4-1.7-1.2-2.3-1.1-.1-1-.9-1.2-1.8-.7-1.3-1.5-2.6-2.5-3.6-1-.6-2-1.2-2.7-2.2-.2-.3-.4-.7-.6-1-1-1.2-1.9-2.5-3-3.6-1.2-.4-1.3-1.5-2.2-2.2-.9-.8-2-2-3.3-1.6-1.1.2.3,1.1-.6,1.2-1.3.7-1.8-1.2-2.8-1.6-.7.4-.7,0-.8-.6-.4-1.8-1.8-3.2-2.8-4.7-1-1.2-1.8-2.7-3.1-3.6-1.4,0-.9-1-1-2-1.4-2.2-3.2-4-4.8-6-1.5-2.3-2.6-4.8-4.4-6.9-1.6-2-3.1-4-4.7-6-1.3-1.2-2.8-2.2-4.2-3.3-.9.2-1.4,1.3-2,2-.5,1.2-2-.1-2.4,1.2-.3.6-.7.9-.9,0-.9-1.9-1.5-3.9-2.6-5.7-.2-.3-.3-.6-.5-.9-.2-.3-.6-1-.7-1.2-.1-.2-.6-1.1-.6-1.3-.5-1.2-.7-1.7-1.1-2.9-.6-1.4-1.3-2.8-2-4.2-.4-1.2-.7-2.4-1.3-3.5-.6-1.7-1-3.5-1.9-5.1-1.1-2.2-1.8-4.7-2.8-7-.8-2.5-2-4.9-3-7.3-1.4-4.5-7.2-20.6-8.6-22.4-1.5-4.5-5.9-14.1-7.8-16.4-1.4.5-1.9-1.2-2.1-2.2-.4-1.1-.7-2.5-2.1-2.6-1-.8-.8-2.5-1.5-3.5-.7-1.3-1.3-2.6-2.1-3.8-.6-1.2-1-2.5-1.3-3.7.5-1,2.2,0,2.7-1.1.2-.5,0-1-.1-1.4-1.3,1.4-2.9.9-3.2-1-.6-1.1-1.8-2.5-1-.4.6.8.9,3.8-.3,1.7-2.6-5.9-4.3-12.2-6.8-18.2-1.3-2.8-3-5.6-3.8-8.6-.6-2.9-2.1-5.4-3.3-8.1-1.7-3.5-2.8-7.3-4.6-10.7,0-1.2-.3-2.5-1.5-.9-.5-2.5-.7-5.1-2.3-7.2-.5-1.2-.6-2.2-1.1-3.4-.8-1.8-1.4-3.9-2.3-5.7-.6-1.2-2.2-1.8-2.2-3.2.3-1.3-.8-2.1-1.1-3.2-.4-1.3-1.4-2.4-1-3.8.2.3.4.7.8.4.4,0,.7.2,1.1.2.6,0,1.2,0,1.8,0,.5,0,.8-.6,1.3-.6.4,0,.7,0,1,.2.3,0,.6,0,1,0,.3-.5.5-.9.9-1.4-.6,0-1.2-.2-1.8,0-.6,0-1.1-.2-1.7-.2-.5.1-.9.5-1.4.3-.6-.2-1.2-.4-1.6-.8-.6-.9-.8-1-1.6-.7-.1.2-.3.3-.3.6-1.9.1-2.2-1.8-2.1-3.4-.5-3.4-1.4-6.7-2-10.1,0-2.7-1.1-5.1-1.5-7.7-.6-2.9-1.1-5.9-1.9-8.8-.1-.5,0-1.1-.1-1.7" sodipodi:nodetypes="cccccccccccccccccccccccccccccccccccccccccccccccccccccccccccccccccccccccccccccccccccccccccccccccccccccccccccccccccccccccccccccccccccccccccccccccccccccccccccccccccccccccccccccccccccccccccccccccccccccccccccccccccccccccccccccccccccccccccccccccccccccccccccccccccccccccccccccccccccccccccccccccccccccccccccccccccccccccccccccccccccccccccccccccccccccccccccccccccccccccccccccccccccccccccccccccccccccccccccccccccccccccccccccc"/>
    <path id="path1824" class="st4" d="M374,645.4c-.4-.8-.9-1.6-1.1-2.4-.1-.7,0-1.5-.3-2.2-.3-.4-.9-.5-1.3-.8-.6-.4-1-.9-1.2-1.6-.2-.5-.4-1-.7-1.5-.5.4-.5,1-.3,1.5.2.4,0,1,.4,1.3.4.4.7.9.6,1.4,0,.6,0,1.2-.1,1.8,0,.6-.7.6-.9,1,.3.3.7.6,1,.9.4.3.8.7,1.3.9.5.1,1.1.2,1.7.2.3-.1.5-.4.7-.6h0Z" sodipodi:nodetypes="cccccccccccccccc"/>
    <path id="path1826" class="st4" d="M351.3,617.2c-.4.9,1.1,1.2,1.3,2,.6,1.3,0,2.8.6,4.2.5,1,1.4,1.8,2.5,2.1.9.3,2.1,1.2,2.8.8,0-.9-.7-1.6-1-2.4-.9-1.6-1.7-3.2-2.6-4.8-.7-1.3-2.3-1.3-3.5-1.9h0Z" sodipodi:nodetypes="cccccccc"/>
    <path id="path1828" class="st4" d="M348.1,608.9c-.2,1,.3,1.9.2,2.8.2.9.5,1.9.5,2.8,0,.8.2,1.9,1.2,1.3.7-.1,1.5-.6,1.4-1.4,0-.9-.3-1.9-.7-2.7-.2-.8-.4-1.8-1.2-2.2-.4-.3-.9-.5-1.2-.7h0Z" sodipodi:nodetypes="ccccccccc"/>
  </g>
</svg>