<svg xmlns="http://www.w3.org/2000/svg" width="805" height="600"><rect width="805" height="600" x="0" y="0" fill="#FFFFFF" id="background"/><g transform="translate(10,10)" id="viz"><g id="links"><path d="M0,279.02067945919583C161.25,279.02067945919583,161.25,34.421698598550435,322.5,34.421698598550435" fill="none" stroke="#ccc"/><path d="M0,279.02067945919583C161.25,279.02067945919583,161.25,141.59978633301128,322.5,141.59978633301128" fill="none" stroke="#ccc"/><path d="M0,279.02067945919583C161.25,279.02067945919583,161.25,315.0621264586166,322.5,315.0621264586166" fill="none" stroke="#ccc"/><path d="M0,279.02067945919583C161.25,279.02067945919583,161.25,441.2803303551994,322.5,441.2803303551994" fill="none" stroke="#ccc"/><path d="M0,279.02067945919583C161.25,279.02067945919583,161.25,523.6196603198413,322.5,523.6196603198413" fill="none" stroke="#ccc"/><path d="M322.5,34.421698598550435C483.75,34.421698598550435,483.75,16.872231647622527,645,16.872231647622527" fill="none" stroke="#ccc"/><path d="M322.5,34.421698598550435C483.75,34.421698598550435,483.75,51.97116554947834,645,51.97116554947834" fill="none" stroke="#ccc"/><path d="M322.5,141.59978633301128C483.75,141.59978633301128,483.75,81.98004435202773,645,81.98004435202773" fill="none" stroke="#ccc"/><path d="M322.5,141.59978633301128C483.75,141.59978633301128,483.75,113.9264945411995,645,113.9264945411995" fill="none" stroke="#ccc"/><path d="M322.5,141.59978633301128C483.75,141.59978633301128,483.75,144.65717257373424,645,144.65717257373424" fill="none" stroke="#ccc"/><path d="M322.5,141.59978633301128C483.75,141.59978633301128,483.75,174.00241513613958,645,174.00241513613958" fill="none" stroke="#ccc"/><path d="M322.5,141.59978633301128C483.75,141.59978633301128,483.75,201.2195283139948,645,201.2195283139948" fill="none" stroke="#ccc"/><path d="M322.5,315.0621264586166C483.75,315.0621264586166,483.75,230.50595909502627,645,230.50595909502627" fill="none" stroke="#ccc"/><path d="M322.5,315.0621264586166C483.75,315.0621264586166,483.75,262.21589685897357,645,262.21589685897357" fill="none" stroke="#ccc"/><path d="M322.5,315.0621264586166C483.75,315.0621264586166,483.75,291.8565170197447,645,291.8565170197447" fill="none" stroke="#ccc"/><path d="M322.5,315.0621264586166C483.75,315.0621264586166,483.75,319.9256733627259,645,319.9256733627259" fill="none" stroke="#ccc"/><path d="M322.5,315.0621264586166C483.75,315.0621264586166,483.75,347.2811684581041,645,347.2811684581041" fill="none" stroke="#ccc"/><path d="M322.5,315.0621264586166C483.75,315.0621264586166,483.75,374.0462037779059,645,374.0462037779059" fill="none" stroke="#ccc"/><path d="M322.5,315.0621264586166C483.75,315.0621264586166,483.75,399.6182938222069,645,399.6182938222069" fill="none" stroke="#ccc"/><path d="M322.5,441.2803303551994C483.75,441.2803303551994,483.75,426.84431117866296,645,426.84431117866296" fill="none" stroke="#ccc"/><path d="M322.5,441.2803303551994C483.75,441.2803303551994,483.75,455.7163495317357,645,455.7163495317357" fill="none" stroke="#ccc"/><path d="M322.5,523.6196603198413C483.75,523.6196603198413,483.75,484.11155228730513,645,484.11155228730513" fill="none" stroke="#ccc"/><path d="M322.5,523.6196603198413C483.75,523.6196603198413,483.75,511.68374454456625,645,511.68374454456625" fill="none" stroke="#ccc"/><path d="M322.5,523.6196603198413C483.75,523.6196603198413,483.75,537.817261697626,645,537.817261697626" fill="none" stroke="#ccc"/><path d="M322.5,523.6196603198413C483.75,523.6196603198413,483.75,563.1277683523775,645,563.1277683523775" fill="none" stroke="#ccc"/></g><g id="nodes"><g transform="translate(0,279.02067945919583)"><circle fill="#ccc" r="5"/><text text-anchor="end" dominant-baseline="text-before-edge" transform="translate(0,0)"><tspan x="-8" y="0" dy="0" style="font-family: Arial, sans-serif; font-size: 10px; fill: black; font-weight: normal;"/></text></g><g id="Science and Environment" transform="translate(322.5,34.421698598550435)"><circle fill="#009de3" r="5"/><text text-anchor="end" dominant-baseline="text-before-edge" transform="translate(0,-5.5)"><tspan x="-8" y="0" dy="0" style="font-family: Arial, sans-serif; font-size: 10px; fill: black; font-weight: normal;">Science and Environment</tspan></text></g><g id="Health, Society and Wellbeing" transform="translate(322.5,141.59978633301128)"><circle fill="#ff5c37" r="5"/><text text-anchor="end" dominant-baseline="text-before-edge" transform="translate(0,-5.55224609375)"><tspan x="-8" y="0" dy="0" style="font-family: Arial, sans-serif; font-size: 10px; fill: black; font-weight: normal;">Health, Society and Wellbeing</tspan></text></g><g id="Industry and Economy" transform="translate(322.5,315.0621264586166)"><circle fill="#ff5c37" r="5"/><text text-anchor="end" dominant-baseline="text-before-edge" transform="translate(0,-5.55224609375)"><tspan x="-8" y="0" dy="0" style="font-family: Arial, sans-serif; font-size: 10px; fill: black; font-weight: normal;">Industry and Economy</tspan></text></g><g id="Education" transform="translate(322.5,441.2803303551994)"><circle fill="#000000" r="5"/><text text-anchor="end" dominant-baseline="text-before-edge" transform="translate(0,-5.5)"><tspan x="-8" y="0" dy="0" style="font-family: Arial, sans-serif; font-size: 10px; fill: black; font-weight: normal;">Education</tspan></text></g><g id="Art and Cultural Memory" transform="translate(322.5,523.6196603198413)"><circle fill="#000000" r="5"/><text text-anchor="end" dominant-baseline="text-before-edge" transform="translate(0,-5.55224609375)"><tspan x="-8" y="0" dy="0" style="font-family: Arial, sans-serif; font-size: 10px; fill: black; font-weight: normal;">Art and Cultural Memory</tspan></text></g><g id="ecology/aquatic/scientific" transform="translate(645,16.872231647622527)"><circle fill="#009de3" r="10"/><text text-anchor="start" dominant-baseline="text-before-edge" transform="translate(0,-11.55224609375)"><tspan x="12" y="0" dy="0" style="font-family: Arial, sans-serif; font-size: 10px; fill: black; font-weight: bold;">136</tspan><tspan x="12" y="0" dy="12" style="font-family: Arial, sans-serif; font-size: 10px; fill: black; font-weight: normal;">ecology/aquatic/scientific</tspan></text></g><g id="waste management" transform="translate(645,51.97116554947834)"><circle fill="#009de3" r="2.2687130324325757"/><text text-anchor="start" dominant-baseline="text-before-edge" transform="translate(0,-11.55224609375)"><tspan x="4.268713032432576" y="0" dy="0" style="font-family: Arial, sans-serif; font-size: 10px; fill: black; font-weight: bold;">7</tspan><tspan x="4.268713032432576" y="0" dy="12" style="font-family: Arial, sans-serif; font-size: 10px; fill: black; font-weight: normal;">waste management</tspan></text></g><g id="health" transform="translate(645,81.98004435202773)"><circle fill="#ff5c37" r="4.696682183138621"/><text text-anchor="start" dominant-baseline="text-before-edge" transform="translate(0,-11.5)"><tspan x="6.696682183138621" y="0" dy="0" style="font-family: Arial, sans-serif; font-size: 10px; fill: black; font-weight: bold;">30</tspan><tspan x="6.696682183138621" y="0" dy="12" style="font-family: Arial, sans-serif; font-size: 10px; fill: black; font-weight: normal;">health</tspan></text></g><g id="socioeconomics" transform="translate(645,113.9264945411995)"><circle fill="#ff5c37" r="4.28746462856272"/><text text-anchor="start" dominant-baseline="text-before-edge" transform="translate(0,-11.5)"><tspan x="6.28746462856272" y="0" dy="0" style="font-family: Arial, sans-serif; font-size: 10px; fill: black; font-weight: bold;">25</tspan><tspan x="6.28746462856272" y="0" dy="12" style="font-family: Arial, sans-serif; font-size: 10px; fill: black; font-weight: normal;">socioeconomics</tspan></text></g><g id="social issues" transform="translate(645,144.65717257373424)"><circle fill="#ff5c37" r="3.4299717028501764"/><text text-anchor="start" dominant-baseline="text-before-edge" transform="translate(0,-11.5)"><tspan x="5.429971702850176" y="0" dy="0" style="font-family: Arial, sans-serif; font-size: 10px; fill: black; font-weight: bold;">16</tspan><tspan x="5.429971702850176" y="0" dy="12" style="font-family: Arial, sans-serif; font-size: 10px; fill: black; font-weight: normal;">social issues</tspan></text></g><g id="history/socioeconomics" transform="translate(645,174.00241513613958)"><circle fill="#ff5c37" r="2.843982294972605"/><text text-anchor="start" dominant-baseline="text-before-edge" transform="translate(0,-11.55224609375)"><tspan x="4.843982294972605" y="0" dy="0" style="font-family: Arial, sans-serif; font-size: 10px; fill: black; font-weight: bold;">11</tspan><tspan x="4.843982294972605" y="0" dy="12" style="font-family: Arial, sans-serif; font-size: 10px; fill: black; font-weight: normal;">history/socioeconomics</tspan></text></g><g id="media impact" transform="translate(645,201.2195283139948)"><circle fill="#ff5c37" r="1.212678125181665"/><text text-anchor="start" dominant-baseline="text-before-edge" transform="translate(0,-11.5)"><tspan x="3.212678125181665" y="0" dy="0" style="font-family: Arial, sans-serif; font-size: 10px; fill: black; font-weight: bold;">2</tspan><tspan x="3.212678125181665" y="0" dy="12" style="font-family: Arial, sans-serif; font-size: 10px; fill: black; font-weight: normal;">media impact</tspan></text></g><g id="business" transform="translate(645,230.50595909502627)"><circle fill="#ff5c37" r="5"/><text text-anchor="start" dominant-baseline="text-before-edge" transform="translate(0,-11.5)"><tspan x="7" y="0" dy="0" style="font-family: Arial, sans-serif; font-size: 10px; fill: black; font-weight: bold;">34</tspan><tspan x="7" y="0" dy="12" style="font-family: Arial, sans-serif; font-size: 10px; fill: black; font-weight: normal;">business</tspan></text></g><g id="business-hr" transform="translate(645,262.21589685897357)"><circle fill="#ff5c37" r="3.73772500798201"/><text text-anchor="start" dominant-baseline="text-before-edge" transform="translate(0,-11.5)"><tspan x="5.73772500798201" y="0" dy="0" style="font-family: Arial, sans-serif; font-size: 10px; fill: black; font-weight: bold;">19</tspan><tspan x="5.73772500798201" y="0" dy="12" style="font-family: Arial, sans-serif; font-size: 10px; fill: black; font-weight: normal;">business-hr</tspan></text></g><g id="socioeconomics" transform="translate(645,291.8565170197447)"><circle fill="#ff5c37" r="2.843982294972605"/><text text-anchor="start" dominant-baseline="text-before-edge" transform="translate(0,-11.5)"><tspan x="4.843982294972605" y="0" dy="0" style="font-family: Arial, sans-serif; font-size: 10px; fill: black; font-weight: bold;">11</tspan><tspan x="4.843982294972605" y="0" dy="12" style="font-family: Arial, sans-serif; font-size: 10px; fill: black; font-weight: normal;">socioeconomics</tspan></text></g><g id="business-cochin port" transform="translate(645,319.9256733627259)"><circle fill="#ff5c37" r="2.1004201260420143"/><text text-anchor="start" dominant-baseline="text-before-edge" transform="translate(0,-11.5)"><tspan x="4.100420126042014" y="0" dy="0" style="font-family: Arial, sans-serif; font-size: 10px; fill: black; font-weight: bold;">6</tspan><tspan x="4.100420126042014" y="0" dy="12" style="font-family: Arial, sans-serif; font-size: 10px; fill: black; font-weight: normal;">business-cochin port</tspan></text></g><g id="history/socioeconomics" transform="translate(645,347.2811684581041)"><circle fill="#ff5c37" r="2.1004201260420143"/><text text-anchor="start" dominant-baseline="text-before-edge" transform="translate(0,-11.55224609375)"><tspan x="4.100420126042014" y="0" dy="0" style="font-family: Arial, sans-serif; font-size: 10px; fill: black; font-weight: bold;">6</tspan><tspan x="4.100420126042014" y="0" dy="12" style="font-family: Arial, sans-serif; font-size: 10px; fill: black; font-weight: normal;">history/socioeconomics</tspan></text></g><g id="business-sez" transform="translate(645,374.0462037779059)"><circle fill="#ff5c37" r="1.4852213144650115"/><text text-anchor="start" dominant-baseline="text-before-edge" transform="translate(0,-11.5)"><tspan x="3.4852213144650115" y="0" dy="0" style="font-family: Arial, sans-serif; font-size: 10px; fill: black; font-weight: bold;">3</tspan><tspan x="3.4852213144650115" y="0" dy="12" style="font-family: Arial, sans-serif; font-size: 10px; fill: black; font-weight: normal;">business-sez</tspan></text></g><g id="media impact" transform="translate(645,399.6182938222069)"><circle fill="#ff5c37" r="0.8574929257125441"/><text text-anchor="start" dominant-baseline="text-before-edge" transform="translate(0,-11.5)"><tspan x="2.857492925712544" y="0" dy="0" style="font-family: Arial, sans-serif; font-size: 10px; fill: black; font-weight: bold;">1</tspan><tspan x="2.857492925712544" y="0" dy="12" style="font-family: Arial, sans-serif; font-size: 10px; fill: black; font-weight: normal;">media impact</tspan></text></g><g id="education and literacy" transform="translate(645,426.84431117866296)"><circle fill="#000000" r="3.208444739598739"/><text text-anchor="start" dominant-baseline="text-before-edge" transform="translate(0,-11.55224609375)"><tspan x="5.20844473959874" y="0" dy="0" style="font-family: Arial, sans-serif; font-size: 10px; fill: black; font-weight: bold;">14</tspan><tspan x="5.20844473959874" y="0" dy="12" style="font-family: Arial, sans-serif; font-size: 10px; fill: black; font-weight: normal;">education and literacy</tspan></text></g><g id="higher education" transform="translate(645,455.7163495317357)"><circle fill="#000000" r="2.5724787771376323"/><text text-anchor="start" dominant-baseline="text-before-edge" transform="translate(0,-11.55224609375)"><tspan x="4.572478777137633" y="0" dy="0" style="font-family: Arial, sans-serif; font-size: 10px; fill: black; font-weight: bold;">9</tspan><tspan x="4.572478777137633" y="0" dy="12" style="font-family: Arial, sans-serif; font-size: 10px; fill: black; font-weight: normal;">higher education</tspan></text></g><g id="history" transform="translate(645,484.11155228730513)"><circle fill="#000000" r="2.711630722733202"/><text text-anchor="start" dominant-baseline="text-before-edge" transform="translate(0,-11.55224609375)"><tspan x="4.711630722733203" y="0" dy="0" style="font-family: Arial, sans-serif; font-size: 10px; fill: black; font-weight: bold;">10</tspan><tspan x="4.711630722733203" y="0" dy="12" style="font-family: Arial, sans-serif; font-size: 10px; fill: black; font-weight: normal;">history</tspan></text></g><g id="art and culture" transform="translate(645,511.68374454456625)"><circle fill="#000000" r="1.7149858514250882"/><text text-anchor="start" dominant-baseline="text-before-edge" transform="translate(0,-11.5)"><tspan x="3.714985851425088" y="0" dy="0" style="font-family: Arial, sans-serif; font-size: 10px; fill: black; font-weight: bold;">4</tspan><tspan x="3.714985851425088" y="0" dy="12" style="font-family: Arial, sans-serif; font-size: 10px; fill: black; font-weight: normal;">art and culture</tspan></text></g><g id="culture" transform="translate(645,537.817261697626)"><circle fill="#000000" r="1.212678125181665"/><text text-anchor="start" dominant-baseline="text-before-edge" transform="translate(0,-11.5)"><tspan x="3.212678125181665" y="0" dy="0" style="font-family: Arial, sans-serif; font-size: 10px; fill: black; font-weight: bold;">2</tspan><tspan x="3.212678125181665" y="0" dy="12" style="font-family: Arial, sans-serif; font-size: 10px; fill: black; font-weight: normal;">culture</tspan></text></g><g id="history/socioeconomics" transform="translate(645,563.1277683523775)"><circle fill="#000000" r="0.8574929257125441"/><text text-anchor="start" dominant-baseline="text-before-edge" transform="translate(0,-11.55224609375)"><tspan x="2.857492925712544" y="0" dy="0" style="font-family: Arial, sans-serif; font-size: 10px; fill: black; font-weight: bold;">1</tspan><tspan x="2.857492925712544" y="0" dy="12" style="font-family: Arial, sans-serif; font-size: 10px; fill: black; font-weight: normal;">history/socioeconomics</tspan></text></g></g></g></svg>